  0
SECTION
  2
HEADER
  9
$ACADVER
  1
AC1015
  9
$ACADMAINTVER
 70
     6
  9
$DWGCODEPAGE
  3
ANSI_1252
  9
$INSBASE
 10
0.0
 20
0.0
 30
0.0
  9
$EXTMIN
 10
-81.94
 20
-100.5456581737
 30
0.0
  9
$EXTMAX
 10
81.94
 20
127.9953679764
 30
0.0
  9
$LIMMIN
 10
0.0
 20
0.0
  9
$LIMMAX
 10
420.0
 20
297.0
  9
$ORTHOMODE
 70
     0
  9
$REGENMODE
 70
     1
  9
$FILLMODE
 70
     1
  9
$QTEXTMODE
 70
     0
  9
$MIRRTEXT
 70
     1
  9
$LTSCALE
 40
1.0
  9
$ATTMODE
 70
     1
  9
$TEXTSIZE
 40
3.5
  9
$TRACEWID
 40
1.0
  9
$TEXTSTYLE
  7
Standard
  9
$CLAYER
  8
0
  9
$CELTYPE
  6
ByLayer
  9
$CECOLOR
 62
   256
  9
$CELTSCALE
 40
1.0
  9
$DISPSILH
 70
     0
  9
$DIMSCALE
 40
1.0
  9
$DIMASZ
 40
3.302
  9
$DIMEXO
 40
0.0
  9
$DIMDLI
 40
3.75
  9
$DIMRND
 40
0.0
  9
$DIMDLE
 40
0.0
  9
$DIMEXE
 40
1.0
  9
$DIMTP
 40
0.0
  9
$DIMTM
 40
0.0
  9
$DIMTXT
 40
3.5
  9
$DIMCEN
 40
2.5
  9
$DIMTSZ
 40
0.0
  9
$DIMTOL
 70
     0
  9
$DIMLIM
 70
     0
  9
$DIMTIH
 70
     1
  9
$DIMTOH
 70
     1
  9
$DIMSE1
 70
     0
  9
$DIMSE2
 70
     0
  9
$DIMTAD
 70
     1
  9
$DIMZIN
 70
     0
  9
$DIMBLK
  1

  9
$DIMASO
 70
     1
  9
$DIMSHO
 70
     1
  9
$DIMPOST
  1

  9
$DIMAPOST
  1

  9
$DIMALT
 70
     0
  9
$DIMALTD
 70
     3
  9
$DIMALTF
 40
0.0393700787
  9
$DIMLFAC
 40
1.0
  9
$DIMTOFL
 70
     1
  9
$DIMTVP
 40
0.0
  9
$DIMTIX
 70
     0
  9
$DIMSOXD
 70
     0
  9
$DIMSAH
 70
     0
  9
$DIMBLK1
  1

  9
$DIMBLK2
  1

  9
$DIMSTYLE
  2
ISO-25
  9
$DIMCLRD
 70
     0
  9
$DIMCLRE
 70
     0
  9
$DIMCLRT
 70
     0
  9
$DIMTFAC
 40
1.0
  9
$DIMGAP
 40
1.524
  9
$DIMJUST
 70
     0
  9
$DIMSD1
 70
     0
  9
$DIMSD2
 70
     0
  9
$DIMTOLJ
 70
     0
  9
$DIMTZIN
 70
     0
  9
$DIMALTZ
 70
     0
  9
$DIMALTTZ
 70
     0
  9
$DIMUPT
 70
     0
  9
$DIMDEC
 70
     2
  9
$DIMTDEC
 70
     2
  9
$DIMALTU
 70
     2
  9
$DIMALTTD
 70
     3
  9
$DIMTXSTY
  7
Standard
  9
$DIMAUNIT
 70
     0
  9
$DIMADEC
 70
     2
  9
$DIMALTRND
 40
0.0
  9
$DIMAZIN
 70
     0
  9
$DIMDSEP
 70
    44
  9
$DIMATFIT
 70
     3
  9
$DIMFRAC
 70
     0
  9
$DIMLDRBLK
  1

  9
$DIMLUNIT
 70
     2
  9
$DIMLWD
 70
    -2
  9
$DIMLWE
 70
    -2
  9
$DIMTMOVE
 70
     0
  9
$LUNITS
 70
     2
  9
$LUPREC
 70
     2
  9
$SKETCHINC
 40
1.0
  9
$FILLETRAD
 40
0.0
  9
$AUNITS
 70
     0
  9
$AUPREC
 70
     2
  9
$MENU
  1
.
  9
$ELEVATION
 40
0.0
  9
$PELEVATION
 40
0.0
  9
$THICKNESS
 40
0.0
  9
$LIMCHECK
 70
     0
  9
$CHAMFERA
 40
0.0
  9
$CHAMFERB
 40
0.0
  9
$CHAMFERC
 40
0.0
  9
$CHAMFERD
 40
0.0
  9
$SKPOLY
 70
     0
  9
$TDCREATE
 40
2460461.345702303
  9
$TDUCREATE
 40
2460461.054035637
  9
$TDUPDATE
 40
2460461.345729838
  9
$TDUUPDATE
 40
2460461.054063171
  9
$TDINDWG
 40
0.0000000116
  9
$TDUSRTIMER
 40
0.0000000116
  9
$USRTIMER
 70
     1
  9
$ANGBASE
 50
0.0
  9
$ANGDIR
 70
     0
  9
$PDMODE
 70
     0
  9
$PDSIZE
 40
-1.0
  9
$PLINEWID
 40
0.0
  9
$SPLFRAME
 70
     0
  9
$SPLINETYPE
 70
     6
  9
$SPLINESEGS
 70
     8
  9
$HANDSEED
  5
215
  9
$SURFTAB1
 70
     6
  9
$SURFTAB2
 70
     6
  9
$SURFTYPE
 70
     6
  9
$SURFU
 70
     6
  9
$SURFV
 70
     6
  9
$UCSBASE
  2

  9
$UCSNAME
  2

  9
$UCSORG
 10
0.0
 20
0.0
 30
0.0
  9
$UCSXDIR
 10
1.0
 20
0.0
 30
0.0
  9
$UCSYDIR
 10
0.0
 20
1.0
 30
0.0
  9
$UCSORTHOREF
  2

  9
$UCSORTHOVIEW
 70
     0
  9
$UCSORGTOP
 10
0.0
 20
0.0
 30
0.0
  9
$UCSORGBOTTOM
 10
0.0
 20
0.0
 30
0.0
  9
$UCSORGLEFT
 10
0.0
 20
0.0
 30
0.0
  9
$UCSORGRIGHT
 10
0.0
 20
0.0
 30
0.0
  9
$UCSORGFRONT
 10
0.0
 20
0.0
 30
0.0
  9
$UCSORGBACK
 10
0.0
 20
0.0
 30
0.0
  9
$PUCSBASE
  2

  9
$PUCSNAME
  2

  9
$PUCSORG
 10
0.0
 20
0.0
 30
0.0
  9
$PUCSXDIR
 10
1.0
 20
0.0
 30
0.0
  9
$PUCSYDIR
 10
0.0
 20
1.0
 30
0.0
  9
$PUCSORTHOREF
  2

  9
$PUCSORTHOVIEW
 70
     0
  9
$PUCSORGTOP
 10
0.0
 20
0.0
 30
0.0
  9
$PUCSORGBOTTOM
 10
0.0
 20
0.0
 30
0.0
  9
$PUCSORGLEFT
 10
0.0
 20
0.0
 30
0.0
  9
$PUCSORGRIGHT
 10
0.0
 20
0.0
 30
0.0
  9
$PUCSORGFRONT
 10
0.0
 20
0.0
 30
0.0
  9
$PUCSORGBACK
 10
0.0
 20
0.0
 30
0.0
  9
$USERI1
 70
     0
  9
$USERI2
 70
     0
  9
$USERI3
 70
     0
  9
$USERI4
 70
     0
  9
$USERI5
 70
     0
  9
$USERR1
 40
0.0
  9
$USERR2
 40
0.0
  9
$USERR3
 40
0.0
  9
$USERR4
 40
0.0
  9
$USERR5
 40
0.0
  9
$WORLDVIEW
 70
     1
  9
$SHADEDGE
 70
     3
  9
$SHADEDIF
 70
    70
  9
$TILEMODE
 70
     1
  9
$MAXACTVP
 70
    64
  9
$PINSBASE
 10
0.0
 20
0.0
 30
0.0
  9
$PLIMCHECK
 70
     0
  9
$PEXTMIN
 10
1.0000000000E+20
 20
1.0000000000E+20
 30
1.0000000000E+20
  9
$PEXTMAX
 10
-1.0000000000E+20
 20
-1.0000000000E+20
 30
-1.0000000000E+20
  9
$PLIMMIN
 10
0.0
 20
0.0
  9
$PLIMMAX
 10
420.0
 20
297.0
  9
$UNITMODE
 70
     0
  9
$VISRETAIN
 70
     1
  9
$PLINEGEN
 70
     0
  9
$PSLTSCALE
 70
     1
  9
$TREEDEPTH
 70
  3020
  9
$CMLSTYLE
  2
Standard
  9
$CMLJUST
 70
     0
  9
$CMLSCALE
 40
20.0
  9
$PROXYGRAPHICS
 70
     1
  9
$MEASUREMENT
 70
     1
  9
$CELWEIGHT
370
    -1
  9
$ENDCAPS
280
     0
  9
$JOINSTYLE
280
     0
  9
$LWDISPLAY
290
     1
  9
$INSUNITS
 70
     4
  9
$HYPERLINKBASE
  1

  9
$STYLESHEET
  1

  9
$XEDIT
290
     1
  9
$CEPSNTYPE
380
     0
  9
$PSTYLEMODE
290
     1
  9
$FINGERPRINTGUID
  2
{e7e18c9e-1565-4e12-a3bf-4c77a45ab1f5}
  9
$VERSIONGUID
  2
{FAEB1C32-E019-11D5-929B-00C0DF256EC4}
  9
$EXTNAMES
290
     1
  9
$PSVPSCALE
 40
0.0
  9
$OLESTARTUP
290
     0
  0
ENDSEC
  0
SECTION
  2
CLASSES
  0
CLASS
  1
ACDBDICTIONARYWDFLT
  2
AcDbDictionaryWithDefault
  3
ObjectDBX Classes
 90
        0
280
     0
281
     0
  0
CLASS
  1
VISUALSTYLE
  2
AcDbVisualStyle
  3
ObjectDBX Classes
 90
     4095
280
     0
281
     0
  0
CLASS
  1
MATERIAL
  2
AcDbMaterial
  3
ObjectDBX Classes
 90
     1153
280
     0
281
     0
  0
CLASS
  1
SCALE
  2
AcDbScale
  3
ObjectDBX Classes
 90
     1153
280
     0
281
     0
  0
CLASS
  1
TABLESTYLE
  2
AcDbTableStyle
  3
ObjectDBX Classes
 90
     4095
280
     0
281
     0
  0
CLASS
  1
MLEADERSTYLE
  2
AcDbMLeaderStyle
  3
ACDB_MLEADERSTYLE_CLASS
 90
     4095
280
     0
281
     0
  0
CLASS
  1
SUN
  2
AcDbSun
  3
SCENEOE
 90
     1153
280
     0
281
     0
  0
CLASS
  1
ACDBPLACEHOLDER
  2
AcDbPlaceHolder
  3
ObjectDBX Classes
 90
        0
280
     0
281
     0
  0
CLASS
  1
LAYOUT
  2
AcDbLayout
  3
ObjectDBX Classes
 90
        0
280
     0
281
     0
  0
ENDSEC
  0
SECTION
  2
TABLES
  0
TABLE
  2
VPORT
  5
8
330
0
100
AcDbSymbolTable
 70
     1
  0
VPORT
  5
29
330
8
100
AcDbSymbolTableRecord
100
AcDbViewportTableRecord
  2
*Active
 70
     0
 10
0.0
 20
0.0
 11
1.0
 21
1.0
 12
0.0
 22
13.7248549013
 13
0.0
 23
0.0
 14
10.0
 24
10.0
 15
10.0
 25
10.0
 16
0.0
 26
0.0
 36
1.0
 17
0.0
 27
0.0
 37
0.0
 40
233.1118466731
 41
0.717070378
 42
50.0
 43
0.0
 44
0.0
 50
0.0
 51
0.0
 71
     0
 72
   100
 73
     1
 74
     3
 75
     0
 76
     0
 77
     0
 78
     0
281
     0
 65
     1
110
0.0
120
0.0
130
0.0
111
1.0
121
0.0
131
0.0
112
0.0
122
1.0
132
0.0
 79
     0
146
0.0
  0
ENDTAB
  0
TABLE
  2
LTYPE
  5
5
330
0
100
AcDbSymbolTable
 70
     6
  0
LTYPE
  5
14
330
5
100
AcDbSymbolTableRecord
100
AcDbLinetypeTableRecord
  2
ByBlock
 70
     0
  3

 72
    65
 73
     0
 40
0.0
  0
LTYPE
  5
15
330
5
100
AcDbSymbolTableRecord
100
AcDbLinetypeTableRecord
  2
ByLayer
 70
     0
  3

 72
    65
 73
     0
 40
0.0
  0
LTYPE
  5
16
330
5
100
AcDbSymbolTableRecord
100
AcDbLinetypeTableRecord
  2
Continuous
 70
     0
  3
Solid line
 72
    65
 73
     0
 40
0.0
  0
LTYPE
  5
5E
330
5
100
AcDbSymbolTableRecord
100
AcDbLinetypeTableRecord
  2
HIDDEN
 70
     0
  3
Hidden __ __ __ __ __ __ __ __ __ __ __ __ __ __
 72
    65
 73
     2
 40
1.905
 49
1.27
 74
     0
 49
-0.635
 74
     0
  0
LTYPE
  5
5F
330
5
100
AcDbSymbolTableRecord
100
AcDbLinetypeTableRecord
  2
PHANTOM
 70
     0
  3
Phantom ______  __  __  ______  __  __  ______
 72
    65
 73
     6
 40
12.7
 49
6.35
 74
     0
 49
-1.27
 74
     0
 49
1.27
 74
     0
 49
-1.27
 74
     0
 49
1.27
 74
     0
 49
-1.27
 74
     0
  0
LTYPE
  5
60
330
5
100
AcDbSymbolTableRecord
100
AcDbLinetypeTableRecord
  2
CENTER
 70
     0
  3
Center ____ _ ____ _ ____ _ ____ _ ____ _ ____
 72
    65
 73
     4
 40
10.16
 49
6.35
 74
     0
 49
-1.27
 74
     0
 49
1.27
 74
     0
 49
-1.27
 74
     0
  0
LTYPE
  5
61
330
5
100
AcDbSymbolTableRecord
100
AcDbLinetypeTableRecord
  2
CENTERX2
 70
     0
  3
Center (2x) ________  __  ________  __  _____
 72
    65
 73
     4
 40
20.32
 49
12.7
 74
     0
 49
-2.54
 74
     0
 49
2.54
 74
     0
 49
-2.54
 74
     0
  0
LTYPE
  5
62
330
5
100
AcDbSymbolTableRecord
100
AcDbLinetypeTableRecord
  2
DOT2
 70
     0
  3
Dot (.5x) ........................................
 72
    65
 73
     2
 40
0.635
 49
0.0
 74
     0
 49
-0.635
 74
     0
  0
ENDTAB
  0
TABLE
  2
LAYER
  5
2
330
0
100
AcDbSymbolTable
 70
     1
  0
LAYER
  5
10
330
2
100
AcDbSymbolTableRecord
100
AcDbLayerTableRecord
  2
0
 70
     0
 62
     7
  6
Continuous
370
    -3
390
F
  0
ENDTAB
  0
TABLE
  2
STYLE
  5
3
330
0
100
AcDbSymbolTable
 70
     1
  0
STYLE
  5
11
330
3
100
AcDbSymbolTableRecord
100
AcDbTextStyleTableRecord
  2
Standard
 70
     0
 40
0.0
 41
1.0
 50
0.0
 71
     0
 42
3.5
  3
txt
  4

  0
ENDTAB
  0
TABLE
  2
VIEW
  5
6
330
0
100
AcDbSymbolTable
 70
     0
  0
ENDTAB
  0
TABLE
  2
UCS
  5
7
330
0
100
AcDbSymbolTable
 70
     0
  0
ENDTAB
  0
TABLE
  2
APPID
  5
9
330
0
100
AcDbSymbolTable
 70
     1
  0
APPID
  5
12
330
9
100
AcDbSymbolTableRecord
100
AcDbRegAppTableRecord
  2
ACAD
 70
     0
  0
ENDTAB
  0
TABLE
  2
DIMSTYLE
  5
A
330
0
100
AcDbSymbolTable
 70
     1
100
AcDbDimStyleTable
  0
DIMSTYLE
105
27
330
A
100
AcDbSymbolTableRecord
100
AcDbDimStyleTableRecord
  2
ISO-25
 70
     0
 41
2.5
 42
0.625
 43
3.75
 44
1.25
 73
     0
 74
     0
 77
     1
 78
     8
140
2.5
141
2.5
143
0.0393700787
147
0.625
171
     3
172
     1
178
     0
271
     2
272
     2
274
     3
278
    44
283
     0
284
     8
340
11
  0
ENDTAB
  0
TABLE
  2
BLOCK_RECORD
  5
1
330
0
100
AcDbSymbolTable
 70
     1
  0
BLOCK_RECORD
  5
1F
330
1
100
AcDbSymbolTableRecord
100
AcDbBlockTableRecord
  2
*Model_Space
340
22
  0
BLOCK_RECORD
  5
1B
330
1
100
AcDbSymbolTableRecord
100
AcDbBlockTableRecord
  2
*Paper_Space
340
1E
  0
BLOCK_RECORD
  5
23
330
1
100
AcDbSymbolTableRecord
100
AcDbBlockTableRecord
  2
*Paper_Space0
340
26
  0
ENDTAB
  0
ENDSEC
  0
SECTION
  2
BLOCKS
  0
BLOCK
  5
20
330
1F
100
AcDbEntity
  8
0
100
AcDbBlockBegin
  2
*Model_Space
 70
     0
 10
0.0
 20
0.0
 30
0.0
  3
*Model_Space
  1

  0
ENDBLK
  5
21
330
1F
100
AcDbEntity
  8
0
100
AcDbBlockEnd
  0
BLOCK
  5
1C
330
1B
100
AcDbEntity
 67
     1
  8
0
100
AcDbBlockBegin
  2
*Paper_Space
 70
     0
 10
0.0
 20
0.0
 30
0.0
  3
*Paper_Space
  1

  0
ENDBLK
  5
1D
330
1B
100
AcDbEntity
 67
     1
  8
0
100
AcDbBlockEnd
  0
BLOCK
  5
24
330
23
100
AcDbEntity
  8
0
100
AcDbBlockBegin
  2
*Paper_Space0
 70
     0
 10
0.0
 20
0.0
 30
0.0
  3
*Paper_Space0
  1

  0
ENDBLK
  5
25
330
23
100
AcDbEntity
  8
0
100
AcDbBlockEnd
  0
ENDSEC
  0
SECTION
  2
ENTITIES
  0
SPLINE
  5
80
330
1F
100
AcDbEntity
  8
0
  6
Continuous
 62
     7
370
    25
100
AcDbSpline
210
0.0
220
0.0
230
1.0
 70
     8
 71
     3
 72
    23
 73
    19
 74
     0
 42
0.00000001
 43
0.00000001
 40
0.0
 40
0.0
 40
0.0
 40
0.0
 40
0.0703516867863861
 40
0.1385180140095222
 40
0.20462619931991
 40
0.2695268107504122
 40
0.3335359539177247
 40
0.3973620750244669
 40
0.4613222842030649
 40
0.5261799395003763
 40
0.5900157631650872
 40
0.6511664601847394
 40
0.7102656181165977
 40
0.7679249494335546
 40
0.8249705629918174
 40
0.8821914230534125
 40
0.9403693646444361
 40
1.0
 40
1.0
 40
1.0
 40
1.0
 10
-8.335733493704634
 20
-57.98860025685135
 30
0.0
 10
-8.33941810690794
 20
-58.17820550709649
 30
0.0
 10
-8.346672876859158
 20
-58.55152623200649
 30
0.0
 10
-8.415499269241257
 20
-59.09935029818062
 30
0.0
 10
-8.519698386168907
 20
-59.62619681336656
 30
0.0
 10
-8.670412932264892
 20
-60.13044054018066
 30
0.0
 10
-8.867031412825304
 20
-60.61176062346539
 30
0.0
 10
-9.104641460683538
 20
-61.07143443628295
 30
0.0
 10
-9.386809269896979
 20
-61.50783741706164
 30
0.0
 10
-9.7055596864109
 20
-61.91837823557929
 30
0.0
 10
-10.05753813769376
 20
-62.29036823883644
 30
0.0
 10
-10.42879326056308
 20
-62.62041532620623
 30
0.0
 10
-10.82135263666736
 20
-62.89702379587447
 30
0.0
 10
-11.23037775368126
 20
-63.12677508577897
 30
0.0
 10
-11.65961017102473
 20
-63.30395621742055
 30
0.0
 10
-12.1078973024263
 20
-63.42918425713234
 30
0.0
 10
-12.57467929928989
 20
-63.50509782838859
 30
0.0
 10
-12.89216429151251
 20
-63.51488143798819
 30
0.0
 10
-13.052864236226
 20
-63.51983356347528
 30
0.0
  0
SPLINE
  5
81
330
1F
100
AcDbEntity
  8
0
  6
Continuous
 62
     7
370
    25
100
AcDbSpline
210
0.0
220
0.0
230
1.0
 70
     8
 71
     3
 72
    23
 73
    19
 74
     0
 42
0.00000001
 43
0.00000001
 40
0.0
 40
0.0
 40
0.0
 40
0.0
 40
0.058735288897578
 40
0.1158178128344319
 40
0.1724995473136822
 40
0.2292866805661369
 40
0.2867110190785136
 40
0.3459531625167867
 40
0.4072600807669704
 40
0.4716215346420423
 40
0.5368033804908583
 40
0.6013014130667248
 40
0.6653092648057986
 40
0.7294973370942622
 40
0.7944896951210422
 40
0.8610533138028764
 40
0.9293089275816885
 40
1.0
 40
1.0
 40
1.0
 40
1.0
 10
-13.0655845887901
 20
-52.39376518740691
 30
0.0
 10
-12.90625933203521
 20
-52.39846584020086
 30
0.0
 10
-12.59209210628421
 20
-52.40773487310607
 30
0.0
 10
-12.12974436237996
 20
-52.48720463701442
 30
0.0
 10
-11.68434017017406
 20
-52.61424001338798
 30
0.0
 10
-11.25573325909319
 20
-52.79325462443543
 30
0.0
 10
-10.84578849980414
 20
-53.02550558801536
 30
0.0
 10
-10.45210210141765
 20
-53.30606670171537
 30
0.0
 10
-10.07789434537483
 20
-53.64087217180457
 30
0.0
 10
-9.723228821074997
 20
-54.01845431997278
 30
0.0
 10
-9.398913254909125
 20
-54.43353461125826
 30
0.0
 10
-9.11345450876396
 20
-54.8751977974663
 30
0.0
 10
-8.873646626307263
 20
-55.34006297888927
 30
0.0
 10
-8.673831225747199
 20
-55.825093908284
 30
0.0
 10
-8.525135220483929
 20
-56.33535662550975
 30
0.0
 10
-8.414235939975653
 20
-56.86601570642114
 30
0.0
 10
-8.346954158932597
 20
-57.42010724438327
 30
0.0
 10
-8.339517167330275
 20
-57.79690110408847
 30
0.0
 10
-8.335733493704634
 20
-57.98860025685135
 30
0.0
  0
SPLINE
  5
82
330
1F
100
AcDbEntity
  8
0
  6
Continuous
 62
     7
370
    25
100
AcDbSpline
210
0.0
220
0.0
230
1.0
 70
     8
 71
     3
 72
    31
 73
    27
 74
     0
 42
0.00000001
 43
0.00000001
 40
0.0
 40
0.0
 40
0.0
 40
0.0
 40
0.0461727971696176
 40
0.0916915325627412
 40
0.1364244744362041
 40
0.1805575426434522
 40
0.2244496051410029
 40
0.2679909330161709
 40
0.3116686896542354
 40
0.3553051728959308
 40
0.398698675934839
 40
0.441099122780265
 40
0.4828409681705876
 40
0.5240128623010953
 40
0.5647956409247601
 40
0.605743975606761
 40
0.6463094317612217
 40
0.6872021013079017
 40
0.7278613157097092
 40
0.7676354348213976
 40
0.8067406280173857
 40
0.8454183527854511
 40
0.8838173091854697
 40
0.9222773083267756
 40
0.9608643899593247
 40
1.0
 40
1.0
 40
1.0
 40
1.0
 10
-17.83359674156788
 20
-57.95255925791973
 30
0.0
 10
-17.83144809627013
 20
-57.82741456391188
 30
0.0
 10
-17.82718124235697
 20
-57.57889791581883
 30
0.0
 10
-17.79645727314721
 20
-57.21021683413158
 30
0.0
 10
-17.74883854104239
 20
-56.84895262831679
 30
0.0
 10
-17.6777903171007
 20
-56.49600356925244
 30
0.0
 10
-17.58913156973164
 20
-56.1504801718964
 30
0.0
 10
-17.48087350722059
 20
-55.81180686739273
 30
0.0
 10
-17.35139938008444
 20
-55.48138318237194
 30
0.0
 10
-17.20259770259057
 20
-55.15977876647671
 30
0.0
 10
-17.03973970544719
 20
-54.84877656465179
 30
0.0
 10
-16.85511819251877
 20
-54.55628940012011
 30
0.0
 10
-16.66107191487701
 20
-54.27737894811181
 30
0.0
 10
-16.4505459735548
 20
-54.0161195366492
 30
0.0
 10
-16.22470076721588
 20
-53.77099014999992
 30
0.0
 10
-15.98402693843145
 20
-53.54271391999465
 30
0.0
 10
-15.72761720812786
 20
-53.33183362602475
 30
0.0
 10
-15.45945522851703
 20
-53.13761544514939
 30
0.0
 10
-15.18160119852345
 20
-52.96111507758369
 30
0.0
 10
-14.89381780542522
 20
-52.81183729742069
 30
0.0
 10
-14.60346486085206
 20
-52.67989216392452
 30
0.0
 10
-14.30526888765928
 20
-52.57786138709842
 30
0.0
 10
-14.00364230099624
 20
-52.49255183106291
 30
0.0
 10
-13.69532530233051
 20
-52.4377058771911
 30
0.0
 10
-13.38248315804876
 20
-52.39848788938225
 30
0.0
 10
-13.17171328180601
 20
-52.39534681079294
 30
0.0
 10
-13.0655845887901
 20
-52.39376518740691
 30
0.0
  0
SPLINE
  5
83
330
1F
100
AcDbEntity
  8
0
  6
Continuous
 62
     7
370
    25
100
AcDbSpline
210
0.0
220
0.0
230
1.0
 70
     8
 71
     3
 72
    23
 73
    19
 74
     0
 42
0.00000001
 43
0.00000001
 40
0.0
 40
0.0
 40
0.0
 40
0.0
 40
0.0618824434770579
 40
0.1216078058084241
 40
0.1800728158670995
 40
0.2382812065480948
 40
0.2965197102112802
 40
0.3560494235751275
 40
0.4174680922033418
 40
0.4814359715146584
 40
0.5461485141005885
 40
0.6099818434580118
 40
0.6733906707294265
 40
0.7365608297035132
 40
0.8005587462038688
 40
0.865237413195903
 40
0.9316547044345325
 40
1.0
 40
1.0
 40
1.0
 40
1.0
 10
-13.052864236226
 20
-63.51983356347528
 30
0.0
 10
-13.22140961742068
 20
-63.51543220217318
 30
0.0
 10
-13.55262527140223
 20
-63.50678290100726
 30
0.0
 10
-14.03700460491445
 20
-63.42400137980849
 30
0.0
 10
-14.50154598176058
 20
-63.29924158953357
 30
0.0
 10
-14.94141006764155
 20
-63.11396165580409
 30
0.0
 10
-15.36134503646556
 20
-62.88176179864165
 30
0.0
 10
-15.75698686175113
 20
-62.59474401236506
 30
0.0
 10
-16.13146930728979
 20
-62.25738858888086
 30
0.0
 10
-16.48032023980857
 20
-61.87417713846696
 30
0.0
 10
-16.79464599057859
 20
-61.4543114637548
 30
0.0
 10
-17.07533531498064
 20
-61.01293414119277
 30
0.0
 10
-17.30798130677955
 20
-60.54897556255995
 30
0.0
 10
-17.4999646456185
 20
-60.06659932407815
 30
0.0
 10
-17.65126539492315
 20
-59.56611185074129
 30
0.0
 10
-17.756478288195
 20
-59.04511650263905
 30
0.0
 10
-17.82187131092697
 20
-58.5054500310889
 30
0.0
 10
-17.8296511634178
 20
-58.13860562336265
 30
0.0
 10
-17.83359674156788
 20
-57.95255925791972
 30
0.0
  0
SPLINE
  5
84
330
1F
100
AcDbEntity
  8
0
  6
Continuous
 62
     7
370
    25
100
AcDbSpline
210
0.0
220
0.0
230
1.0
 70
     8
 71
     3
 72
    23
 73
    19
 74
     0
 42
0.00000001
 43
0.00000001
 40
0.0
 40
0.0
 40
0.0
 40
0.0
 40
0.0703516867863861
 40
0.1385180140095223
 40
0.20462619931991
 40
0.2695268107504121
 40
0.3335359539177246
 40
0.397362075024467
 40
0.461322284203065
 40
0.5261799395003768
 40
0.5900157631650872
 40
0.6511664601847394
 40
0.7102656181165984
 40
0.7679249494335545
 40
0.8249705629918173
 40
0.8821914230534129
 40
0.9403693646444361
 40
1.0
 40
1.0
 40
1.0
 40
1.0
 10
21.2433263353552
 20
-57.98860025685135
 30
0.0
 10
21.23964172215189
 20
-58.17820550709649
 30
0.0
 10
21.23238695220067
 20
-58.55152623200649
 30
0.0
 10
21.16356055981857
 20
-59.09935029818062
 30
0.0
 10
21.05936144289093
 20
-59.62619681336659
 30
0.0
 10
20.90864689679495
 20
-60.13044054018066
 30
0.0
 10
20.71202841623453
 20
-60.61176062346541
 30
0.0
 10
20.47441836837628
 20
-61.07143443628295
 30
0.0
 10
20.19225055916286
 20
-61.50783741706164
 30
0.0
 10
19.87350014264891
 20
-61.91837823557928
 30
0.0
 10
19.52152169136608
 20
-62.29036823883646
 30
0.0
 10
19.15026656849675
 20
-62.6204153262062
 30
0.0
 10
18.75770719239248
 20
-62.89702379587449
 30
0.0
 10
18.34868207537857
 20
-63.12677508577898
 30
0.0
 10
17.91944965803509
 20
-63.30395621742056
 30
0.0
 10
17.47116252663354
 20
-63.4291842571323
 30
0.0
 10
17.00438052976994
 20
-63.50509782838861
 30
0.0
 10
16.68689553754731
 20
-63.51488143798818
 30
0.0
 10
16.52619559283383
 20
-63.51983356347528
 30
0.0
  0
SPLINE
  5
85
330
1F
100
AcDbEntity
  8
0
  6
Continuous
 62
     7
370
    25
100
AcDbSpline
210
0.0
220
0.0
230
1.0
 70
     8
 71
     3
 72
    23
 73
    19
 74
     0
 42
0.00000001
 43
0.00000001
 40
0.0
 40
0.0
 40
0.0
 40
0.0
 40
0.0587352888975779
 40
0.1158178128344315
 40
0.1724995473136822
 40
0.2292866805661369
 40
0.2867110190785139
 40
0.345953162516787
 40
0.4072600807669707
 40
0.4716215346420423
 40
0.5368033804908583
 40
0.6013014130667247
 40
0.6653092648057986
 40
0.7294973370942621
 40
0.7944896951210421
 40
0.8610533138028763
 40
0.9293089275816884
 40
1.0
 40
1.0
 40
1.0
 40
1.0
 10
16.51347524026973
 20
-52.39376518740691
 30
0.0
 10
16.67280049702461
 20
-52.39846584020086
 30
0.0
 10
16.98696772277561
 20
-52.4077348731061
 30
0.0
 10
17.44931546667986
 20
-52.48720463701444
 30
0.0
 10
17.89471965888577
 20
-52.61424001338796
 30
0.0
 10
18.32332656996664
 20
-52.79325462443543
 30
0.0
 10
18.73327132925569
 20
-53.02550558801536
 30
0.0
 10
19.12695772764219
 20
-53.30606670171537
 30
0.0
 10
19.50116548368501
 20
-53.64087217180459
 30
0.0
 10
19.85583100798484
 20
-54.01845431997279
 30
0.0
 10
20.1801465741507
 20
-54.43353461125826
 30
0.0
 10
20.46560532029587
 20
-54.8751977974663
 30
0.0
 10
20.70541320275256
 20
-55.34006297888927
 30
0.0
 10
20.90522860331263
 20
-55.825093908284
 30
0.0
 10
21.0539246085759
 20
-56.33535662550975
 30
0.0
 10
21.16482388908418
 20
-56.86601570642114
 30
0.0
 10
21.23210567012723
 20
-57.42010724438329
 30
0.0
 10
21.23954266172956
 20
-57.79690110408847
 30
0.0
 10
21.2433263353552
 20
-57.98860025685135
 30
0.0
  0
SPLINE
  5
86
330
1F
100
AcDbEntity
  8
0
  6
Continuous
 62
     7
370
    25
100
AcDbSpline
210
0.0
220
0.0
230
1.0
 70
     8
 71
     3
 72
    31
 73
    27
 74
     0
 42
0.00000001
 43
0.00000001
 40
0.0
 40
0.0
 40
0.0
 40
0.0
 40
0.0461727971696176
 40
0.0916915325627412
 40
0.1364244744362041
 40
0.1805575426434521
 40
0.2244496051410029
 40
0.2679909330161708
 40
0.3116686896542357
 40
0.3553051728959308
 40
0.398698675934839
 40
0.441099122780265
 40
0.4828409681705874
 40
0.5240128623010955
 40
0.5647956409247604
 40
0.6057439756067613
 40
0.6463094317612216
 40
0.6872021013079019
 40
0.7278613157097091
 40
0.7676354348213975
 40
0.8067406280173856
 40
0.845418352785451
 40
0.8838173091854701
 40
0.922277308326776
 40
0.9608643899593247
 40
1.0
 40
1.0
 40
1.0
 40
1.0
 10
11.74546308749195
 20
-57.95255925791973
 30
0.0
 10
11.7476117327897
 20
-57.82741456391188
 30
0.0
 10
11.75187858670287
 20
-57.57889791581883
 30
0.0
 10
11.78260255591261
 20
-57.21021683413158
 30
0.0
 10
11.83022128801744
 20
-56.84895262831679
 30
0.0
 10
11.90126951195913
 20
-56.49600356925244
 30
0.0
 10
11.98992825932819
 20
-56.15048017189642
 30
0.0
 10
12.09818632183924
 20
-55.81180686739273
 30
0.0
 10
12.22766044897539
 20
-55.48138318237194
 30
0.0
 10
12.37646212646926
 20
-55.15977876647671
 30
0.0
 10
12.53932012361265
 20
-54.84877656465179
 30
0.0
 10
12.72394163654106
 20
-54.55628940012009
 30
0.0
 10
12.91798791418282
 20
-54.27737894811182
 30
0.0
 10
13.12851385550503
 20
-54.01611953664919
 30
0.0
 10
13.35435906184396
 20
-53.77099014999992
 30
0.0
 10
13.59503289062839
 20
-53.54271391999464
 30
0.0
 10
13.85144262093197
 20
-53.33183362602475
 30
0.0
 10
14.11960460054281
 20
-53.13761544514939
 30
0.0
 10
14.39745863053638
 20
-52.96111507758369
 30
0.0
 10
14.68524202363461
 20
-52.81183729742069
 30
0.0
 10
14.97559496820777
 20
-52.67989216392452
 30
0.0
 10
15.27379094140055
 20
-52.57786138709844
 30
0.0
 10
15.57541752806358
 20
-52.49255183106288
 30
0.0
 10
15.88373452672932
 20
-52.4377058771911
 30
0.0
 10
16.19657667101108
 20
-52.39848788938225
 30
0.0
 10
16.40734654725382
 20
-52.39534681079294
 30
0.0
 10
16.51347524026973
 20
-52.39376518740691
 30
0.0
  0
SPLINE
  5
87
330
1F
100
AcDbEntity
  8
0
  6
Continuous
 62
     7
370
    25
100
AcDbSpline
210
0.0
220
0.0
230
1.0
 70
     8
 71
     3
 72
    23
 73
    19
 74
     0
 42
0.00000001
 43
0.00000001
 40
0.0
 40
0.0
 40
0.0
 40
0.0
 40
0.0618824434770583
 40
0.1216078058084245
 40
0.1800728158670999
 40
0.2382812065480952
 40
0.2965197102112805
 40
0.3560494235751279
 40
0.4174680922033421
 40
0.4814359715146584
 40
0.5461485141005885
 40
0.609981843458012
 40
0.6733906707294268
 40
0.7365608297035131
 40
0.8005587462038688
 40
0.865237413195903
 40
0.9316547044345325
 40
1.0
 40
1.0
 40
1.0
 40
1.0
 10
16.52619559283383
 20
-63.51983356347528
 30
0.0
 10
16.35765021163915
 20
-63.51543220217318
 30
0.0
 10
16.0264345576576
 20
-63.50678290100724
 30
0.0
 10
15.54205522414538
 20
-63.42400137980851
 30
0.0
 10
15.07751384729924
 20
-63.29924158953357
 30
0.0
 10
14.63764976141828
 20
-63.11396165580409
 30
0.0
 10
14.21771479259426
 20
-62.88176179864166
 30
0.0
 10
13.8220729673087
 20
-62.59474401236506
 30
0.0
 10
13.44759052177004
 20
-62.25738858888086
 30
0.0
 10
13.09873958925127
 20
-61.87417713846698
 30
0.0
 10
12.78441383848124
 20
-61.4543114637548
 30
0.0
 10
12.50372451407918
 20
-61.01293414119277
 30
0.0
 10
12.27107852228027
 20
-60.54897556255995
 30
0.0
 10
12.07909518344133
 20
-60.06659932407814
 30
0.0
 10
11.92779443413668
 20
-59.56611185074129
 30
0.0
 10
11.82258154086483
 20
-59.04511650263903
 30
0.0
 10
11.75718851813286
 20
-58.50545003108893
 30
0.0
 10
11.74940866564203
 20
-58.13860562336266
 30
0.0
 10
11.74546308749195
 20
-57.95255925791972
 30
0.0
  0
LWPOLYLINE
  5
AB
330
1F
100
AcDbEntity
  8
0
  6
Continuous
 62
     7
370
    25
100
AcDbPolyline
 90
       61
 70
   128
 43
0.0
 10
74.9602592935
 20
94.1392332819
 10
74.7400190427
 20
95.9116991001
 10
74.3274560328
 20
97.6766724663
 10
73.7236318803
 20
99.4296117098
 10
72.9301003598
 20
101.1660061267
 10
71.9489034051
 20
102.8813875862
 10
70.7825658549
 20
104.5713420289
 10
69.4340889564
 20
106.2315208245
 10
67.9069426416
 20
107.8576519623
 10
66.2050565991
 20
109.4455510437
 10
64.3328101617
 20
110.9911320499
 10
62.2950210376
 20
112.4904178556
 10
60.0969329133
 20
113.9395504639
 10
57.7442019603
 20
115.3348009327
 10
55.2428822808
 20
116.6725789712
 10
52.5994103288
 20
117.9494421777
 10
49.8205883482
 20
119.1621048979
 10
46.9135668682
 20
120.30744668
 10
43.8858263045
 20
121.3825203038
 10
40.7451577095
 20
122.3845593647
 10
37.4996427249
 20
123.3109853925
 10
34.1576327855
 20
124.1594144862
 10
30.7277276292
 20
124.9276634481
 10
27.2187531679
 20
125.6137554022
 10
23.6397387765
 20
126.2159248807
 10
19.9998940582
 20
126.732622367
 10
16.3085851464
 20
127.1625182832
 10
12.575310603
 20
127.5045064109
 10
8.8096769773
 20
127.7577067385
 10
5.0213740855
 20
127.9214677248
 10
1.2201500768
 20
127.9953679764
 10
-2.5842136505
 20
127.9792173314
 10
-6.3819276191
 20
127.8730573489
 10
-10.1632194627
 20
127.6771612024
 10
-13.918359073
 20
127.3920329763
 10
-17.6376836374
 20
127.0184063693
 10
-21.3116225031
 20
126.5572428061
 10
-24.930721805
 20
126.0097289634
 10
-28.4856687924
 20
125.3772737167
 10
-31.9673157929
 20
124.6615045146
 10
-35.3667037512
 20
123.864263191
 10
-38.675085283
 20
122.9876012259
 10
-41.8839471838
 20
122.0337744664
 10
-44.9850323354
 20
121.0052373216
 10
-47.9703609532
 20
119.9046364473
 10
-50.83225112
 20
118.7348039353
 10
-53.5633385533
 20
117.498750026
 10
-56.1565955553
 20
116.199655362
 10
-58.6053490966
 20
114.8408628041
 10
-60.9032979874
 20
113.4258688289
 10
-63.0445290922
 20
111.9583145319
 10
-65.0235325452
 20
110.441976258
 10
-66.8352159286
 20
108.8807558842
 10
-68.4749173763
 20
107.2786707793
 10
-69.9384175705
 20
105.6398434658
 10
-71.2219505983
 20
103.9684910125
 10
-72.3222136427
 20
102.2689141824
 10
-73.2363754811
 20
100.5454863663
 10
-73.9620837709
 20
98.8026423288
 10
-74.4974711027
 20
97.0448667968
 10
-74.8411598053
 20
95.2766829192
  0
SPLINE
  5
AC
330
1F
100
AcDbEntity
  8
0
  6
Continuous
 62
     7
370
    25
100
AcDbSpline
210
0.0
220
0.0
230
1.0
 70
     8
 71
     3
 72
    23
 73
    19
 74
     0
 42
0.00000001
 43
0.00000001
 40
0.0
 40
0.0
 40
0.0
 40
0.0
 40
0.0657223151915605
 40
0.1295079307025848
 40
0.1917221026921608
 40
0.2531611245020876
 40
0.314315703735257
 40
0.3759517397728616
 40
0.4386196008234089
 40
0.502972901892776
 40
0.5671286457242649
 40
0.6295522895796745
 40
0.6904767824348736
 40
0.7510723384108284
 40
0.8116678943867824
 40
0.8729293555873912
 40
0.935501370715807
 40
1.0
 40
1.0
 40
1.0
 40
1.0
 10
-7.458399336340834
 20
114.9267891664175
 30
0.0
 10
-7.462110797815993
 20
114.7845697733519
 30
0.0
 10
-7.469424351730352
 20
114.5043218963863
 30
0.0
 10
-7.525928436816088
 20
114.0924717975867
 30
0.0
 10
-7.620293252342757
 20
113.6975426641995
 30
0.0
 10
-7.750295597627795
 20
113.3186405652487
 30
0.0
 10
-7.920768570979027
 20
112.9576007724493
 30
0.0
 10
-8.12616848975861
 20
112.6121180970221
 30
0.0
 10
-8.371915467362292
 20
112.2853987008587
 30
0.0
 10
-8.649046146415758
 20
111.9776179140143
 30
0.0
 10
-8.954142973712699
 20
111.6982408073956
 30
0.0
 10
-9.277288947254585
 20
111.4520402146601
 30
0.0
 10
-9.616991978656463
 20
111.2434191233438
 30
0.0
 10
-9.972754851057871
 20
111.0724730920131
 30
0.0
 10
-10.34534048087446
 20
110.9398081726554
 30
0.0
 10
-10.73382853604395
 20
110.846203432155
 30
0.0
 10
-11.13819497705047
 20
110.789317941286
 30
0.0
 10
-11.41318376661133
 20
110.7820521587367
 30
0.0
 10
-11.55276281791135
 20
110.7783641864495
 30
0.0
  0
SPLINE
  5
AD
330
1F
100
AcDbEntity
  8
0
  6
Continuous
 62
     7
370
    25
100
AcDbSpline
210
0.0
220
0.0
230
1.0
 70
     8
 71
     3
 72
    23
 73
    19
 74
     0
 42
0.00000001
 43
0.00000001
 40
0.0
 40
0.0
 40
0.0
 40
0.0
 40
0.0633955966615908
 40
0.1251572666424215
 40
0.1856494665262527
 40
0.2459766793408152
 40
0.3061083686579563
 40
0.367350588089175
 40
0.4299020782799149
 40
0.4945399581831931
 40
0.5593725826940485
 40
0.6224096858457379
 40
0.6843574258194758
 40
0.7458066007722104
 40
0.8074302750159146
 40
0.8699955160697813
 40
0.9339278677192723
 40
1.0
 40
1.0
 40
1.0
 40
1.0
 10
-11.56389312640494
 20
119.1229154685008
 30
0.0
 10
-11.42588996100626
 20
119.1193423194136
 30
0.0
 10
-11.15344045538049
 20
119.1122881138125
 30
0.0
 10
-10.75276554945088
 20
119.0534858045904
 30
0.0
 10
-10.36664119305841
 20
118.9576758718254
 30
0.0
 10
-9.995241990525992
 20
118.824493135408
 30
0.0
 10
-9.639497882763656
 20
118.6503303300299
 30
0.0
 10
-9.298154041195343
 20
118.4401250854979
 30
0.0
 10
-8.972433143283347
 20
118.1899099037596
 30
0.0
 10
-8.665672915609505
 20
117.9055218922027
 30
0.0
 10
-8.382171139895268
 20
117.5962623473483
 30
0.0
 10
-8.136516685657007
 20
117.2632894652906
 30
0.0
 10
-7.927031579198609
 20
116.9152309078961
 30
0.0
 10
-7.753409762495594
 20
116.5511540421155
 30
0.0
 10
-7.621164432640643
 20
116.1685374620288
 30
0.0
 10
-7.528362414729052
 20
115.7693320064773
 30
0.0
 10
-7.468741715970586
 20
115.3536512457636
 30
0.0
 10
-7.461884418285838
 20
115.0706293056304
 30
0.0
 10
-7.458399336340834
 20
114.9267891664175
 30
0.0
  0
SPLINE
  5
AE
330
1F
100
AcDbEntity
  8
0
  6
Continuous
 62
     7
370
    25
100
AcDbSpline
210
0.0
220
0.0
230
1.0
 70
     8
 71
     3
 72
    31
 73
    27
 74
     0
 42
0.00000001
 43
0.00000001
 40
0.0
 40
0.0
 40
0.0
 40
0.0
 40
0.0431143456619743
 40
0.0856827648242091
 40
0.1275943241639281
 40
0.1690586225605491
 40
0.2104320288213094
 40
0.2518111664630526
 40
0.2934438397982397
 40
0.3353808532218254
 40
0.377476605960795
 40
0.418688490676828
 40
0.4598730336711996
 40
0.5008729046253152
 40
0.5418727755794316
 40
0.5832117768673246
 40
0.624763201734076
 40
0.6669876223820894
 40
0.70936970589424
 40
0.751102651944858
 40
0.7925683801202209
 40
0.8335451085502587
 40
0.874827422556526
 40
0.9160177232110674
 40
0.9578592039763046
 40
1.0
 40
1.0
 40
1.0
 40
1.0
 10
-15.7011877978793
 20
114.9538199156162
 30
0.0
 10
-15.69997720215698
 20
115.047708646858
 30
0.0
 10
-15.69757133963072
 20
115.2342972626683
 30
0.0
 10
-15.66859019120162
 20
115.5108120668128
 30
0.0
 10
-15.62686566978464
 20
115.7819296732332
 30
0.0
 10
-15.56515708240623
 20
116.0465691320924
 30
0.0
 10
-15.49019692080961
 20
116.3065973517139
 30
0.0
 10
-15.39307544254599
 20
116.559593925025
 30
0.0
 10
-15.28252491690481
 20
116.8082615511905
 30
0.0
 10
-15.15335703644776
 20
117.0496631541674
 30
0.0
 10
-15.00973484282875
 20
117.2815776374837
 30
0.0
 10
-14.85303024250989
 20
117.5029110200364
 30
0.0
 10
-14.68284920390449
 20
117.710987057671
 30
0.0
 10
-14.49973993651524
 20
117.9071731404059
 30
0.0
 10
-14.30307142101302
 20
118.0901797228764
 30
0.0
 10
-14.09543062857217
 20
118.2625975180468
 30
0.0
 10
-13.87279053685355
 20
118.419846496208
 30
0.0
 10
-13.64002403892061
 20
118.5657669910389
 30
0.0
 10
-13.3984434187585
 20
118.697720363897
 30
0.0
 10
-13.1490321286278
 20
118.8100351285434
 30
0.0
 10
-12.89692853380026
 20
118.9081176994208
 30
0.0
 10
-12.63876487025281
 20
118.9855288012207
 30
0.0
 10
-12.37730782086955
 20
119.0485793337501
 30
0.0
 10
-12.10976424669886
 20
119.0902757328578
 30
0.0
 10
-11.83855125183653
 20
119.1192560787148
 30
0.0
 10
-11.65566310775687
 20
119.1216927770844
 30
0.0
 10
-11.56389312640494
 20
119.1229154685008
 30
0.0
  0
SPLINE
  5
AF
330
1F
100
AcDbEntity
  8
0
  6
Continuous
 62
     7
370
    25
100
AcDbSpline
210
0.0
220
0.0
230
1.0
 70
     8
 71
     3
 72
    23
 73
    19
 74
     0
 42
0.00000001
 43
0.00000001
 40
0.0
 40
0.0
 40
0.0
 40
0.0
 40
0.0667486513092661
 40
0.1311519760901755
 40
0.193732197057096
 40
0.2553255433785992
 40
0.3163881857773855
 40
0.3780268629068865
 40
0.4404056792054018
 40
0.504557429324082
 40
0.568658287362016
 40
0.6309861790900114
 40
0.6922881348732999
 40
0.7526154469796392
 40
0.8131995384355634
 40
0.8740161248607811
 40
0.936158355510532
 40
0.9999999999999999
 40
0.9999999999999999
 40
0.9999999999999999
 40
0.9999999999999999
 10
-11.55276281791135
 20
110.7783641864495
 30
0.0
 10
-11.69874576933804
 20
110.7816724793699
 30
0.0
 10
-11.9855823147894
 20
110.7881728227548
 30
0.0
 10
-12.40536888311451
 20
110.849988120763
 30
0.0
 10
-12.80756068817391
 20
110.9431035534551
 30
0.0
 10
-13.18877908722234
 20
111.082073341431
 30
0.0
 10
-13.55290646381431
 20
111.2557972619104
 30
0.0
 10
-13.89726746717943
 20
111.4697486854088
 30
0.0
 10
-14.22174636943578
 20
111.7235740406751
 30
0.0
 10
-14.5244819064069
 20
112.0107727661107
 30
0.0
 10
-14.79876103605764
 20
112.3250311639239
 30
0.0
 10
-15.04086616802856
 20
112.6570172930898
 30
0.0
 10
-15.24508721752108
 20
113.0041950715332
 30
0.0
 10
-15.41143165658523
 20
113.3667269858231
 30
0.0
 10
-15.54257093015052
 20
113.7423599883468
 30
0.0
 10
-15.63507478757594
 20
114.1333817924581
 30
0.0
 10
-15.68971902357764
 20
114.538854585908
 30
0.0
 10
-15.69733064836047
 20
114.8142598127043
 30
0.0
 10
-15.7011877978793
 20
114.9538199156162
 30
0.0
  0
SPLINE
  5
B0
330
1F
100
AcDbEntity
  8
0
  6
Continuous
 62
     7
370
    25
100
AcDbSpline
210
0.0
220
0.0
230
1.0
 70
     8
 71
     3
 72
    23
 73
    19
 74
     0
 42
0.00000001
 43
0.00000001
 40
0.0
 40
0.0
 40
0.0
 40
0.0
 40
0.0657223151915605
 40
0.1295079307025849
 40
0.1917221026921608
 40
0.2531611245020876
 40
0.3143157037352573
 40
0.3759517397728616
 40
0.4386196008234093
 40
0.502972901892776
 40
0.5671286457242649
 40
0.629552289579674
 40
0.6904767824348742
 40
0.7510723384108284
 40
0.8116678943867826
 40
0.8729293555873913
 40
0.9355013707158071
 40
1.0
 40
1.0
 40
1.0
 40
1.0
 10
8.213075022633527
 20
114.9267891664175
 30
0.0
 10
8.20936356115837
 20
114.7845697733519
 30
0.0
 10
8.202050007244004
 20
114.5043218963862
 30
0.0
 10
8.145545922158265
 20
114.0924717975868
 30
0.0
 10
8.051181106631608
 20
113.6975426641994
 30
0.0
 10
7.921178761346565
 20
113.3186405652487
 30
0.0
 10
7.750705787995329
 20
112.9576007724493
 30
0.0
 10
7.54530586921575
 20
112.6121180970221
 30
0.0
 10
7.299558891612059
 20
112.2853987008587
 30
0.0
 10
7.022428212558604
 20
111.9776179140143
 30
0.0
 10
6.717331385261658
 20
111.6982408073956
 30
0.0
 10
6.394185411719778
 20
111.4520402146601
 30
0.0
 10
6.054482380317896
 20
111.2434191233438
 30
0.0
 10
5.698719507916486
 20
111.0724730920131
 30
0.0
 10
5.326133878099903
 20
110.9398081726554
 30
0.0
 10
4.937645822930399
 20
110.846203432155
 30
0.0
 10
4.533279381923887
 20
110.789317941286
 30
0.0
 10
4.258290592363032
 20
110.7820521587367
 30
0.0
 10
4.118711541063011
 20
110.7783641864495
 30
0.0
  0
SPLINE
  5
B1
330
1F
100
AcDbEntity
  8
0
  6
Continuous
 62
     7
370
    25
100
AcDbSpline
210
0.0
220
0.0
230
1.0
 70
     8
 71
     3
 72
    23
 73
    19
 74
     0
 42
0.00000001
 43
0.00000001
 40
0.0
 40
0.0
 40
0.0
 40
0.0
 40
0.0633955966615902
 40
0.1251572666424215
 40
0.1856494665262527
 40
0.2459766793408152
 40
0.3061083686579568
 40
0.3673505880891745
 40
0.4299020782799148
 40
0.4945399581831926
 40
0.5593725826940481
 40
0.6224096858457377
 40
0.6843574258194757
 40
0.74580660077221
 40
0.8074302750159142
 40
0.8699955160697812
 40
0.933927867719272
 40
1.0
 40
1.0
 40
1.0
 40
1.0
 10
4.107581232569421
 20
119.1229154685008
 30
0.0
 10
4.245584397968099
 20
119.1193423194136
 30
0.0
 10
4.518033903593863
 20
119.1122881138125
 30
0.0
 10
4.91870880952348
 20
119.0534858045904
 30
0.0
 10
5.304833165915952
 20
118.9576758718254
 30
0.0
 10
5.676232368448368
 20
118.824493135408
 30
0.0
 10
6.031976476210708
 20
118.6503303300299
 30
0.0
 10
6.373320317779012
 20
118.4401250854979
 30
0.0
 10
6.699041215691013
 20
118.1899099037596
 30
0.0
 10
7.005801443364845
 20
117.9055218922027
 30
0.0
 10
7.289303219079088
 20
117.5962623473483
 30
0.0
 10
7.534957673317352
 20
117.2632894652905
 30
0.0
 10
7.744442779775751
 20
116.9152309078961
 30
0.0
 10
7.918064596478761
 20
116.5511540421154
 30
0.0
 10
8.050309926333712
 20
116.1685374620288
 30
0.0
 10
8.143111944245314
 20
115.7693320064773
 30
0.0
 10
8.202732643003767
 20
115.3536512457636
 30
0.0
 10
8.209589940688518
 20
115.0706293056304
 30
0.0
 10
8.213075022633527
 20
114.9267891664175
 30
0.0
  0
SPLINE
  5
B2
330
1F
100
AcDbEntity
  8
0
  6
Continuous
 62
     7
370
    25
100
AcDbSpline
210
0.0
220
0.0
230
1.0
 70
     8
 71
     3
 72
    31
 73
    27
 74
     0
 42
0.00000001
 43
0.00000001
 40
0.0
 40
0.0
 40
0.0
 40
0.0
 40
0.0431143456619743
 40
0.0856827648242091
 40
0.1275943241639281
 40
0.1690586225605491
 40
0.2104320288213094
 40
0.2518111664630525
 40
0.2934438397982397
 40
0.3353808532218255
 40
0.377476605960795
 40
0.4186884906768281
 40
0.4598730336711994
 40
0.5008729046253152
 40
0.5418727755794315
 40
0.5832117768673246
 40
0.6247632017340763
 40
0.6669876223820894
 40
0.7093697058942398
 40
0.751102651944858
 40
0.7925683801202209
 40
0.8335451085502587
 40
0.874827422556526
 40
0.9160177232110672
 40
0.957859203976305
 40
1.0
 40
1.0
 40
1.0
 40
1.0
 10
-0.0297134389049374
 20
114.9538199156162
 30
0.0
 10
-0.0285028431826237
 20
115.047708646858
 30
0.0
 10
-0.0260969806563678
 20
115.2342972626683
 30
0.0
 10
0.0028841677727363
 20
115.5108120668128
 30
0.0
 10
0.0446086891897228
 20
115.7819296732332
 30
0.0
 10
0.1063172765681256
 20
116.0465691320924
 30
0.0
 10
0.1812774381647477
 20
116.3065973517139
 30
0.0
 10
0.2783989164283646
 20
116.559593925025
 30
0.0
 10
0.3889494420695476
 20
116.8082615511905
 30
0.0
 10
0.5181173225266014
 20
117.0496631541673
 30
0.0
 10
0.6617395161456125
 20
117.2815776374837
 30
0.0
 10
0.818444116464476
 20
117.5029110200364
 30
0.0
 10
0.9886251550698661
 20
117.710987057671
 30
0.0
 10
1.171734422459115
 20
117.9071731404059
 30
0.0
 10
1.368402937961329
 20
118.0901797228763
 30
0.0
 10
1.576043730402189
 20
118.2625975180468
 30
0.0
 10
1.798683822120809
 20
118.419846496208
 30
0.0
 10
2.031450320053755
 20
118.5657669910389
 30
0.0
 10
2.273030940215853
 20
118.697720363897
 30
0.0
 10
2.52244223034657
 20
118.8100351285434
 30
0.0
 10
2.774545825174095
 20
118.9081176994208
 30
0.0
 10
3.032709488721546
 20
118.9855288012207
 30
0.0
 10
3.294166538104802
 20
119.04857933375
 30
0.0
 10
3.561710112275497
 20
119.0902757328578
 30
0.0
 10
3.832923107137833
 20
119.1192560787148
 30
0.0
 10
4.015811251217491
 20
119.1216927770844
 30
0.0
 10
4.107581232569421
 20
119.1229154685008
 30
0.0
  0
SPLINE
  5
B3
330
1F
100
AcDbEntity
  8
0
  6
Continuous
 62
     7
370
    25
100
AcDbSpline
210
0.0
220
0.0
230
1.0
 70
     8
 71
     3
 72
    23
 73
    19
 74
     0
 42
0.00000001
 43
0.00000001
 40
0.0
 40
0.0
 40
0.0
 40
0.0
 40
0.0667486513092664
 40
0.1311519760901755
 40
0.193732197057096
 40
0.2553255433785994
 40
0.3163881857773858
 40
0.3780268629068865
 40
0.440405679205402
 40
0.504557429324082
 40
0.5686582873620157
 40
0.6309861790900112
 40
0.6922881348732999
 40
0.7526154469796392
 40
0.8131995384355634
 40
0.8740161248607811
 40
0.936158355510532
 40
0.9999999999999999
 40
0.9999999999999999
 40
0.9999999999999999
 40
0.9999999999999999
 10
4.118711541063011
 20
110.7783641864495
 30
0.0
 10
3.972728589636315
 20
110.7816724793698
 30
0.0
 10
3.685892044184958
 20
110.7881728227547
 30
0.0
 10
3.266105475859841
 20
110.8499881207631
 30
0.0
 10
2.863913670800439
 20
110.9431035534551
 30
0.0
 10
2.482695271752019
 20
111.0820733414311
 30
0.0
 10
2.118567895160048
 20
111.2557972619104
 30
0.0
 10
1.774206891794935
 20
111.4697486854088
 30
0.0
 10
1.449727989538574
 20
111.7235740406751
 30
0.0
 10
1.14699245256746
 20
112.0107727661106
 30
0.0
 10
0.8727133229167175
 20
112.3250311639239
 30
0.0
 10
0.6306081909458043
 20
112.6570172930898
 30
0.0
 10
0.4263871414532757
 20
113.0041950715332
 30
0.0
 10
0.2600427023891262
 20
113.3667269858231
 30
0.0
 10
0.1289034288238347
 20
113.7423599883469
 30
0.0
 10
0.0363995713984162
 20
114.1333817924581
 30
0.0
 10
-0.0182446646032817
 20
114.538854585908
 30
0.0
 10
-0.0258562893861137
 20
114.8142598127043
 30
0.0
 10
-0.0297134389049374
 20
114.9538199156162
 30
0.0
  0
SPLINE
  5
CE
330
1F
100
AcDbEntity
  8
0
  6
Continuous
 62
     7
370
    25
100
AcDbSpline
210
0.0
220
0.0
230
1.0
 70
     8
 71
     3
 72
    19
 73
    15
 74
     0
 42
0.00000001
 43
0.00000001
 40
0.0
 40
0.0
 40
0.0
 40
0.0
 40
0.1121245812797433
 40
0.21520100907624
 40
0.3099024524934754
 40
0.3959590963320919
 40
0.4734474940003331
 40
0.5421403275660298
 40
0.6025233330554078
 40
0.6547263328340145
 40
0.7478040553141001
 40
0.8352784168250097
 40
0.9189252427194486
 40
1.0
 40
1.0
 40
1.0
 40
1.0
 10
11.4345043094925
 20
114.3241624636931
 30
0.0
 10
11.33347334569353
 20
114.4096443471489
 30
0.0
 10
11.13956434635254
 20
114.5737099549527
 30
0.0
 10
10.8655463286893
 20
114.8160296928173
 30
0.0
 10
10.61863155953407
 20
115.0424996914093
 30
0.0
 10
10.40095266000606
 20
115.2559196149824
 30
0.0
 10
10.20973606417442
 20
115.4523480921243
 30
0.0
 10
10.04627677390999
 20
115.633380590068
 30
0.0
 10
9.912370463844393
 20
115.8004135269312
 30
0.0
 10
9.771462946364265
 20
115.9982528630628
 30
0.0
 10
9.637572632144556
 20
116.2393336879605
 30
0.0
 10
9.521853405817176
 20
116.5293818678611
 30
0.0
 10
9.446779655942462
 20
116.8193932449486
 30
0.0
 10
9.438368686411966
 20
117.0140909099411
 30
0.0
 10
9.434228868787372
 20
117.1099196752316
 30
0.0
  0
SPLINE
  5
CF
330
1F
100
AcDbEntity
  8
0
  6
Continuous
 62
     7
370
    25
100
AcDbSpline
210
0.0
220
0.0
230
1.0
 70
     8
 71
     3
 72
    19
 73
    15
 74
     0
 42
0.00000001
 43
0.00000001
 40
0.0
 40
0.0
 40
0.0
 40
0.0
 40
0.0763466063531756
 40
0.1550908218146679
 40
0.2383515612585569
 40
0.3284041399329921
 40
0.3793838595513632
 40
0.4396176441748267
 40
0.5098314158313171
 40
0.5888746449969575
 40
0.6774363544094482
 40
0.775546719619677
 40
0.8826358717258594
 40
1.0
 40
1.0
 40
1.0
 40
1.0
 10
12.48711348417199
 20
112.9551345189816
 30
0.0
 10
12.48449991421875
 20
113.0004276250452
 30
0.0
 10
12.47919069706713
 20
113.0924362339079
 30
0.0
 10
12.44008463971908
 20
113.2292382401518
 30
0.0
 10
12.37894994418851
 20
113.365978031665
 30
0.0
 10
12.30662328829723
 20
113.478135708089
 30
0.0
 10
12.23302185942836
 20
113.5720422902448
 30
0.0
 10
12.16264229258936
 20
113.6534080957574
 30
0.0
 10
12.07693859782036
 20
113.7433030663223
 30
0.0
 10
11.97612808189071
 20
113.8418402829949
 30
0.0
 10
11.86154271475445
 20
113.949887193828
 30
0.0
 10
11.73308597308977
 20
114.0674332184417
 30
0.0
 10
11.58928689131308
 20
114.1934429169431
 30
0.0
 10
11.48764941658023
 20
114.2792794786132
 30
0.0
 10
11.4345043094925
 20
114.3241624636931
 30
0.0
  0
SPLINE
  5
D0
330
1F
100
AcDbEntity
  8
0
  6
Continuous
 62
     7
370
    25
100
AcDbSpline
210
0.0
220
0.0
230
1.0
 70
     8
 71
     3
 72
    15
 73
    11
 74
     0
 42
0.00000001
 43
0.00000001
 40
0.0
 40
0.0
 40
0.0
 40
0.0
 40
0.1419858925296712
 40
0.2754733105502113
 40
0.4043458426631349
 40
0.5354297108606284
 40
0.6614274010622544
 40
0.7778668404627617
 40
0.8882797492818408
 40
1.0
 40
1.0
 40
1.0
 40
1.0
 10
11.58078836397968
 20
112.203043673629
 30
0.0
 10
11.64256254951032
 20
112.2055419804783
 30
0.0
 10
11.76241346632667
 20
112.2103890596233
 30
0.0
 10
11.9334853133778
 20
112.2551600682971
 30
0.0
 10
12.09033046021498
 20
112.3254538363323
 30
0.0
 10
12.22590624675308
 20
112.425753350028
 30
0.0
 10
12.34070327478062
 20
112.5415142332154
 30
0.0
 10
12.4254300708253
 20
112.6703035088288
 30
0.0
 10
12.47865601557382
 20
112.809650396183
 30
0.0
 10
12.48428328839384
 20
112.9064499101824
 30
0.0
 10
12.48711348417199
 20
112.9551345189816
 30
0.0
  0
SPLINE
  5
D1
330
1F
100
AcDbEntity
  8
0
  6
Continuous
 62
     7
370
    25
100
AcDbSpline
210
0.0
220
0.0
230
1.0
 70
     8
 71
     3
 72
    15
 73
    11
 74
     0
 42
0.00000001
 43
0.00000001
 40
0.0
 40
0.0
 40
0.0
 40
0.0
 40
0.1604579205559333
 40
0.3076115473748602
 40
0.4421388877557719
 40
0.5662291941703316
 40
0.6812222080152104
 40
0.789558005243627
 40
0.8950288924051337
 40
1.0
 40
1.0
 40
1.0
 40
1.0
 10
10.2801323143002
 20
113.2206718787572
 30
0.0
 10
10.32639390270096
 20
113.1402581689018
 30
0.0
 10
10.41508132145023
 20
112.9860982144845
 30
0.0
 10
10.5653704436491
 20
112.7789647772164
 30
0.0
 10
10.71933397685499
 20
112.6015892750561
 30
0.0
 10
10.8805314200055
 20
112.4571068313821
 30
0.0
 10
11.04700267250848
 20
112.3435855302094
 30
0.0
 10
11.21955182919672
 20
112.2624553328174
 30
0.0
 10
11.3983001197856
 20
112.2122358324088
 30
0.0
 10
11.52005533490354
 20
112.2061028714908
 30
0.0
 10
11.58078836397968
 20
112.203043673629
 30
0.0
  0
SPLINE
  5
D3
330
1F
100
AcDbEntity
  8
0
  6
Continuous
 62
     7
370
    25
100
AcDbSpline
210
0.0
220
0.0
230
1.0
 70
     8
 71
     3
 72
    23
 73
    19
 74
     0
 42
0.00000001
 43
0.00000001
 40
0.0
 40
0.0
 40
0.0
 40
0.0
 40
0.06355148223578
 40
0.1258683816453843
 40
0.1862402502136722
 40
0.2449766506319398
 40
0.3033576876770599
 40
0.361230317040805
 40
0.4184890490283524
 40
0.4759367117285737
 40
0.5342037438191206
 40
0.5940594289675379
 40
0.655468694259875
 40
0.7187716848998895
 40
0.7849746072190589
 40
0.8535223163767044
 40
0.9251824507719335
 40
1.0
 40
1.0
 40
1.0
 40
1.0
 10
11.52831690965275
 20
110.7783641864495
 30
0.0
 10
11.46043028935474
 20
110.7795685403183
 30
0.0
 10
11.32597584814149
 20
110.7819538516763
 30
0.0
 10
11.12781032893379
 20
110.8014279334962
 30
0.0
 10
10.93645911875763
 20
110.8328570295792
 30
0.0
 10
10.75213775765867
 20
110.8779043129426
 30
0.0
 10
10.57401584535648
 20
110.9349853306477
 30
0.0
 10
10.40208606663462
 20
111.0047076071157
 30
0.0
 10
10.23753530983956
 20
111.0881518115172
 30
0.0
 10
10.07911850593401
 20
111.1836019992389
 30
0.0
 10
9.927605756077678
 20
111.2944322402513
 30
0.0
 10
9.781081241143058
 20
111.4183766465466
 30
0.0
 10
9.641000381735141
 20
111.5573415385409
 30
0.0
 10
9.506690397888775
 20
111.7109982696373
 30
0.0
 10
9.379010642326978
 20
111.8797819587905
 30
0.0
 10
9.25378169849911
 20
112.0613419807767
 30
0.0
 10
9.136569117494812
 20
112.2590478431157
 30
0.0
 10
9.064161692232712
 20
112.3977401048525
 30
0.0
 10
9.027177586736087
 20
112.4685810334046
 30
0.0
  0
SPLINE
  5
D4
330
1F
100
AcDbEntity
  8
0
  6
Continuous
 62
     7
370
    25
100
AcDbSpline
210
0.0
220
0.0
230
1.0
 70
     8
 71
     3
 72
    23
 73
    19
 74
     0
 42
0.00000001
 43
0.00000001
 40
0.0
 40
0.0
 40
0.0
 40
0.0
 40
0.0652008752881532
 40
0.1279265440230309
 40
0.1890469100189664
 40
0.2485436930694577
 40
0.307607127022344
 40
0.3672476600602099
 40
0.4269630557213172
 40
0.4886171282353905
 40
0.5503918546271221
 40
0.6113307342255585
 40
0.6725560854310831
 40
0.7340241906291919
 40
0.7973406208369368
 40
0.8622496273165772
 40
0.929625466074695
 40
1.0
 40
1.0
 40
1.0
 40
1.0
 10
13.91179297135147
 20
113.0378168106482
 30
0.0
 10
13.91037214705144
 20
112.9576516406345
 30
0.0
 10
13.9075844368932
 20
112.8003645934048
 30
0.0
 10
13.87344033345209
 20
112.5701984286024
 30
0.0
 10
13.82475284598341
 20
112.349919419556
 30
0.0
 10
13.74947344908029
 20
112.141924513284
 30
0.0
 10
13.65772336594689
 20
111.9427995367953
 30
0.0
 10
13.54270138546073
 20
111.7556462240754
 30
0.0
 10
13.40762384115849
 20
111.5785705070973
 30
0.0
 10
13.25280423523773
 20
111.4147378308337
 30
0.0
 10
13.08155536710957
 20
111.2660710327299
 30
0.0
 10
12.89787468083933
 20
111.1337243376637
 30
0.0
 10
12.69996605422247
 20
111.0244552830284
 30
0.0
 10
12.48952038737618
 20
110.9344800105927
 30
0.0
 10
12.26665032709487
 20
110.8651798526923
 30
0.0
 10
12.03162137880298
 20
110.8139605772802
 30
0.0
 10
11.784074049694
 20
110.7832195755587
 30
0.0
 10
11.61479761886604
 20
110.7800059685464
 30
0.0
 10
11.52831690965275
 20
110.7783641864495
 30
0.0
  0
SPLINE
  5
D5
330
1F
100
AcDbEntity
  8
0
  6
Continuous
 62
     7
370
    25
100
AcDbSpline
210
0.0
220
0.0
230
1.0
 70
     8
 71
     3
 72
    15
 73
    11
 74
     0
 42
0.00000001
 43
0.00000001
 40
0.0
 40
0.0
 40
0.0
 40
0.0
 40
0.1508330973407543
 40
0.2899541833158775
 40
0.4171386481520556
 40
0.5352551839062604
 40
0.6487510952936698
 40
0.7624054615861182
 40
0.8798267012500979
 40
1.0
 40
1.0
 40
1.0
 40
1.0
 10
13.09133023096686
 20
114.8584172713854
 30
0.0
 10
13.16140607433549
 20
114.7825802008236
 30
0.0
 10
13.29611645483123
 20
114.6367947184097
 30
0.0
 10
13.47119246094088
 20
114.4108730692514
 30
0.0
 10
13.61528567710543
 20
114.1903274733235
 30
0.0
 10
13.72675892158502
 20
113.9710080074734
 30
0.0
 10
13.8109479993003
 20
113.7497503283332
 30
0.0
 10
13.87030241434744
 20
113.521128103323
 30
0.0
 10
13.90585016844421
 20
113.2827523734631
 30
0.0
 10
13.90979679909952
 20
113.120090037884
 30
0.0
 10
13.91179297135147
 20
113.0378168106482
 30
0.0
  0
SPLINE
  5
D6
330
1F
100
AcDbEntity
  8
0
  6
Continuous
 62
     7
370
    25
100
AcDbSpline
210
0.0
220
0.0
230
1.0
 70
     8
 71
     3
 72
    15
 73
    11
 74
     0
 42
0.00000001
 43
0.00000001
 40
0.0
 40
0.0
 40
0.0
 40
0.0
 40
0.1929527021649404
 40
0.3661841413840611
 40
0.5204572982944634
 40
0.6550121351900121
 40
0.7706242255760034
 40
0.8656771846793713
 40
0.9426745273198682
 40
1.0
 40
1.0
 40
1.0
 40
1.0
 10
12.06893189362711
 20
115.7742826560008
 30
0.0
 10
12.13570135093854
 20
115.7164970585778
 30
0.0
 10
12.26241590907602
 20
115.6068320000463
 30
0.0
 10
12.44270556209609
 20
115.4511800572535
 30
0.0
 10
12.60115014016521
 20
115.3111437996208
 30
0.0
 10
12.740057819213
 20
115.1888248717251
 30
0.0
 10
12.85732289432137
 20
115.0829398679646
 30
0.0
 10
12.95343834825348
 20
114.9929826592481
 30
0.0
 10
13.02957806832983
 20
114.9207045469869
 30
0.0
 10
13.07285904111634
 20
114.8770485232117
 30
0.0
 10
13.09133023096686
 20
114.8584172713854
 30
0.0
  0
SPLINE
  5
D7
330
1F
100
AcDbEntity
  8
0
  6
Continuous
 62
     7
370
    25
100
AcDbSpline
210
0.0
220
0.0
230
1.0
 70
     8
 71
     3
 72
    15
 73
    11
 74
     0
 42
0.00000001
 43
0.00000001
 40
0.0
 40
0.0
 40
0.0
 40
0.0
 40
0.0592341891229385
 40
0.1363492805279884
 40
0.2338052120618148
 40
0.3494112238568946
 40
0.4831791503491683
 40
0.6359668555591154
 40
0.8092433563675907
 40
1.0
 40
1.0
 40
1.0
 40
1.0
 10
10.99088201381942
 20
116.7982710374111
 30
0.0
 10
11.00913647813707
 20
116.7752256362972
 30
0.0
 10
11.05115584419895
 20
116.7221781664513
 30
0.0
 10
11.13127816919642
 20
116.6381592433072
 30
0.0
 10
11.23189498236085
 20
116.535228708139
 30
0.0
 10
11.35687823040181
 20
116.4169260404363
 30
0.0
 10
11.50103951509324
 20
116.2789966135969
 30
0.0
 10
11.67106089807428
 20
116.1268624858844
 30
0.0
 10
11.8620484224964
 20
115.9558122401778
 30
0.0
 10
11.99779793005332
 20
115.8366990431478
 30
0.0
 10
12.06893189362711
 20
115.7742826560008
 30
0.0
  0
SPLINE
  5
D8
330
1F
100
AcDbEntity
  8
0
  6
Continuous
 62
     7
370
    25
100
AcDbSpline
210
0.0
220
0.0
230
1.0
 70
     8
 71
     3
 72
    11
 73
     7
 74
     0
 42
0.00000001
 43
0.00000001
 40
0.0
 40
0.0
 40
0.0
 40
0.0
 40
0.2418813747501721
 40
0.4871154746783552
 40
0.7378378396464068
 40
0.9999999999999999
 40
0.9999999999999999
 40
0.9999999999999999
 40
0.9999999999999999
 10
10.85890835596686
 20
117.1782915702636
 30
0.0
 10
10.86031056550643
 20
117.145253455646
 30
0.0
 10
10.86313442065516
 20
117.0787192840875
 30
0.0
 10
10.89040901744552
 20
116.9812051695213
 30
0.0
 10
10.93151962270437
 20
116.8859225280898
 30
0.0
 10
10.97080248443608
 20
116.8279194503122
 30
0.0
 10
10.99088201381942
 20
116.7982710374111
 30
0.0
  0
SPLINE
  5
D9
330
1F
100
AcDbEntity
  8
0
  6
Continuous
 62
     7
370
    25
100
AcDbSpline
210
0.0
220
0.0
230
1.0
 70
     8
 71
     3
 72
    15
 73
    11
 74
     0
 42
0.00000001
 43
0.00000001
 40
0.0
 40
0.0
 40
0.0
 40
0.0
 40
0.1481262583591595
 40
0.2859928874897035
 40
0.4166343935606199
 40
0.5473799458012549
 40
0.6715828376102176
 40
0.7844007386959941
 40
0.8932655763009661
 40
1.0
 40
1.0
 40
1.0
 40
1.0
 10
11.50128616045404
 20
117.6982359813213
 30
0.0
 10
11.45606757779334
 20
117.696650168829
 30
0.0
 10
11.36876237501175
 20
117.6935883815488
 30
0.0
 10
11.24430233146164
 20
117.663154444189
 30
0.0
 10
11.13380493230386
 20
117.6106299376383
 30
0.0
 10
11.03737801812133
 20
117.5419497266199
 30
0.0
 10
10.96099367546313
 20
117.4592059949369
 30
0.0
 10
10.90000670129232
 20
117.3724290956123
 30
0.0
 10
10.86566591014555
 20
117.2766470238358
 30
0.0
 10
10.86114598636181
 20
117.2108600331427
 30
0.0
 10
10.85890835596686
 20
117.1782915702636
 30
0.0
  0
SPLINE
  5
DA
330
1F
100
AcDbEntity
  8
0
  6
Continuous
 62
     7
370
    25
100
AcDbSpline
210
0.0
220
0.0
230
1.0
 70
     8
 71
     3
 72
    15
 73
    11
 74
     0
 42
0.00000001
 43
0.00000001
 40
0.0
 40
0.0
 40
0.0
 40
0.0
 40
0.1624203072014353
 40
0.3118243397330513
 40
0.4484327667925777
 40
0.5733811968860478
 40
0.6890771468735465
 40
0.7975729005012525
 40
0.9002930430775761
 40
1.0
 40
1.0
 40
1.0
 40
1.0
 10
12.64293780308224
 20
116.8841334172188
 30
0.0
 10
12.59730365416726
 20
116.9485051284193
 30
0.0
 10
12.50969245209603
 20
117.0720898370585
 30
0.0
 10
12.36768383175867
 20
117.2375726747231
 30
0.0
 10
12.22631645313051
 20
117.3787418503398
 30
0.0
 10
12.08428063342014
 20
117.4950076242982
 30
0.0
 10
11.9403174211764
 20
117.5856635955331
 30
0.0
 10
11.7946767155003
 20
117.6498490246277
 30
0.0
 10
11.64818419429584
 20
117.6906523110164
 30
0.0
 10
11.54976383326506
 20
117.6957333018903
 30
0.0
 10
11.50128616045404
 20
117.6982359813213
 30
0.0
  0
SPLINE
  5
DC
330
1F
100
AcDbEntity
  8
0
  6
Continuous
 62
     7
370
    25
100
AcDbSpline
210
0.0
220
0.0
230
1.0
 70
     8
 71
     3
 72
    19
 73
    15
 74
     0
 42
0.00000001
 43
0.00000001
 40
0.0
 40
0.0
 40
0.0
 40
0.0
 40
0.1069102197112015
 40
0.2129765276064955
 40
0.3197766759577678
 40
0.428556272849194
 40
0.4858568032784293
 40
0.546558686640689
 40
0.6114314979175131
 40
0.679820910072493
 40
0.7531585046908266
 40
0.8307528691562641
 40
0.913133074655699
 40
1.0
 40
1.0
 40
1.0
 40
1.0
 10
11.51718660115916
 20
119.1229154685008
 30
0.0
 10
11.61070822779753
 20
119.119494248146
 30
0.0
 10
11.79701325412107
 20
119.1126788133511
 30
0.0
 10
12.072470608915
 20
119.059384340367
 30
0.0
 10
12.34152583631437
 20
118.9755731678068
 30
0.0
 10
12.55833558092016
 20
118.8744642089778
 30
0.0
 10
12.73084704771736
 20
118.776519912717
 30
0.0
 10
12.86306097224138
 20
118.686345142496
 30
0.0
 10
12.99759575703994
 20
118.5830450966369
 30
0.0
 10
13.13553634169775
 20
118.4662942494295
 30
0.0
 10
13.27431957655573
 20
118.333892861582
 30
0.0
 10
13.41789173269219
 20
118.1889928523603
 30
0.0
 10
13.56429646398889
 20
118.0303419468161
 30
0.0
 10
13.65943632634274
 20
117.9170024755418
 30
0.0
 10
13.70826733032583
 20
117.8588304324431
 30
0.0
  0
SPLINE
  5
DD
330
1F
100
AcDbEntity
  8
0
  6
Continuous
 62
     7
370
    25
100
AcDbSpline
210
0.0
220
0.0
230
1.0
 70
     8
 71
     3
 72
    23
 73
    19
 74
     0
 42
0.00000001
 43
0.00000001
 40
0.0
 40
0.0
 40
0.0
 40
0.0
 40
0.0631728801065182
 40
0.1244573597769996
 40
0.1848409152554597
 40
0.2445668214643697
 40
0.3043191726186547
 40
0.3651997864614174
 40
0.4274209827764758
 40
0.4912616890772858
 40
0.5554990019310202
 40
0.6186045181428789
 40
0.6804947639253076
 40
0.742473305260607
 40
0.8049906647647709
 40
0.8682519711837807
 40
0.9328872172654762
 40
1.0
 40
1.0
 40
1.0
 40
1.0
 10
9.434228868787372
 20
117.1099196752316
 30
0.0
 10
9.435950613420912
 20
117.1778762920566
 30
0.0
 10
9.439342635297058
 20
117.3117581270333
 30
0.0
 10
9.469599993699418
 20
117.5086118582001
 30
0.0
 10
9.51482076857886
 20
117.6985591684658
 30
0.0
 10
9.580494316185419
 20
117.880907043508
 30
0.0
 10
9.665730651255998
 20
118.0554270852726
 30
0.0
 10
9.769246869332989
 20
118.2229736428168
 30
0.0
 10
9.892650381117146
 20
118.3820046554672
 30
0.0
 10
10.0317178079277
 20
118.5324146968742
 30
0.0
 10
10.18493450707766
 20
118.6698723581583
 30
0.0
 10
10.3486660211515
 20
118.7911925175076
 30
0.0
 10
10.5219856153186
 20
118.8936612881836
 30
0.0
 10
10.70383300806363
 20
118.9786665739844
 30
0.0
 10
10.89533503201379
 20
119.0437327203047
 30
0.0
 10
11.09508090053246
 20
119.0898548479829
 30
0.0
 10
11.30335711256436
 20
119.1172868186844
 30
0.0
 10
11.44502209625551
 20
119.1210158767749
 30
0.0
 10
11.51718660115916
 20
119.1229154685008
 30
0.0
  0
SPLINE
  5
DE
330
1F
100
AcDbEntity
  8
0
  6
Continuous
 62
     7
370
    25
100
AcDbSpline
210
0.0
220
0.0
230
1.0
 70
     8
 71
     3
 72
    23
 73
    19
 74
     0
 42
0.00000001
 43
0.00000001
 40
0.0
 40
0.0
 40
0.0
 40
0.0
 40
0.0727911822673716
 40
0.1427233695565072
 40
0.2094912699928592
 40
0.2747163184918686
 40
0.3368863886768227
 40
0.3976856020239929
 40
0.4570537497761163
 40
0.5153125941662581
 40
0.572822202222121
 40
0.6307760073985084
 40
0.6895054947089505
 40
0.7487432781628025
 40
0.8092253247292993
 40
0.8707153202239948
 40
0.9342652493244612
 40
1.0
 40
1.0
 40
1.0
 40
1.0
 10
-2.379798575122886
 20
115.3195300518341
 30
0.0
 10
-2.323835211878527
 20
115.2909612402156
 30
0.0
 10
-2.214106539735088
 20
115.2349457046601
 30
0.0
 10
-2.058324061717149
 20
115.1428728858118
 30
0.0
 10
-1.914086492057424
 20
115.0449417656925
 30
0.0
 10
-1.780747113233349
 20
114.9431227578276
 30
0.0
 10
-1.66110287131243
 20
114.8330996069318
 30
0.0
 10
-1.550213454665514
 20
114.7212119980516
 30
0.0
 10
-1.453549571550262
 20
114.6010492365084
 30
0.0
 10
-1.367109813870941
 20
114.4768941519453
 30
0.0
 10
-1.291977781452942
 20
114.3469489643457
 30
0.0
 10
-1.226546066076964
 20
114.2114331218517
 30
0.0
 10
-1.171278243150265
 20
114.0698836728502
 30
0.0
 10
-1.124476021215557
 20
113.923020989431
 30
0.0
 10
-1.089570911687424
 20
113.7703399326744
 30
0.0
 10
-1.066812037995505
 20
113.6117858974861
 30
0.0
 10
-1.049386421720734
 20
113.4478996337531
 30
0.0
 10
-1.048030872543192
 20
113.3362644035277
 30
0.0
 10
-1.047341644033143
 20
113.2795035093662
 30
0.0
  0
SPLINE
  5
DF
330
1F
100
AcDbEntity
  8
0
  6
Continuous
 62
     7
370
    25
100
AcDbSpline
210
0.0
220
0.0
230
1.0
 70
     8
 71
     3
 72
    15
 73
    11
 74
     0
 42
0.00000001
 43
0.00000001
 40
0.0
 40
0.0
 40
0.0
 40
0.0
 40
0.1232695606004632
 40
0.2426409842839846
 40
0.35942738393912
 40
0.4755502191345224
 40
0.5938976740482411
 40
0.7202015971643226
 40
0.8544653148776592
 40
1.0
 40
1.0
 40
1.0
 40
1.0
 10
-1.556155746597246
 20
116.8491524476675
 30
0.0
 10
-1.558872130811032
 20
116.7748442510862
 30
0.0
 10
-1.564218999381959
 20
116.6285776961393
 30
0.0
 10
-1.598375159944746
 20
116.4137385896307
 30
0.0
 10
-1.662423282711465
 20
116.2106847544397
 30
0.0
 10
-1.746228693619483
 20
116.0156739849816
 30
0.0
 10
-1.860177851338458
 20
115.8294336728405
 30
0.0
 10
-2.004871243648152
 20
115.6520523701131
 30
0.0
 10
-2.177965311532559
 20
115.4780682405651
 30
0.0
 10
-2.310738016949871
 20
115.3737764907548
 30
0.0
 10
-2.379798575122886
 20
115.3195300518341
 30
0.0
  0
SPLINE
  5
E0
330
1F
100
AcDbEntity
  8
0
  6
Continuous
 62
     7
370
    25
100
AcDbSpline
210
0.0
220
0.0
230
1.0
 70
     8
 71
     3
 72
    23
 73
    19
 74
     0
 42
0.00000001
 43
0.00000001
 40
0.0
 40
0.0
 40
0.0
 40
0.0
 40
0.068749766315283
 40
0.1349091121452266
 40
0.1997210700545284
 40
0.2629736746369458
 40
0.3253570233490403
 40
0.3873361409887339
 40
0.4494074874297889
 40
0.5111175193516639
 40
0.5724725853513699
 40
0.6330771719677212
 40
0.6928610080891009
 40
0.7525606967546175
 40
0.8127375856307943
 40
0.8734793127278806
 40
0.9357764600655819
 40
0.9999999999999999
 40
0.9999999999999999
 40
0.9999999999999999
 40
0.9999999999999999
 10
-3.143019728969038
 20
118.7778759051995
 30
0.0
 10
-3.083328689356315
 20
118.7614043742937
 30
0.0
 10
-2.966195707110994
 20
118.7290819428255
 30
0.0
 10
-2.798423896799222
 20
118.6638053955958
 30
0.0
 10
-2.639268931852074
 20
118.5912458852872
 30
0.0
 10
-2.488925136120299
 20
118.5084690548136
 30
0.0
 10
-2.348315680405595
 20
118.4144755558846
 30
0.0
 10
-2.217974928531496
 20
118.3085194278038
 30
0.0
 10
-2.095091752997726
 20
118.1948537449989
 30
0.0
 10
-1.984029454828694
 20
118.0703106771344
 30
0.0
 10
-1.883647436164429
 20
117.9387078556408
 30
0.0
 10
-1.79643345958033
 20
117.8000797640444
 30
0.0
 10
-1.720655692123361
 20
117.6565461163586
 30
0.0
 10
-1.660013629542728
 20
117.5063006370611
 30
0.0
 10
-1.61432097467286
 20
117.3500352472356
 30
0.0
 10
-1.580901557533118
 20
117.1884172242839
 30
0.0
 10
-1.559241249831269
 20
117.0209351690016
 30
0.0
 10
-1.557194634866999
 20
116.9069916526868
 30
0.0
 10
-1.556155746597246
 20
116.8491524476675
 30
0.0
  0
SPLINE
  5
E1
330
1F
100
AcDbEntity
  8
0
  6
Continuous
 62
     7
370
    25
100
AcDbSpline
210
0.0
220
0.0
230
1.0
 70
     8
 71
     3
 72
    15
 73
    11
 74
     0
 42
0.00000001
 43
0.00000001
 40
0.0
 40
0.0
 40
0.0
 40
0.0
 40
0.1639957318060738
 40
0.3173286319587163
 40
0.4580598946275425
 40
0.589158394585904
 40
0.7079520097453068
 40
0.8163219998754461
 40
0.9135847296003142
 40
1.0
 40
1.0
 40
1.0
 40
1.0
 10
-4.76168459275109
 20
118.9193898274752
 30
0.0
 10
-4.672634171117803
 20
118.9193999903321
 30
0.0
 10
-4.500323293505125
 20
118.9194196552677
 30
0.0
 10
-4.251723666179022
 20
118.9106896525385
 30
0.0
 10
-4.021168506706908
 20
118.8993964160001
 30
0.0
 10
-3.809391530962261
 20
118.8867619104795
 30
0.0
 10
-3.616032279864504
 20
118.8649901331077
 30
0.0
 10
-3.441384787689387
 20
118.8420450579307
 30
0.0
 10
-3.285100107690924
 20
118.8143747115086
 30
0.0
 10
-3.188477782484813
 20
118.7895535534814
 30
0.0
 10
-3.143019728969039
 20
118.7778759051996
 30
0.0
  0
SPLINE
  5
E5
330
1F
100
AcDbEntity
  8
0
  6
Continuous
 62
     7
370
    25
100
AcDbSpline
210
0.0
220
0.0
230
1.0
 70
     8
 71
     3
 72
    23
 73
    19
 74
     0
 42
0.00000001
 43
0.00000001
 40
0.0
 40
0.0
 40
0.0
 40
0.0
 40
0.0802588853381371
 40
0.1583905883453939
 40
0.2362576248303802
 40
0.3151047653520843
 40
0.3932216786245968
 40
0.4687312831158773
 40
0.5427812639155796
 40
0.6177081693395501
 40
0.6563652025204867
 40
0.6970796727899443
 40
0.7406969496811662
 40
0.7867286654533115
 40
0.835579092184148
 40
0.8872495053564257
 40
0.9418976668361582
 40
1.0
 40
1.0
 40
1.0
 40
1.0
 10
-1.047341644033143
 20
113.2795035093662
 30
0.0
 10
-1.051814276403609
 20
113.1710934468596
 30
0.0
 10
-1.060640998449725
 20
112.9571466232695
 30
0.0
 10
-1.125177683083928
 20
112.6430235500135
 30
0.0
 10
-1.237063787889987
 20
112.3452063856253
 30
0.0
 10
-1.387303754969033
 20
112.0648787830107
 30
0.0
 10
-1.572428300914084
 20
111.8101557660353
 30
0.0
 10
-1.785268440954382
 20
111.5870206145886
 30
0.0
 10
-2.023681363059597
 20
111.3981416625347
 30
0.0
 10
-2.243646099751359
 20
111.2706630226425
 30
0.0
 10
-2.433898274582031
 20
111.1851129344689
 30
0.0
 10
-2.591480596385371
 20
111.1322204750729
 30
0.0
 10
-2.76072066979982
 20
111.0832209806188
 30
0.0
 10
-2.944718566503968
 20
111.0488125238756
 30
0.0
 10
-3.140138655559586
 20
111.0173181206311
 30
0.0
 10
-3.348886295191762
 20
110.9978728237064
 30
0.0
 10
-3.570571339833078
 20
110.9846952251055
 30
0.0
 10
-3.722834211228352
 20
110.9828438658126
 30
0.0
 10
-3.801297974161348
 20
110.9818898274752
 30
0.0
  0
SPLINE
  5
EB
330
1F
100
AcDbEntity
  8
0
  6
Continuous
 62
     7
370
    25
100
AcDbSpline
210
0.0
220
0.0
230
1.0
 70
     8
 71
     3
 72
    23
 73
    19
 74
     0
 42
0.00000001
 43
0.00000001
 40
0.0
 40
0.0
 40
0.0
 40
0.0
 40
0.0687412630793636
 40
0.1347890881950357
 40
0.1985360495606916
 40
0.2603856506059212
 40
0.3209615782321958
 40
0.379903849584149
 40
0.4385029357752683
 40
0.4961543439762673
 40
0.5542654832084984
 40
0.612748760815693
 40
0.6725134425261792
 40
0.7336464018979746
 40
0.796789619481454
 40
0.8619356990410235
 40
0.9293977347748983
 40
1.0
 40
1.0
 40
1.0
 40
1.0
 10
-16.82057882352032
 20
116.664707335488
 30
0.0
 10
-16.82203923774493
 20
116.6021365704732
 30
0.0
 10
-16.82490284386598
 20
116.4794467043551
 30
0.0
 10
-16.84032778429942
 20
116.2992252975599
 30
0.0
 10
-16.86851972995495
 20
116.1268020614815
 30
0.0
 10
-16.91122053304125
 20
115.9626818301421
 30
0.0
 10
-16.96029955983753
 20
115.8048219359294
 30
0.0
 10
-17.02556207599951
 20
115.6561349926038
 30
0.0
 10
-17.09921727581506
 20
115.5144585639825
 30
0.0
 10
-17.18669540465797
 20
115.3817967168464
 30
0.0
 10
-17.28269837746447
 20
115.2552027665254
 30
0.0
 10
-17.39434781536038
 20
115.1395269968962
 30
0.0
 10
-17.51441054975438
 20
115.0285522733346
 30
0.0
 10
-17.64963574420751
 20
114.9292296760231
 30
0.0
 10
-17.79406254653284
 20
114.8348433698369
 30
0.0
 10
-17.95056056533932
 20
114.7493042404015
 30
0.0
 10
-18.11810844088439
 20
114.6704620309598
 30
0.0
 10
-18.23590289488554
 20
114.6264941688287
 30
0.0
 10
-18.29613972095622
 20
114.6040102201034
 30
0.0
  0
SPLINE
  5
EC
330
1F
100
AcDbEntity
  8
0
  6
Continuous
 62
     7
370
    25
100
AcDbSpline
210
0.0
220
0.0
230
1.0
 70
     8
 71
     3
 72
    31
 73
    27
 74
     0
 42
0.00000001
 43
0.00000001
 40
0.0
 40
0.0
 40
0.0
 40
0.0
 40
0.0728890266200384
 40
0.1401861299444941
 40
0.2022774341249591
 40
0.2588951317514627
 40
0.3104829424654785
 40
0.3570952441313355
 40
0.3985135666534649
 40
0.4350375108701162
 40
0.4692514858292881
 40
0.5028050278902749
 40
0.5362104463185623
 40
0.5693793599392052
 40
0.6028014750483932
 40
0.6366657983367751
 40
0.6709286568940439
 40
0.7058030002293125
 40
0.7411890612458776
 40
0.776304311076462
 40
0.8120043009129347
 40
0.8479689758088939
 40
0.8845217611964802
 40
0.9219741585442064
 40
0.9601981758096089
 40
1.0
 40
1.0
 40
1.0
 40
1.0
 10
-20.04518819852032
 20
118.9193898274752
 30
0.0
 10
-19.93546230658435
 20
118.9190003635324
 30
0.0
 10
-19.72442850824051
 20
118.9182513146642
 30
0.0
 10
-19.42012929750279
 20
118.9064333076462
 30
0.0
 10
-19.14058862446984
 20
118.8899875808963
 30
0.0
 10
-18.88539260389061
 20
118.8648909653778
 30
0.0
 10
-18.65465041282848
 20
118.8316158867956
 30
0.0
 10
-18.44813079367679
 20
118.7923900754445
 30
0.0
 10
-18.26583978280028
 20
118.7476838536316
 30
0.0
 10
-18.10624000728072
 20
118.691976374042
 30
0.0
 10
-17.96220910192512
 20
118.6291391816386
 30
0.0
 10
-17.82795227400077
 20
118.5569380953458
 30
0.0
 10
-17.70050761823758
 20
118.4761770970932
 30
0.0
 10
-17.58072696451499
 20
118.3847311464132
 30
0.0
 10
-17.46756939079044
 20
118.2842453334301
 30
0.0
 10
-17.36082141851677
 20
118.174618509306
 30
0.0
 10
-17.26199149548435
 20
118.0549210837244
 30
0.0
 10
-17.17169158058826
 20
117.925909392516
 30
0.0
 10
-17.08939047683444
 20
117.7901920517805
 30
0.0
 10
-17.01665356262338
 20
117.6475827207234
 30
0.0
 10
-16.95750378309043
 20
117.497982224053
 30
0.0
 10
-16.90523861215723
 20
117.343552612375
 30
0.0
 10
-16.8675937027458
 20
117.1820862840932
 30
0.0
 10
-16.8414122189474
 20
117.0151551411698
 30
0.0
 10
-16.8222431607314
 20
116.842171568258
 30
0.0
 10
-16.82114103152729
 20
116.7246542092044
 30
0.0
 10
-16.82057882352032
 20
116.664707335488
 30
0.0
  0
SPLINE
  5
10A
330
1F
100
AcDbEntity
  8
0
  6
Continuous
 62
     7
370
    25
100
AcDbSpline
210
0.0
220
0.0
230
1.0
 70
     8
 71
     3
 72
    15
 73
    11
 74
     0
 42
0.00000001
 43
0.00000001
 40
0.0
 40
0.0
 40
0.0
 40
0.0
 40
0.0780698025414621
 40
0.1688735680435862
 40
0.2729852285731914
 40
0.3905851522489261
 40
0.521711271930064
 40
0.6677229181798304
 40
0.8263694974163475
 40
1.0
 40
1.0
 40
1.0
 40
1.0
 10
8.544174358859474
 20
-58.47409371304793
 30
0.0
 10
8.498429601782057
 20
-58.48759084265884
 30
0.0
 10
8.399478661783872
 20
-58.5167866182538
 30
0.0
 10
8.235215923833318
 20
-58.54635584001067
 30
0.0
 10
8.046445513405995
 20
-58.57386303836648
 30
0.0
 10
7.832221093924938
 20
-58.59727350902374
 30
0.0
 10
7.591714986681994
 20
-58.61324814069328
 30
0.0
 10
7.325945370468492
 20
-58.62562843541374
 30
0.0
 10
7.034047630820458
 20
-58.63476265610185
 30
0.0
 10
6.831174667767344
 20
-58.63506184073044
 30
0.0
 10
6.725163942192803
 20
-58.63521817885989
 30
0.0
  0
SPLINE
  5
10B
330
1F
100
AcDbEntity
  8
0
  6
Continuous
 62
     7
370
    25
100
AcDbSpline
210
0.0
220
0.0
230
1.0
 70
     8
 71
     3
 72
    23
 73
    19
 74
     0
 42
0.00000001
 43
0.00000001
 40
0.0
 40
0.0
 40
0.0
 40
0.0
 40
0.073489938624059
 40
0.1442998236743532
 40
0.2121182548390604
 40
0.2778317911307888
 40
0.3419468915088152
 40
0.4043701461616048
 40
0.4656010323979167
 40
0.5260829581857933
 40
0.5861380518735722
 40
0.644844074071777
 40
0.7030390985565673
 40
0.7611301953181928
 40
0.8194792848965852
 40
0.8784435373701024
 40
0.9386508039868158
 40
1.0
 40
1.0
 40
1.0
 40
1.0
 10
10.38862548065434
 20
-55.671376031424
 30
0.0
 10
10.38689478856812
 20
-55.75976332012659
 30
0.0
 10
10.38349651980436
 20
-55.93331456283595
 30
0.0
 10
10.35986563149753
 20
-56.18755615878757
 30
0.0
 10
10.32180310899764
 20
-56.43049269606529
 30
0.0
 10
10.26922180090742
 20
-56.66249743644694
 30
0.0
 10
10.19995832499694
 20
-56.88348612843949
 30
0.0
 10
10.11122065496783
 20
-57.09133871098146
 30
0.0
 10
10.01321799429732
 20
-57.29024242717236
 30
0.0
 10
9.894734679474768
 20
-57.47436988744886
 30
0.0
 10
9.76652927928036
 20
-57.64781104618343
 30
0.0
 10
9.626230206404324
 20
-57.80828482424423
 30
0.0
 10
9.472406892051008
 20
-57.95229843135222
 30
0.0
 10
9.308850429035543
 20
-58.08435679344664
 30
0.0
 10
9.134305463191392
 20
-58.20320438634219
 30
0.0
 10
8.949293463779556
 20
-58.31014226076694
 30
0.0
 10
8.75197637614639
 20
-58.40165863720423
 30
0.0
 10
8.6138741526496
 20
-58.44979794385667
 30
0.0
 10
8.544174358859472
 20
-58.47409371304793
 30
0.0
  0
SPLINE
  5
10C
330
1F
100
AcDbEntity
  8
0
  6
Continuous
 62
     7
370
    25
100
AcDbSpline
210
0.0
220
0.0
230
1.0
 70
     8
 71
     3
 72
    23
 73
    19
 74
     0
 42
0.00000001
 43
0.00000001
 40
0.0
 40
0.0
 40
0.0
 40
0.0
 40
0.0665815469714012
 40
0.1285196355351567
 40
0.185890284951055
 40
0.238741348100304
 40
0.2868368405002112
 40
0.3302511781169289
 40
0.3700145474425323
 40
0.4056527916510194
 40
0.4724929846022758
 40
0.5389834794488745
 40
0.6072506139652717
 40
0.6787376685379406
 40
0.7532192966694478
 40
0.8307934903394698
 40
0.9125605356500144
 40
0.9999999999999999
 40
0.9999999999999999
 40
0.9999999999999999
 40
0.9999999999999999
 10
6.805726175098788
 20
-52.66513270877441
 30
0.0
 10
6.925876685106355
 20
-52.6657464496266
 30
0.0
 10
7.157798297894482
 20
-52.66693112847866
 30
0.0
 10
7.493024919539915
 20
-52.6815725927586
 30
0.0
 10
7.802654278060627
 20
-52.7073447834249
 30
0.0
 10
8.08659923371867
 20
-52.73970021289811
 30
0.0
 10
8.343392294720086
 20
-52.7843475735672
 30
0.0
 10
8.574462520941017
 20
-52.83689560702748
 30
0.0
 10
8.780072782454253
 20
-52.89882675101007
 30
0.0
 10
9.017062326880254
 20
-52.99821871123076
 30
0.0
 10
9.283167146176813
 20
-53.15016779399705
 30
0.0
 10
9.564540470952334
 20
-53.38334582501722
 30
0.0
 10
9.810792158388864
 20
-53.66453366892483
 30
0.0
 10
10.01712673985949
 20
-53.99295748605781
 30
0.0
 10
10.18627571537287
 20
-54.36069570756996
 30
0.0
 10
10.30272707687593
 20
-54.76746483656501
 30
0.0
 10
10.3771724254373
 20
-55.20788490979826
 30
0.0
 10
10.38472341666441
 20
-55.5134642793999
 30
0.0
 10
10.38862548065434
 20
-55.671376031424
 30
0.0
  0
CIRCLE
  5
11D
330
1F
100
AcDbEntity
  8
0
  6
Continuous
 62
     7
370
    25
100
AcDbCircle
 10
-45.0
 20
98.0
 30
0.0
 40
2.0
  0
CIRCLE
  5
11E
330
1F
100
AcDbEntity
  8
0
  6
Continuous
 62
     7
370
    25
100
AcDbCircle
 10
45.0
 20
98.0
 30
0.0
 40
2.0
  0
CIRCLE
  5
11F
330
1F
100
AcDbEntity
  8
0
  6
Continuous
 62
     7
370
    25
100
AcDbCircle
 10
-20.0
 20
-67.0
 30
0.0
 40
1.999999999999986
  0
CIRCLE
  5
120
330
1F
100
AcDbEntity
  8
0
  6
Continuous
 62
     7
370
    25
100
AcDbCircle
 10
20.0
 20
-67.0
 30
0.0
 40
1.999999999999989
  0
CIRCLE
  5
125
330
1F
100
AcDbEntity
  8
0
  6
Continuous
 62
     7
370
    25
100
AcDbCircle
 10
-20.0
 20
80.0
 30
0.0
 40
2.000000000000004
  0
CIRCLE
  5
126
330
1F
100
AcDbEntity
  8
0
  6
Continuous
 62
     7
370
    25
100
AcDbCircle
 10
20.0
 20
80.0
 30
0.0
 40
2.000000000000004
  0
CIRCLE
  5
12F
330
1F
100
AcDbEntity
  8
0
  6
Continuous
 62
     7
370
    25
100
AcDbCircle
 10
0.0
 20
-37.0
 30
0.0
 40
4.000000000000002
  0
SPLINE
  5
130
330
1F
100
AcDbEntity
  8
0
  6
Continuous
 62
     7
370
    25
100
AcDbSpline
210
0.0
220
0.0
230
1.0
 70
     8
 71
     3
 72
    15
 73
    11
 74
     0
 42
0.00000001
 43
0.00000001
 40
0.0
 40
0.0
 40
0.0
 40
0.0
 40
0.1396498086716312
 40
0.2733879610929984
 40
0.4008971658175602
 40
0.5240268282512832
 40
0.644426172342822
 40
0.7628054419375713
 40
0.8805685880960049
 40
1.0
 40
1.0
 40
1.0
 40
1.0
 10
13.50935197638084
 20
-57.97799996304792
 30
0.0
 10
13.51246940853733
 20
-58.12302660056851
 30
0.0
 10
13.5185723057
 20
-58.40694060741941
 30
0.0
 10
13.57027909728503
 20
-58.82064382517638
 30
0.0
 10
13.65416643247427
 20
-59.21141378661915
 30
0.0
 10
13.77446071104588
 20
-59.57791583945779
 30
0.0
 10
13.92303334556554
 20
-59.92395635253392
 30
0.0
 10
14.11275144622284
 20
-60.24258354069753
 30
0.0
 10
14.33029271452566
 20
-60.54218187660146
 30
0.0
 10
14.50341299748643
 20
-60.71775457228909
 30
0.0
 10
14.59058194432956
 20
-60.80615834980005
 30
0.0
  0
SPLINE
  5
131
330
1F
100
AcDbEntity
  8
0
  6
Continuous
 62
     7
370
    25
100
AcDbSpline
210
0.0
220
0.0
230
1.0
 70
     8
 71
     3
 72
    23
 73
    19
 74
     0
 42
0.00000001
 43
0.00000001
 40
0.0
 40
0.0
 40
0.0
 40
0.0
 40
0.0586877236345435
 40
0.1156325815965322
 40
0.1715367612636137
 40
0.2269270848907327
 40
0.2835328683469914
 40
0.3410169262287617
 40
0.40068466104878
 40
0.4629175093344347
 40
0.5265746229103645
 40
0.5899718095303217
 40
0.654235926665161
 40
0.7190168714960307
 40
0.7856198790168244
 40
0.8546564482318437
 40
0.9257077636804139
 40
1.0
 40
1.0
 40
1.0
 40
1.0
 10
16.48803453514152
 20
-54.29333783697954
 30
0.0
 10
16.38465031217379
 20
-54.29661477896719
 30
0.0
 10
16.18095209629898
 20
-54.30307134668374
 30
0.0
 10
15.88236724395951
 20
-54.3537086571842
 30
0.0
 10
15.59620788867212
 20
-54.43290329170833
 30
0.0
 10
15.32423365064056
 20
-54.55066330741745
 30
0.0
 10
15.06306256771145
 20
-54.69609828216586
 30
0.0
 10
14.81496894012591
 20
-54.8764133680813
 30
0.0
 10
14.58161846146322
 20
-55.09008504154986
 30
0.0
 10
14.36251679848739
 20
-55.33303072023737
 30
0.0
 10
14.16225210822943
 20
-55.60006044061715
 30
0.0
 10
13.9873905778057
 20
-55.88859361828644
 30
0.0
 10
13.83926758941301
 20
-56.19383345983736
 30
0.0
 10
13.71714007010527
 20
-56.51648787149249
 30
0.0
 10
13.62466466647012
 20
-56.8575317309937
 30
0.0
 10
13.55715354201063
 20
-57.21542738935606
 30
0.0
 10
13.51575010122988
 20
-57.59117420396876
 30
0.0
 10
13.51151615466629
 20
-57.84715539095783
 30
0.0
 10
13.50935197638084
 20
-57.97799996304792
 30
0.0
  0
SPLINE
  5
132
330
1F
100
AcDbEntity
  8
0
  6
Continuous
 62
     7
370
    25
100
AcDbSpline
210
0.0
220
0.0
230
1.0
 70
     8
 71
     3
 72
    23
 73
    19
 74
     0
 42
0.00000001
 43
0.00000001
 40
0.0
 40
0.0
 40
0.0
 40
0.0
 40
0.0717957721302133
 40
0.1411988461650593
 40
0.2085569709540892
 40
0.2743949292668113
 40
0.3392255421064974
 40
0.40340746092713
 40
0.4678458582845883
 40
0.5326676974427116
 40
0.596609901124271
 40
0.657379200197491
 40
0.715831322378309
 40
0.7725321414912871
 40
0.8286930159232551
 40
0.8850661649646381
 40
0.9418614831220338
 40
1.0
 40
1.0
 40
1.0
 40
1.0
 10
19.47943744646631
 20
-57.96315955172312
 30
0.0
 10
19.47748830728212
 20
-57.83723013045392
 30
0.0
 10
19.47365498680019
 20
-57.58956806827575
 30
0.0
 10
19.42872847647435
 20
-57.22614707883341
 30
0.0
 10
19.3622369080364
 20
-56.87699295126041
 30
0.0
 10
19.26664411749661
 20
-56.54267337060006
 30
0.0
 10
19.14270771863633
 20
-56.2239803295379
 30
0.0
 10
18.99479824483567
 20
-55.91821749440809
 30
0.0
 10
18.81494115209736
 20
-55.63010579392768
 30
0.0
 10
18.61318180876669
 20
-55.35761602605259
 30
0.0
 10
18.39103457156309
 20
-55.10976995718003
 30
0.0
 10
18.15429257409683
 20
-54.89226346556214
 30
0.0
 10
17.90841197580034
 20
-54.70495304913865
 30
0.0
 10
17.64674008148476
 20
-54.5559279790053
 30
0.0
 10
17.37369551305429
 20
-54.43845760160185
 30
0.0
 10
17.08878415683816
 20
-54.35268243045869
 30
0.0
 10
16.79149639663403
 20
-54.3035043124588
 30
0.0
 10
16.58997353557202
 20
-54.29675296250194
 30
0.0
 10
16.48803453514152
 20
-54.29333783697954
 30
0.0
  0
SPLINE
  5
133
330
1F
100
AcDbEntity
  8
0
  6
Continuous
 62
     7
370
    25
100
AcDbSpline
210
0.0
220
0.0
230
1.0
 70
     8
 71
     3
 72
    23
 73
    19
 74
     0
 42
0.00000001
 43
0.00000001
 40
0.0
 40
0.0
 40
0.0
 40
0.0
 40
0.0576811670332017
 40
0.1140207615785453
 40
0.1698426945571376
 40
0.2254387613563696
 40
0.2821319597210855
 40
0.3403707609897295
 40
0.4009354839564354
 40
0.4643914036820511
 40
0.5292813700148339
 40
0.5938982746525757
 40
0.6581053306321077
 40
0.723183862925856
 40
0.7894210132150477
 40
0.8575856469508172
 40
0.9273635788141823
 40
1.0
 40
1.0
 40
1.0
 40
1.0
 10
16.51983541655177
 20
-61.62026091390263
 30
0.0
 10
16.62037594209577
 20
-61.61689420261401
 30
0.0
 10
16.8191185799733
 20
-61.61023908440322
 30
0.0
 10
17.11182450670408
 20
-61.5603949628191
 30
0.0
 10
17.39272788609778
 20
-61.47735047927821
 30
0.0
 10
17.66264315164084
 20
-61.3617808717043
 30
0.0
 10
17.92048873738467
 20
-61.21257406970063
 30
0.0
 10
18.16502730359974
 20
-61.02791277618086
 30
0.0
 10
18.39890811040028
 20
-60.81241449950267
 30
0.0
 10
18.6199220456571
 20
-60.56788206698985
 30
0.0
 10
18.82236126732387
 20
-60.2987509247554
 30
0.0
 10
18.99777296434188
 20
-60.00982902837706
 30
0.0
 10
19.1482280224387
 20
-59.70673707109015
 30
0.0
 10
19.26803260178345
 20
-59.38730732151048
 30
0.0
 10
19.36471048215432
 20
-59.05299329977813
 30
0.0
 10
19.43125202287881
 20
-58.70308622549261
 30
0.0
 10
19.47305773031633
 20
-58.33801865923949
 30
0.0
 10
19.47728260768015
 20
-58.08977348332026
 30
0.0
 10
19.47943744646631
 20
-57.96315955172312
 30
0.0
  0
SPLINE
  5
134
330
1F
100
AcDbEntity
  8
0
  6
Continuous
 62
     7
370
    25
100
AcDbSpline
210
0.0
220
0.0
230
1.0
 70
     8
 71
     3
 72
    15
 73
    11
 74
     0
 42
0.00000001
 43
0.00000001
 40
0.0
 40
0.0
 40
0.0
 40
0.0
 40
0.1334744182915433
 40
0.2625288549608468
 40
0.3874085651428325
 40
0.5100861933866835
 40
0.6318078774919499
 40
0.7528920924901137
 40
0.8755419445170989
 40
1.0
 40
1.0
 40
1.0
 40
1.0
 10
14.59058194432956
 20
-60.80615834980005
 30
0.0
 10
14.66077903221819
 20
-60.87115440857443
 30
0.0
 10
14.79884864391513
 20
-60.99899419319691
 30
0.0
 10
15.02277418013867
 20
-61.16376523402292
 30
0.0
 10
15.25267156232649
 20
-61.30549728307966
 30
0.0
 10
15.49136789638396
 20
-61.42058849690291
 30
0.0
 10
15.73794512598236
 20
-61.50985874033718
 30
0.0
 10
15.99216116805425
 20
-61.57374836273088
 30
0.0
 10
16.25359787195479
 20
-61.61305032665231
 30
0.0
 10
16.43065769200943
 20
-61.61784568818916
 30
0.0
 10
16.51983541655178
 20
-61.62026091390263
 30
0.0
  0
SPLINE
  5
135
330
1F
100
AcDbEntity
  8
0
  6
Continuous
 62
     7
370
    25
100
AcDbSpline
210
0.0
220
0.0
230
1.0
 70
     8
 71
     3
 72
    19
 73
    15
 74
     0
 42
0.00000001
 43
0.00000001
 40
0.0
 40
0.0
 40
0.0
 40
0.0
 40
0.1404764077487769
 40
0.2593710221254323
 40
0.3551762035973494
 40
0.4300819656194167
 40
0.4948251364232193
 40
0.5589888620871717
 40
0.6235706524831822
 40
0.6915902352205027
 40
0.7628897307931958
 40
0.8374795418492058
 40
0.9160497565638471
 40
0.9999999999999999
 40
0.9999999999999999
 40
0.9999999999999999
 40
0.9999999999999999
 10
7.248818456081692
 20
-56.73564552928725
 30
0.0
 10
7.343559343483581
 20
-56.7348463422633
 30
0.0
 10
7.51848580406367
 20
-56.73337074960974
 30
0.0
 10
7.757396501114434
 20
-56.71285144303087
 30
0.0
 10
7.950200663283983
 20
-56.68102101035853
 30
0.0
 10
8.103292058433244
 20
-56.63517282024069
 30
0.0
 10
8.223344243787317
 20
-56.56671665802946
 30
0.0
 10
8.326841868607548
 20
-56.4862496030509
 30
0.0
 10
8.414063198075686
 20
-56.3855608508992
 30
0.0
 10
8.491945053028319
 20
-56.27159911367855
 30
0.0
 10
8.54943369415817
 20
-56.13864841743289
 30
0.0
 10
8.595232248403898
 20
-55.99408727909108
 30
0.0
 10
8.620084628688758
 20
-55.83546606496306
 30
0.0
 10
8.623152089306416
 20
-55.72586869628631
 30
0.0
 10
8.62473659176545
 20
-55.66925597266331
 30
0.0
  0
SPLINE
  5
139
330
1F
100
AcDbEntity
  8
0
  6
Continuous
 62
     7
370
    25
100
AcDbSpline
210
0.0
220
0.0
230
1.0
 70
     8
 71
     3
 72
    15
 73
    11
 74
     0
 42
0.00000001
 43
0.00000001
 40
0.0
 40
0.0
 40
0.0
 40
0.0
 40
0.0852884685357286
 40
0.1799075290007623
 40
0.2851500235341338
 40
0.4019565773833582
 40
0.5310152140678572
 40
0.6747816221420238
 40
0.8296366424913225
 40
1.0
 40
1.0
 40
1.0
 40
1.0
 10
8.236765838560325
 20
-54.77459117565475
 30
0.0
 10
8.211030287103332
 20
-54.75760464781723
 30
0.0
 10
8.156743704760022
 20
-54.72177325933036
 30
0.0
 10
8.061987017071848
 20
-54.68048418415164
 30
0.0
 10
7.953390640207716
 20
-54.64457232052087
 30
0.0
 10
7.829898785045865
 20
-54.61534070082796
 30
0.0
 10
7.69107791689479
 20
-54.59235293086778
 30
0.0
 10
7.53752916106893
 20
-54.57528514313678
 30
0.0
 10
7.368312653891236
 20
-54.56807470182785
 30
0.0
 10
7.250941082230725
 20
-54.56586361868443
 30
0.0
 10
7.189456810782549
 20
-54.56470535834706
 30
0.0
  0
SPLINE
  5
13A
330
1F
100
AcDbEntity
  8
0
  6
Continuous
 62
     7
370
    25
100
AcDbSpline
210
0.0
220
0.0
230
1.0
 70
     8
 71
     3
 72
    15
 73
    11
 74
     0
 42
0.00000001
 43
0.00000001
 40
0.0
 40
0.0
 40
0.0
 40
0.0
 40
0.1463772111706812
 40
0.2831989091043952
 40
0.4124078814206598
 40
0.5366397680703328
 40
0.6534287743988475
 40
0.768788885252569
 40
0.8841679122515026
 40
1.0
 40
1.0
 40
1.0
 40
1.0
 10
8.62473659176545
 20
-55.66925597266331
 30
0.0
 10
8.623323672115161
 20
-55.61976127854668
 30
0.0
 10
8.620590068295183
 20
-55.52400290695198
 30
0.0
 10
8.605045539103612
 20
-55.38499086448516
 30
0.0
 10
8.571797407861265
 20
-55.25689985500134
 30
0.0
 10
8.530373560896855
 20
-55.13863375404897
 30
0.0
 10
8.477548824566924
 20
-55.02960578967917
 30
0.0
 10
8.407554332692365
 20
-54.93481826119681
 30
0.0
 10
8.330616259646769
 20
-54.84565308861048
 30
0.0
 10
8.268090152456505
 20
-54.79830940346577
 30
0.0
 10
8.236765838560325
 20
-54.77459117565475
 30
0.0
  0
SPLINE
  5
13B
330
1F
100
AcDbEntity
  8
0
  6
Continuous
 62
     7
370
    25
100
AcDbSpline
210
0.0
220
0.0
230
1.0
 70
     8
 71
     3
 72
    15
 73
    11
 74
     0
 42
0.00000001
 43
0.00000001
 40
0.0
 40
0.0
 40
0.0
 40
0.0
 40
0.1334744182915443
 40
0.2625288549608477
 40
0.3874085651428331
 40
0.5100861933866839
 40
0.6318078774919488
 40
0.7528920924901124
 40
0.8755419445170974
 40
1.0
 40
1.0
 40
1.0
 40
1.0
 10
-14.98847788473027
 20
-60.80615834980005
 30
0.0
 10
-14.91828079684164
 20
-60.87115440857443
 30
0.0
 10
-14.7802111851447
 20
-60.99899419319693
 30
0.0
 10
-14.55628564892115
 20
-61.16376523402292
 30
0.0
 10
-14.32638826673334
 20
-61.30549728307967
 30
0.0
 10
-14.08769193267587
 20
-61.42058849690291
 30
0.0
 10
-13.84111470307747
 20
-61.50985874033721
 30
0.0
 10
-13.58689866100558
 20
-61.57374836273087
 30
0.0
 10
-13.32546195710505
 20
-61.61305032665229
 30
0.0
 10
-13.1484021370504
 20
-61.61784568818916
 30
0.0
 10
-13.05922441250805
 20
-61.62026091390263
 30
0.0
  0
SPLINE
  5
13C
330
1F
100
AcDbEntity
  8
0
  6
Continuous
 62
     7
370
    25
100
AcDbSpline
210
0.0
220
0.0
230
1.0
 70
     8
 71
     3
 72
    15
 73
    11
 74
     0
 42
0.00000001
 43
0.00000001
 40
0.0
 40
0.0
 40
0.0
 40
0.0
 40
0.1396498086716314
 40
0.2733879610929987
 40
0.4008971658175601
 40
0.5240268282512835
 40
0.6444261723428223
 40
0.7628054419375717
 40
0.8805685880960055
 40
0.9999999999999999
 40
0.9999999999999999
 40
0.9999999999999999
 40
0.9999999999999999
 10
-16.06970785267899
 20
-57.97799996304792
 30
0.0
 10
-16.0665904205225
 20
-58.12302660056849
 30
0.0
 10
-16.06048752335983
 20
-58.40694060741941
 30
0.0
 10
-16.0087807317748
 20
-58.8206438251764
 30
0.0
 10
-15.92489339658556
 20
-59.21141378661915
 30
0.0
 10
-15.80459911801395
 20
-59.5779158394578
 30
0.0
 10
-15.65602648349428
 20
-59.92395635253392
 30
0.0
 10
-15.46630838283699
 20
-60.24258354069756
 30
0.0
 10
-15.24876711453416
 20
-60.54218187660143
 30
0.0
 10
-15.0756468315734
 20
-60.71775457228909
 30
0.0
 10
-14.98847788473027
 20
-60.80615834980005
 30
0.0
  0
SPLINE
  5
13D
330
1F
100
AcDbEntity
  8
0
  6
Continuous
 62
     7
370
    25
100
AcDbSpline
210
0.0
220
0.0
230
1.0
 70
     8
 71
     3
 72
    23
 73
    19
 74
     0
 42
0.00000001
 43
0.00000001
 40
0.0
 40
0.0
 40
0.0
 40
0.0
 40
0.0586877236345442
 40
0.1156325815965328
 40
0.1715367612636144
 40
0.2269270848907327
 40
0.2835328683469915
 40
0.3410169262287622
 40
0.40068466104878
 40
0.4629175093344347
 40
0.5265746229103648
 40
0.5899718095303214
 40
0.6542359266651608
 40
0.7190168714960307
 40
0.7856198790168244
 40
0.8546564482318437
 40
0.9257077636804139
 40
1.0
 40
1.0
 40
1.0
 40
1.0
 10
-13.09102529391831
 20
-54.29333783697954
 30
0.0
 10
-13.19440951688605
 20
-54.2966147789672
 30
0.0
 10
-13.39810773276086
 20
-54.30307134668372
 30
0.0
 10
-13.69669258510032
 20
-54.35370865718422
 30
0.0
 10
-13.98285194038771
 20
-54.43290329170833
 30
0.0
 10
-14.25482617841927
 20
-54.55066330741745
 30
0.0
 10
-14.51599726134837
 20
-54.69609828216584
 30
0.0
 10
-14.76409088893393
 20
-54.8764133680813
 30
0.0
 10
-14.9974413675966
 20
-55.09008504154988
 30
0.0
 10
-15.21654303057245
 20
-55.33303072023736
 30
0.0
 10
-15.41680772083041
 20
-55.60006044061719
 30
0.0
 10
-15.59166925125412
 20
-55.88859361828642
 30
0.0
 10
-15.73979223964683
 20
-56.19383345983736
 30
0.0
 10
-15.86191975895455
 20
-56.51648787149248
 30
0.0
 10
-15.95439516258972
 20
-56.8575317309937
 30
0.0
 10
-16.02190628704919
 20
-57.21542738935606
 30
0.0
 10
-16.06330972782996
 20
-57.59117420396876
 30
0.0
 10
-16.06754367439354
 20
-57.84715539095783
 30
0.0
 10
-16.06970785267899
 20
-57.97799996304792
 30
0.0
  0
SPLINE
  5
13E
330
1F
100
AcDbEntity
  8
0
  6
Continuous
 62
     7
370
    25
100
AcDbSpline
210
0.0
220
0.0
230
1.0
 70
     8
 71
     3
 72
    23
 73
    19
 74
     0
 42
0.00000001
 43
0.00000001
 40
0.0
 40
0.0
 40
0.0
 40
0.0
 40
0.0717957721302133
 40
0.1411988461650593
 40
0.2085569709540891
 40
0.2743949292668114
 40
0.3392255421064972
 40
0.4034074609271295
 40
0.4678458582845885
 40
0.5326676974427114
 40
0.5966099011242707
 40
0.6573792001974902
 40
0.7158313223783088
 40
0.7725321414912877
 40
0.8286930159232544
 40
0.8850661649646374
 40
0.9418614831220338
 40
1.0
 40
1.0
 40
1.0
 40
1.0
 10
-10.09962238259352
 20
-57.96315955172312
 30
0.0
 10
-10.10157152177771
 20
-57.83723013045392
 30
0.0
 10
-10.10540484225964
 20
-57.58956806827575
 30
0.0
 10
-10.15033135258548
 20
-57.22614707883341
 30
0.0
 10
-10.21682292102343
 20
-56.87699295126039
 30
0.0
 10
-10.31241571156322
 20
-56.54267337060006
 30
0.0
 10
-10.4363521104235
 20
-56.2239803295379
 30
0.0
 10
-10.58426158422415
 20
-55.91821749440809
 30
0.0
 10
-10.76411867696248
 20
-55.63010579392768
 30
0.0
 10
-10.96587802029313
 20
-55.35761602605258
 30
0.0
 10
-11.18802525749674
 20
-55.10976995718002
 30
0.0
 10
-11.42476725496301
 20
-54.89226346556214
 30
0.0
 10
-11.6706478532595
 20
-54.70495304913867
 30
0.0
 10
-11.93231974757507
 20
-54.55592797900527
 30
0.0
 10
-12.20536431600554
 20
-54.43845760160185
 30
0.0
 10
-12.49027567222167
 20
-54.35268243045871
 30
0.0
 10
-12.7875634324258
 20
-54.30350431245881
 30
0.0
 10
-12.9890862934878
 20
-54.29675296250194
 30
0.0
 10
-13.09102529391831
 20
-54.29333783697954
 30
0.0
  0
SPLINE
  5
13F
330
1F
100
AcDbEntity
  8
0
  6
Continuous
 62
     7
370
    25
100
AcDbSpline
210
0.0
220
0.0
230
1.0
 70
     8
 71
     3
 72
    23
 73
    19
 74
     0
 42
0.00000001
 43
0.00000001
 40
0.0
 40
0.0
 40
0.0
 40
0.0
 40
0.057681167033201
 40
0.1140207615785453
 40
0.169842694557137
 40
0.2254387613563696
 40
0.282131959721085
 40
0.3403707609897301
 40
0.4009354839564355
 40
0.4643914036820508
 40
0.5292813700148341
 40
0.5938982746525759
 40
0.6581053306321083
 40
0.7231838629258566
 40
0.7894210132150477
 40
0.8575856469508174
 40
0.9273635788141824
 40
1.0
 40
1.0
 40
1.0
 40
1.0
 10
-13.05922441250805
 20
-61.62026091390263
 30
0.0
 10
-12.95868388696407
 20
-61.61689420261401
 30
0.0
 10
-12.75994124908653
 20
-61.61023908440322
 30
0.0
 10
-12.46723532235575
 20
-61.5603949628191
 30
0.0
 10
-12.18633194296206
 20
-61.47735047927821
 30
0.0
 10
-11.91641667741899
 20
-61.36178087170427
 30
0.0
 10
-11.65857109167516
 20
-61.21257406970065
 30
0.0
 10
-11.41403252546008
 20
-61.02791277618088
 30
0.0
 10
-11.18015171865956
 20
-60.81241449950269
 30
0.0
 10
-10.95913778340274
 20
-60.56788206698983
 30
0.0
 10
-10.75669856173596
 20
-60.2987509247554
 30
0.0
 10
-10.58128686471795
 20
-60.00982902837706
 30
0.0
 10
-10.43083180662113
 20
-59.70673707109017
 30
0.0
 10
-10.31102722727637
 20
-59.38730732151048
 30
0.0
 10
-10.21434934690551
 20
-59.05299329977814
 30
0.0
 10
-10.14780780618102
 20
-58.70308622549261
 30
0.0
 10
-10.1060020987435
 20
-58.33801865923947
 30
0.0
 10
-10.10177722137968
 20
-58.08977348332023
 30
0.0
 10
-10.09962238259352
 20
-57.96315955172312
 30
0.0
  0
SPLINE
  5
143
330
1F
100
AcDbEntity
  8
0
  6
Continuous
 62
     7
370
    25
100
AcDbSpline
210
0.0
220
0.0
230
1.0
 70
     8
 71
     3
 72
    15
 73
    11
 74
     0
 42
0.00000001
 43
0.00000001
 40
0.0
 40
0.0
 40
0.0
 40
0.0
 40
0.1279910255623706
 40
0.2530983915017067
 40
0.3761840584327901
 40
0.4989363124701251
 40
0.6215258806257283
 40
0.7457068938016901
 40
0.871575350296869
 40
1.0
 40
1.0
 40
1.0
 40
1.0
 10
2.371253107569423
 20
112.8136205967059
 30
0.0
 10
2.435118864236928
 20
112.7647860590195
 30
0.0
 10
2.561411471187783
 20
112.6682172341048
 30
0.0
 10
2.763001967977256
 20
112.5444444743485
 30
0.0
 10
2.97060048465601
 20
112.438358872174
 30
0.0
 10
3.185773612298651
 20
112.3526429605971
 30
0.0
 10
3.408066916332451
 20
112.2852202653322
 30
0.0
 10
3.637449913530599
 20
112.2380052604922
 30
0.0
 10
3.873597587592851
 20
112.2083737617403
 30
0.0
 10
4.033291711842385
 20
112.2048322363179
 30
0.0
 10
4.113941408851477
 20
112.203043673629
 30
0.0
  0
SPLINE
  5
144
330
1F
100
AcDbEntity
  8
0
  6
Continuous
 62
     7
370
    25
100
AcDbSpline
210
0.0
220
0.0
230
1.0
 70
     8
 71
     3
 72
    23
 73
    19
 74
     0
 42
0.00000001
 43
0.00000001
 40
0.0
 40
0.0
 40
0.0
 40
0.0
 40
0.0659391240576586
 40
0.1297911093795344
 40
0.1921752363053287
 40
0.2536170442157538
 40
0.3147191079962383
 40
0.3762822754113771
 40
0.4389729923739136
 40
0.5031747018386417
 40
0.5673294646239473
 40
0.6296509938060324
 40
0.690649867303098
 40
0.7512376127977861
 40
0.8117541138236062
 40
0.8727877774488539
 40
0.9355396326682291
 40
1.0
 40
1.0
 40
1.0
 40
1.0
 10
6.788395535454038
 20
114.9458696952636
 30
0.0
 10
6.785884470675592
 20
115.0403264303538
 30
0.0
 10
6.780941822619883
 20
115.2262501078507
 30
0.0
 10
6.743866738211379
 20
115.4995740511305
 30
0.0
 10
6.681629759099338
 20
115.7614655093255
 30
0.0
 10
6.595446229811556
 20
116.0123521788406
 30
0.0
 10
6.485394426673442
 20
116.2524800217326
 30
0.0
 10
6.349304207622416
 20
116.4810046065688
 30
0.0
 10
6.187653096390523
 20
116.6977050059506
 30
0.0
 10
6.004161483264832
 20
116.9011044895254
 30
0.0
 10
5.804442140007096
 20
117.0880155860783
 30
0.0
 10
5.590023469273098
 20
117.2502204408771
 30
0.0
 10
5.366905146139286
 20
117.3911713024575
 30
0.0
 10
5.12996774766968
 20
117.5015865159186
 30
0.0
 10
4.884058814698991
 20
117.5895540822603
 30
0.0
 10
4.62767779785523
 20
117.6543346603825
 30
0.0
 10
4.359853638335703
 20
117.6905623113831
 30
0.0
 10
4.177647324905674
 20
117.6956552910761
 30
0.0
 10
4.085320615582241
 20
117.6982359813213
 30
0.0
  0
SPLINE
  5
145
330
1F
100
AcDbEntity
  8
0
  6
Continuous
 62
     7
370
    25
100
AcDbSpline
210
0.0
220
0.0
230
1.0
 70
     8
 71
     3
 72
    15
 73
    11
 74
     0
 42
0.00000001
 43
0.00000001
 40
0.0
 40
0.0
 40
0.0
 40
0.0
 40
0.1348068327792168
 40
0.2641990558543182
 40
0.3884618167279416
 40
0.5099420983643695
 40
0.6304096106127718
 40
0.7506710345119791
 40
0.8734547255294222
 40
1.0
 40
1.0
 40
1.0
 40
1.0
 10
1.394966048274552
 20
114.93473938677
 30
0.0
 10
1.398190322733931
 20
114.8259408308927
 30
0.0
 10
1.404509366438327
 20
114.6127136884068
 30
0.0
 10
1.448970926509651
 20
114.3016636778742
 30
0.0
 10
1.525040229974727
 20
114.0079078146082
 30
0.0
 10
1.634882825183824
 20
113.7328828146398
 30
0.0
 10
1.771116460784582
 20
113.4735347313027
 30
0.0
 10
1.940297014568092
 20
113.2330422440172
 30
0.0
 10
2.139684562426313
 20
113.0099653961289
 30
0.0
 10
2.293291113932628
 20
112.8797238405371
 30
0.0
 10
2.371253107569423
 20
112.8136205967059
 30
0.0
  0
SPLINE
  5
146
330
1F
100
AcDbEntity
  8
0
  6
Continuous
 62
     7
370
    25
100
AcDbSpline
210
0.0
220
0.0
230
1.0
 70
     8
 71
     3
 72
    23
 73
    19
 74
     0
 42
0.00000001
 43
0.00000001
 40
0.0
 40
0.0
 40
0.0
 40
0.0
 40
0.0646087354707741
 40
0.1275117897236746
 40
0.1885213083986469
 40
0.24870817908937
 40
0.3085982651789115
 40
0.3688122491095524
 40
0.4298875018150754
 40
0.492802447924245
 40
0.5557433321027925
 40
0.6174852948395637
 40
0.678968963438036
 40
0.7401976913545534
 40
0.8023601016976071
 40
0.8662447764427329
 40
0.9317068283956892
 40
1.0
 40
1.0
 40
1.0
 40
1.0
 10
4.085320615582242
 20
117.6982359813213
 30
0.0
 10
3.992444503514995
 20
117.6957439067027
 30
0.0
 10
3.809144223978824
 20
117.6908255486441
 30
0.0
 10
3.540276095836589
 20
117.6533543124925
 30
0.0
 10
3.282153197638594
 20
117.5935084891465
 30
0.0
 10
3.036206406798335
 20
117.5068225453366
 30
0.0
 10
2.801369768482048
 20
117.3964933398484
 30
0.0
 10
2.577226990086183
 20
117.2629063762927
 30
0.0
 10
2.366881985726756
 20
117.1014697522712
 30
0.0
 10
2.167530008081305
 20
116.9208502802583
 30
0.0
 10
1.987448300125604
 20
116.7195986795341
 30
0.0
 10
1.828340430117278
 20
116.5039233629292
 30
0.0
 10
1.69519277007513
 20
116.2741845046443
 30
0.0
 10
1.583680770685404
 20
116.0325163243806
 30
0.0
 10
1.499736949661987
 20
115.7762013273761
 30
0.0
 10
1.439946282806573
 20
115.5072472568176
 30
0.0
 10
1.402160813191376
 20
115.2251906914167
 30
0.0
 10
1.397397907803673
 20
115.0329130979498
 30
0.0
 10
1.394966048274552
 20
114.93473938677
 30
0.0
  0
SPLINE
  5
147
330
1F
100
AcDbEntity
  8
0
  6
Continuous
 62
     7
370
    25
100
AcDbSpline
210
0.0
220
0.0
230
1.0
 70
     8
 71
     3
 72
    23
 73
    19
 74
     0
 42
0.00000001
 43
0.00000001
 40
0.0
 40
0.0
 40
0.0
 40
0.0
 40
0.0641474448766719
 40
0.1262121152536833
 40
0.1868412890216909
 40
0.2469358694509775
 40
0.3072563614860029
 40
0.3681505022006765
 40
0.430070766951657
 40
0.4938754417369551
 40
0.5579806818508445
 40
0.6208695259285344
 40
0.6825247313751586
 40
0.7440356981057702
 40
0.8058886825781879
 40
0.8689681377436683
 40
0.9332474288479411
 40
1.0
 40
1.0
 40
1.0
 40
1.0
 10
4.113941408851477
 20
112.203043673629
 30
0.0
 10
4.205220513895509
 20
112.2055568782771
 30
0.0
 10
4.384815023828363
 20
112.2105016874635
 30
0.0
 10
4.648678026590562
 20
112.2475116321494
 30
0.0
 10
4.90146679740298
 20
112.3101458210595
 30
0.0
 10
5.144750670355529
 20
112.3960713250648
 30
0.0
 10
5.377828123517673
 20
112.5077858091672
 30
0.0
 10
5.599560043693911
 20
112.6455162212567
 30
0.0
 10
5.810335187476793
 20
112.8075714092104
 30
0.0
 10
6.009433193323646
 20
112.9905628104346
 30
0.0
 10
6.191418182261639
 20
113.1926072033992
 30
0.0
 10
6.35019402704016
 20
113.4094329098628
 30
0.0
 10
6.487575117322558
 20
113.6362626106159
 30
0.0
 10
6.596768223015374
 20
113.8763067361102
 30
0.0
 10
6.684028474727793
 20
114.1272993821488
 30
0.0
 10
6.7430995297508
 20
114.3903521411502
 30
0.0
 10
6.781204200905618
 20
114.6643806097385
 30
0.0
 10
6.785968448231604
 20
114.8508666665306
 30
0.0
 10
6.788395535454038
 20
114.9458696952636
 30
0.0
  0
SPLINE
  5
14B
330
1F
100
AcDbEntity
  8
0
  6
Continuous
 62
     7
370
    25
100
AcDbSpline
210
0.0
220
0.0
230
1.0
 70
     8
 71
     3
 72
    23
 73
    19
 74
     0
 42
0.00000001
 43
0.00000001
 40
0.0
 40
0.0
 40
0.0
 40
0.0
 40
0.0528263492812301
 40
0.1028915173965596
 40
0.1516981461048807
 40
0.1995775881235319
 40
0.2472235843729642
 40
0.2957231203836683
 40
0.3462538147999426
 40
0.3985071702228987
 40
0.4542901722394644
 40
0.5140415865121296
 40
0.5790927186074086
 40
0.6500371484472969
 40
0.727451000764525
 40
0.811452006589293
 40
0.9024758798237973
 40
1.0
 40
1.0
 40
1.0
 40
1.0
 10
-2.472021131212629
 20
113.3351550518341
 30
0.0
 10
-2.473214273997619
 20
113.3770882421776
 30
0.0
 10
-2.475538195171213
 20
113.4587628163706
 30
0.0
 10
-2.49451768759863
 20
113.5781389230541
 30
0.0
 10
-2.52900962513531
 20
113.6895844392614
 30
0.0
 10
-2.572453903363118
 20
113.7959491771825
 30
0.0
 10
-2.632908924750528
 20
113.8934249087044
 30
0.0
 10
-2.704757651650668
 20
113.9853848992549
 30
0.0
 10
-2.791569255679857
 20
114.0687150997213
 30
0.0
 10
-2.889193968848659
 20
114.1484556320779
 30
0.0
 10
-3.003063531338828
 20
114.2182727883058
 30
0.0
 10
-3.133231367463484
 20
114.2788515380022
 30
0.0
 10
-3.280404619754986
 20
114.329444678858
 30
0.0
 10
-3.445039172942239
 20
114.3697269707948
 30
0.0
 10
-3.626413281918448
 20
114.4039139951715
 30
0.0
 10
-3.825850778424907
 20
114.424327422677
 30
0.0
 10
-4.041690677727842
 20
114.4395097858474
 30
0.0
 10
-4.191357576540443
 20
114.4410362039867
 30
0.0
 10
-4.268770930892115
 20
114.4418257249111
 30
0.0
  0
SPLINE
  5
14C
330
1F
100
AcDbEntity
  8
0
  6
Continuous
 62
     7
370
    25
100
AcDbSpline
210
0.0
220
0.0
230
1.0
 70
     8
 71
     3
 72
    23
 73
    19
 74
     0
 42
0.00000001
 43
0.00000001
 40
0.0
 40
0.0
 40
0.0
 40
0.0
 40
0.109567425269541
 40
0.2106570473717296
 40
0.3020024587326175
 40
0.3851432164195914
 40
0.4590126129308742
 40
0.5247192090460504
 40
0.5832266479388951
 40
0.6342083193258317
 40
0.6811857277932593
 40
0.7262751343643195
 40
0.7701133344783245
 40
0.8140800070141053
 40
0.8579941680783144
 40
0.9033387195085185
 40
0.9505447828389835
 40
0.9999999999999999
 40
0.9999999999999999
 40
0.9999999999999999
 40
0.9999999999999999
 10
-4.198808991789551
 20
112.4065693146547
 30
0.0
 10
-4.117705727578802
 20
112.4070326545873
 30
0.0
 10
-3.961774581722119
 20
112.4079234834253
 30
0.0
 10
-3.738403491574545
 20
112.41868681428
 30
0.0
 10
-3.535303327828217
 20
112.4380858216641
 30
0.0
 10
-3.353012229293554
 20
112.4623039197134
 30
0.0
 10
-3.191250982644019
 20
112.4951156545621
 30
0.0
 10
-3.050566379612438
 20
112.5368315703757
 30
0.0
 10
-2.929029113238085
 20
112.5827263436768
 30
0.0
 10
-2.827367926985633
 20
112.639411837903
 30
0.0
 10
-2.744316561692219
 20
112.7053796961708
 30
0.0
 10
-2.669371412106143
 20
112.7728004319599
 30
0.0
 10
-2.608265807108852
 20
112.8505766203786
 30
0.0
 10
-2.559917912117573
 20
112.9353695452154
 30
0.0
 10
-2.518072894384297
 20
113.0250728890126
 30
0.0
 10
-2.492834934639121
 20
113.1231895350624
 30
0.0
 10
-2.473619637853127
 20
113.2268115412737
 30
0.0
 10
-2.472562168633517
 20
113.2984846420664
 30
0.0
 10
-2.472021131212629
 20
113.3351550518341
 30
0.0
  0
SPLINE
  5
150
330
1F
100
AcDbEntity
  8
0
  6
Continuous
 62
     7
370
    25
100
AcDbSpline
210
0.0
220
0.0
230
1.0
 70
     8
 71
     3
 72
    19
 73
    15
 74
     0
 42
0.00000001
 43
0.00000001
 40
0.0
 40
0.0
 40
0.0
 40
0.0
 40
0.1123318680474823
 40
0.217189152447909
 40
0.3207763822148974
 40
0.4294461252394095
 40
0.4868895248481753
 40
0.5473481609653094
 40
0.6105516098532324
 40
0.6785404198027603
 40
0.751005763870191
 40
0.8285633445446969
 40
0.9114938035709802
 40
1.0
 40
1.0
 40
1.0
 40
1.0
 10
-2.980835233776732
 20
116.6583471592059
 30
0.0
 10
-2.983548814408225
 20
116.7198216513307
 30
0.0
 10
-2.988795413505145
 20
116.8386801113013
 30
0.0
 10
-3.048166278637974
 20
117.0055679746719
 30
0.0
 10
-3.140380969636468
 20
117.1534647771678
 30
0.0
 10
-3.249253373505467
 20
117.2546880436023
 30
0.0
 10
-3.351777897442283
 20
117.3238205502929
 30
0.0
 10
-3.439565686325401
 20
117.3693413619883
 30
0.0
 10
-3.535919376628268
 20
117.4100911273691
 30
0.0
 10
-3.642704272579668
 20
117.44124939113
 30
0.0
 10
-3.759310573859506
 20
117.4646294551709
 30
0.0
 10
-3.885171858588022
 20
117.4817993122386
 30
0.0
 10
-4.020505280910907
 20
117.4934858474164
 30
0.0
 10
-4.113980363646348
 20
117.4942934209363
 30
0.0
 10
-4.162237978167758
 20
117.4947103402957
 30
0.0
  0
SPLINE
  5
151
330
1F
100
AcDbEntity
  8
0
  6
Continuous
 62
     7
370
    25
100
AcDbSpline
210
0.0
220
0.0
230
1.0
 70
     8
 71
     3
 72
    19
 73
    15
 74
     0
 42
0.00000001
 43
0.00000001
 40
0.0
 40
0.0
 40
0.0
 40
0.0
 40
0.088776228965456
 40
0.171377137214556
 40
0.2481138113668481
 40
0.3211611878976225
 40
0.3880331325497764
 40
0.4520913744364407
 40
0.5122677074822284
 40
0.5688662368266993
 40
0.6769360002929867
 40
0.7810117272007138
 40
0.8869176462132679
 40
1.0
 40
1.0
 40
1.0
 40
1.0
 10
-4.230609873199808
 20
115.7647423915777
 30
0.0
 10
-4.179177769737582
 20
115.7651908989817
 30
0.0
 10
-4.079891206712825
 20
115.766056715381
 30
0.0
 10
-3.936482297819988
 20
115.7772081299576
 30
0.0
 10
-3.803135172262333
 20
115.7962331359077
 30
0.0
 10
-3.680355586911259
 20
115.8227778050026
 30
0.0
 10
-3.566999805336262
 20
115.8564856644938
 30
0.0
 10
-3.463791976925021
 20
115.8970434788397
 30
0.0
 10
-3.37118588783638
 20
115.9465284207311
 30
0.0
 10
-3.263599030916813
 20
116.020238425398
 30
0.0
 10
-3.149871964695172
 20
116.1287059973259
 30
0.0
 10
-3.049759307346056
 20
116.285409878516
 30
0.0
 10
-2.990793620673996
 20
116.4656187456622
 30
0.0
 10
-2.984226433539984
 20
116.5927159925196
 30
0.0
 10
-2.980835233776732
 20
116.6583471592059
 30
0.0
  0
SPLINE
  5
152
330
1F
100
AcDbEntity
  8
0
  6
Continuous
 62
     7
370
    25
100
AcDbSpline
210
0.0
220
0.0
230
1.0
 70
     8
 71
     3
 72
    15
 73
    11
 74
     0
 42
0.00000001
 43
0.00000001
 40
0.0
 40
0.0
 40
0.0
 40
0.0
 40
0.1348068327792167
 40
0.2641990558543181
 40
0.3884618167279414
 40
0.5099420983643697
 40
0.6304096106127718
 40
0.7506710345119795
 40
0.8734547255294222
 40
1.0
 40
1.0
 40
1.0
 40
1.0
 10
-14.27650831069981
 20
114.93473938677
 30
0.0
 10
-14.27328403624043
 20
114.8259408308927
 30
0.0
 10
-14.26696499253604
 20
114.6127136884068
 30
0.0
 10
-14.22250343246471
 20
114.3016636778742
 30
0.0
 10
-14.14643412899964
 20
114.0079078146081
 30
0.0
 10
-14.03659153379053
 20
113.7328828146398
 30
0.0
 10
-13.90035789818978
 20
113.4735347313027
 30
0.0
 10
-13.73117734440626
 20
113.2330422440172
 30
0.0
 10
-13.53178979654805
 20
113.0099653961289
 30
0.0
 10
-13.37818324504173
 20
112.8797238405371
 30
0.0
 10
-13.30022125140494
 20
112.8136205967059
 30
0.0
  0
SPLINE
  5
153
330
1F
100
AcDbEntity
  8
0
  6
Continuous
 62
     7
370
    25
100
AcDbSpline
210
0.0
220
0.0
230
1.0
 70
     8
 71
     3
 72
    15
 73
    11
 74
     0
 42
0.00000001
 43
0.00000001
 40
0.0
 40
0.0
 40
0.0
 40
0.0
 40
0.1279910255623716
 40
0.2530983915017072
 40
0.3761840584327908
 40
0.498936312470126
 40
0.6215258806257304
 40
0.7457068938016924
 40
0.8715753502968715
 40
1.0
 40
1.0
 40
1.0
 40
1.0
 10
-13.30022125140494
 20
112.8136205967059
 30
0.0
 10
-13.23635549473743
 20
112.7647860590195
 30
0.0
 10
-13.11006288778657
 20
112.6682172341048
 30
0.0
 10
-12.90847239099711
 20
112.5444444743485
 30
0.0
 10
-12.70087387431835
 20
112.438358872174
 30
0.0
 10
-12.48570074667571
 20
112.3526429605971
 30
0.0
 10
-12.26340744264191
 20
112.2852202653322
 30
0.0
 10
-12.03402444544376
 20
112.2380052604923
 30
0.0
 10
-11.7978767713815
 20
112.2083737617404
 30
0.0
 10
-11.63818264713198
 20
112.2048322363179
 30
0.0
 10
-11.55753295012289
 20
112.203043673629
 30
0.0
  0
SPLINE
  5
154
330
1F
100
AcDbEntity
  8
0
  6
Continuous
 62
     7
370
    25
100
AcDbSpline
210
0.0
220
0.0
230
1.0
 70
     8
 71
     3
 72
    23
 73
    19
 74
     0
 42
0.00000001
 43
0.00000001
 40
0.0
 40
0.0
 40
0.0
 40
0.0
 40
0.0641474448766718
 40
0.1262121152536832
 40
0.1868412890216908
 40
0.2469358694509788
 40
0.3072563614860042
 40
0.3681505022006771
 40
0.4300707669516575
 40
0.4938754417369561
 40
0.5579806818508449
 40
0.6208695259285347
 40
0.6825247313751589
 40
0.7440356981057704
 40
0.8058886825781881
 40
0.8689681377436687
 40
0.9332474288479412
 40
1.0
 40
1.0
 40
1.0
 40
1.0
 10
-11.55753295012289
 20
112.203043673629
 30
0.0
 10
-11.46625384507885
 20
112.2055568782772
 30
0.0
 10
-11.286659335146
 20
112.2105016874634
 30
0.0
 10
-11.0227963323838
 20
112.2475116321494
 30
0.0
 10
-10.77000756157138
 20
112.3101458210595
 30
0.0
 10
-10.52672368861883
 20
112.3960713250648
 30
0.0
 10
-10.29364623545668
 20
112.5077858091671
 30
0.0
 10
-10.07191431528045
 20
112.6455162212567
 30
0.0
 10
-9.861139171497566
 20
112.8075714092104
 30
0.0
 10
-9.662041165650706
 20
112.9905628104346
 30
0.0
 10
-9.480056176712718
 20
113.1926072033992
 30
0.0
 10
-9.321280331934199
 20
113.4094329098628
 30
0.0
 10
-9.1838992416518
 20
113.6362626106158
 30
0.0
 10
-9.074706135958984
 20
113.8763067361102
 30
0.0
 10
-8.987445884246565
 20
114.1272993821488
 30
0.0
 10
-8.928374829223557
 20
114.3903521411502
 30
0.0
 10
-8.89027015806874
 20
114.6643806097384
 30
0.0
 10
-8.885505910742754
 20
114.8508666665306
 30
0.0
 10
-8.88307882352032
 20
114.9458696952636
 30
0.0
  0
SPLINE
  5
155
330
1F
100
AcDbEntity
  8
0
  6
Continuous
 62
     7
370
    25
100
AcDbSpline
210
0.0
220
0.0
230
1.0
 70
     8
 71
     3
 72
    23
 73
    19
 74
     0
 42
0.00000001
 43
0.00000001
 40
0.0
 40
0.0
 40
0.0
 40
0.0
 40
0.0659391240576586
 40
0.1297911093795343
 40
0.1921752363053287
 40
0.2536170442157539
 40
0.3147191079962384
 40
0.3762822754113768
 40
0.4389729923739139
 40
0.5031747018386419
 40
0.5673294646239468
 40
0.6296509938060327
 40
0.6906498673030975
 40
0.7512376127977866
 40
0.8117541138236066
 40
0.8727877774488535
 40
0.9355396326682295
 40
1.0
 40
1.0
 40
1.0
 40
1.0
 10
-8.88307882352032
 20
114.9458696952636
 30
0.0
 10
-8.885589888298767
 20
115.0403264303538
 30
0.0
 10
-8.890532536354476
 20
115.2262501078507
 30
0.0
 10
-8.927607620762975
 20
115.4995740511304
 30
0.0
 10
-8.989844599875019
 20
115.7614655093255
 30
0.0
 10
-9.076028129162806
 20
116.0123521788406
 30
0.0
 10
-9.186079932300919
 20
116.2524800217326
 30
0.0
 10
-9.32217015135194
 20
116.4810046065688
 30
0.0
 10
-9.483821262583836
 20
116.6977050059507
 30
0.0
 10
-9.667312875709523
 20
116.9011044895254
 30
0.0
 10
-9.867032218967262
 20
117.0880155860783
 30
0.0
 10
-10.08145088970126
 20
117.2502204408771
 30
0.0
 10
-10.30456921283507
 20
117.3911713024575
 30
0.0
 10
-10.54150661130468
 20
117.5015865159185
 30
0.0
 10
-10.78741554427537
 20
117.5895540822603
 30
0.0
 10
-11.04379656111913
 20
117.6543346603825
 30
0.0
 10
-11.31162072063865
 20
117.6905623113832
 30
0.0
 10
-11.49382703406868
 20
117.695655291076
 30
0.0
 10
-11.58615374339212
 20
117.6982359813213
 30
0.0
  0
SPLINE
  5
156
330
1F
100
AcDbEntity
  8
0
  6
Continuous
 62
     7
370
    25
100
AcDbSpline
210
0.0
220
0.0
230
1.0
 70
     8
 71
     3
 72
    23
 73
    19
 74
     0
 42
0.00000001
 43
0.00000001
 40
0.0
 40
0.0
 40
0.0
 40
0.0
 40
0.0646087354707741
 40
0.1275117897236745
 40
0.1885213083986467
 40
0.2487081790893702
 40
0.3085982651789118
 40
0.3688122491095529
 40
0.4298875018150755
 40
0.4928024479242454
 40
0.5557433321027926
 40
0.617485294839564
 40
0.6789689634380363
 40
0.7401976913545535
 40
0.8023601016976071
 40
0.866244776442733
 40
0.9317068283956893
 40
1.0
 40
1.0
 40
1.0
 40
1.0
 10
-11.58615374339212
 20
117.6982359813213
 30
0.0
 10
-11.67902985545936
 20
117.6957439067027
 30
0.0
 10
-11.86233013499553
 20
117.6908255486441
 30
0.0
 10
-12.13119826313777
 20
117.6533543124926
 30
0.0
 10
-12.38932116133576
 20
117.5935084891465
 30
0.0
 10
-12.63526795217603
 20
117.5068225453366
 30
0.0
 10
-12.87010459049231
 20
117.3964933398485
 30
0.0
 10
-13.09424736888817
 20
117.2629063762926
 30
0.0
 10
-13.3045923732476
 20
117.1014697522713
 30
0.0
 10
-13.50394435089305
 20
116.9208502802583
 30
0.0
 10
-13.68402605884876
 20
116.719598679534
 30
0.0
 10
-13.84313392885708
 20
116.5039233629292
 30
0.0
 10
-13.97628158889923
 20
116.2741845046442
 30
0.0
 10
-14.08779358828895
 20
116.0325163243806
 30
0.0
 10
-14.17173740931237
 20
115.7762013273761
 30
0.0
 10
-14.23152807616779
 20
115.5072472568177
 30
0.0
 10
-14.26931354578297
 20
115.2251906914167
 30
0.0
 10
-14.27407645117068
 20
115.0329130979498
 30
0.0
 10
-14.27650831069981
 20
114.93473938677
 30
0.0
  0
SPLINE
  5
15A
330
1F
100
AcDbEntity
  8
0
  6
Continuous
 62
     7
370
    25
100
AcDbSpline
210
0.0
220
0.0
230
1.0
 70
     8
 71
     3
 72
    23
 73
    19
 74
     0
 42
0.00000001
 43
0.00000001
 40
0.0
 40
0.0
 40
0.0
 40
0.0
 40
0.1055399964402577
 40
0.2020864154635879
 40
0.2906848989424224
 40
0.3705526096211912
 40
0.4426702615663768
 40
0.5076749275738741
 40
0.5655732034810463
 40
0.6164546657486228
 40
0.6633313570051068
 40
0.7088620244966161
 40
0.7534118003496305
 40
0.7985150107871107
 40
0.8450643214401192
 40
0.8938731190084105
 40
0.9447078060036562
 40
1.0
 40
1.0
 40
1.0
 40
1.0
 10
-19.72558934034724
 20
115.8665052120906
 30
0.0
 10
-19.65774509974556
 20
115.8672693195266
 30
0.0
 10
-19.52783795690418
 20
115.8687324210803
 30
0.0
 10
-19.34101442333801
 20
115.875518892554
 30
0.0
 10
-19.17133409981941
 20
115.8918709353648
 30
0.0
 10
-19.01806832177696
 20
115.9125311303221
 30
0.0
 10
-18.8804458697416
 20
115.9363863090148
 30
0.0
 10
-18.75969428743382
 20
115.9705722284307
 30
0.0
 10
-18.65395297727262
 20
116.0072033064783
 30
0.0
 10
-18.56447497774266
 20
116.0527262343201
 30
0.0
 10
-18.48802703092449
 20
116.1044956767893
 30
0.0
 10
-18.42201912186953
 20
116.1633070503514
 30
0.0
 10
-18.36742111669984
 20
116.2313737266534
 30
0.0
 10
-18.32248417356452
 20
116.3068459470539
 30
0.0
 10
-18.28752811740636
 20
116.3903912447607
 30
0.0
 10
-18.26201287436649
 20
116.4810924817067
 30
0.0
 10
-18.24775362667728
 20
116.5799828616515
 30
0.0
 10
-18.24611305165975
 20
116.6482306890341
 30
0.0
 10
-18.24525831069981
 20
116.6837878643341
 30
0.0
  0
SPLINE
  5
15B
330
1F
100
AcDbEntity
  8
0
  6
Continuous
 62
     7
370
    25
100
AcDbSpline
210
0.0
220
0.0
230
1.0
 70
     8
 71
     3
 72
    23
 73
    19
 74
     0
 42
0.00000001
 43
0.00000001
 40
0.0
 40
0.0
 40
0.0
 40
0.0
 40
0.0637689599577413
 40
0.1252623047603791
 40
0.1854135826663944
 40
0.246806762496089
 40
0.3094223888497014
 40
0.3725326822170109
 40
0.4377332507368604
 40
0.5057495167426339
 40
0.544013263111273
 40
0.5883695992066309
 40
0.6403890193945118
 40
0.6978974005877094
 40
0.7632716192950983
 40
0.8349786038393125
 40
0.9138736558434377
 40
1.0
 40
1.0
 40
1.0
 40
1.0
 10
-18.24525831069981
 20
116.6837878643341
 30
0.0
 10
-18.24687427679746
 20
116.7258545985182
 30
0.0
 10
-18.25004854274033
 20
116.808486902403
 30
0.0
 10
-18.28154712232042
 20
116.9274484455469
 30
0.0
 10
-18.33168605712056
 20
117.0375554928981
 30
0.0
 10
-18.40041280398369
 20
117.1383105535403
 30
0.0
 10
-18.48696520660478
 20
117.2266393950113
 30
0.0
 10
-18.58629091737942
 20
117.3045019722088
 30
0.0
 10
-18.70053362488158
 20
117.3660698722453
 30
0.0
 10
-18.80631377513696
 20
117.40667940357
 30
0.0
 10
-18.90254898664613
 20
117.4309765050915
 30
0.0
 10
-18.9893982288618
 20
117.4490824902671
 30
0.0
 10
-19.08997017424594
 20
117.4619147216527
 30
0.0
 10
-19.20434074911949
 20
117.4755255872036
 30
0.0
 10
-19.3322184189949
 20
117.4843515445502
 30
0.0
 10
-19.47430019365766
 20
117.4907927341867
 30
0.0
 10
-19.63017801530906
 20
117.4934281413018
 30
0.0
 10
-19.73883966164394
 20
117.4942706345206
 30
0.0
 10
-19.79555127944981
 20
117.4947103402957
 30
0.0
  0
LINE
  5
162
330
1F
100
AcDbEntity
  8
0
  6
Continuous
 62
     7
370
    25
100
AcDbLine
 10
-36.0152206732
 20
-58.571616416
 30
0.0
 11
-36.0152206732
 21
-63.2484660421
 31
0.0
  0
LINE
  5
163
330
1F
100
AcDbEntity
  8
0
  6
Continuous
 62
     7
370
    25
100
AcDbLine
 10
-33.199782639
 20
-63.2484660421
 30
0.0
 11
-36.0152206732
 21
-58.571616416
 31
0.0
  0
LINE
  5
164
330
1F
100
AcDbEntity
  8
0
  6
Continuous
 62
     7
370
    25
100
AcDbLine
 10
-31.0627634082
 20
-63.2484660421
 30
0.0
 11
-33.199782639
 21
-63.2484660421
 31
0.0
  0
LINE
  5
165
330
1F
100
AcDbEntity
  8
0
  6
Continuous
 62
     7
370
    25
100
AcDbLine
 10
-34.6159818911
 20
-57.3462224524
 30
0.0
 11
-31.0627634082
 21
-63.2484660421
 31
0.0
  0
LINE
  5
166
330
1F
100
AcDbEntity
  8
0
  6
Continuous
 62
     7
370
    25
100
AcDbLine
 10
-31.3786521636
 20
-52.6651327088
 30
0.0
 11
-34.6159818911
 21
-57.3462224524
 31
0.0
  0
LINE
  5
167
330
1F
100
AcDbEntity
  8
0
  6
Continuous
 62
     7
370
    25
100
AcDbLine
 10
-33.6216743324
 20
-52.6651327088
 30
0.0
 11
-31.3786521636
 21
-52.6651327088
 31
0.0
  0
LINE
  5
168
330
1F
100
AcDbEntity
  8
0
  6
Continuous
 62
     7
370
    25
100
AcDbLine
 10
-36.0152206732
 20
-56.1229485474
 30
0.0
 11
-33.6216743324
 21
-52.6651327088
 31
0.0
  0
LINE
  5
169
330
1F
100
AcDbEntity
  8
0
  6
Continuous
 62
     7
370
    25
100
AcDbLine
 10
-36.0152206732
 20
-52.6651327088
 30
0.0
 11
-36.0152206732
 21
-56.1229485474
 31
0.0
  0
LINE
  5
16A
330
1F
100
AcDbEntity
  8
0
  6
Continuous
 62
     7
370
    25
100
AcDbLine
 10
-37.7791095621
 20
-52.6651327088
 30
0.0
 11
-36.0152206732
 21
-52.6651327088
 31
0.0
  0
LINE
  5
16B
330
1F
100
AcDbEntity
  8
0
  6
Continuous
 62
     7
370
    25
100
AcDbLine
 10
-37.7791095621
 20
-63.2484660421
 30
0.0
 11
-37.7791095621
 21
-52.6651327088
 31
0.0
  0
LINE
  5
16C
330
1F
100
AcDbEntity
  8
0
  6
Continuous
 62
     7
370
    25
100
AcDbLine
 10
-36.0152206732
 20
-63.2484660421
 30
0.0
 11
-37.7791095621
 21
-63.2484660421
 31
0.0
  0
LINE
  5
16D
330
1F
100
AcDbEntity
  8
0
  6
Continuous
 62
     7
370
    25
100
AcDbLine
 10
-24.8891522971
 20
-61.3488933925
 30
0.0
 11
-24.8891522971
 21
-63.2484660421
 31
0.0
  0
LINE
  5
16E
330
1F
100
AcDbEntity
  8
0
  6
Continuous
 62
     7
370
    25
100
AcDbLine
 10
-28.0098787928
 20
-61.3488933925
 30
0.0
 11
-24.8891522971
 21
-61.3488933925
 31
0.0
  0
LINE
  5
16F
330
1F
100
AcDbEntity
  8
0
  6
Continuous
 62
     7
370
    25
100
AcDbLine
 10
-28.0098787928
 20
-58.4995344182
 30
0.0
 11
-28.0098787928
 21
-61.3488933925
 31
0.0
  0
LINE
  5
170
330
1F
100
AcDbEntity
  8
0
  6
Continuous
 62
     7
370
    25
100
AcDbLine
 10
-24.8891522971
 20
-58.4995344182
 30
0.0
 11
-28.0098787928
 21
-58.4995344182
 31
0.0
  0
LINE
  5
171
330
1F
100
AcDbEntity
  8
0
  6
Continuous
 62
     7
370
    25
100
AcDbLine
 10
-24.8891522971
 20
-56.5999617686
 30
0.0
 11
-24.8891522971
 21
-58.4995344182
 31
0.0
  0
LINE
  5
172
330
1F
100
AcDbEntity
  8
0
  6
Continuous
 62
     7
370
    25
100
AcDbLine
 10
-28.0098787928
 20
-56.5999617686
 30
0.0
 11
-24.8891522971
 21
-56.5999617686
 31
0.0
  0
LINE
  5
173
330
1F
100
AcDbEntity
  8
0
  6
Continuous
 62
     7
370
    25
100
AcDbLine
 10
-28.0098787928
 20
-54.5647053583
 30
0.0
 11
-28.0098787928
 21
-56.5999617686
 31
0.0
  0
LINE
  5
174
330
1F
100
AcDbEntity
  8
0
  6
Continuous
 62
     7
370
    25
100
AcDbLine
 10
-24.8891522971
 20
-54.5647053583
 30
0.0
 11
-28.0098787928
 21
-54.5647053583
 31
0.0
  0
LINE
  5
175
330
1F
100
AcDbEntity
  8
0
  6
Continuous
 62
     7
370
    25
100
AcDbLine
 10
-24.8891522971
 20
-52.6651327088
 30
0.0
 11
-24.8891522971
 21
-54.5647053583
 31
0.0
  0
LINE
  5
176
330
1F
100
AcDbEntity
  8
0
  6
Continuous
 62
     7
370
    25
100
AcDbLine
 10
-29.7737676817
 20
-52.6651327088
 30
0.0
 11
-24.8891522971
 21
-52.6651327088
 31
0.0
  0
LINE
  5
177
330
1F
100
AcDbEntity
  8
0
  6
Continuous
 62
     7
370
    25
100
AcDbLine
 10
-29.7737676817
 20
-63.2484660421
 30
0.0
 11
-29.7737676817
 21
-52.6651327088
 31
0.0
  0
LINE
  5
178
330
1F
100
AcDbEntity
  8
0
  6
Continuous
 62
     7
370
    25
100
AcDbLine
 10
-24.8891522971
 20
-63.2484660421
 30
0.0
 11
-29.7737676817
 21
-63.2484660421
 31
0.0
  0
LINE
  5
179
330
1F
100
AcDbEntity
  8
0
  6
Continuous
 62
     7
370
    25
100
AcDbLine
 10
-18.7833830664
 20
-61.3488933925
 30
0.0
 11
-18.7833830664
 21
-63.2484660421
 31
0.0
  0
LINE
  5
17A
330
1F
100
AcDbEntity
  8
0
  6
Continuous
 62
     7
370
    25
100
AcDbLine
 10
-21.3613745193
 20
-61.3488933925
 30
0.0
 11
-18.7833830664
 21
-61.3488933925
 31
0.0
  0
LINE
  5
17B
330
1F
100
AcDbEntity
  8
0
  6
Continuous
 62
     7
370
    25
100
AcDbLine
 10
-21.3613745193
 20
-52.6651327088
 30
0.0
 11
-21.3613745193
 21
-61.3488933925
 31
0.0
  0
LINE
  5
17C
330
1F
100
AcDbEntity
  8
0
  6
Continuous
 62
     7
370
    25
100
AcDbLine
 10
-23.1252634082
 20
-52.6651327088
 30
0.0
 11
-21.3613745193
 21
-52.6651327088
 31
0.0
  0
LINE
  5
17D
330
1F
100
AcDbEntity
  8
0
  6
Continuous
 62
     7
370
    25
100
AcDbLine
 10
-23.1252634082
 20
-63.2484660421
 30
0.0
 11
-23.1252634082
 21
-52.6651327088
 31
0.0
  0
LINE
  5
17E
330
1F
100
AcDbEntity
  8
0
  6
Continuous
 62
     7
370
    25
100
AcDbLine
 10
-18.7833830664
 20
-63.2484660421
 30
0.0
 11
-23.1252634082
 21
-63.2484660421
 31
0.0
  0
LINE
  5
17F
330
1F
100
AcDbEntity
  8
0
  6
Continuous
 62
     7
370
    25
100
AcDbLine
 10
62.0
 20
92.0
 30
0.0
 11
72.9651116566
 21
92.0
 31
0.0
  0
LINE
  5
180
330
1F
100
AcDbEntity
  8
0
  6
Continuous
 62
     7
370
    25
100
AcDbLine
 10
57.0
 20
67.0
 30
0.0
 11
57.0
 21
87.0
 31
0.0
  0
LINE
  5
181
330
1F
100
AcDbEntity
  8
0
  6
Continuous
 62
     7
370
    25
100
AcDbLine
 10
56.99
 20
67.0
 30
0.0
 11
57.0
 21
67.0
 31
0.0
  0
LINE
  5
182
330
1F
100
AcDbEntity
  8
0
  6
Continuous
 62
     7
370
    25
100
AcDbLine
 10
56.99
 20
54.0
 30
0.0
 11
56.99
 21
67.0
 31
0.0
  0
LINE
  5
183
330
1F
100
AcDbEntity
  8
0
  6
Continuous
 62
     7
370
    25
100
AcDbLine
 10
56.98
 20
54.0
 30
0.0
 11
56.99
 21
54.0
 31
0.0
  0
LINE
  5
184
330
1F
100
AcDbEntity
  8
0
  6
Continuous
 62
     7
370
    25
100
AcDbLine
 10
56.98
 20
37.0
 30
0.0
 11
56.98
 21
54.0
 31
0.0
  0
LINE
  5
185
330
1F
100
AcDbEntity
  8
0
  6
Continuous
 62
     7
370
    25
100
AcDbLine
 10
56.97
 20
37.0
 30
0.0
 11
56.98
 21
37.0
 31
0.0
  0
LINE
  5
186
330
1F
100
AcDbEntity
  8
0
  6
Continuous
 62
     7
370
    25
100
AcDbLine
 10
56.97
 20
-18.0
 30
0.0
 11
56.97
 21
37.0
 31
0.0
  0
LINE
  5
187
330
1F
100
AcDbEntity
  8
0
  6
Continuous
 62
     7
370
    25
100
AcDbLine
 10
56.96
 20
-18.0
 30
0.0
 11
56.97
 21
-18.0
 31
0.0
  0
LINE
  5
188
330
1F
100
AcDbEntity
  8
0
  6
Continuous
 62
     7
370
    25
100
AcDbLine
 10
56.96
 20
-31.0
 30
0.0
 11
56.96
 21
-18.0
 31
0.0
  0
LINE
  5
189
330
1F
100
AcDbEntity
  8
0
  6
Continuous
 62
     7
370
    25
100
AcDbLine
 10
56.95
 20
-31.0
 30
0.0
 11
56.96
 21
-31.0
 31
0.0
  0
LINE
  5
18A
330
1F
100
AcDbEntity
  8
0
  6
Continuous
 62
     7
370
    25
100
AcDbLine
 10
56.95
 20
-42.0
 30
0.0
 11
56.95
 21
-31.0
 31
0.0
  0
LINE
  5
18B
330
1F
100
AcDbEntity
  8
0
  6
Continuous
 62
     7
370
    25
100
AcDbLine
 10
56.94
 20
-42.0
 30
0.0
 11
56.95
 21
-42.0
 31
0.0
  0
LINE
  5
18C
330
1F
100
AcDbEntity
  8
0
  6
Continuous
 62
     7
370
    25
100
AcDbLine
 10
56.94
 20
-62.0
 30
0.0
 11
56.94
 21
-42.0
 31
0.0
  0
LINE
  5
18D
330
1F
100
AcDbEntity
  8
0
  6
Continuous
 62
     7
370
    25
100
AcDbLine
 10
46.94
 20
-72.0
 30
0.0
 11
-46.94
 21
-72.0
 31
0.0
  0
LINE
  5
18E
330
1F
100
AcDbEntity
  8
0
  6
Continuous
 62
     7
370
    25
100
AcDbLine
 10
-56.94
 20
-42.0
 30
0.0
 11
-56.94
 21
-62.0
 31
0.0
  0
LINE
  5
18F
330
1F
100
AcDbEntity
  8
0
  6
Continuous
 62
     7
370
    25
100
AcDbLine
 10
-56.95
 20
-42.0
 30
0.0
 11
-56.94
 21
-42.0
 31
0.0
  0
LINE
  5
190
330
1F
100
AcDbEntity
  8
0
  6
Continuous
 62
     7
370
    25
100
AcDbLine
 10
-56.95
 20
-31.0
 30
0.0
 11
-56.95
 21
-42.0
 31
0.0
  0
LINE
  5
191
330
1F
100
AcDbEntity
  8
0
  6
Continuous
 62
     7
370
    25
100
AcDbLine
 10
-56.96
 20
-31.0
 30
0.0
 11
-56.95
 21
-31.0
 31
0.0
  0
LINE
  5
192
330
1F
100
AcDbEntity
  8
0
  6
Continuous
 62
     7
370
    25
100
AcDbLine
 10
-56.96
 20
-18.0
 30
0.0
 11
-56.96
 21
-31.0
 31
0.0
  0
LINE
  5
193
330
1F
100
AcDbEntity
  8
0
  6
Continuous
 62
     7
370
    25
100
AcDbLine
 10
-56.97
 20
-18.0
 30
0.0
 11
-56.96
 21
-18.0
 31
0.0
  0
LINE
  5
194
330
1F
100
AcDbEntity
  8
0
  6
Continuous
 62
     7
370
    25
100
AcDbLine
 10
-56.97
 20
18.0
 30
0.0
 11
-56.97
 21
-18.0
 31
0.0
  0
LINE
  5
195
330
1F
100
AcDbEntity
  8
0
  6
Continuous
 62
     7
370
    25
100
AcDbLine
 10
-56.98
 20
18.0
 30
0.0
 11
-56.97
 21
18.0
 31
0.0
  0
LINE
  5
196
330
1F
100
AcDbEntity
  8
0
  6
Continuous
 62
     7
370
    25
100
AcDbLine
 10
-56.98
 20
35.0
 30
0.0
 11
-56.98
 21
18.0
 31
0.0
  0
LINE
  5
197
330
1F
100
AcDbEntity
  8
0
  6
Continuous
 62
     7
370
    25
100
AcDbLine
 10
-56.99
 20
35.0
 30
0.0
 11
-56.98
 21
35.0
 31
0.0
  0
LINE
  5
198
330
1F
100
AcDbEntity
  8
0
  6
Continuous
 62
     7
370
    25
100
AcDbLine
 10
-56.99
 20
43.8392746663
 30
0.0
 11
-56.99
 21
35.0
 31
0.0
  0
LINE
  5
199
330
1F
100
AcDbEntity
  8
0
  6
Continuous
 62
     7
370
    25
100
AcDbLine
 10
-57.0
 20
43.7851335245
 30
0.0
 11
-56.99
 21
43.8392746663
 31
0.0
  0
LINE
  5
19A
330
1F
100
AcDbEntity
  8
0
  6
Continuous
 62
     7
370
    25
100
AcDbLine
 10
-57.0
 20
88.0
 30
0.0
 11
-57.0
 21
43.7851335245
 31
0.0
  0
LINE
  5
19B
330
1F
100
AcDbEntity
  8
0
  6
Continuous
 62
     7
370
    25
100
AcDbLine
 10
-72.8603906208
 20
93.0
 30
0.0
 11
-62.0
 21
93.0
 31
0.0
  0
LINE
  5
19C
330
1F
100
AcDbEntity
  8
0
  6
Continuous
 62
     7
370
    25
100
AcDbLine
 10
24.9021775867
 20
116.1892841584
 30
0.0
 11
24.9021775867
 21
110.9818898275
 31
0.0
  0
LINE
  5
19D
330
1F
100
AcDbEntity
  8
0
  6
Continuous
 62
     7
370
    25
100
AcDbLine
 10
28.494087142
 20
110.9818898275
 30
0.0
 11
24.9021775867
 21
116.1892841584
 31
0.0
  0
LINE
  5
19E
330
1F
100
AcDbEntity
  8
0
  6
Continuous
 62
     7
370
    25
100
AcDbLine
 10
29.7867929714
 20
110.9818898275
 30
0.0
 11
28.494087142
 21
110.9818898275
 31
0.0
  0
LINE
  5
19F
330
1F
100
AcDbEntity
  8
0
  6
Continuous
 62
     7
370
    25
100
AcDbLine
 10
29.7867929714
 20
118.9193898275
 30
0.0
 11
29.7867929714
 21
110.9818898275
 31
0.0
  0
LINE
  5
1A0
330
1F
100
AcDbEntity
  8
0
  6
Continuous
 62
     7
370
    25
100
AcDbLine
 10
28.3621134842
 20
118.9193898275
 30
0.0
 11
29.7867929714
 21
118.9193898275
 31
0.0
  0
LINE
  5
1A1
330
1F
100
AcDbEntity
  8
0
  6
Continuous
 62
     7
370
    25
100
AcDbLine
 10
28.3621134842
 20
113.6960950558
 30
0.0
 11
28.3621134842
 21
118.9193898275
 31
0.0
  0
LINE
  5
1A2
330
1F
100
AcDbEntity
  8
0
  6
Continuous
 62
     7
370
    25
100
AcDbLine
 10
24.7606636645
 20
118.9193898275
 30
0.0
 11
28.3621134842
 21
113.6960950558
 31
0.0
  0
LINE
  5
1A3
330
1F
100
AcDbEntity
  8
0
  6
Continuous
 62
     7
370
    25
100
AcDbLine
 10
23.4774980996
 20
118.9193898275
 30
0.0
 11
24.7606636645
 21
118.9193898275
 31
0.0
  0
LINE
  5
1A4
330
1F
100
AcDbEntity
  8
0
  6
Continuous
 62
     7
370
    25
100
AcDbLine
 10
23.4774980996
 20
110.9818898275
 30
0.0
 11
23.4774980996
 21
118.9193898275
 31
0.0
  0
LINE
  5
1A5
330
1F
100
AcDbEntity
  8
0
  6
Continuous
 62
     7
370
    25
100
AcDbLine
 10
24.9021775867
 20
110.9818898275
 30
0.0
 11
23.4774980996
 21
110.9818898275
 31
0.0
  0
LINE
  5
1A6
330
1F
100
AcDbEntity
  8
0
  6
Continuous
 62
     7
370
    25
100
AcDbLine
 10
63.9227049501
 20
100.7744338745
 30
0.0
 11
38.9226869404
 21
113.7744338745
 31
0.0
  0
LINE
  5
1A7
330
1F
100
AcDbEntity
  8
0
  6
Continuous
 62
     7
370
    25
100
AcDbLine
 10
62.0772950499
 20
97.2255661255
 30
0.0
 11
37.0772770403
 21
110.2255661255
 31
0.0
  0
LINE
  5
1A8
330
1F
100
AcDbEntity
  8
0
  6
Continuous
 62
     7
370
    25
100
AcDbLine
 10
-36.930603123
 20
113.8920715551
 30
0.0
 11
-63.9159190555
 21
100.9028342009
 31
0.0
  0
LINE
  5
1A9
330
1F
100
AcDbEntity
  8
0
  6
Continuous
 62
     7
370
    25
100
AcDbLine
 10
-35.195741025
 20
110.2878721293
 30
0.0
 11
-62.1810569575
 21
97.2986347751
 31
0.0
  0
LINE
  5
1AA
330
1F
100
AcDbEntity
  8
0
  6
Continuous
 62
     7
370
    25
100
AcDbLine
 10
16.7102705355
 20
112.6100949557
 30
0.0
 11
16.0933334361
 21
110.9818898275
 31
0.0
  0
LINE
  5
1AB
330
1F
100
AcDbEntity
  8
0
  6
Continuous
 62
     7
370
    25
100
AcDbLine
 10
20.1686163888
 20
112.6100949557
 30
0.0
 11
16.7102705355
 21
112.6100949557
 31
0.0
  0
LINE
  5
1AC
330
1F
100
AcDbEntity
  8
0
  6
Continuous
 62
     7
370
    25
100
AcDbLine
 10
20.7855534882
 20
110.9818898275
 30
0.0
 11
20.1686163888
 21
112.6100949557
 31
0.0
  0
LINE
  5
1AD
330
1F
100
AcDbEntity
  8
0
  6
Continuous
 62
     7
370
    25
100
AcDbLine
 10
22.3072256637
 20
110.9818898275
 30
0.0
 11
20.7855534882
 21
110.9818898275
 31
0.0
  0
LINE
  5
1AE
330
1F
100
AcDbEntity
  8
0
  6
Continuous
 62
     7
370
    25
100
AcDbLine
 10
19.1016968175
 20
118.9193898275
 30
0.0
 11
22.3072256637
 21
110.9818898275
 31
0.0
  0
LINE
  5
1AF
330
1F
100
AcDbEntity
  8
0
  6
Continuous
 62
     7
370
    25
100
AcDbLine
 10
17.7803701949
 20
118.9193898275
 30
0.0
 11
19.1016968175
 21
118.9193898275
 31
0.0
  0
LINE
  5
1B0
330
1F
100
AcDbEntity
  8
0
  6
Continuous
 62
     7
370
    25
100
AcDbLine
 10
14.5732513047
 20
110.9818898275
 30
0.0
 11
17.7803701949
 21
118.9193898275
 31
0.0
  0
LINE
  5
1B1
330
1F
100
AcDbEntity
  8
0
  6
Continuous
 62
     7
370
    25
100
AcDbLine
 10
16.0933334361
 20
110.9818898275
 30
0.0
 11
14.5732513047
 21
110.9818898275
 31
0.0
  0
LINE
  5
1B2
330
1F
100
AcDbEntity
  8
0
  6
Continuous
 62
     7
370
    25
100
AcDbLine
 10
9.0271775867
 20
112.4685810334
 30
0.0
 11
10.2801323143
 21
113.2206718788
 31
0.0
  0
LINE
  5
1B3
330
1F
100
AcDbEntity
  8
0
  6
Continuous
 62
     7
370
    25
100
AcDbLine
 10
13.7082673303
 20
117.8588304324
 30
0.0
 11
12.6429378031
 21
116.8841334172
 31
0.0
  0
LINE
  5
1B4
330
1F
100
AcDbEntity
  8
0
  6
Continuous
 62
     7
370
    25
100
AcDbLine
 10
-6.0337198492
 20
118.9193898275
 30
0.0
 11
-4.7616845928
 21
118.9193898275
 31
0.0
  0
LINE
  5
1B5
330
1F
100
AcDbEntity
  8
0
  6
Continuous
 62
     7
370
    25
100
AcDbLine
 10
-6.0337198492
 20
110.9818898275
 30
0.0
 11
-6.0337198492
 21
118.9193898275
 31
0.0
  0
LINE
  5
1B6
330
1F
100
AcDbEntity
  8
0
  6
Continuous
 62
     7
370
    25
100
AcDbLine
 10
-3.8012979742
 20
110.9818898275
 30
0.0
 11
-6.0337198492
 21
110.9818898275
 31
0.0
  0
LINE
  5
1B7
330
1F
100
AcDbEntity
  8
0
  6
Continuous
 62
     7
370
    25
100
AcDbLine
 10
-20.280514721
 20
114.4418257249
 30
0.0
 11
-20.280514721
 21
110.9818898275
 31
0.0
  0
LINE
  5
1B8
330
1F
100
AcDbEntity
  8
0
  6
Continuous
 62
     7
370
    25
100
AcDbLine
 10
-19.7971413235
 20
114.4418257249
 30
0.0
 11
-20.280514721
 21
114.4418257249
 31
0.0
  0
LINE
  5
1B9
330
1F
100
AcDbEntity
  8
0
  6
Continuous
 62
     7
370
    25
100
AcDbLine
 10
-18.048092846
 20
110.9818898275
 30
0.0
 11
-19.7971413235
 21
114.4418257249
 31
0.0
  0
LINE
  5
1BA
330
1F
100
AcDbEntity
  8
0
  6
Continuous
 62
     7
370
    25
100
AcDbLine
 10
-16.4644089517
 20
110.9818898275
 30
0.0
 11
-18.048092846
 21
110.9818898275
 31
0.0
  0
LINE
  5
1BB
330
1F
100
AcDbEntity
  8
0
  6
Continuous
 62
     7
370
    25
100
AcDbLine
 10
-18.296139721
 20
114.6040102201
 30
0.0
 11
-16.4644089517
 21
110.9818898275
 31
0.0
  0
LINE
  5
1BC
330
1F
100
AcDbEntity
  8
0
  6
Continuous
 62
     7
370
    25
100
AcDbLine
 10
-21.7051942081
 20
118.9193898275
 30
0.0
 11
-20.0451881985
 21
118.9193898275
 31
0.0
  0
LINE
  5
1BD
330
1F
100
AcDbEntity
  8
0
  6
Continuous
 62
     7
370
    25
100
AcDbLine
 10
-21.7051942081
 20
110.9818898275
 30
0.0
 11
-21.7051942081
 21
118.9193898275
 31
0.0
  0
LINE
  5
1BE
330
1F
100
AcDbEntity
  8
0
  6
Continuous
 62
     7
370
    25
100
AcDbLine
 10
-20.280514721
 20
110.9818898275
 30
0.0
 11
-21.7051942081
 21
110.9818898275
 31
0.0
  0
LINE
  5
1BF
330
1F
100
AcDbEntity
  8
0
  6
Continuous
 62
     7
370
    25
100
AcDbLine
 10
-25.6739442081
 20
110.9818898275
 30
0.0
 11
-25.6739442081
 21
117.4947103403
 31
0.0
  0
LINE
  5
1C0
330
1F
100
AcDbEntity
  8
0
  6
Continuous
 62
     7
370
    25
100
AcDbLine
 10
-24.249264721
 20
110.9818898275
 30
0.0
 11
-25.6739442081
 21
110.9818898275
 31
0.0
  0
LINE
  5
1C1
330
1F
100
AcDbEntity
  8
0
  6
Continuous
 62
     7
370
    25
100
AcDbLine
 10
-24.249264721
 20
117.4947103403
 30
0.0
 11
-24.249264721
 21
110.9818898275
 31
0.0
  0
LINE
  5
1C2
330
1F
100
AcDbEntity
  8
0
  6
Continuous
 62
     7
370
    25
100
AcDbLine
 10
-22.8245852338
 20
117.4947103403
 30
0.0
 11
-24.249264721
 21
117.4947103403
 31
0.0
  0
LINE
  5
1C3
330
1F
100
AcDbEntity
  8
0
  6
Continuous
 62
     7
370
    25
100
AcDbLine
 10
-22.8245852338
 20
118.9193898275
 30
0.0
 11
-22.8245852338
 21
117.4947103403
 31
0.0
  0
LINE
  5
1C4
330
1F
100
AcDbEntity
  8
0
  6
Continuous
 62
     7
370
    25
100
AcDbLine
 10
-27.0986236953
 20
118.9193898275
 30
0.0
 11
-22.8245852338
 21
118.9193898275
 31
0.0
  0
LINE
  5
1C5
330
1F
100
AcDbEntity
  8
0
  6
Continuous
 62
     7
370
    25
100
AcDbLine
 10
-27.0986236953
 20
117.4947103403
 30
0.0
 11
-27.0986236953
 21
118.9193898275
 31
0.0
  0
LINE
  5
1C6
330
1F
100
AcDbEntity
  8
0
  6
Continuous
 62
     7
370
    25
100
AcDbLine
 10
-25.6739442081
 20
117.4947103403
 30
0.0
 11
-27.0986236953
 21
117.4947103403
 31
0.0
  0
LINE
  5
1C7
330
1F
100
AcDbEntity
  8
0
  6
Continuous
 62
     7
370
    25
100
AcDbLine
 10
36.5755912926
 20
-63.2484660421
 30
0.0
 11
36.5755912926
 21
-54.4290215977
 31
0.0
  0
LINE
  5
1C8
330
1F
100
AcDbEntity
  8
0
  6
Continuous
 62
     7
370
    25
100
AcDbLine
 10
38.3394801815
 20
-63.2484660421
 30
0.0
 11
36.5755912926
 21
-63.2484660421
 31
0.0
  0
LINE
  5
1C9
330
1F
100
AcDbEntity
  8
0
  6
Continuous
 62
     7
370
    25
100
AcDbLine
 10
38.3394801815
 20
-52.6651327088
 30
0.0
 11
38.3394801815
 21
-63.2484660421
 31
0.0
  0
LINE
  5
1CA
330
1F
100
AcDbEntity
  8
0
  6
Continuous
 62
     7
370
    25
100
AcDbLine
 10
35.6978869657
 20
-52.6651327088
 30
0.0
 11
38.3394801815
 21
-52.6651327088
 31
0.0
  0
LINE
  5
1CB
330
1F
100
AcDbEntity
  8
0
  6
Continuous
 62
     7
370
    25
100
AcDbLine
 10
34.676018643
 20
-54.4290215977
 30
0.0
 11
35.6978869657
 21
-52.6651327088
 31
0.0
  0
LINE
  5
1CC
330
1F
100
AcDbEntity
  8
0
  6
Continuous
 62
     7
370
    25
100
AcDbLine
 10
36.5755912926
 20
-54.4290215977
 30
0.0
 11
34.676018643
 21
-54.4290215977
 31
0.0
  0
LINE
  5
1CD
330
1F
100
AcDbEntity
  8
0
  6
Continuous
 62
     7
370
    25
100
AcDbLine
 10
24.7711041131
 20
-58.571616416
 30
0.0
 11
24.7711041131
 21
-63.2484660421
 31
0.0
  0
LINE
  5
1CE
330
1F
100
AcDbEntity
  8
0
  6
Continuous
 62
     7
370
    25
100
AcDbLine
 10
27.5865421473
 20
-63.2484660421
 30
0.0
 11
24.7711041131
 21
-58.571616416
 31
0.0
  0
LINE
  5
1CF
330
1F
100
AcDbEntity
  8
0
  6
Continuous
 62
     7
370
    25
100
AcDbLine
 10
29.7235613781
 20
-63.2484660421
 30
0.0
 11
27.5865421473
 21
-63.2484660421
 31
0.0
  0
LINE
  5
1D0
330
1F
100
AcDbEntity
  8
0
  6
Continuous
 62
     7
370
    25
100
AcDbLine
 10
26.1703428952
 20
-57.3462224524
 30
0.0
 11
29.7235613781
 21
-63.2484660421
 31
0.0
  0
LINE
  5
1D1
330
1F
100
AcDbEntity
  8
0
  6
Continuous
 62
     7
370
    25
100
AcDbLine
 10
29.4076726227
 20
-52.6651327088
 30
0.0
 11
26.1703428952
 21
-57.3462224524
 31
0.0
  0
LINE
  5
1D2
330
1F
100
AcDbEntity
  8
0
  6
Continuous
 62
     7
370
    25
100
AcDbLine
 10
27.1646504539
 20
-52.6651327088
 30
0.0
 11
29.4076726227
 21
-52.6651327088
 31
0.0
  0
LINE
  5
1D3
330
1F
100
AcDbEntity
  8
0
  6
Continuous
 62
     7
370
    25
100
AcDbLine
 10
24.7711041131
 20
-56.1229485474
 30
0.0
 11
27.1646504539
 21
-52.6651327088
 31
0.0
  0
LINE
  5
1D4
330
1F
100
AcDbEntity
  8
0
  6
Continuous
 62
     7
370
    25
100
AcDbLine
 10
24.7711041131
 20
-52.6651327088
 30
0.0
 11
24.7711041131
 21
-56.1229485474
 31
0.0
  0
LINE
  5
1D5
330
1F
100
AcDbEntity
  8
0
  6
Continuous
 62
     7
370
    25
100
AcDbLine
 10
23.0072152242
 20
-52.6651327088
 30
0.0
 11
24.7711041131
 21
-52.6651327088
 31
0.0
  0
LINE
  5
1D6
330
1F
100
AcDbEntity
  8
0
  6
Continuous
 62
     7
370
    25
100
AcDbLine
 10
23.0072152242
 20
-63.2484660421
 30
0.0
 11
23.0072152242
 21
-52.6651327088
 31
0.0
  0
LINE
  5
1D7
330
1F
100
AcDbEntity
  8
0
  6
Continuous
 62
     7
370
    25
100
AcDbLine
 10
24.7711041131
 20
-63.2484660421
 30
0.0
 11
23.0072152242
 21
-63.2484660421
 31
0.0
  0
LINE
  5
1D8
330
1F
100
AcDbEntity
  8
0
  6
Continuous
 62
     7
370
    25
100
AcDbLine
 10
6.7251639422
 20
-58.6352181789
 30
0.0
 11
6.7251639422
 21
-63.2484660421
 31
0.0
  0
LINE
  5
1D9
330
1F
100
AcDbEntity
  8
0
  6
Continuous
 62
     7
370
    25
100
AcDbLine
 10
4.9612750533
 20
-52.6651327088
 30
0.0
 11
6.8057261751
 21
-52.6651327088
 31
0.0
  0
LINE
  5
1DA
330
1F
100
AcDbEntity
  8
0
  6
Continuous
 62
     7
370
    25
100
AcDbLine
 10
4.9612750533
 20
-63.2484660421
 30
0.0
 11
4.9612750533
 21
-52.6651327088
 31
0.0
  0
LINE
  5
1DB
330
1F
100
AcDbEntity
  8
0
  6
Continuous
 62
     7
370
    25
100
AcDbLine
 10
6.7251639422
 20
-63.2484660421
 30
0.0
 11
4.9612750533
 21
-63.2484660421
 31
0.0
  0
LINE
  5
1DC
330
1F
100
AcDbEntity
  8
0
  6
Continuous
 62
     7
370
    25
100
AcDbLine
 10
-4.7401138356
 20
-56.5639207697
 30
0.0
 11
-5.5966175749
 21
-63.2484660421
 31
0.0
  0
LINE
  5
1DD
330
1F
100
AcDbEntity
  8
0
  6
Continuous
 62
     7
370
    25
100
AcDbLine
 10
-2.9592644766
 20
-63.2484660421
 30
0.0
 11
-4.7401138356
 21
-56.5639207697
 31
0.0
  0
LINE
  5
1DE
330
1F
100
AcDbEntity
  8
0
  6
Continuous
 62
     7
370
    25
100
AcDbLine
 10
-1.1020930023
 20
-63.2484660421
 30
0.0
 11
-2.9592644766
 21
-63.2484660421
 31
0.0
  0
LINE
  5
1DF
330
1F
100
AcDbEntity
  8
0
  6
Continuous
 62
     7
370
    25
100
AcDbLine
 10
0.6872365918
 20
-56.5639207697
 30
0.0
 11
-1.1020930023
 21
-63.2484660421
 31
0.0
  0
LINE
  5
1E0
330
1F
100
AcDbEntity
  8
0
  6
Continuous
 62
     7
370
    25
100
AcDbLine
 10
1.5437403311
 20
-63.2484660421
 30
0.0
 11
0.6872365918
 21
-56.5639207697
 31
0.0
  0
LINE
  5
1E1
330
1F
100
AcDbEntity
  8
0
  6
Continuous
 62
     7
370
    25
100
AcDbLine
 10
3.3330699251
 20
-63.2484660421
 30
0.0
 11
1.5437403311
 21
-63.2484660421
 31
0.0
  0
LINE
  5
1E2
330
1F
100
AcDbEntity
  8
0
  6
Continuous
 62
     7
370
    25
100
AcDbLine
 10
1.978352377
 20
-52.6651327088
 30
0.0
 11
3.3330699251
 21
-63.2484660421
 31
0.0
  0
LINE
  5
1E3
330
1F
100
AcDbEntity
  8
0
  6
Continuous
 62
     7
370
    25
100
AcDbLine
 10
-0.050543857
 20
-52.6651327088
 30
0.0
 11
1.978352377
 21
-52.6651327088
 31
0.0
  0
LINE
  5
1E4
330
1F
100
AcDbEntity
  8
0
  6
Continuous
 62
     7
370
    25
100
AcDbLine
 10
-2.0264386219
 20
-60.0471773135
 30
0.0
 11
-0.050543857
 21
-52.6651327088
 31
0.0
  0
LINE
  5
1E5
330
1F
100
AcDbEntity
  8
0
  6
Continuous
 62
     7
370
    25
100
AcDbLine
 10
-3.9917330931
 20
-52.6651327088
 30
0.0
 11
-2.0264386219
 21
-60.0471773135
 31
0.0
  0
LINE
  5
1E6
330
1F
100
AcDbEntity
  8
0
  6
Continuous
 62
     7
370
    25
100
AcDbLine
 10
-6.0312296208
 20
-52.6651327088
 30
0.0
 11
-3.9917330931
 21
-52.6651327088
 31
0.0
  0
LINE
  5
1E7
330
1F
100
AcDbEntity
  8
0
  6
Continuous
 62
     7
370
    25
100
AcDbLine
 10
-7.3859471689
 20
-63.2484660421
 30
0.0
 11
-6.0312296208
 21
-52.6651327088
 31
0.0
  0
LINE
  5
1E8
330
1F
100
AcDbEntity
  8
0
  6
Continuous
 62
     7
370
    25
100
AcDbLine
 10
-5.5966175749
 20
-63.2484660421
 30
0.0
 11
-7.3859471689
 21
-63.2484660421
 31
0.0
  0
LINE
  5
1E9
330
1F
100
AcDbEntity
  8
0
  6
Continuous
 62
     7
370
    25
100
AcDbLine
 10
-13.0
 20
65.6155603871
 30
0.0
 11
13.0
 21
65.6155603871
 31
0.0
  0
LINE
  5
1EA
330
1F
100
AcDbEntity
  8
0
  6
Continuous
 62
     7
370
    25
100
AcDbLine
 10
13.0
 20
65.6155603871
 30
0.0
 11
13.0
 21
80.6470358646
 31
0.0
  0
LINE
  5
1EB
330
1F
100
AcDbEntity
  8
0
  6
Continuous
 62
     7
370
    25
100
AcDbLine
 10
13.0
 20
80.6470358646
 30
0.0
 11
-13.0
 21
80.6470358646
 31
0.0
  0
LINE
  5
1EC
330
1F
100
AcDbEntity
  8
0
  6
Continuous
 62
     7
370
    25
100
AcDbLine
 10
-13.0
 20
80.6470358646
 30
0.0
 11
-13.0
 21
65.6155603871
 31
0.0
  0
LINE
  5
1ED
330
1F
100
AcDbEntity
  8
0
  6
Continuous
 62
     7
370
    25
100
AcDbLine
 10
-34.9571602
 20
-44.1451249645
 30
0.0
 11
-30.95
 21
-44.1451249645
 31
0.0
  0
LINE
  5
1EE
330
1F
100
AcDbEntity
  8
0
  6
Continuous
 62
     7
370
    25
100
AcDbLine
 10
-30.95
 20
-44.1451249645
 30
0.0
 11
-30.95
 21
-31.0
 31
0.0
  0
LINE
  5
1EF
330
1F
100
AcDbEntity
  8
0
  6
Continuous
 62
     7
370
    25
100
AcDbLine
 10
-30.95
 20
-31.0
 30
0.0
 11
-34.9571602
 21
-31.0
 31
0.0
  0
LINE
  5
1F0
330
1F
100
AcDbEntity
  8
0
  6
Continuous
 62
     7
370
    25
100
AcDbLine
 10
-34.9571602
 20
-31.0
 30
0.0
 11
-34.9571602
 21
-44.1451249645
 31
0.0
  0
LINE
  5
1F1
330
1F
100
AcDbEntity
  8
0
  6
Continuous
 62
     7
370
    25
100
AcDbLine
 10
34.9571602
 20
-31.0
 30
0.0
 11
30.95
 21
-31.0
 31
0.0
  0
LINE
  5
1F2
330
1F
100
AcDbEntity
  8
0
  6
Continuous
 62
     7
370
    25
100
AcDbLine
 10
30.95
 20
-31.0
 30
0.0
 11
30.95
 21
-43.94744984
 31
0.0
  0
LINE
  5
1F3
330
1F
100
AcDbEntity
  8
0
  6
Continuous
 62
     7
370
    25
100
AcDbLine
 10
30.95
 20
-43.94744984
 30
0.0
 11
34.9571602
 21
-43.94744984
 31
0.0
  0
LINE
  5
1F4
330
1F
100
AcDbEntity
  8
0
  6
Continuous
 62
     7
370
    25
100
AcDbLine
 10
34.9571602
 20
-43.94744984
 30
0.0
 11
34.9571602
 21
-31.0
 31
0.0
  0
LINE
  5
1F5
330
1F
100
AcDbEntity
  8
0
  6
Continuous
 62
     7
370
    25
100
AcDbLine
 10
6.7251639422
 20
-56.7356455293
 30
0.0
 11
7.2488184561
 21
-56.7356455293
 31
0.0
  0
LINE
  5
1F6
330
1F
100
AcDbEntity
  8
0
  6
Continuous
 62
     7
370
    25
100
AcDbLine
 10
6.7251639422
 20
-54.5647053583
 30
0.0
 11
6.7251639422
 21
-56.7356455293
 31
0.0
  0
LINE
  5
1F7
330
1F
100
AcDbEntity
  8
0
  6
Continuous
 62
     7
370
    25
100
AcDbLine
 10
7.1894568108
 20
-54.5647053583
 30
0.0
 11
6.7251639422
 21
-54.5647053583
 31
0.0
  0
LINE
  5
1F8
330
1F
100
AcDbEntity
  8
0
  6
Continuous
 62
     7
370
    25
100
AcDbLine
 10
19.6295914489
 20
114.0347744429
 30
0.0
 11
18.4402384842
 21
116.7903208171
 31
0.0
  0
LINE
  5
1F9
330
1F
100
AcDbEntity
  8
0
  6
Continuous
 62
     7
370
    25
100
AcDbLine
 10
18.4402384842
 20
116.7903208171
 30
0.0
 11
17.2508855194
 21
114.0347744429
 31
0.0
  0
LINE
  5
1FA
330
1F
100
AcDbEntity
  8
0
  6
Continuous
 62
     7
370
    25
100
AcDbLine
 10
17.2508855194
 20
114.0347744429
 30
0.0
 11
19.6295914489
 21
114.0347744429
 31
0.0
  0
LINE
  5
1FB
330
1F
100
AcDbEntity
  8
0
  6
Continuous
 62
     7
370
    25
100
AcDbLine
 10
-4.2687709309
 20
114.4418257249
 30
0.0
 11
-4.609040362
 21
114.4418257249
 31
0.0
  0
LINE
  5
1FC
330
1F
100
AcDbEntity
  8
0
  6
Continuous
 62
     7
370
    25
100
AcDbLine
 10
-4.609040362
 20
112.4065693147
 30
0.0
 11
-4.1988089918
 21
112.4065693147
 31
0.0
  0
LINE
  5
1FD
330
1F
100
AcDbEntity
  8
0
  6
Continuous
 62
     7
370
    25
100
AcDbLine
 10
-4.609040362
 20
114.4418257249
 30
0.0
 11
-4.609040362
 21
112.4065693147
 31
0.0
  0
LINE
  5
1FE
330
1F
100
AcDbEntity
  8
0
  6
Continuous
 62
     7
370
    25
100
AcDbLine
 10
-4.1622379782
 20
117.4947103403
 30
0.0
 11
-4.609040362
 21
117.4947103403
 31
0.0
  0
LINE
  5
1FF
330
1F
100
AcDbEntity
  8
0
  6
Continuous
 62
     7
370
    25
100
AcDbLine
 10
-4.609040362
 20
115.7647423916
 30
0.0
 11
-4.2306098732
 21
115.7647423916
 31
0.0
  0
LINE
  5
200
330
1F
100
AcDbEntity
  8
0
  6
Continuous
 62
     7
370
    25
100
AcDbLine
 10
-4.609040362
 20
117.4947103403
 30
0.0
 11
-4.609040362
 21
115.7647423916
 31
0.0
  0
LINE
  5
201
330
1F
100
AcDbEntity
  8
0
  6
Continuous
 62
     7
370
    25
100
AcDbLine
 10
-20.280514721
 20
117.4947103403
 30
0.0
 11
-20.280514721
 21
115.8665052121
 31
0.0
  0
LINE
  5
202
330
1F
100
AcDbEntity
  8
0
  6
Continuous
 62
     7
370
    25
100
AcDbLine
 10
-19.7955512794
 20
117.4947103403
 30
0.0
 11
-20.280514721
 21
117.4947103403
 31
0.0
  0
LINE
  5
203
330
1F
100
AcDbEntity
  8
0
  6
Continuous
 62
     7
370
    25
100
AcDbLine
 10
-20.280514721
 20
115.8665052121
 30
0.0
 11
-19.7255893403
 21
115.8665052121
 31
0.0
  0
LINE
  5
204
330
1F
100
AcDbEntity
  8
0
  6
Continuous
 62
     7
370
    25
100
AcDbLine
 10
81.94
 20
-93.0
 30
0.0
 11
80.0409996442
 21
-93.0
 31
0.0
  0
LINE
  5
205
330
1F
100
AcDbEntity
  8
0
  6
Continuous
 62
     7
370
    25
100
AcDbLine
 10
80.0409996442
 20
-100.4914631086
 30
0.0
 11
80.0409996442
 21
-93.0
 31
0.0
  0
LINE
  5
206
330
1F
100
AcDbEntity
  8
0
  6
Continuous
 62
     7
370
    25
100
AcDbLine
 10
-80.0130926224
 20
-93.0
 30
0.0
 11
-80.0130926224
 21
-100.5456581737
 31
0.0
  0
LINE
  5
207
330
1F
100
AcDbEntity
  8
0
  6
Continuous
 62
     7
370
    25
100
AcDbLine
 10
-80.0130926224
 20
-93.0
 30
0.0
 11
-81.94
 21
-93.0
 31
0.0
  0
ARC
  5
208
330
1F
100
AcDbEntity
  8
0
  6
Continuous
 62
     7
370
    25
100
AcDbCircle
 10
72.9651116566
 20
94.0
 30
0.0
 40
2.000000000000028
100
AcDbArc
 50
269.9999999999
 51
3.9919686468
  0
ARC
  5
209
330
1F
100
AcDbEntity
  8
0
  6
Continuous
 62
     7
370
    25
100
AcDbCircle
 10
62.0
 20
87.0
 30
0.0
 40
4.999999999999993
100
AcDbArc
 50
90.0
 51
180.0
  0
ARC
  5
20A
330
1F
100
AcDbEntity
  8
0
  6
Continuous
 62
     7
370
    25
100
AcDbCircle
 10
46.94
 20
-62.0
 30
0.0
 40
10.00000000000004
100
AcDbArc
 50
270.0
 51
0.0
  0
ARC
  5
20B
330
1F
100
AcDbEntity
  8
0
  6
Continuous
 62
     7
370
    25
100
AcDbCircle
 10
-46.94
 20
-62.0
 30
0.0
 40
10.00000000000004
100
AcDbArc
 50
180.0
 51
270.0
  0
ARC
  5
20C
330
1F
100
AcDbEntity
  8
0
  6
Continuous
 62
     7
370
    25
100
AcDbCircle
 10
-62.0
 20
88.0
 30
0.0
 40
5.000000000000021
100
AcDbArc
 50
0.0
 51
90.0
  0
ARC
  5
20D
330
1F
100
AcDbEntity
  8
0
  6
Continuous
 62
     7
370
    25
100
AcDbCircle
 10
-72.8603906208
 20
95.0
 30
0.0
 40
1.999999999999979
100
AcDbArc
 50
172.048114985
 51
270.0
  0
ARC
  5
20E
330
1F
100
AcDbEntity
  8
0
  6
Continuous
 62
     7
370
    25
100
AcDbCircle
 10
37.9999819903
 20
112.0
 30
0.0
 40
2.000000000000003
100
AcDbArc
 50
62.5255852684
 51
242.5255852684
  0
ARC
  5
20F
330
1F
100
AcDbEntity
  8
0
  6
Continuous
 62
     7
370
    25
100
AcDbCircle
 10
63.0
 20
99.0
 30
0.0
 40
2.000000000000016
100
AcDbArc
 50
242.5255852684
 51
62.5255852684
  0
ARC
  5
210
330
1F
100
AcDbEntity
  8
0
  6
Continuous
 62
     7
370
    25
100
AcDbCircle
 10
-63.0484880065
 20
99.100734488
 30
0.0
 40
2.000000000000009
100
AcDbArc
 50
115.7035888357
 51
295.7035888357
  0
ARC
  5
211
330
1F
100
AcDbEntity
  8
0
  6
Continuous
 62
     7
370
    25
100
AcDbCircle
 10
-36.063172074
 20
112.0899718422
 30
0.0
 40
2.000000000000018
100
AcDbArc
 50
295.7035888357
 51
115.7035888357
  0
ARC
  5
212
330
1F
100
AcDbEntity
  8
0
  6
Continuous
 62
     7
370
    25
100
AcDbCircle
 10
65.6039946716
 20
-92.8454281916
 30
0.0
 40
16.33673659371154
100
AcDbArc
 50
332.0936947643
 51
359.4578816675
  0
ARC
  5
213
330
1F
100
AcDbEntity
  8
0
  6
Continuous
 62
     7
370
    25
100
AcDbCircle
 10
-65.5836970713
 20
-92.8420129698
 30
0.0
 40
16.35706591653454
100
AcDbArc
 50
180.5534079793
 51
208.0971124798
  0
ENDSEC
  0
SECTION
  2
OBJECTS
  0
DICTIONARY
  5
C
330
0
100
AcDbDictionary
281
     1
  3
ACAD_GROUP
350
D
  3
ACAD_LAYOUT
350
1A
  3
ACAD_MLINESTYLE
350
17
  3
ACAD_PLOTSETTINGS
350
19
  3
ACAD_PLOTSTYLENAME
350
E
  3
ACAD_SCALELIST
350
47
  3
DWGPROPS
350
214
  0
DICTIONARY
  5
D
102
{ACAD_REACTORS
330
C
102
}
330
C
100
AcDbDictionary
281
     1
  0
DICTIONARY
  5
1A
102
{ACAD_REACTORS
330
C
102
}
330
C
100
AcDbDictionary
281
     1
  3
Layout1
350
1E
  3
Layout2
350
26
  3
Model
350
22
  0
DICTIONARY
  5
17
102
{ACAD_REACTORS
330
C
102
}
330
C
100
AcDbDictionary
281
     1
  3
Standard
350
18
  0
DICTIONARY
  5
19
102
{ACAD_REACTORS
330
C
102
}
330
C
100
AcDbDictionary
281
     1
  0
ACDBDICTIONARYWDFLT
  5
E
102
{ACAD_REACTORS
330
C
102
}
330
C
100
AcDbDictionary
281
     1
  3
Normal
350
F
100
AcDbDictionaryWithDefault
340
F
  0
DICTIONARY
  5
47
102
{ACAD_REACTORS
330
C
102
}
330
C
100
AcDbDictionary
281
     1
  3
A0
350
48
  3
A1
350
49
  3
A2
350
4A
  3
A3
350
4B
  3
A4
350
4C
  3
A5
350
4D
  3
A6
350
4E
  3
A7
350
4F
  3
A8
350
50
  3
A9
350
51
  3
B0
350
52
  3
B1
350
53
  3
B2
350
54
  3
B3
350
55
  3
B4
350
56
  3
B5
350
57
  3
B6
350
58
  0
XRECORD
  5
214
102
{ACAD_REACTORS
330
C
102
}
330
C
100
AcDbXrecord
280
     1
  1
DWGPROPS COOKIE
  2

  3

  4

  6

  7

  8
Rizki Triamadewa
  9

300
=
301
=
302
=
303
=
304
=
305
=
306
=
307
=
308
=
309
=
 40
0.0
 41
2460461.054035637
 42
2460461.054063171
  1

 90
        0
  0
LAYOUT
  5
1E
102
{ACAD_REACTORS
330
1A
102
}
330
1A
100
AcDbPlotSettings
  1

  2
none_device
  4

  6

 40
0.0
 41
0.0
 42
0.0
 43
0.0
 44
0.0
 45
0.0
 46
0.0
 47
0.0
 48
0.0
 49
0.0
140
0.0
141
0.0
142
1.0
143
1.0
 70
   688
 72
     1
 73
     0
 74
     5
  7

 75
    16
147
1.0
148
0.0
149
0.0
100
AcDbLayout
  1
Layout1
 70
     1
 71
     1
 10
0.0
 20
0.0
 11
420.0
 21
297.0
 12
0.0
 22
0.0
 32
0.0
 14
1.0000000000E+20
 24
1.0000000000E+20
 34
1.0000000000E+20
 15
-1.0000000000E+20
 25
-1.0000000000E+20
 35
-1.0000000000E+20
146
0.0
 13
0.0
 23
0.0
 33
0.0
 16
1.0
 26
0.0
 36
0.0
 17
0.0
 27
1.0
 37
0.0
 76
     0
330
1B
  0
LAYOUT
  5
26
102
{ACAD_REACTORS
330
1A
102
}
330
1A
100
AcDbPlotSettings
  1

  2
none_device
  4

  6

 40
0.0
 41
0.0
 42
0.0
 43
0.0
 44
0.0
 45
0.0
 46
0.0
 47
0.0
 48
0.0
 49
0.0
140
0.0
141
0.0
142
1.0
143
1.0
 70
   688
 72
     1
 73
     0
 74
     5
  7

 75
    16
147
1.0
148
0.0
149
0.0
100
AcDbLayout
  1
Layout2
 70
     1
 71
     2
 10
0.0
 20
0.0
 11
0.0
 21
0.0
 12
0.0
 22
0.0
 32
0.0
 14
0.0
 24
0.0
 34
0.0
 15
0.0
 25
0.0
 35
0.0
146
0.0
 13
0.0
 23
0.0
 33
0.0
 16
1.0
 26
0.0
 36
0.0
 17
0.0
 27
1.0
 37
0.0
 76
     0
330
23
  0
LAYOUT
  5
22
102
{ACAD_REACTORS
330
1A
102
}
330
1A
100
AcDbPlotSettings
  1

  2
none_device
  4
ANSI_A_(11.00_x_8.50_Inches)
  6

 40
6.35
 41
19.05
 42
6.35000508
 43
19.05000254
 44
279.4
 45
215.9
 46
133.34999746
 47
76.0639479741
 48
0.0
 49
0.0
140
0.0
141
0.0
142
0.0368205225
143
1.0
 70
  1696
 72
     0
 73
     0
 74
     0
  7

 75
     0
147
0.0179189148
148
-1300.4909072572
149
0.0
100
AcDbLayout
  1
Model
 70
     1
 71
     0
 10
0.0
 20
0.0
 11
420.0
 21
297.0
 12
0.0
 22
0.0
 32
0.0
 14
-81.94
 24
-100.5456581737
 34
0.0
 15
81.94
 25
127.9953679764
 35
0.0
146
0.0
 13
0.0
 23
0.0
 33
0.0
 16
1.0
 26
0.0
 36
0.0
 17
0.0
 27
1.0
 37
0.0
 76
     0
330
1F
331
29
  0
MLINESTYLE
  5
18
102
{ACAD_REACTORS
330
17
102
}
330
17
100
AcDbMlineStyle
  2
Standard
 70
     0
  3

 62
   256
 51
90.0
 52
90.0
 71
     2
 49
0.5
 62
   256
  6
BYLAYER
 49
-0.5
 62
   256
  6
BYLAYER
  0
ACDBPLACEHOLDER
  5
F
102
{ACAD_REACTORS
330
E
102
}
330
E
  0
SCALE
  5
48
102
{ACAD_REACTORS
330
47
102
}
330
47
100
AcDbScale
 70
     0
300
1:1
140
1.0
141
1.0
290
     1
  0
SCALE
  5
49
102
{ACAD_REACTORS
330
47
102
}
330
47
100
AcDbScale
 70
     0
300
1:2
140
1.0
141
2.0
290
     0
  0
SCALE
  5
4A
102
{ACAD_REACTORS
330
47
102
}
330
47
100
AcDbScale
 70
     0
300
1:4
140
1.0
141
4.0
290
     0
  0
SCALE
  5
4B
102
{ACAD_REACTORS
330
47
102
}
330
47
100
AcDbScale
 70
     0
300
1:5
140
1.0
141
5.0
290
     0
  0
SCALE
  5
4C
102
{ACAD_REACTORS
330
47
102
}
330
47
100
AcDbScale
 70
     0
300
1:8
140
1.0
141
8.0
290
     0
  0
SCALE
  5
4D
102
{ACAD_REACTORS
330
47
102
}
330
47
100
AcDbScale
 70
     0
300
1:10
140
1.0
141
10.0
290
     0
  0
SCALE
  5
4E
102
{ACAD_REACTORS
330
47
102
}
330
47
100
AcDbScale
 70
     0
300
1:16
140
1.0
141
16.0
290
     0
  0
SCALE
  5
4F
102
{ACAD_REACTORS
330
47
102
}
330
47
100
AcDbScale
 70
     0
300
1:20
140
1.0
141
20.0
290
     0
  0
SCALE
  5
50
102
{ACAD_REACTORS
330
47
102
}
330
47
100
AcDbScale
 70
     0
300
1:30
140
1.0
141
30.0
290
     0
  0
SCALE
  5
51
102
{ACAD_REACTORS
330
47
102
}
330
47
100
AcDbScale
 70
     0
300
1:40
140
1.0
141
40.0
290
     0
  0
SCALE
  5
52
102
{ACAD_REACTORS
330
47
102
}
330
47
100
AcDbScale
 70
     0
300
1:50
140
1.0
141
50.0
290
     0
  0
SCALE
  5
53
102
{ACAD_REACTORS
330
47
102
}
330
47
100
AcDbScale
 70
     0
300
1:100
140
1.0
141
100.0
290
     0
  0
SCALE
  5
54
102
{ACAD_REACTORS
330
47
102
}
330
47
100
AcDbScale
 70
     0
300
2:1
140
2.0
141
1.0
290
     0
  0
SCALE
  5
55
102
{ACAD_REACTORS
330
47
102
}
330
47
100
AcDbScale
 70
     0
300
4:1
140
4.0
141
1.0
290
     0
  0
SCALE
  5
56
102
{ACAD_REACTORS
330
47
102
}
330
47
100
AcDbScale
 70
     0
300
8:1
140
8.0
141
1.0
290
     0
  0
SCALE
  5
57
102
{ACAD_REACTORS
330
47
102
}
330
47
100
AcDbScale
 70
     0
300
10:1
140
10.0
141
1.0
290
     0
  0
SCALE
  5
58
102
{ACAD_REACTORS
330
47
102
}
330
47
100
AcDbScale
 70
     0
300
100:1
140
100.0
141
1.0
290
     0
  0
ENDSEC
  0
EOF
