  0
SECTION
  2
HEADER
  9
$ACADVER
  1
AC1015
  9
$ACADMAINTVER
 70
     6
  9
$DWGCODEPAGE
  3
ANSI_1252
  9
$INSBASE
 10
0.0
 20
0.0
 30
0.0
  9
$EXTMIN
 10
-81.95
 20
-100.564522928
 30
0.0
  9
$EXTMAX
 10
81.95
 20
127.9953679764
 30
0.0
  9
$LIMMIN
 10
0.0
 20
0.0
  9
$LIMMAX
 10
420.0
 20
297.0
  9
$ORTHOMODE
 70
     0
  9
$REGENMODE
 70
     1
  9
$FILLMODE
 70
     1
  9
$QTEXTMODE
 70
     0
  9
$MIRRTEXT
 70
     1
  9
$LTSCALE
 40
1.0
  9
$ATTMODE
 70
     1
  9
$TEXTSIZE
 40
3.5
  9
$TRACEWID
 40
1.0
  9
$TEXTSTYLE
  7
Standard
  9
$CLAYER
  8
0
  9
$CELTYPE
  6
ByLayer
  9
$CECOLOR
 62
   256
  9
$CELTSCALE
 40
1.0
  9
$DISPSILH
 70
     0
  9
$DIMSCALE
 40
1.0
  9
$DIMASZ
 40
3.302
  9
$DIMEXO
 40
0.0
  9
$DIMDLI
 40
3.75
  9
$DIMRND
 40
0.0
  9
$DIMDLE
 40
0.0
  9
$DIMEXE
 40
1.0
  9
$DIMTP
 40
0.0
  9
$DIMTM
 40
0.0
  9
$DIMTXT
 40
3.5
  9
$DIMCEN
 40
2.5
  9
$DIMTSZ
 40
0.0
  9
$DIMTOL
 70
     0
  9
$DIMLIM
 70
     0
  9
$DIMTIH
 70
     1
  9
$DIMTOH
 70
     1
  9
$DIMSE1
 70
     0
  9
$DIMSE2
 70
     0
  9
$DIMTAD
 70
     1
  9
$DIMZIN
 70
     0
  9
$DIMBLK
  1

  9
$DIMASO
 70
     1
  9
$DIMSHO
 70
     1
  9
$DIMPOST
  1

  9
$DIMAPOST
  1

  9
$DIMALT
 70
     0
  9
$DIMALTD
 70
     3
  9
$DIMALTF
 40
0.0393700787
  9
$DIMLFAC
 40
1.0
  9
$DIMTOFL
 70
     1
  9
$DIMTVP
 40
0.0
  9
$DIMTIX
 70
     0
  9
$DIMSOXD
 70
     0
  9
$DIMSAH
 70
     0
  9
$DIMBLK1
  1

  9
$DIMBLK2
  1

  9
$DIMSTYLE
  2
ISO-25
  9
$DIMCLRD
 70
     0
  9
$DIMCLRE
 70
     0
  9
$DIMCLRT
 70
     0
  9
$DIMTFAC
 40
1.0
  9
$DIMGAP
 40
1.524
  9
$DIMJUST
 70
     0
  9
$DIMSD1
 70
     0
  9
$DIMSD2
 70
     0
  9
$DIMTOLJ
 70
     0
  9
$DIMTZIN
 70
     0
  9
$DIMALTZ
 70
     0
  9
$DIMALTTZ
 70
     0
  9
$DIMUPT
 70
     0
  9
$DIMDEC
 70
     2
  9
$DIMTDEC
 70
     2
  9
$DIMALTU
 70
     2
  9
$DIMALTTD
 70
     3
  9
$DIMTXSTY
  7
Standard
  9
$DIMAUNIT
 70
     0
  9
$DIMADEC
 70
     2
  9
$DIMALTRND
 40
0.0
  9
$DIMAZIN
 70
     0
  9
$DIMDSEP
 70
    44
  9
$DIMATFIT
 70
     3
  9
$DIMFRAC
 70
     0
  9
$DIMLDRBLK
  1

  9
$DIMLUNIT
 70
     2
  9
$DIMLWD
 70
    -2
  9
$DIMLWE
 70
    -2
  9
$DIMTMOVE
 70
     0
  9
$LUNITS
 70
     2
  9
$LUPREC
 70
     2
  9
$SKETCHINC
 40
1.0
  9
$FILLETRAD
 40
0.0
  9
$AUNITS
 70
     0
  9
$AUPREC
 70
     2
  9
$MENU
  1
.
  9
$ELEVATION
 40
0.0
  9
$PELEVATION
 40
0.0
  9
$THICKNESS
 40
0.0
  9
$LIMCHECK
 70
     0
  9
$CHAMFERA
 40
0.0
  9
$CHAMFERB
 40
0.0
  9
$CHAMFERC
 40
0.0
  9
$CHAMFERD
 40
0.0
  9
$SKPOLY
 70
     0
  9
$TDCREATE
 40
2460461.340470475
  9
$TDUCREATE
 40
2460461.048803808
  9
$TDUPDATE
 40
2460461.340580509
  9
$TDUUPDATE
 40
2460461.048913843
  9
$TDINDWG
 40
0.0000000116
  9
$TDUSRTIMER
 40
0.0000000116
  9
$USRTIMER
 70
     1
  9
$ANGBASE
 50
0.0
  9
$ANGDIR
 70
     0
  9
$PDMODE
 70
     0
  9
$PDSIZE
 40
-1.0
  9
$PLINEWID
 40
0.0
  9
$SPLFRAME
 70
     0
  9
$SPLINETYPE
 70
     6
  9
$SPLINESEGS
 70
     8
  9
$HANDSEED
  5
21C
  9
$SURFTAB1
 70
     6
  9
$SURFTAB2
 70
     6
  9
$SURFTYPE
 70
     6
  9
$SURFU
 70
     6
  9
$SURFV
 70
     6
  9
$UCSBASE
  2

  9
$UCSNAME
  2

  9
$UCSORG
 10
0.0
 20
0.0
 30
0.0
  9
$UCSXDIR
 10
1.0
 20
0.0
 30
0.0
  9
$UCSYDIR
 10
0.0
 20
1.0
 30
0.0
  9
$UCSORTHOREF
  2

  9
$UCSORTHOVIEW
 70
     0
  9
$UCSORGTOP
 10
0.0
 20
0.0
 30
0.0
  9
$UCSORGBOTTOM
 10
0.0
 20
0.0
 30
0.0
  9
$UCSORGLEFT
 10
0.0
 20
0.0
 30
0.0
  9
$UCSORGRIGHT
 10
0.0
 20
0.0
 30
0.0
  9
$UCSORGFRONT
 10
0.0
 20
0.0
 30
0.0
  9
$UCSORGBACK
 10
0.0
 20
0.0
 30
0.0
  9
$PUCSBASE
  2

  9
$PUCSNAME
  2

  9
$PUCSORG
 10
0.0
 20
0.0
 30
0.0
  9
$PUCSXDIR
 10
1.0
 20
0.0
 30
0.0
  9
$PUCSYDIR
 10
0.0
 20
1.0
 30
0.0
  9
$PUCSORTHOREF
  2

  9
$PUCSORTHOVIEW
 70
     0
  9
$PUCSORGTOP
 10
0.0
 20
0.0
 30
0.0
  9
$PUCSORGBOTTOM
 10
0.0
 20
0.0
 30
0.0
  9
$PUCSORGLEFT
 10
0.0
 20
0.0
 30
0.0
  9
$PUCSORGRIGHT
 10
0.0
 20
0.0
 30
0.0
  9
$PUCSORGFRONT
 10
0.0
 20
0.0
 30
0.0
  9
$PUCSORGBACK
 10
0.0
 20
0.0
 30
0.0
  9
$USERI1
 70
     0
  9
$USERI2
 70
     0
  9
$USERI3
 70
     0
  9
$USERI4
 70
     0
  9
$USERI5
 70
     0
  9
$USERR1
 40
0.0
  9
$USERR2
 40
0.0
  9
$USERR3
 40
0.0
  9
$USERR4
 40
0.0
  9
$USERR5
 40
0.0
  9
$WORLDVIEW
 70
     1
  9
$SHADEDGE
 70
     3
  9
$SHADEDIF
 70
    70
  9
$TILEMODE
 70
     1
  9
$MAXACTVP
 70
    64
  9
$PINSBASE
 10
0.0
 20
0.0
 30
0.0
  9
$PLIMCHECK
 70
     0
  9
$PEXTMIN
 10
1.0000000000E+20
 20
1.0000000000E+20
 30
1.0000000000E+20
  9
$PEXTMAX
 10
-1.0000000000E+20
 20
-1.0000000000E+20
 30
-1.0000000000E+20
  9
$PLIMMIN
 10
0.0
 20
0.0
  9
$PLIMMAX
 10
420.0
 20
297.0
  9
$UNITMODE
 70
     0
  9
$VISRETAIN
 70
     1
  9
$PLINEGEN
 70
     0
  9
$PSLTSCALE
 70
     1
  9
$TREEDEPTH
 70
  3020
  9
$CMLSTYLE
  2
Standard
  9
$CMLJUST
 70
     0
  9
$CMLSCALE
 40
20.0
  9
$PROXYGRAPHICS
 70
     1
  9
$MEASUREMENT
 70
     1
  9
$CELWEIGHT
370
    -1
  9
$ENDCAPS
280
     0
  9
$JOINSTYLE
280
     0
  9
$LWDISPLAY
290
     1
  9
$INSUNITS
 70
     4
  9
$HYPERLINKBASE
  1

  9
$STYLESHEET
  1

  9
$XEDIT
290
     1
  9
$CEPSNTYPE
380
     0
  9
$PSTYLEMODE
290
     1
  9
$FINGERPRINTGUID
  2
{533d928d-c8f2-4f8c-8bbb-f3cadf799976}
  9
$VERSIONGUID
  2
{FAEB1C32-E019-11D5-929B-00C0DF256EC4}
  9
$EXTNAMES
290
     1
  9
$PSVPSCALE
 40
0.0
  9
$OLESTARTUP
290
     0
  0
ENDSEC
  0
SECTION
  2
CLASSES
  0
CLASS
  1
ACDBDICTIONARYWDFLT
  2
AcDbDictionaryWithDefault
  3
ObjectDBX Classes
 90
        0
280
     0
281
     0
  0
CLASS
  1
VISUALSTYLE
  2
AcDbVisualStyle
  3
ObjectDBX Classes
 90
     4095
280
     0
281
     0
  0
CLASS
  1
MATERIAL
  2
AcDbMaterial
  3
ObjectDBX Classes
 90
     1153
280
     0
281
     0
  0
CLASS
  1
SCALE
  2
AcDbScale
  3
ObjectDBX Classes
 90
     1153
280
     0
281
     0
  0
CLASS
  1
TABLESTYLE
  2
AcDbTableStyle
  3
ObjectDBX Classes
 90
     4095
280
     0
281
     0
  0
CLASS
  1
MLEADERSTYLE
  2
AcDbMLeaderStyle
  3
ACDB_MLEADERSTYLE_CLASS
 90
     4095
280
     0
281
     0
  0
CLASS
  1
SUN
  2
AcDbSun
  3
SCENEOE
 90
     1153
280
     0
281
     0
  0
CLASS
  1
ACDBPLACEHOLDER
  2
AcDbPlaceHolder
  3
ObjectDBX Classes
 90
        0
280
     0
281
     0
  0
CLASS
  1
LAYOUT
  2
AcDbLayout
  3
ObjectDBX Classes
 90
        0
280
     0
281
     0
  0
ENDSEC
  0
SECTION
  2
TABLES
  0
TABLE
  2
VPORT
  5
8
330
0
100
AcDbSymbolTable
 70
     1
  0
VPORT
  5
29
330
8
100
AcDbSymbolTableRecord
100
AcDbViewportTableRecord
  2
*Active
 70
     0
 10
0.0
 20
0.0
 11
1.0
 21
1.0
 12
0.0
 22
13.7154225242
 13
0.0
 23
0.0
 14
10.0
 24
10.0
 15
10.0
 25
10.0
 16
0.0
 26
0.0
 36
1.0
 17
0.0
 27
0.0
 37
0.0
 40
233.1310887225
 41
0.7170986972
 42
50.0
 43
0.0
 44
0.0
 50
0.0
 51
0.0
 71
     0
 72
   100
 73
     1
 74
     3
 75
     0
 76
     0
 77
     0
 78
     0
281
     0
 65
     1
110
0.0
120
0.0
130
0.0
111
1.0
121
0.0
131
0.0
112
0.0
122
1.0
132
0.0
 79
     0
146
0.0
  0
ENDTAB
  0
TABLE
  2
LTYPE
  5
5
330
0
100
AcDbSymbolTable
 70
     6
  0
LTYPE
  5
14
330
5
100
AcDbSymbolTableRecord
100
AcDbLinetypeTableRecord
  2
ByBlock
 70
     0
  3

 72
    65
 73
     0
 40
0.0
  0
LTYPE
  5
15
330
5
100
AcDbSymbolTableRecord
100
AcDbLinetypeTableRecord
  2
ByLayer
 70
     0
  3

 72
    65
 73
     0
 40
0.0
  0
LTYPE
  5
16
330
5
100
AcDbSymbolTableRecord
100
AcDbLinetypeTableRecord
  2
Continuous
 70
     0
  3
Solid line
 72
    65
 73
     0
 40
0.0
  0
LTYPE
  5
5E
330
5
100
AcDbSymbolTableRecord
100
AcDbLinetypeTableRecord
  2
HIDDEN
 70
     0
  3
Hidden __ __ __ __ __ __ __ __ __ __ __ __ __ __
 72
    65
 73
     2
 40
1.905
 49
1.27
 74
     0
 49
-0.635
 74
     0
  0
LTYPE
  5
5F
330
5
100
AcDbSymbolTableRecord
100
AcDbLinetypeTableRecord
  2
PHANTOM
 70
     0
  3
Phantom ______  __  __  ______  __  __  ______
 72
    65
 73
     6
 40
12.7
 49
6.35
 74
     0
 49
-1.27
 74
     0
 49
1.27
 74
     0
 49
-1.27
 74
     0
 49
1.27
 74
     0
 49
-1.27
 74
     0
  0
LTYPE
  5
60
330
5
100
AcDbSymbolTableRecord
100
AcDbLinetypeTableRecord
  2
CENTER
 70
     0
  3
Center ____ _ ____ _ ____ _ ____ _ ____ _ ____
 72
    65
 73
     4
 40
10.16
 49
6.35
 74
     0
 49
-1.27
 74
     0
 49
1.27
 74
     0
 49
-1.27
 74
     0
  0
LTYPE
  5
61
330
5
100
AcDbSymbolTableRecord
100
AcDbLinetypeTableRecord
  2
CENTERX2
 70
     0
  3
Center (2x) ________  __  ________  __  _____
 72
    65
 73
     4
 40
20.32
 49
12.7
 74
     0
 49
-2.54
 74
     0
 49
2.54
 74
     0
 49
-2.54
 74
     0
  0
LTYPE
  5
62
330
5
100
AcDbSymbolTableRecord
100
AcDbLinetypeTableRecord
  2
DOT2
 70
     0
  3
Dot (.5x) ........................................
 72
    65
 73
     2
 40
0.635
 49
0.0
 74
     0
 49
-0.635
 74
     0
  0
ENDTAB
  0
TABLE
  2
LAYER
  5
2
330
0
100
AcDbSymbolTable
 70
     1
  0
LAYER
  5
10
330
2
100
AcDbSymbolTableRecord
100
AcDbLayerTableRecord
  2
0
 70
     0
 62
     7
  6
Continuous
370
    -3
390
F
  0
ENDTAB
  0
TABLE
  2
STYLE
  5
3
330
0
100
AcDbSymbolTable
 70
     1
  0
STYLE
  5
11
330
3
100
AcDbSymbolTableRecord
100
AcDbTextStyleTableRecord
  2
Standard
 70
     0
 40
0.0
 41
1.0
 50
0.0
 71
     0
 42
3.5
  3
txt
  4

  0
ENDTAB
  0
TABLE
  2
VIEW
  5
6
330
0
100
AcDbSymbolTable
 70
     0
  0
ENDTAB
  0
TABLE
  2
UCS
  5
7
330
0
100
AcDbSymbolTable
 70
     0
  0
ENDTAB
  0
TABLE
  2
APPID
  5
9
330
0
100
AcDbSymbolTable
 70
     1
  0
APPID
  5
12
330
9
100
AcDbSymbolTableRecord
100
AcDbRegAppTableRecord
  2
ACAD
 70
     0
  0
ENDTAB
  0
TABLE
  2
DIMSTYLE
  5
A
330
0
100
AcDbSymbolTable
 70
     1
100
AcDbDimStyleTable
  0
DIMSTYLE
105
27
330
A
100
AcDbSymbolTableRecord
100
AcDbDimStyleTableRecord
  2
ISO-25
 70
     0
 41
2.5
 42
0.625
 43
3.75
 44
1.25
 73
     0
 74
     0
 77
     1
 78
     8
140
2.5
141
2.5
143
0.0393700787
147
0.625
171
     3
172
     1
178
     0
271
     2
272
     2
274
     3
278
    44
283
     0
284
     8
340
11
  0
ENDTAB
  0
TABLE
  2
BLOCK_RECORD
  5
1
330
0
100
AcDbSymbolTable
 70
     1
  0
BLOCK_RECORD
  5
1F
330
1
100
AcDbSymbolTableRecord
100
AcDbBlockTableRecord
  2
*Model_Space
340
22
  0
BLOCK_RECORD
  5
1B
330
1
100
AcDbSymbolTableRecord
100
AcDbBlockTableRecord
  2
*Paper_Space
340
1E
  0
BLOCK_RECORD
  5
23
330
1
100
AcDbSymbolTableRecord
100
AcDbBlockTableRecord
  2
*Paper_Space0
340
26
  0
ENDTAB
  0
ENDSEC
  0
SECTION
  2
BLOCKS
  0
BLOCK
  5
20
330
1F
100
AcDbEntity
  8
0
100
AcDbBlockBegin
  2
*Model_Space
 70
     0
 10
0.0
 20
0.0
 30
0.0
  3
*Model_Space
  1

  0
ENDBLK
  5
21
330
1F
100
AcDbEntity
  8
0
100
AcDbBlockEnd
  0
BLOCK
  5
1C
330
1B
100
AcDbEntity
 67
     1
  8
0
100
AcDbBlockBegin
  2
*Paper_Space
 70
     0
 10
0.0
 20
0.0
 30
0.0
  3
*Paper_Space
  1

  0
ENDBLK
  5
1D
330
1B
100
AcDbEntity
 67
     1
  8
0
100
AcDbBlockEnd
  0
BLOCK
  5
24
330
23
100
AcDbEntity
  8
0
100
AcDbBlockBegin
  2
*Paper_Space0
 70
     0
 10
0.0
 20
0.0
 30
0.0
  3
*Paper_Space0
  1

  0
ENDBLK
  5
25
330
23
100
AcDbEntity
  8
0
100
AcDbBlockEnd
  0
ENDSEC
  0
SECTION
  2
ENTITIES
  0
SPLINE
  5
80
330
1F
100
AcDbEntity
  8
0
  6
Continuous
 62
     7
370
    25
100
AcDbSpline
210
0.0
220
0.0
230
1.0
 70
     8
 71
     3
 72
    23
 73
    19
 74
     0
 42
0.00000001
 43
0.00000001
 40
0.0
 40
0.0
 40
0.0
 40
0.0
 40
0.0703516867863861
 40
0.1385180140095222
 40
0.20462619931991
 40
0.2695268107504122
 40
0.3335359539177247
 40
0.3973620750244669
 40
0.4613222842030649
 40
0.5261799395003763
 40
0.5900157631650872
 40
0.6511664601847394
 40
0.7102656181165977
 40
0.7679249494335546
 40
0.8249705629918174
 40
0.8821914230534125
 40
0.9403693646444361
 40
1.0
 40
1.0
 40
1.0
 40
1.0
 10
-8.335733493704634
 20
-57.98860025685135
 30
0.0
 10
-8.33941810690794
 20
-58.17820550709649
 30
0.0
 10
-8.346672876859158
 20
-58.55152623200649
 30
0.0
 10
-8.415499269241257
 20
-59.09935029818062
 30
0.0
 10
-8.519698386168907
 20
-59.62619681336656
 30
0.0
 10
-8.670412932264892
 20
-60.13044054018066
 30
0.0
 10
-8.867031412825304
 20
-60.61176062346539
 30
0.0
 10
-9.104641460683538
 20
-61.07143443628295
 30
0.0
 10
-9.386809269896979
 20
-61.50783741706164
 30
0.0
 10
-9.7055596864109
 20
-61.91837823557929
 30
0.0
 10
-10.05753813769376
 20
-62.29036823883644
 30
0.0
 10
-10.42879326056308
 20
-62.62041532620623
 30
0.0
 10
-10.82135263666736
 20
-62.89702379587447
 30
0.0
 10
-11.23037775368126
 20
-63.12677508577897
 30
0.0
 10
-11.65961017102473
 20
-63.30395621742055
 30
0.0
 10
-12.1078973024263
 20
-63.42918425713234
 30
0.0
 10
-12.57467929928989
 20
-63.50509782838859
 30
0.0
 10
-12.89216429151251
 20
-63.51488143798819
 30
0.0
 10
-13.052864236226
 20
-63.51983356347528
 30
0.0
  0
SPLINE
  5
81
330
1F
100
AcDbEntity
  8
0
  6
Continuous
 62
     7
370
    25
100
AcDbSpline
210
0.0
220
0.0
230
1.0
 70
     8
 71
     3
 72
    23
 73
    19
 74
     0
 42
0.00000001
 43
0.00000001
 40
0.0
 40
0.0
 40
0.0
 40
0.0
 40
0.058735288897578
 40
0.1158178128344319
 40
0.1724995473136822
 40
0.2292866805661369
 40
0.2867110190785136
 40
0.3459531625167867
 40
0.4072600807669704
 40
0.4716215346420423
 40
0.5368033804908583
 40
0.6013014130667248
 40
0.6653092648057986
 40
0.7294973370942622
 40
0.7944896951210422
 40
0.8610533138028764
 40
0.9293089275816885
 40
1.0
 40
1.0
 40
1.0
 40
1.0
 10
-13.0655845887901
 20
-52.39376518740691
 30
0.0
 10
-12.90625933203521
 20
-52.39846584020086
 30
0.0
 10
-12.59209210628421
 20
-52.40773487310607
 30
0.0
 10
-12.12974436237996
 20
-52.48720463701442
 30
0.0
 10
-11.68434017017406
 20
-52.61424001338798
 30
0.0
 10
-11.25573325909319
 20
-52.79325462443543
 30
0.0
 10
-10.84578849980414
 20
-53.02550558801536
 30
0.0
 10
-10.45210210141765
 20
-53.30606670171537
 30
0.0
 10
-10.07789434537483
 20
-53.64087217180457
 30
0.0
 10
-9.723228821074997
 20
-54.01845431997278
 30
0.0
 10
-9.398913254909125
 20
-54.43353461125826
 30
0.0
 10
-9.11345450876396
 20
-54.8751977974663
 30
0.0
 10
-8.873646626307263
 20
-55.34006297888927
 30
0.0
 10
-8.673831225747199
 20
-55.825093908284
 30
0.0
 10
-8.525135220483929
 20
-56.33535662550975
 30
0.0
 10
-8.414235939975653
 20
-56.86601570642114
 30
0.0
 10
-8.346954158932597
 20
-57.42010724438327
 30
0.0
 10
-8.339517167330275
 20
-57.79690110408847
 30
0.0
 10
-8.335733493704634
 20
-57.98860025685135
 30
0.0
  0
SPLINE
  5
82
330
1F
100
AcDbEntity
  8
0
  6
Continuous
 62
     7
370
    25
100
AcDbSpline
210
0.0
220
0.0
230
1.0
 70
     8
 71
     3
 72
    31
 73
    27
 74
     0
 42
0.00000001
 43
0.00000001
 40
0.0
 40
0.0
 40
0.0
 40
0.0
 40
0.0461727971696176
 40
0.0916915325627412
 40
0.1364244744362041
 40
0.1805575426434522
 40
0.2244496051410029
 40
0.2679909330161709
 40
0.3116686896542354
 40
0.3553051728959308
 40
0.398698675934839
 40
0.441099122780265
 40
0.4828409681705876
 40
0.5240128623010953
 40
0.5647956409247601
 40
0.605743975606761
 40
0.6463094317612217
 40
0.6872021013079017
 40
0.7278613157097092
 40
0.7676354348213976
 40
0.8067406280173857
 40
0.8454183527854511
 40
0.8838173091854697
 40
0.9222773083267756
 40
0.9608643899593247
 40
1.0
 40
1.0
 40
1.0
 40
1.0
 10
-17.83359674156788
 20
-57.95255925791973
 30
0.0
 10
-17.83144809627013
 20
-57.82741456391188
 30
0.0
 10
-17.82718124235697
 20
-57.57889791581883
 30
0.0
 10
-17.79645727314721
 20
-57.21021683413158
 30
0.0
 10
-17.74883854104239
 20
-56.84895262831679
 30
0.0
 10
-17.6777903171007
 20
-56.49600356925244
 30
0.0
 10
-17.58913156973164
 20
-56.1504801718964
 30
0.0
 10
-17.48087350722059
 20
-55.81180686739273
 30
0.0
 10
-17.35139938008444
 20
-55.48138318237194
 30
0.0
 10
-17.20259770259057
 20
-55.15977876647671
 30
0.0
 10
-17.03973970544719
 20
-54.84877656465179
 30
0.0
 10
-16.85511819251877
 20
-54.55628940012011
 30
0.0
 10
-16.66107191487701
 20
-54.27737894811181
 30
0.0
 10
-16.4505459735548
 20
-54.0161195366492
 30
0.0
 10
-16.22470076721588
 20
-53.77099014999992
 30
0.0
 10
-15.98402693843145
 20
-53.54271391999465
 30
0.0
 10
-15.72761720812786
 20
-53.33183362602475
 30
0.0
 10
-15.45945522851703
 20
-53.13761544514939
 30
0.0
 10
-15.18160119852345
 20
-52.96111507758369
 30
0.0
 10
-14.89381780542522
 20
-52.81183729742069
 30
0.0
 10
-14.60346486085206
 20
-52.67989216392452
 30
0.0
 10
-14.30526888765928
 20
-52.57786138709842
 30
0.0
 10
-14.00364230099624
 20
-52.49255183106291
 30
0.0
 10
-13.69532530233051
 20
-52.4377058771911
 30
0.0
 10
-13.38248315804876
 20
-52.39848788938225
 30
0.0
 10
-13.17171328180601
 20
-52.39534681079294
 30
0.0
 10
-13.0655845887901
 20
-52.39376518740691
 30
0.0
  0
SPLINE
  5
83
330
1F
100
AcDbEntity
  8
0
  6
Continuous
 62
     7
370
    25
100
AcDbSpline
210
0.0
220
0.0
230
1.0
 70
     8
 71
     3
 72
    23
 73
    19
 74
     0
 42
0.00000001
 43
0.00000001
 40
0.0
 40
0.0
 40
0.0
 40
0.0
 40
0.0618824434770579
 40
0.1216078058084241
 40
0.1800728158670995
 40
0.2382812065480948
 40
0.2965197102112802
 40
0.3560494235751275
 40
0.4174680922033418
 40
0.4814359715146584
 40
0.5461485141005885
 40
0.6099818434580118
 40
0.6733906707294265
 40
0.7365608297035132
 40
0.8005587462038688
 40
0.865237413195903
 40
0.9316547044345325
 40
1.0
 40
1.0
 40
1.0
 40
1.0
 10
-13.052864236226
 20
-63.51983356347528
 30
0.0
 10
-13.22140961742068
 20
-63.51543220217318
 30
0.0
 10
-13.55262527140223
 20
-63.50678290100726
 30
0.0
 10
-14.03700460491445
 20
-63.42400137980849
 30
0.0
 10
-14.50154598176058
 20
-63.29924158953357
 30
0.0
 10
-14.94141006764155
 20
-63.11396165580409
 30
0.0
 10
-15.36134503646556
 20
-62.88176179864165
 30
0.0
 10
-15.75698686175113
 20
-62.59474401236506
 30
0.0
 10
-16.13146930728979
 20
-62.25738858888086
 30
0.0
 10
-16.48032023980857
 20
-61.87417713846696
 30
0.0
 10
-16.79464599057859
 20
-61.4543114637548
 30
0.0
 10
-17.07533531498064
 20
-61.01293414119277
 30
0.0
 10
-17.30798130677955
 20
-60.54897556255995
 30
0.0
 10
-17.4999646456185
 20
-60.06659932407815
 30
0.0
 10
-17.65126539492315
 20
-59.56611185074129
 30
0.0
 10
-17.756478288195
 20
-59.04511650263905
 30
0.0
 10
-17.82187131092697
 20
-58.5054500310889
 30
0.0
 10
-17.8296511634178
 20
-58.13860562336265
 30
0.0
 10
-17.83359674156788
 20
-57.95255925791972
 30
0.0
  0
SPLINE
  5
84
330
1F
100
AcDbEntity
  8
0
  6
Continuous
 62
     7
370
    25
100
AcDbSpline
210
0.0
220
0.0
230
1.0
 70
     8
 71
     3
 72
    23
 73
    19
 74
     0
 42
0.00000001
 43
0.00000001
 40
0.0
 40
0.0
 40
0.0
 40
0.0
 40
0.0703516867863861
 40
0.1385180140095223
 40
0.20462619931991
 40
0.2695268107504121
 40
0.3335359539177246
 40
0.397362075024467
 40
0.461322284203065
 40
0.5261799395003768
 40
0.5900157631650872
 40
0.6511664601847394
 40
0.7102656181165984
 40
0.7679249494335545
 40
0.8249705629918173
 40
0.8821914230534129
 40
0.9403693646444361
 40
1.0
 40
1.0
 40
1.0
 40
1.0
 10
21.2433263353552
 20
-57.98860025685135
 30
0.0
 10
21.23964172215189
 20
-58.17820550709649
 30
0.0
 10
21.23238695220067
 20
-58.55152623200649
 30
0.0
 10
21.16356055981857
 20
-59.09935029818062
 30
0.0
 10
21.05936144289093
 20
-59.62619681336659
 30
0.0
 10
20.90864689679495
 20
-60.13044054018066
 30
0.0
 10
20.71202841623453
 20
-60.61176062346541
 30
0.0
 10
20.47441836837628
 20
-61.07143443628295
 30
0.0
 10
20.19225055916286
 20
-61.50783741706164
 30
0.0
 10
19.87350014264891
 20
-61.91837823557928
 30
0.0
 10
19.52152169136608
 20
-62.29036823883646
 30
0.0
 10
19.15026656849675
 20
-62.6204153262062
 30
0.0
 10
18.75770719239248
 20
-62.89702379587449
 30
0.0
 10
18.34868207537857
 20
-63.12677508577898
 30
0.0
 10
17.91944965803509
 20
-63.30395621742056
 30
0.0
 10
17.47116252663354
 20
-63.4291842571323
 30
0.0
 10
17.00438052976994
 20
-63.50509782838861
 30
0.0
 10
16.68689553754731
 20
-63.51488143798818
 30
0.0
 10
16.52619559283383
 20
-63.51983356347528
 30
0.0
  0
SPLINE
  5
85
330
1F
100
AcDbEntity
  8
0
  6
Continuous
 62
     7
370
    25
100
AcDbSpline
210
0.0
220
0.0
230
1.0
 70
     8
 71
     3
 72
    23
 73
    19
 74
     0
 42
0.00000001
 43
0.00000001
 40
0.0
 40
0.0
 40
0.0
 40
0.0
 40
0.0587352888975779
 40
0.1158178128344315
 40
0.1724995473136822
 40
0.2292866805661369
 40
0.2867110190785139
 40
0.345953162516787
 40
0.4072600807669707
 40
0.4716215346420423
 40
0.5368033804908583
 40
0.6013014130667247
 40
0.6653092648057986
 40
0.7294973370942621
 40
0.7944896951210421
 40
0.8610533138028763
 40
0.9293089275816884
 40
1.0
 40
1.0
 40
1.0
 40
1.0
 10
16.51347524026973
 20
-52.39376518740691
 30
0.0
 10
16.67280049702461
 20
-52.39846584020086
 30
0.0
 10
16.98696772277561
 20
-52.4077348731061
 30
0.0
 10
17.44931546667986
 20
-52.48720463701444
 30
0.0
 10
17.89471965888577
 20
-52.61424001338796
 30
0.0
 10
18.32332656996664
 20
-52.79325462443543
 30
0.0
 10
18.73327132925569
 20
-53.02550558801536
 30
0.0
 10
19.12695772764219
 20
-53.30606670171537
 30
0.0
 10
19.50116548368501
 20
-53.64087217180459
 30
0.0
 10
19.85583100798484
 20
-54.01845431997279
 30
0.0
 10
20.1801465741507
 20
-54.43353461125826
 30
0.0
 10
20.46560532029587
 20
-54.8751977974663
 30
0.0
 10
20.70541320275256
 20
-55.34006297888927
 30
0.0
 10
20.90522860331263
 20
-55.825093908284
 30
0.0
 10
21.0539246085759
 20
-56.33535662550975
 30
0.0
 10
21.16482388908418
 20
-56.86601570642114
 30
0.0
 10
21.23210567012723
 20
-57.42010724438329
 30
0.0
 10
21.23954266172956
 20
-57.79690110408847
 30
0.0
 10
21.2433263353552
 20
-57.98860025685135
 30
0.0
  0
SPLINE
  5
86
330
1F
100
AcDbEntity
  8
0
  6
Continuous
 62
     7
370
    25
100
AcDbSpline
210
0.0
220
0.0
230
1.0
 70
     8
 71
     3
 72
    31
 73
    27
 74
     0
 42
0.00000001
 43
0.00000001
 40
0.0
 40
0.0
 40
0.0
 40
0.0
 40
0.0461727971696176
 40
0.0916915325627412
 40
0.1364244744362041
 40
0.1805575426434521
 40
0.2244496051410029
 40
0.2679909330161708
 40
0.3116686896542357
 40
0.3553051728959308
 40
0.398698675934839
 40
0.441099122780265
 40
0.4828409681705874
 40
0.5240128623010955
 40
0.5647956409247604
 40
0.6057439756067613
 40
0.6463094317612216
 40
0.6872021013079019
 40
0.7278613157097091
 40
0.7676354348213975
 40
0.8067406280173856
 40
0.845418352785451
 40
0.8838173091854701
 40
0.922277308326776
 40
0.9608643899593247
 40
1.0
 40
1.0
 40
1.0
 40
1.0
 10
11.74546308749195
 20
-57.95255925791973
 30
0.0
 10
11.7476117327897
 20
-57.82741456391188
 30
0.0
 10
11.75187858670287
 20
-57.57889791581883
 30
0.0
 10
11.78260255591261
 20
-57.21021683413158
 30
0.0
 10
11.83022128801744
 20
-56.84895262831679
 30
0.0
 10
11.90126951195913
 20
-56.49600356925244
 30
0.0
 10
11.98992825932819
 20
-56.15048017189642
 30
0.0
 10
12.09818632183924
 20
-55.81180686739273
 30
0.0
 10
12.22766044897539
 20
-55.48138318237194
 30
0.0
 10
12.37646212646926
 20
-55.15977876647671
 30
0.0
 10
12.53932012361265
 20
-54.84877656465179
 30
0.0
 10
12.72394163654106
 20
-54.55628940012009
 30
0.0
 10
12.91798791418282
 20
-54.27737894811182
 30
0.0
 10
13.12851385550503
 20
-54.01611953664919
 30
0.0
 10
13.35435906184396
 20
-53.77099014999992
 30
0.0
 10
13.59503289062839
 20
-53.54271391999464
 30
0.0
 10
13.85144262093197
 20
-53.33183362602475
 30
0.0
 10
14.11960460054281
 20
-53.13761544514939
 30
0.0
 10
14.39745863053638
 20
-52.96111507758369
 30
0.0
 10
14.68524202363461
 20
-52.81183729742069
 30
0.0
 10
14.97559496820777
 20
-52.67989216392452
 30
0.0
 10
15.27379094140055
 20
-52.57786138709844
 30
0.0
 10
15.57541752806358
 20
-52.49255183106288
 30
0.0
 10
15.88373452672932
 20
-52.4377058771911
 30
0.0
 10
16.19657667101108
 20
-52.39848788938225
 30
0.0
 10
16.40734654725382
 20
-52.39534681079294
 30
0.0
 10
16.51347524026973
 20
-52.39376518740691
 30
0.0
  0
SPLINE
  5
87
330
1F
100
AcDbEntity
  8
0
  6
Continuous
 62
     7
370
    25
100
AcDbSpline
210
0.0
220
0.0
230
1.0
 70
     8
 71
     3
 72
    23
 73
    19
 74
     0
 42
0.00000001
 43
0.00000001
 40
0.0
 40
0.0
 40
0.0
 40
0.0
 40
0.0618824434770583
 40
0.1216078058084245
 40
0.1800728158670999
 40
0.2382812065480952
 40
0.2965197102112805
 40
0.3560494235751279
 40
0.4174680922033421
 40
0.4814359715146584
 40
0.5461485141005885
 40
0.609981843458012
 40
0.6733906707294268
 40
0.7365608297035131
 40
0.8005587462038688
 40
0.865237413195903
 40
0.9316547044345325
 40
1.0
 40
1.0
 40
1.0
 40
1.0
 10
16.52619559283383
 20
-63.51983356347528
 30
0.0
 10
16.35765021163915
 20
-63.51543220217318
 30
0.0
 10
16.0264345576576
 20
-63.50678290100724
 30
0.0
 10
15.54205522414538
 20
-63.42400137980851
 30
0.0
 10
15.07751384729924
 20
-63.29924158953357
 30
0.0
 10
14.63764976141828
 20
-63.11396165580409
 30
0.0
 10
14.21771479259426
 20
-62.88176179864166
 30
0.0
 10
13.8220729673087
 20
-62.59474401236506
 30
0.0
 10
13.44759052177004
 20
-62.25738858888086
 30
0.0
 10
13.09873958925127
 20
-61.87417713846698
 30
0.0
 10
12.78441383848124
 20
-61.4543114637548
 30
0.0
 10
12.50372451407918
 20
-61.01293414119277
 30
0.0
 10
12.27107852228027
 20
-60.54897556255995
 30
0.0
 10
12.07909518344133
 20
-60.06659932407814
 30
0.0
 10
11.92779443413668
 20
-59.56611185074129
 30
0.0
 10
11.82258154086483
 20
-59.04511650263903
 30
0.0
 10
11.75718851813286
 20
-58.50545003108893
 30
0.0
 10
11.74940866564203
 20
-58.13860562336266
 30
0.0
 10
11.74546308749195
 20
-57.95255925791972
 30
0.0
  0
LWPOLYLINE
  5
AB
330
1F
100
AcDbEntity
  8
0
  6
Continuous
 62
     7
370
    25
100
AcDbPolyline
 90
       61
 70
   128
 43
0.0
 10
74.9602592935
 20
94.1392332819
 10
74.7400190427
 20
95.9116991001
 10
74.3274560328
 20
97.6766724663
 10
73.7236318803
 20
99.4296117098
 10
72.9301003598
 20
101.1660061267
 10
71.9489034051
 20
102.8813875862
 10
70.7825658549
 20
104.5713420289
 10
69.4340889564
 20
106.2315208245
 10
67.9069426416
 20
107.8576519623
 10
66.2050565991
 20
109.4455510437
 10
64.3328101617
 20
110.9911320499
 10
62.2950210376
 20
112.4904178556
 10
60.0969329133
 20
113.9395504639
 10
57.7442019603
 20
115.3348009327
 10
55.2428822808
 20
116.6725789712
 10
52.5994103288
 20
117.9494421777
 10
49.8205883482
 20
119.1621048979
 10
46.9135668682
 20
120.30744668
 10
43.8858263045
 20
121.3825203038
 10
40.7451577095
 20
122.3845593647
 10
37.4996427249
 20
123.3109853925
 10
34.1576327855
 20
124.1594144862
 10
30.7277276292
 20
124.9276634481
 10
27.2187531679
 20
125.6137554022
 10
23.6397387765
 20
126.2159248807
 10
19.9998940582
 20
126.732622367
 10
16.3085851464
 20
127.1625182832
 10
12.575310603
 20
127.5045064109
 10
8.8096769773
 20
127.7577067385
 10
5.0213740855
 20
127.9214677248
 10
1.2201500768
 20
127.9953679764
 10
-2.5842136505
 20
127.9792173314
 10
-6.3819276191
 20
127.8730573489
 10
-10.1632194627
 20
127.6771612024
 10
-13.918359073
 20
127.3920329763
 10
-17.6376836374
 20
127.0184063693
 10
-21.3116225031
 20
126.5572428061
 10
-24.930721805
 20
126.0097289634
 10
-28.4856687924
 20
125.3772737167
 10
-31.9673157929
 20
124.6615045146
 10
-35.3667037512
 20
123.864263191
 10
-38.675085283
 20
122.9876012259
 10
-41.8839471838
 20
122.0337744664
 10
-44.9850323354
 20
121.0052373216
 10
-47.9703609532
 20
119.9046364473
 10
-50.83225112
 20
118.7348039353
 10
-53.5633385533
 20
117.498750026
 10
-56.1565955553
 20
116.199655362
 10
-58.6053490966
 20
114.8408628041
 10
-60.9032979874
 20
113.4258688289
 10
-63.0445290922
 20
111.9583145319
 10
-65.0235325452
 20
110.441976258
 10
-66.8352159286
 20
108.8807558842
 10
-68.4749173763
 20
107.2786707793
 10
-69.9384175705
 20
105.6398434658
 10
-71.2219505983
 20
103.9684910125
 10
-72.3222136427
 20
102.2689141824
 10
-73.2363754811
 20
100.5454863663
 10
-73.9620837709
 20
98.8026423288
 10
-74.4974711027
 20
97.0448667968
 10
-74.8411598053
 20
95.2766829192
  0
CIRCLE
  5
AC
330
1F
100
AcDbEntity
  8
0
  6
Continuous
 62
     7
370
    25
100
AcDbCircle
 10
-20.0
 20
80.0
 30
0.0
 40
2.0
  0
CIRCLE
  5
AD
330
1F
100
AcDbEntity
  8
0
  6
Continuous
 62
     7
370
    25
100
AcDbCircle
 10
20.0
 20
80.0
 30
0.0
 40
2.0
  0
SPLINE
  5
AE
330
1F
100
AcDbEntity
  8
0
  6
Continuous
 62
     7
370
    25
100
AcDbSpline
210
0.0
220
0.0
230
1.0
 70
     8
 71
     3
 72
    23
 73
    19
 74
     0
 42
0.00000001
 43
0.00000001
 40
0.0
 40
0.0
 40
0.0
 40
0.0
 40
0.0657223151915605
 40
0.1295079307025848
 40
0.1917221026921608
 40
0.2531611245020876
 40
0.314315703735257
 40
0.3759517397728616
 40
0.4386196008234089
 40
0.502972901892776
 40
0.5671286457242649
 40
0.6295522895796745
 40
0.6904767824348736
 40
0.7510723384108284
 40
0.8116678943867824
 40
0.8729293555873912
 40
0.935501370715807
 40
1.0
 40
1.0
 40
1.0
 40
1.0
 10
-7.734545392339073
 20
113.269912830428
 30
0.0
 10
-7.738256853814231
 20
113.1276934373624
 30
0.0
 10
-7.745570407728592
 20
112.8474455603967
 30
0.0
 10
-7.802074492814325
 20
112.4355954615972
 30
0.0
 10
-7.896439308340995
 20
112.0406663282099
 30
0.0
 10
-8.026441653626032
 20
111.6617642292592
 30
0.0
 10
-8.196914626977266
 20
111.3007244364598
 30
0.0
 10
-8.402314545756848
 20
110.9552417610325
 30
0.0
 10
-8.64806152336053
 20
110.6285223648691
 30
0.0
 10
-8.925192202413998
 20
110.3207415780248
 30
0.0
 10
-9.230289029710939
 20
110.0413644714061
 30
0.0
 10
-9.553435003252826
 20
109.7951638786706
 30
0.0
 10
-9.893138034654699
 20
109.5865427873543
 30
0.0
 10
-10.24890090705611
 20
109.4155967560235
 30
0.0
 10
-10.62148653687269
 20
109.2829318366658
 30
0.0
 10
-11.00997459204219
 20
109.1893270961655
 30
0.0
 10
-11.41434103304871
 20
109.1324416052964
 30
0.0
 10
-11.68932982260956
 20
109.1251758227472
 30
0.0
 10
-11.82890887390959
 20
109.12148785046
 30
0.0
  0
SPLINE
  5
AF
330
1F
100
AcDbEntity
  8
0
  6
Continuous
 62
     7
370
    25
100
AcDbSpline
210
0.0
220
0.0
230
1.0
 70
     8
 71
     3
 72
    23
 73
    19
 74
     0
 42
0.00000001
 43
0.00000001
 40
0.0
 40
0.0
 40
0.0
 40
0.0
 40
0.0633955966615907
 40
0.1251572666424218
 40
0.1856494665262535
 40
0.2459766793408152
 40
0.3061083686579573
 40
0.3673505880891749
 40
0.4299020782799147
 40
0.4945399581831945
 40
0.5593725826940484
 40
0.6224096858457377
 40
0.6843574258194757
 40
0.7458066007722103
 40
0.8074302750159145
 40
0.8699955160697812
 40
0.9339278677192723
 40
1.0
 40
1.0
 40
1.0
 40
1.0
 10
-11.84003918240318
 20
117.4660391325113
 30
0.0
 10
-11.7020360170045
 20
117.4624659834241
 30
0.0
 10
-11.42958651137873
 20
117.455411777823
 30
0.0
 10
-11.02891160544912
 20
117.3966094686009
 30
0.0
 10
-10.64278724905665
 20
117.3007995358359
 30
0.0
 10
-10.27138804652422
 20
117.1676167994185
 30
0.0
 10
-9.915643938761898
 20
116.9934539940403
 30
0.0
 10
-9.574300097193579
 20
116.7832487495084
 30
0.0
 10
-9.248579199281581
 20
116.5330335677701
 30
0.0
 10
-8.941818971607756
 20
116.2486455562132
 30
0.0
 10
-8.658317195893499
 20
115.9393860113587
 30
0.0
 10
-8.412662741655247
 20
115.606413129301
 30
0.0
 10
-8.203177635196845
 20
115.2583545719066
 30
0.0
 10
-8.029555818493835
 20
114.8942777061259
 30
0.0
 10
-7.897310488638882
 20
114.5116611260393
 30
0.0
 10
-7.804508470727289
 20
114.1124556704877
 30
0.0
 10
-7.744887771968825
 20
113.6967749097741
 30
0.0
 10
-7.738030474284079
 20
113.4137529696409
 30
0.0
 10
-7.734545392339073
 20
113.269912830428
 30
0.0
  0
SPLINE
  5
B0
330
1F
100
AcDbEntity
  8
0
  6
Continuous
 62
     7
370
    25
100
AcDbSpline
210
0.0
220
0.0
230
1.0
 70
     8
 71
     3
 72
    31
 73
    27
 74
     0
 42
0.00000001
 43
0.00000001
 40
0.0
 40
0.0
 40
0.0
 40
0.0
 40
0.0431143456619743
 40
0.0856827648242091
 40
0.127594324163928
 40
0.1690586225605491
 40
0.2104320288213114
 40
0.2518111664630526
 40
0.2934438397982396
 40
0.3353808532218253
 40
0.377476605960795
 40
0.4186884906768279
 40
0.4598730336711995
 40
0.5008729046253151
 40
0.541872775579433
 40
0.5832117768673246
 40
0.624763201734076
 40
0.6669876223820895
 40
0.7093697058942399
 40
0.7511026519448578
 40
0.7925683801202208
 40
0.8335451085502585
 40
0.8748274225565259
 40
0.9160177232110672
 40
0.9578592039763046
 40
1.0
 40
1.0
 40
1.0
 40
1.0
 10
-15.97733385387753
 20
113.2969435796267
 30
0.0
 10
-15.97612325815522
 20
113.3908323108685
 30
0.0
 10
-15.97371739562896
 20
113.5774209266788
 30
0.0
 10
-15.94473624719986
 20
113.8539357308232
 30
0.0
 10
-15.90301172578288
 20
114.1250533372437
 30
0.0
 10
-15.84130313840447
 20
114.3896927961029
 30
0.0
 10
-15.76634297680786
 20
114.6497210157244
 30
0.0
 10
-15.66922149854422
 20
114.9027175890355
 30
0.0
 10
-15.55867097290305
 20
115.151385215201
 30
0.0
 10
-15.42950309244601
 20
115.3927868181779
 30
0.0
 10
-15.28588089882698
 20
115.6247013014942
 30
0.0
 10
-15.12917629850812
 20
115.8460346840469
 30
0.0
 10
-14.95899525990273
 20
116.0541107216815
 30
0.0
 10
-14.77588599251347
 20
116.2502968044163
 30
0.0
 10
-14.57921747701128
 20
116.4333033868869
 30
0.0
 10
-14.3715766845704
 20
116.6057211820573
 30
0.0
 10
-14.14893659285178
 20
116.7629701602185
 30
0.0
 10
-13.91617009491885
 20
116.9088906550493
 30
0.0
 10
-13.67458947475674
 20
117.0408440279075
 30
0.0
 10
-13.42517818462603
 20
117.1531587925538
 30
0.0
 10
-13.1730745897985
 20
117.2512413634313
 30
0.0
 10
-12.91491092625106
 20
117.3286524652311
 30
0.0
 10
-12.65345387686779
 20
117.3917029977605
 30
0.0
 10
-12.3859103026971
 20
117.4333993968683
 30
0.0
 10
-12.11469730783477
 20
117.4623797427253
 30
0.0
 10
-11.93180916375511
 20
117.4648164410949
 30
0.0
 10
-11.84003918240318
 20
117.4660391325113
 30
0.0
  0
SPLINE
  5
B1
330
1F
100
AcDbEntity
  8
0
  6
Continuous
 62
     7
370
    25
100
AcDbSpline
210
0.0
220
0.0
230
1.0
 70
     8
 71
     3
 72
    23
 73
    19
 74
     0
 42
0.00000001
 43
0.00000001
 40
0.0
 40
0.0
 40
0.0
 40
0.0
 40
0.0667486513092661
 40
0.1311519760901755
 40
0.193732197057096
 40
0.2553255433785992
 40
0.3163881857773855
 40
0.3780268629068865
 40
0.4404056792054018
 40
0.504557429324082
 40
0.568658287362016
 40
0.6309861790900114
 40
0.6922881348732999
 40
0.7526154469796392
 40
0.8131995384355634
 40
0.8740161248607811
 40
0.936158355510532
 40
0.9999999999999999
 40
0.9999999999999999
 40
0.9999999999999999
 40
0.9999999999999999
 10
-11.82890887390959
 20
109.12148785046
 30
0.0
 10
-11.97489182533628
 20
109.1247961433804
 30
0.0
 10
-12.26172837078764
 20
109.1312964867653
 30
0.0
 10
-12.68151493911275
 20
109.1931117847735
 30
0.0
 10
-13.08370674417215
 20
109.2862272174656
 30
0.0
 10
-13.46492514322058
 20
109.4251970054415
 30
0.0
 10
-13.82905251981255
 20
109.5989209259209
 30
0.0
 10
-14.17341352317766
 20
109.8128723494193
 30
0.0
 10
-14.49789242543402
 20
110.0666977046856
 30
0.0
 10
-14.80062796240514
 20
110.3538964301211
 30
0.0
 10
-15.07490709205588
 20
110.6681548279344
 30
0.0
 10
-15.3170122240268
 20
111.0001409571002
 30
0.0
 10
-15.52123327351932
 20
111.3473187355436
 30
0.0
 10
-15.68757771258347
 20
111.7098506498336
 30
0.0
 10
-15.81871698614876
 20
112.0854836523573
 30
0.0
 10
-15.91122084357418
 20
112.4765054564685
 30
0.0
 10
-15.96586507957588
 20
112.8819782499185
 30
0.0
 10
-15.97347670435871
 20
113.1573834767147
 30
0.0
 10
-15.97733385387753
 20
113.2969435796267
 30
0.0
  0
SPLINE
  5
B2
330
1F
100
AcDbEntity
  8
0
  6
Continuous
 62
     7
370
    25
100
AcDbSpline
210
0.0
220
0.0
230
1.0
 70
     8
 71
     3
 72
    23
 73
    19
 74
     0
 42
0.00000001
 43
0.00000001
 40
0.0
 40
0.0
 40
0.0
 40
0.0
 40
0.0657223151915605
 40
0.1295079307025849
 40
0.1917221026921608
 40
0.2531611245020876
 40
0.3143157037352573
 40
0.3759517397728616
 40
0.4386196008234093
 40
0.502972901892776
 40
0.5671286457242649
 40
0.629552289579674
 40
0.6904767824348742
 40
0.7510723384108284
 40
0.8116678943867826
 40
0.8729293555873913
 40
0.9355013707158071
 40
1.0
 40
1.0
 40
1.0
 40
1.0
 10
7.936928966635288
 20
113.269912830428
 30
0.0
 10
7.933217505160128
 20
113.1276934373624
 30
0.0
 10
7.925903951245764
 20
112.8474455603967
 30
0.0
 10
7.869399866160027
 20
112.4355954615973
 30
0.0
 10
7.775035050633369
 20
112.0406663282099
 30
0.0
 10
7.645032705348323
 20
111.6617642292592
 30
0.0
 10
7.474559731997092
 20
111.3007244364598
 30
0.0
 10
7.269159813217511
 20
110.9552417610326
 30
0.0
 10
7.023412835613823
 20
110.6285223648691
 30
0.0
 10
6.746282156560363
 20
110.3207415780248
 30
0.0
 10
6.441185329263419
 20
110.0413644714061
 30
0.0
 10
6.118039355721539
 20
109.7951638786706
 30
0.0
 10
5.778336324319658
 20
109.5865427873543
 30
0.0
 10
5.422573451918248
 20
109.4155967560235
 30
0.0
 10
5.049987822101664
 20
109.2829318366659
 30
0.0
 10
4.661499766932161
 20
109.1893270961655
 30
0.0
 10
4.257133325925649
 20
109.1324416052964
 30
0.0
 10
3.982144536364794
 20
109.1251758227471
 30
0.0
 10
3.842565485064772
 20
109.12148785046
 30
0.0
  0
SPLINE
  5
B3
330
1F
100
AcDbEntity
  8
0
  6
Continuous
 62
     7
370
    25
100
AcDbSpline
210
0.0
220
0.0
230
1.0
 70
     8
 71
     3
 72
    23
 73
    19
 74
     0
 42
0.00000001
 43
0.00000001
 40
0.0
 40
0.0
 40
0.0
 40
0.0
 40
0.0633955966615902
 40
0.1251572666424218
 40
0.1856494665262535
 40
0.2459766793408152
 40
0.3061083686579578
 40
0.3673505880891745
 40
0.4299020782799147
 40
0.4945399581831941
 40
0.559372582694048
 40
0.6224096858457377
 40
0.6843574258194757
 40
0.74580660077221
 40
0.8074302750159144
 40
0.8699955160697812
 40
0.933927867719272
 40
1.0
 40
1.0
 40
1.0
 40
1.0
 10
3.831435176571182
 20
117.4660391325113
 30
0.0
 10
3.96943834196986
 20
117.4624659834241
 30
0.0
 10
4.241887847595625
 20
117.455411777823
 30
0.0
 10
4.642562753525246
 20
117.3966094686009
 30
0.0
 10
5.028687109917703
 20
117.3007995358359
 30
0.0
 10
5.400086312450138
 20
117.1676167994185
 30
0.0
 10
5.755830420212459
 20
116.9934539940403
 30
0.0
 10
6.097174261780777
 20
116.7832487495084
 30
0.0
 10
6.422895159692779
 20
116.5330335677701
 30
0.0
 10
6.729655387366599
 20
116.2486455562132
 30
0.0
 10
7.013157163080853
 20
115.9393860113587
 30
0.0
 10
7.258811617319111
 20
115.606413129301
 30
0.0
 10
7.468296723777511
 20
115.2583545719066
 30
0.0
 10
7.641918540480522
 20
114.8942777061259
 30
0.0
 10
7.774163870335475
 20
114.5116611260393
 30
0.0
 10
7.866965888247073
 20
114.1124556704877
 30
0.0
 10
7.926586587005527
 20
113.6967749097741
 30
0.0
 10
7.93344388469028
 20
113.4137529696409
 30
0.0
 10
7.936928966635288
 20
113.269912830428
 30
0.0
  0
SPLINE
  5
B4
330
1F
100
AcDbEntity
  8
0
  6
Continuous
 62
     7
370
    25
100
AcDbSpline
210
0.0
220
0.0
230
1.0
 70
     8
 71
     3
 72
    31
 73
    27
 74
     0
 42
0.00000001
 43
0.00000001
 40
0.0
 40
0.0
 40
0.0
 40
0.0
 40
0.0431143456619743
 40
0.085682764824209
 40
0.127594324163928
 40
0.169058622560549
 40
0.2104320288213114
 40
0.2518111664630524
 40
0.2934438397982396
 40
0.3353808532218254
 40
0.3774766059607949
 40
0.418688490676828
 40
0.4598730336711992
 40
0.5008729046253151
 40
0.5418727755794327
 40
0.5832117768673245
 40
0.6247632017340762
 40
0.6669876223820893
 40
0.7093697058942395
 40
0.7511026519448578
 40
0.7925683801202208
 40
0.8335451085502587
 40
0.8748274225565259
 40
0.9160177232110671
 40
0.957859203976305
 40
1.0
 40
1.0
 40
1.0
 40
1.0
 10
-0.3058594949031761
 20
113.2969435796267
 30
0.0
 10
-0.3046488991808625
 20
113.3908323108685
 30
0.0
 10
-0.3022430366546064
 20
113.5774209266788
 30
0.0
 10
-0.2732618882255023
 20
113.8539357308233
 30
0.0
 10
-0.2315373668085165
 20
114.1250533372437
 30
0.0
 10
-0.1698287794301102
 20
114.3896927961029
 30
0.0
 10
-0.0948686178334969
 20
114.6497210157244
 30
0.0
 10
0.0022528604301297
 20
114.9027175890355
 30
0.0
 10
0.1128033860713081
 20
115.151385215201
 30
0.0
 10
0.241971266528363
 20
115.3927868181778
 30
0.0
 10
0.3855934601473738
 20
115.6247013014941
 30
0.0
 10
0.5422980604662371
 20
115.8460346840469
 30
0.0
 10
0.7124790990716269
 20
116.0541107216815
 30
0.0
 10
0.8955883664608806
 20
116.2502968044163
 30
0.0
 10
1.092256881963082
 20
116.4333033868868
 30
0.0
 10
1.299897674403956
 20
116.6057211820573
 30
0.0
 10
1.52253776612257
 20
116.7629701602185
 30
0.0
 10
1.755304264055515
 20
116.9088906550493
 30
0.0
 10
1.996884884217616
 20
117.0408440279075
 30
0.0
 10
2.24629617434833
 20
117.1531587925538
 30
0.0
 10
2.498399769175857
 20
117.2512413634313
 30
0.0
 10
2.756563432723305
 20
117.3286524652311
 30
0.0
 10
3.018020482106564
 20
117.3917029977605
 30
0.0
 10
3.285564056277259
 20
117.4333993968683
 30
0.0
 10
3.556777051139594
 20
117.4623797427253
 30
0.0
 10
3.739665195219252
 20
117.4648164410949
 30
0.0
 10
3.831435176571182
 20
117.4660391325113
 30
0.0
  0
SPLINE
  5
B5
330
1F
100
AcDbEntity
  8
0
  6
Continuous
 62
     7
370
    25
100
AcDbSpline
210
0.0
220
0.0
230
1.0
 70
     8
 71
     3
 72
    23
 73
    19
 74
     0
 42
0.00000001
 43
0.00000001
 40
0.0
 40
0.0
 40
0.0
 40
0.0
 40
0.0667486513092664
 40
0.1311519760901755
 40
0.193732197057096
 40
0.2553255433785994
 40
0.3163881857773858
 40
0.3780268629068865
 40
0.440405679205402
 40
0.504557429324082
 40
0.5686582873620157
 40
0.6309861790900112
 40
0.6922881348732999
 40
0.7526154469796392
 40
0.8131995384355634
 40
0.8740161248607811
 40
0.936158355510532
 40
0.9999999999999999
 40
0.9999999999999999
 40
0.9999999999999999
 40
0.9999999999999999
 10
3.842565485064772
 20
109.12148785046
 30
0.0
 10
3.696582533638077
 20
109.1247961433804
 30
0.0
 10
3.409745988186719
 20
109.1312964867652
 30
0.0
 10
2.989959419861603
 20
109.1931117847735
 30
0.0
 10
2.587767614802201
 20
109.2862272174656
 30
0.0
 10
2.20654921575378
 20
109.4251970054415
 30
0.0
 10
1.842421839161809
 20
109.5989209259209
 30
0.0
 10
1.498060835796696
 20
109.8128723494193
 30
0.0
 10
1.173581933540335
 20
110.0666977046856
 30
0.0
 10
0.8708463965692207
 20
110.3538964301211
 30
0.0
 10
0.5965672669184788
 20
110.6681548279344
 30
0.0
 10
0.3544621349475656
 20
111.0001409571002
 30
0.0
 10
0.150241085455037
 20
111.3473187355437
 30
0.0
 10
-0.0161033536091125
 20
111.7098506498335
 30
0.0
 10
-0.147242627174404
 20
112.0854836523573
 30
0.0
 10
-0.2397464845998225
 20
112.4765054564685
 30
0.0
 10
-0.2943907206015204
 20
112.8819782499185
 30
0.0
 10
-0.3020023453843523
 20
113.1573834767147
 30
0.0
 10
-0.3058594949031761
 20
113.2969435796267
 30
0.0
  0
SPLINE
  5
D8
330
1F
100
AcDbEntity
  8
0
  6
Continuous
 62
     7
370
    25
100
AcDbSpline
210
0.0
220
0.0
230
1.0
 70
     8
 71
     3
 72
    19
 73
    15
 74
     0
 42
0.00000001
 43
0.00000001
 40
0.0
 40
0.0
 40
0.0
 40
0.0
 40
0.1121245812797433
 40
0.21520100907624
 40
0.3099024524934753
 40
0.3959590963320919
 40
0.473447494000333
 40
0.5421403275660297
 40
0.6025233330554077
 40
0.6547263328340144
 40
0.7478040553140999
 40
0.8352784168250059
 40
0.9189252427194486
 40
1.0
 40
1.0
 40
1.0
 40
1.0
 10
11.15835825349426
 20
112.6672861277036
 30
0.0
 10
11.05732728969529
 20
112.7527680111593
 30
0.0
 10
10.86341829035431
 20
112.9168336189632
 30
0.0
 10
10.58940027269107
 20
113.1591533568278
 30
0.0
 10
10.34248550353584
 20
113.3856233554197
 30
0.0
 10
10.12480660400782
 20
113.5990432789928
 30
0.0
 10
9.933590008176177
 20
113.7954717561347
 30
0.0
 10
9.77013071791175
 20
113.9765042540785
 30
0.0
 10
9.636224407846152
 20
114.1435371909417
 30
0.0
 10
9.495316890366027
 20
114.3413765270733
 30
0.0
 10
9.361426576146322
 20
114.582457351971
 30
0.0
 10
9.245707349818929
 20
114.8725055318715
 30
0.0
 10
9.170633599944226
 20
115.162516908959
 30
0.0
 10
9.162222630413728
 20
115.3572145739515
 30
0.0
 10
9.158082812789132
 20
115.4530433392421
 30
0.0
  0
SPLINE
  5
D9
330
1F
100
AcDbEntity
  8
0
  6
Continuous
 62
     7
370
    25
100
AcDbSpline
210
0.0
220
0.0
230
1.0
 70
     8
 71
     3
 72
    19
 73
    15
 74
     0
 42
0.00000001
 43
0.00000001
 40
0.0
 40
0.0
 40
0.0
 40
0.0
 40
0.0763466063531756
 40
0.1550908218146679
 40
0.2383515612585569
 40
0.3284041399329921
 40
0.3793838595513632
 40
0.4396176441748267
 40
0.5098314158313171
 40
0.5888746449969575
 40
0.6774363544094482
 40
0.775546719619677
 40
0.8826358717258594
 40
1.0
 40
1.0
 40
1.0
 40
1.0
 10
12.21096742817375
 20
111.298258182992
 30
0.0
 10
12.20835385822051
 20
111.3435512890557
 30
0.0
 10
12.2030446410689
 20
111.4355598979184
 30
0.0
 10
12.16393858372084
 20
111.5723619041622
 30
0.0
 10
12.10280388819027
 20
111.7091016956754
 30
0.0
 10
12.03047723229899
 20
111.8212593720995
 30
0.0
 10
11.95687580343012
 20
111.9151659542553
 30
0.0
 10
11.88649623659112
 20
111.9965317597679
 30
0.0
 10
11.80079254182212
 20
112.0864267303327
 30
0.0
 10
11.69998202589247
 20
112.1849639470054
 30
0.0
 10
11.58539665875621
 20
112.2930108578386
 30
0.0
 10
11.45693991709154
 20
112.4105568824522
 30
0.0
 10
11.31314083531483
 20
112.5365665809536
 30
0.0
 10
11.211503360582
 20
112.6224031426236
 30
0.0
 10
11.15835825349426
 20
112.6672861277036
 30
0.0
  0
SPLINE
  5
DA
330
1F
100
AcDbEntity
  8
0
  6
Continuous
 62
     7
370
    25
100
AcDbSpline
210
0.0
220
0.0
230
1.0
 70
     8
 71
     3
 72
    15
 73
    11
 74
     0
 42
0.00000001
 43
0.00000001
 40
0.0
 40
0.0
 40
0.0
 40
0.0
 40
0.1419858925296712
 40
0.2754733105502113
 40
0.4043458426631349
 40
0.5354297108606284
 40
0.6614274010622544
 40
0.7778668404627617
 40
0.8882797492818408
 40
1.0
 40
1.0
 40
1.0
 40
1.0
 10
11.30464230798144
 20
110.5461673376395
 30
0.0
 10
11.36641649351208
 20
110.5486656444888
 30
0.0
 10
11.48626741032843
 20
110.5535127236338
 30
0.0
 10
11.65733925737957
 20
110.5982837323076
 30
0.0
 10
11.81418440421674
 20
110.6685775003427
 30
0.0
 10
11.94976019075485
 20
110.7688770140385
 30
0.0
 10
12.06455721878238
 20
110.8846378972259
 30
0.0
 10
12.14928401482706
 20
111.0134271728393
 30
0.0
 10
12.20250995957559
 20
111.1527740601934
 30
0.0
 10
12.2081372323956
 20
111.2495735741929
 30
0.0
 10
12.21096742817375
 20
111.2982581829921
 30
0.0
  0
SPLINE
  5
DB
330
1F
100
AcDbEntity
  8
0
  6
Continuous
 62
     7
370
    25
100
AcDbSpline
210
0.0
220
0.0
230
1.0
 70
     8
 71
     3
 72
    15
 73
    11
 74
     0
 42
0.00000001
 43
0.00000001
 40
0.0
 40
0.0
 40
0.0
 40
0.0
 40
0.1604579205559401
 40
0.3076115473748606
 40
0.4421388877557722
 40
0.5662291941703317
 40
0.6812222080152105
 40
0.7895580052436271
 40
0.8950288924051337
 40
1.0
 40
1.0
 40
1.0
 40
1.0
 10
10.00398625830196
 20
111.5637955427677
 30
0.0
 10
10.05024784670272
 20
111.4833818329122
 30
0.0
 10
10.13893526545198
 20
111.3292218784949
 30
0.0
 10
10.28922438765087
 20
111.1220884412269
 30
0.0
 10
10.44318792085675
 20
110.9447129390666
 30
0.0
 10
10.60438536400726
 20
110.8002304953925
 30
0.0
 10
10.77085661651024
 20
110.6867091942199
 30
0.0
 10
10.94340577319847
 20
110.6055789968279
 30
0.0
 10
11.12215406378736
 20
110.5553594964192
 30
0.0
 10
11.24390927890529
 20
110.5492265355013
 30
0.0
 10
11.30464230798144
 20
110.5461673376395
 30
0.0
  0
SPLINE
  5
DD
330
1F
100
AcDbEntity
  8
0
  6
Continuous
 62
     7
370
    25
100
AcDbSpline
210
0.0
220
0.0
230
1.0
 70
     8
 71
     3
 72
    23
 73
    19
 74
     0
 42
0.00000001
 43
0.00000001
 40
0.0
 40
0.0
 40
0.0
 40
0.0
 40
0.0635514822357798
 40
0.1258683816453839
 40
0.1862402502136716
 40
0.2449766506319389
 40
0.3033576876770588
 40
0.3612303170408038
 40
0.4184890490283509
 40
0.475936711728572
 40
0.5342037438191188
 40
0.5940594289675387
 40
0.6554686942598724
 40
0.7187716848998867
 40
0.784974607219056
 40
0.8535223163767012
 40
0.9251824507719301
 40
1.0
 40
1.0
 40
1.0
 40
1.0
 10
11.25217085365451
 20
109.12148785046
 30
0.0
 10
11.1842842333565
 20
109.1226922043288
 30
0.0
 10
11.04982979214325
 20
109.1250775156868
 30
0.0
 10
10.85166427293554
 20
109.1445515975066
 30
0.0
 10
10.66031306275939
 20
109.1759806935896
 30
0.0
 10
10.47599170166043
 20
109.221027976953
 30
0.0
 10
10.29786978935824
 20
109.2781089946582
 30
0.0
 10
10.12594001063639
 20
109.3478312711262
 30
0.0
 10
9.961389253841322
 20
109.4312754755276
 30
0.0
 10
9.80297244993577
 20
109.5267256632494
 30
0.0
 10
9.651459700079437
 20
109.6375559042618
 30
0.0
 10
9.504935185144827
 20
109.7615003105571
 30
0.0
 10
9.3648543257369
 20
109.9004652025514
 30
0.0
 10
9.230544341890537
 20
110.0541219336477
 30
0.0
 10
9.102864586328737
 20
110.222905622801
 30
0.0
 10
8.97763564250087
 20
110.4044656447872
 30
0.0
 10
8.860423061496572
 20
110.6021715071263
 30
0.0
 10
8.788015636234471
 20
110.740863768863
 30
0.0
 10
8.75103153073785
 20
110.8117046974151
 30
0.0
  0
SPLINE
  5
DE
330
1F
100
AcDbEntity
  8
0
  6
Continuous
 62
     7
370
    25
100
AcDbSpline
210
0.0
220
0.0
230
1.0
 70
     8
 71
     3
 72
    23
 73
    19
 74
     0
 42
0.00000001
 43
0.00000001
 40
0.0
 40
0.0
 40
0.0
 40
0.0
 40
0.0652008752881532
 40
0.1279265440230309
 40
0.1890469100189664
 40
0.2485436930694577
 40
0.307607127022344
 40
0.3672476600602099
 40
0.4269630557213172
 40
0.4886171282353905
 40
0.5503918546271221
 40
0.6113307342255585
 40
0.6725560854310831
 40
0.7340241906291919
 40
0.7973406208369368
 40
0.8622496273165772
 40
0.929625466074695
 40
1.0
 40
1.0
 40
1.0
 40
1.0
 10
13.63564691535323
 20
111.3809404746587
 30
0.0
 10
13.6342260910532
 20
111.300775304645
 30
0.0
 10
13.63143838089496
 20
111.1434882574152
 30
0.0
 10
13.59729427745386
 20
110.9133220926128
 30
0.0
 10
13.54860678998517
 20
110.6930430835665
 30
0.0
 10
13.47332739308205
 20
110.4850481772944
 30
0.0
 10
13.38157730994865
 20
110.2859232008057
 30
0.0
 10
13.26655532946249
 20
110.0987698880859
 30
0.0
 10
13.13147778516025
 20
109.9216941711078
 30
0.0
 10
12.97665817923949
 20
109.7578614948442
 30
0.0
 10
12.80540931111133
 20
109.6091946967403
 30
0.0
 10
12.62172862484109
 20
109.4768480016741
 30
0.0
 10
12.42381999822423
 20
109.3675789470389
 30
0.0
 10
12.21337433137794
 20
109.2776036746032
 30
0.0
 10
11.99050427109663
 20
109.2083035167027
 30
0.0
 10
11.75547532280474
 20
109.1570842412907
 30
0.0
 10
11.50792799369576
 20
109.1263432395691
 30
0.0
 10
11.3386515628678
 20
109.1231296325568
 30
0.0
 10
11.25217085365451
 20
109.12148785046
 30
0.0
  0
SPLINE
  5
DF
330
1F
100
AcDbEntity
  8
0
  6
Continuous
 62
     7
370
    25
100
AcDbSpline
210
0.0
220
0.0
230
1.0
 70
     8
 71
     3
 72
    15
 73
    11
 74
     0
 42
0.00000001
 43
0.00000001
 40
0.0
 40
0.0
 40
0.0
 40
0.0
 40
0.1508330973407543
 40
0.2899541833158775
 40
0.4171386481520556
 40
0.5352551839062604
 40
0.6487510952936698
 40
0.7624054615861182
 40
0.8798267012500979
 40
1.0
 40
1.0
 40
1.0
 40
1.0
 10
12.81518417496862
 20
113.2015409353959
 30
0.0
 10
12.88526001833725
 20
113.1257038648341
 30
0.0
 10
13.01997039883299
 20
112.9799183824202
 30
0.0
 10
13.19504640494265
 20
112.7539967332619
 30
0.0
 10
13.33913962110719
 20
112.533451137334
 30
0.0
 10
13.45061286558678
 20
112.3141316714838
 30
0.0
 10
13.53480194330207
 20
112.0928739923437
 30
0.0
 10
13.5941563583492
 20
111.8642517673335
 30
0.0
 10
13.62970411244598
 20
111.6258760374736
 30
0.0
 10
13.63365074310128
 20
111.4632137018945
 30
0.0
 10
13.63564691535323
 20
111.3809404746587
 30
0.0
  0
SPLINE
  5
E0
330
1F
100
AcDbEntity
  8
0
  6
Continuous
 62
     7
370
    25
100
AcDbSpline
210
0.0
220
0.0
230
1.0
 70
     8
 71
     3
 72
    15
 73
    11
 74
     0
 42
0.00000001
 43
0.00000001
 40
0.0
 40
0.0
 40
0.0
 40
0.0
 40
0.1929527021649404
 40
0.3661841413840611
 40
0.5204572982944634
 40
0.6550121351900121
 40
0.7706242255760034
 40
0.8656771846793713
 40
0.9426745273198682
 40
1.0
 40
1.0
 40
1.0
 40
1.0
 10
11.79278583762888
 20
114.1174063200113
 30
0.0
 10
11.8595552949403
 20
114.0596207225882
 30
0.0
 10
11.98626985307778
 20
113.9499556640568
 30
0.0
 10
12.16655950609785
 20
113.794303721264
 30
0.0
 10
12.32500408416697
 20
113.6542674636313
 30
0.0
 10
12.46391176321476
 20
113.5319485357355
 30
0.0
 10
12.58117683832313
 20
113.4260635319751
 30
0.0
 10
12.67729229225524
 20
113.3361063232586
 30
0.0
 10
12.75343201233159
 20
113.2638282109974
 30
0.0
 10
12.7967129851181
 20
113.2201721872222
 30
0.0
 10
12.81518417496862
 20
113.2015409353959
 30
0.0
  0
SPLINE
  5
E1
330
1F
100
AcDbEntity
  8
0
  6
Continuous
 62
     7
370
    25
100
AcDbSpline
210
0.0
220
0.0
230
1.0
 70
     8
 71
     3
 72
    15
 73
    11
 74
     0
 42
0.00000001
 43
0.00000001
 40
0.0
 40
0.0
 40
0.0
 40
0.0
 40
0.0592341891229385
 40
0.1363492805279884
 40
0.2338052120618148
 40
0.3494112238568946
 40
0.4831791503491683
 40
0.6359668555591154
 40
0.8092433563675907
 40
1.0
 40
1.0
 40
1.0
 40
1.0
 10
10.71473595782119
 20
115.1413947014215
 30
0.0
 10
10.73299042213883
 20
115.1183493003077
 30
0.0
 10
10.77500978820071
 20
115.0653018304617
 30
0.0
 10
10.85513211319818
 20
114.9812829073177
 30
0.0
 10
10.95574892636261
 20
114.8783523721495
 30
0.0
 10
11.08073217440357
 20
114.7600497044467
 30
0.0
 10
11.224893459095
 20
114.6221202776074
 30
0.0
 10
11.39491484207604
 20
114.4699861498949
 30
0.0
 10
11.58590236649817
 20
114.2989359041883
 30
0.0
 10
11.72165187405509
 20
114.1798227071583
 30
0.0
 10
11.79278583762888
 20
114.1174063200113
 30
0.0
  0
SPLINE
  5
E2
330
1F
100
AcDbEntity
  8
0
  6
Continuous
 62
     7
370
    25
100
AcDbSpline
210
0.0
220
0.0
230
1.0
 70
     8
 71
     3
 72
    11
 73
     7
 74
     0
 42
0.00000001
 43
0.00000001
 40
0.0
 40
0.0
 40
0.0
 40
0.0
 40
0.2418813747501721
 40
0.4871154746783552
 40
0.7378378396464068
 40
0.9999999999999999
 40
0.9999999999999999
 40
0.9999999999999999
 40
0.9999999999999999
 10
10.58276229996862
 20
115.5214152342741
 30
0.0
 10
10.5841645095082
 20
115.4883771196565
 30
0.0
 10
10.58698836465692
 20
115.421842948098
 30
0.0
 10
10.61426296144728
 20
115.3243288335318
 30
0.0
 10
10.65537356670613
 20
115.2290461921003
 30
0.0
 10
10.69465642843784
 20
115.1710431143227
 30
0.0
 10
10.71473595782119
 20
115.1413947014215
 30
0.0
  0
SPLINE
  5
E3
330
1F
100
AcDbEntity
  8
0
  6
Continuous
 62
     7
370
    25
100
AcDbSpline
210
0.0
220
0.0
230
1.0
 70
     8
 71
     3
 72
    15
 73
    11
 74
     0
 42
0.00000001
 43
0.00000001
 40
0.0
 40
0.0
 40
0.0
 40
0.0
 40
0.1481262583591595
 40
0.2859928874897035
 40
0.4166343935606199
 40
0.5473799458012549
 40
0.6715828376102176
 40
0.7844007386959941
 40
0.8932655763009661
 40
1.0
 40
1.0
 40
1.0
 40
1.0
 10
11.2251401044558
 20
116.0413596453318
 30
0.0
 10
11.1799215217951
 20
116.0397738328395
 30
0.0
 10
11.09261631901351
 20
116.0367120455593
 30
0.0
 10
10.9681562754634
 20
116.0062781081995
 30
0.0
 10
10.85765887630562
 20
115.9537536016487
 30
0.0
 10
10.76123196212309
 20
115.8850733906304
 30
0.0
 10
10.68484761946489
 20
115.8023296589473
 30
0.0
 10
10.62386064529408
 20
115.7155527596229
 30
0.0
 10
10.58951985414731
 20
115.6197706878462
 30
0.0
 10
10.58499993036357
 20
115.5539836971531
 30
0.0
 10
10.58276229996862
 20
115.5214152342741
 30
0.0
  0
SPLINE
  5
E4
330
1F
100
AcDbEntity
  8
0
  6
Continuous
 62
     7
370
    25
100
AcDbSpline
210
0.0
220
0.0
230
1.0
 70
     8
 71
     3
 72
    15
 73
    11
 74
     0
 42
0.00000001
 43
0.00000001
 40
0.0
 40
0.0
 40
0.0
 40
0.0
 40
0.1624203072014353
 40
0.3118243397330513
 40
0.4484327667925777
 40
0.5733811968860478
 40
0.6890771468735465
 40
0.7975729005012525
 40
0.9002930430775761
 40
1.0
 40
1.0
 40
1.0
 40
1.0
 10
12.366791747084
 20
115.2272570812292
 30
0.0
 10
12.32115759816902
 20
115.2916287924297
 30
0.0
 10
12.2335463960978
 20
115.415213501069
 30
0.0
 10
12.09153777576043
 20
115.5806963387335
 30
0.0
 10
11.95017039713228
 20
115.7218655143503
 30
0.0
 10
11.80813457742189
 20
115.8381312883086
 30
0.0
 10
11.66417136517816
 20
115.9287872595435
 30
0.0
 10
11.51853065950206
 20
115.9929726886381
 30
0.0
 10
11.3720381382976
 20
116.0337759750268
 30
0.0
 10
11.27361777726682
 20
116.0388569659008
 30
0.0
 10
11.2251401044558
 20
116.0413596453318
 30
0.0
  0
SPLINE
  5
E6
330
1F
100
AcDbEntity
  8
0
  6
Continuous
 62
     7
370
    25
100
AcDbSpline
210
0.0
220
0.0
230
1.0
 70
     8
 71
     3
 72
    19
 73
    15
 74
     0
 42
0.00000001
 43
0.00000001
 40
0.0
 40
0.0
 40
0.0
 40
0.0
 40
0.1069102197112015
 40
0.2129765276064955
 40
0.3197766759577677
 40
0.4285562728491938
 40
0.4858568032784266
 40
0.5465586866406892
 40
0.6114314979175132
 40
0.6798209100724931
 40
0.7531585046908267
 40
0.8307528691562642
 40
0.9131330746556992
 40
1.0
 40
1.0
 40
1.0
 40
1.0
 10
11.24104054516092
 20
117.4660391325113
 30
0.0
 10
11.33456217179929
 20
117.4626179121565
 30
0.0
 10
11.52086719812283
 20
117.4558024773615
 30
0.0
 10
11.79632455291677
 20
117.4025080043775
 30
0.0
 10
12.06537978031613
 20
117.3186968318173
 30
0.0
 10
12.28218952492192
 20
117.2175878729883
 30
0.0
 10
12.45470099171913
 20
117.1196435767274
 30
0.0
 10
12.58691491624314
 20
117.0294688065065
 30
0.0
 10
12.7214497010417
 20
116.9261687606473
 30
0.0
 10
12.85939028569952
 20
116.80941791344
 30
0.0
 10
12.9981735205575
 20
116.6770165255924
 30
0.0
 10
13.14174567669395
 20
116.5321165163708
 30
0.0
 10
13.28815040799065
 20
116.3734656108266
 30
0.0
 10
13.3832902703445
 20
116.2601261395522
 30
0.0
 10
13.43212127432759
 20
116.2019540964536
 30
0.0
  0
SPLINE
  5
E7
330
1F
100
AcDbEntity
  8
0
  6
Continuous
 62
     7
370
    25
100
AcDbSpline
210
0.0
220
0.0
230
1.0
 70
     8
 71
     3
 72
    23
 73
    19
 74
     0
 42
0.00000001
 43
0.00000001
 40
0.0
 40
0.0
 40
0.0
 40
0.0
 40
0.0631728801065182
 40
0.1244573597769997
 40
0.1848409152554598
 40
0.2445668214643658
 40
0.3043191726186547
 40
0.3651997864614174
 40
0.4274209827764759
 40
0.4912616890772858
 40
0.5554990019310203
 40
0.618604518142879
 40
0.6804947639253078
 40
0.7424733052606072
 40
0.8049906647647699
 40
0.8682519711837806
 40
0.9328872172654761
 40
1.0
 40
1.0
 40
1.0
 40
1.0
 10
9.158082812789132
 20
115.4530433392421
 30
0.0
 10
9.159804557422671
 20
115.5209999560671
 30
0.0
 10
9.163196579298818
 20
115.6548817910437
 30
0.0
 10
9.19345393770118
 20
115.8517355222105
 30
0.0
 10
9.238674712580615
 20
116.0416828324763
 30
0.0
 10
9.304348260187188
 20
116.2240307075185
 30
0.0
 10
9.389584595257757
 20
116.398550749283
 30
0.0
 10
9.493100813334747
 20
116.5660973068272
 30
0.0
 10
9.616504325118907
 20
116.7251283194777
 30
0.0
 10
9.755571751929464
 20
116.8755383608847
 30
0.0
 10
9.90878845107942
 20
117.0129960221687
 30
0.0
 10
10.07251996515326
 20
117.1343161815181
 30
0.0
 10
10.24583955932036
 20
117.2367849521941
 30
0.0
 10
10.42768695206539
 20
117.3217902379949
 30
0.0
 10
10.61918897601555
 20
117.3868563843151
 30
0.0
 10
10.81893484453422
 20
117.4329785119934
 30
0.0
 10
11.02721105656612
 20
117.4604104826949
 30
0.0
 10
11.16887604025728
 20
117.4641395407855
 30
0.0
 10
11.24104054516092
 20
117.4660391325113
 30
0.0
  0
SPLINE
  5
E8
330
1F
100
AcDbEntity
  8
0
  6
Continuous
 62
     7
370
    25
100
AcDbSpline
210
0.0
220
0.0
230
1.0
 70
     8
 71
     3
 72
    23
 73
    19
 74
     0
 42
0.00000001
 43
0.00000001
 40
0.0
 40
0.0
 40
0.0
 40
0.0
 40
0.0727911822673715
 40
0.1427233695565071
 40
0.2094912699928591
 40
0.2747163184918652
 40
0.3368863886768229
 40
0.3976856020239931
 40
0.4570537497761165
 40
0.5153125941662582
 40
0.5728222022221211
 40
0.6307760073985085
 40
0.6895054947089505
 40
0.7487432781628026
 40
0.8092253247292993
 40
0.8707153202239948
 40
0.9342652493244612
 40
0.9999999999999999
 40
0.9999999999999999
 40
0.9999999999999999
 40
0.9999999999999999
 10
-2.655944631121125
 20
113.6626537158446
 30
0.0
 10
-2.599981267876766
 20
113.6340849042261
 30
0.0
 10
-2.490252595733327
 20
113.5780693686706
 30
0.0
 10
-2.334470117715385
 20
113.4859965498222
 30
0.0
 10
-2.190232548055668
 20
113.388065429703
 30
0.0
 10
-2.056893169231578
 20
113.2862464218381
 30
0.0
 10
-1.937248927310673
 20
113.1762232709422
 30
0.0
 10
-1.826359510663751
 20
113.0643356620621
 30
0.0
 10
-1.729695627548501
 20
112.9441729005189
 30
0.0
 10
-1.64325586986918
 20
112.8200178159558
 30
0.0
 10
-1.568123837451181
 20
112.6900726283562
 30
0.0
 10
-1.502692122075203
 20
112.5545567858622
 30
0.0
 10
-1.447424299148504
 20
112.4130073368606
 30
0.0
 10
-1.400622077213796
 20
112.2661446534415
 30
0.0
 10
-1.365716967685662
 20
112.1134635966848
 30
0.0
 10
-1.342958093993744
 20
111.9549095614966
 30
0.0
 10
-1.325532477718973
 20
111.7910232977636
 30
0.0
 10
-1.324176928541431
 20
111.6793880675382
 30
0.0
 10
-1.323487700031382
 20
111.6226271733767
 30
0.0
  0
SPLINE
  5
E9
330
1F
100
AcDbEntity
  8
0
  6
Continuous
 62
     7
370
    25
100
AcDbSpline
210
0.0
220
0.0
230
1.0
 70
     8
 71
     3
 72
    15
 73
    11
 74
     0
 42
0.00000001
 43
0.00000001
 40
0.0
 40
0.0
 40
0.0
 40
0.0
 40
0.123269560600463
 40
0.2426409842839842
 40
0.3594273839391195
 40
0.4755502191345217
 40
0.5938976740482469
 40
0.7202015971643222
 40
0.8544653148776641
 40
1.0
 40
1.0
 40
1.0
 40
1.0
 10
-1.832301802595485
 20
115.192276111678
 30
0.0
 10
-1.835018186809271
 20
115.1179679150967
 30
0.0
 10
-1.840365055380199
 20
114.9717013601499
 30
0.0
 10
-1.874521215942985
 20
114.7568622536412
 30
0.0
 10
-1.938569338709702
 20
114.5538084184501
 30
0.0
 10
-2.022374749617727
 20
114.3587976489921
 30
0.0
 10
-2.136323907336687
 20
114.1725573368509
 30
0.0
 10
-2.281017299646402
 20
113.9951760341235
 30
0.0
 10
-2.454111367530788
 20
113.8211919045756
 30
0.0
 10
-2.586884072948108
 20
113.7169001547652
 30
0.0
 10
-2.655944631121125
 20
113.6626537158446
 30
0.0
  0
SPLINE
  5
EA
330
1F
100
AcDbEntity
  8
0
  6
Continuous
 62
     7
370
    25
100
AcDbSpline
210
0.0
220
0.0
230
1.0
 70
     8
 71
     3
 72
    23
 73
    19
 74
     0
 42
0.00000001
 43
0.00000001
 40
0.0
 40
0.0
 40
0.0
 40
0.0
 40
0.068749766315283
 40
0.1349091121452266
 40
0.1997210700545284
 40
0.2629736746369458
 40
0.3253570233490403
 40
0.3873361409887339
 40
0.4494074874297889
 40
0.5111175193516639
 40
0.5724725853513699
 40
0.6330771719677212
 40
0.6928610080891009
 40
0.7525606967546175
 40
0.8127375856307943
 40
0.8734793127278806
 40
0.9357764600655819
 40
0.9999999999999999
 40
0.9999999999999999
 40
0.9999999999999999
 40
0.9999999999999999
 10
-3.419165784967277
 20
117.12099956921
 30
0.0
 10
-3.359474745354553
 20
117.1045280383042
 30
0.0
 10
-3.242341763109232
 20
117.072205606836
 30
0.0
 10
-3.07456995279746
 20
117.0069290596063
 30
0.0
 10
-2.915414987850312
 20
116.9343695492977
 30
0.0
 10
-2.765071192118538
 20
116.8515927188241
 30
0.0
 10
-2.624461736403834
 20
116.7575992198951
 30
0.0
 10
-2.494120984529734
 20
116.6516430918142
 30
0.0
 10
-2.371237808995965
 20
116.5379774090094
 30
0.0
 10
-2.260175510826933
 20
116.4134343411448
 30
0.0
 10
-2.159793492162668
 20
116.2818315196513
 30
0.0
 10
-2.072579515578569
 20
116.1432034280549
 30
0.0
 10
-1.996801748121599
 20
115.9996697803691
 30
0.0
 10
-1.936159685540967
 20
115.8494243010716
 30
0.0
 10
-1.890467030671099
 20
115.6931589112461
 30
0.0
 10
-1.857047613531357
 20
115.5315408882944
 30
0.0
 10
-1.835387305829508
 20
115.3640588330121
 30
0.0
 10
-1.833340690865238
 20
115.2501153166972
 30
0.0
 10
-1.832301802595484
 20
115.192276111678
 30
0.0
  0
SPLINE
  5
EB
330
1F
100
AcDbEntity
  8
0
  6
Continuous
 62
     7
370
    25
100
AcDbSpline
210
0.0
220
0.0
230
1.0
 70
     8
 71
     3
 72
    15
 73
    11
 74
     0
 42
0.00000001
 43
0.00000001
 40
0.0
 40
0.0
 40
0.0
 40
0.0
 40
0.1639957318060738
 40
0.3173286319587161
 40
0.4580598946275424
 40
0.5891583945859039
 40
0.7079520097453067
 40
0.816321999875446
 40
0.9135847296003141
 40
0.9999999999999999
 40
0.9999999999999999
 40
0.9999999999999999
 40
0.9999999999999999
 10
-5.037830648749329
 20
117.2625134914856
 30
0.0
 10
-4.948780227116041
 20
117.2625236543426
 30
0.0
 10
-4.776469349503365
 20
117.2625433192782
 30
0.0
 10
-4.527869722177257
 20
117.2538133165489
 30
0.0
 10
-4.297314562705147
 20
117.2425200800106
 30
0.0
 10
-4.0855375869605
 20
117.2298855744899
 30
0.0
 10
-3.892178335862743
 20
117.2081137971182
 30
0.0
 10
-3.717530843687626
 20
117.1851687219412
 30
0.0
 10
-3.561246163689163
 20
117.1574983755191
 30
0.0
 10
-3.464623838483052
 20
117.1326772174918
 30
0.0
 10
-3.419165784967277
 20
117.12099956921
 30
0.0
  0
SPLINE
  5
EF
330
1F
100
AcDbEntity
  8
0
  6
Continuous
 62
     7
370
    25
100
AcDbSpline
210
0.0
220
0.0
230
1.0
 70
     8
 71
     3
 72
    23
 73
    19
 74
     0
 42
0.00000001
 43
0.00000001
 40
0.0
 40
0.0
 40
0.0
 40
0.0
 40
0.0802588853381371
 40
0.1583905883453939
 40
0.2362576248303802
 40
0.3151047653520843
 40
0.3932216786245968
 40
0.4687312831158773
 40
0.5427812639155796
 40
0.6177081693395501
 40
0.6563652025204867
 40
0.6970796727899443
 40
0.7406969496811662
 40
0.7867286654533115
 40
0.835579092184148
 40
0.8872495053564257
 40
0.9418976668361582
 40
1.0
 40
1.0
 40
1.0
 40
1.0
 10
-1.323487700031382
 20
111.6226271733767
 30
0.0
 10
-1.327960332401848
 20
111.5142171108701
 30
0.0
 10
-1.336787054447963
 20
111.30027028728
 30
0.0
 10
-1.401323739082166
 20
110.9861472140239
 30
0.0
 10
-1.513209843888226
 20
110.6883300496357
 30
0.0
 10
-1.663449810967273
 20
110.4080024470212
 30
0.0
 10
-1.848574356912323
 20
110.1532794300457
 30
0.0
 10
-2.06141449695262
 20
109.9301442785991
 30
0.0
 10
-2.299827419057836
 20
109.7412653265452
 30
0.0
 10
-2.519792155749597
 20
109.6137866866529
 30
0.0
 10
-2.71004433058027
 20
109.5282365984794
 30
0.0
 10
-2.86762665238361
 20
109.4753441390834
 30
0.0
 10
-3.036866725798059
 20
109.4263446446293
 30
0.0
 10
-3.220864622502206
 20
109.3919361878861
 30
0.0
 10
-3.416284711557825
 20
109.3604417846416
 30
0.0
 10
-3.62503235119
 20
109.3409964877169
 30
0.0
 10
-3.846717395831318
 20
109.327818889116
 30
0.0
 10
-3.998980267226592
 20
109.3259675298231
 30
0.0
 10
-4.077444030159587
 20
109.3250134914857
 30
0.0
  0
SPLINE
  5
F5
330
1F
100
AcDbEntity
  8
0
  6
Continuous
 62
     7
370
    25
100
AcDbSpline
210
0.0
220
0.0
230
1.0
 70
     8
 71
     3
 72
    23
 73
    19
 74
     0
 42
0.00000001
 43
0.00000001
 40
0.0
 40
0.0
 40
0.0
 40
0.0
 40
0.0687412630793636
 40
0.1347890881950357
 40
0.1985360495606916
 40
0.2603856506059212
 40
0.3209615782321958
 40
0.379903849584149
 40
0.4385029357752683
 40
0.4961543439762673
 40
0.5542654832084984
 40
0.612748760815693
 40
0.6725134425261792
 40
0.7336464018979746
 40
0.796789619481454
 40
0.8619356990410235
 40
0.9293977347748983
 40
1.0
 40
1.0
 40
1.0
 40
1.0
 10
-17.09672487951856
 20
115.0078309994985
 30
0.0
 10
-17.09818529374317
 20
114.9452602344837
 30
0.0
 10
-17.10104889986421
 20
114.8225703683656
 30
0.0
 10
-17.11647384029767
 20
114.6423489615704
 30
0.0
 10
-17.14466578595318
 20
114.4699257254919
 30
0.0
 10
-17.18736658903948
 20
114.3058054941526
 30
0.0
 10
-17.23644561583576
 20
114.1479455999398
 30
0.0
 10
-17.30170813199775
 20
113.9992586566143
 30
0.0
 10
-17.37536333181329
 20
113.8575822279929
 30
0.0
 10
-17.4628414606562
 20
113.7249203808569
 30
0.0
 10
-17.55884443346271
 20
113.5983264305359
 30
0.0
 10
-17.67049387135862
 20
113.4826506609067
 30
0.0
 10
-17.79055660575262
 20
113.3716759373451
 30
0.0
 10
-17.92578180020575
 20
113.2723533400335
 30
0.0
 10
-18.07020860253107
 20
113.1779670338474
 30
0.0
 10
-18.22670662133756
 20
113.0924279044119
 30
0.0
 10
-18.39425449688263
 20
113.0135856949703
 30
0.0
 10
-18.51204895088378
 20
112.9696178328392
 30
0.0
 10
-18.57228577695446
 20
112.9471338841138
 30
0.0
  0
SPLINE
  5
F6
330
1F
100
AcDbEntity
  8
0
  6
Continuous
 62
     7
370
    25
100
AcDbSpline
210
0.0
220
0.0
230
1.0
 70
     8
 71
     3
 72
    31
 73
    27
 74
     0
 42
0.00000001
 43
0.00000001
 40
0.0
 40
0.0
 40
0.0
 40
0.0
 40
0.0728890266200384
 40
0.1401861299444941
 40
0.2022774341249591
 40
0.2588951317514627
 40
0.3104829424654785
 40
0.3570952441313355
 40
0.3985135666534649
 40
0.4350375108701162
 40
0.4692514858292881
 40
0.5028050278902749
 40
0.5362104463185623
 40
0.5693793599392052
 40
0.6028014750483932
 40
0.6366657983367751
 40
0.6709286568940416
 40
0.7058030002293126
 40
0.7411890612458777
 40
0.7763043110764621
 40
0.8120043009129347
 40
0.847968975808894
 40
0.8845217611964802
 40
0.9219741585442033
 40
0.9601981758096089
 40
1.0
 40
1.0
 40
1.0
 40
1.0
 10
-20.32133425451856
 20
117.2625134914856
 30
0.0
 10
-20.21160836258259
 20
117.2621240275429
 30
0.0
 10
-20.00057456423876
 20
117.2613749786747
 30
0.0
 10
-19.69627535350103
 20
117.2495569716566
 30
0.0
 10
-19.41673468046809
 20
117.2331112449068
 30
0.0
 10
-19.16153865988885
 20
117.2080146293883
 30
0.0
 10
-18.93079646882672
 20
117.1747395508061
 30
0.0
 10
-18.72427684967503
 20
117.1355137394549
 30
0.0
 10
-18.54198583879852
 20
117.0908075176421
 30
0.0
 10
-18.38238606327896
 20
117.0351000380524
 30
0.0
 10
-18.23835515792335
 20
116.9722628456491
 30
0.0
 10
-18.10409832999901
 20
116.9000617593562
 30
0.0
 10
-17.97665367423582
 20
116.8193007611037
 30
0.0
 10
-17.85687302051323
 20
116.7278548104237
 30
0.0
 10
-17.74371544678868
 20
116.6273689974405
 30
0.0
 10
-17.63696747451502
 20
116.5177421733165
 30
0.0
 10
-17.53813755148258
 20
116.3980447477348
 30
0.0
 10
-17.4478376365865
 20
116.2690330565265
 30
0.0
 10
-17.36553653283268
 20
116.133315715791
 30
0.0
 10
-17.29279961862162
 20
115.9907063847338
 30
0.0
 10
-17.23364983908867
 20
115.8411058880635
 30
0.0
 10
-17.18138466815547
 20
115.6866762763854
 30
0.0
 10
-17.14373975874404
 20
115.5252099481037
 30
0.0
 10
-17.11755827494564
 20
115.3582788051802
 30
0.0
 10
-17.09838921672964
 20
115.1852952322685
 30
0.0
 10
-17.09728708752553
 20
115.0677778732149
 30
0.0
 10
-17.09672487951856
 20
115.0078309994985
 30
0.0
  0
SPLINE
  5
114
330
1F
100
AcDbEntity
  8
0
  6
Continuous
 62
     7
370
    25
100
AcDbSpline
210
0.0
220
0.0
230
1.0
 70
     8
 71
     3
 72
    15
 73
    11
 74
     0
 42
0.00000001
 43
0.00000001
 40
0.0
 40
0.0
 40
0.0
 40
0.0
 40
0.0780698025414621
 40
0.1688735680435862
 40
0.2729852285731914
 40
0.3905851522489261
 40
0.521711271930064
 40
0.6677229181798304
 40
0.8263694974163475
 40
1.0
 40
1.0
 40
1.0
 40
1.0
 10
8.544174358859474
 20
-58.47409371304793
 30
0.0
 10
8.498429601782057
 20
-58.48759084265884
 30
0.0
 10
8.399478661783872
 20
-58.5167866182538
 30
0.0
 10
8.235215923833318
 20
-58.54635584001067
 30
0.0
 10
8.046445513405995
 20
-58.57386303836648
 30
0.0
 10
7.832221093924938
 20
-58.59727350902374
 30
0.0
 10
7.591714986681994
 20
-58.61324814069328
 30
0.0
 10
7.325945370468492
 20
-58.62562843541374
 30
0.0
 10
7.034047630820458
 20
-58.63476265610185
 30
0.0
 10
6.831174667767344
 20
-58.63506184073044
 30
0.0
 10
6.725163942192803
 20
-58.63521817885989
 30
0.0
  0
SPLINE
  5
115
330
1F
100
AcDbEntity
  8
0
  6
Continuous
 62
     7
370
    25
100
AcDbSpline
210
0.0
220
0.0
230
1.0
 70
     8
 71
     3
 72
    23
 73
    19
 74
     0
 42
0.00000001
 43
0.00000001
 40
0.0
 40
0.0
 40
0.0
 40
0.0
 40
0.073489938624059
 40
0.1442998236743532
 40
0.2121182548390604
 40
0.2778317911307888
 40
0.3419468915088152
 40
0.4043701461616048
 40
0.4656010323979167
 40
0.5260829581857933
 40
0.5861380518735722
 40
0.644844074071777
 40
0.7030390985565673
 40
0.7611301953181928
 40
0.8194792848965852
 40
0.8784435373701024
 40
0.9386508039868158
 40
1.0
 40
1.0
 40
1.0
 40
1.0
 10
10.38862548065434
 20
-55.671376031424
 30
0.0
 10
10.38689478856812
 20
-55.75976332012659
 30
0.0
 10
10.38349651980436
 20
-55.93331456283595
 30
0.0
 10
10.35986563149753
 20
-56.18755615878757
 30
0.0
 10
10.32180310899764
 20
-56.43049269606529
 30
0.0
 10
10.26922180090742
 20
-56.66249743644694
 30
0.0
 10
10.19995832499694
 20
-56.88348612843949
 30
0.0
 10
10.11122065496783
 20
-57.09133871098146
 30
0.0
 10
10.01321799429732
 20
-57.29024242717236
 30
0.0
 10
9.894734679474768
 20
-57.47436988744886
 30
0.0
 10
9.76652927928036
 20
-57.64781104618343
 30
0.0
 10
9.626230206404324
 20
-57.80828482424423
 30
0.0
 10
9.472406892051008
 20
-57.95229843135222
 30
0.0
 10
9.308850429035543
 20
-58.08435679344664
 30
0.0
 10
9.134305463191392
 20
-58.20320438634219
 30
0.0
 10
8.949293463779556
 20
-58.31014226076694
 30
0.0
 10
8.75197637614639
 20
-58.40165863720423
 30
0.0
 10
8.6138741526496
 20
-58.44979794385667
 30
0.0
 10
8.544174358859472
 20
-58.47409371304793
 30
0.0
  0
SPLINE
  5
116
330
1F
100
AcDbEntity
  8
0
  6
Continuous
 62
     7
370
    25
100
AcDbSpline
210
0.0
220
0.0
230
1.0
 70
     8
 71
     3
 72
    23
 73
    19
 74
     0
 42
0.00000001
 43
0.00000001
 40
0.0
 40
0.0
 40
0.0
 40
0.0
 40
0.0665815469714012
 40
0.1285196355351567
 40
0.185890284951055
 40
0.238741348100304
 40
0.2868368405002112
 40
0.3302511781169289
 40
0.3700145474425323
 40
0.4056527916510194
 40
0.4724929846022758
 40
0.5389834794488745
 40
0.6072506139652717
 40
0.6787376685379406
 40
0.7532192966694478
 40
0.8307934903394698
 40
0.9125605356500144
 40
0.9999999999999999
 40
0.9999999999999999
 40
0.9999999999999999
 40
0.9999999999999999
 10
6.805726175098788
 20
-52.66513270877441
 30
0.0
 10
6.925876685106355
 20
-52.6657464496266
 30
0.0
 10
7.157798297894482
 20
-52.66693112847866
 30
0.0
 10
7.493024919539915
 20
-52.6815725927586
 30
0.0
 10
7.802654278060627
 20
-52.7073447834249
 30
0.0
 10
8.08659923371867
 20
-52.73970021289811
 30
0.0
 10
8.343392294720086
 20
-52.7843475735672
 30
0.0
 10
8.574462520941017
 20
-52.83689560702748
 30
0.0
 10
8.780072782454253
 20
-52.89882675101007
 30
0.0
 10
9.017062326880254
 20
-52.99821871123076
 30
0.0
 10
9.283167146176813
 20
-53.15016779399705
 30
0.0
 10
9.564540470952334
 20
-53.38334582501722
 30
0.0
 10
9.810792158388864
 20
-53.66453366892483
 30
0.0
 10
10.01712673985949
 20
-53.99295748605781
 30
0.0
 10
10.18627571537287
 20
-54.36069570756996
 30
0.0
 10
10.30272707687593
 20
-54.76746483656501
 30
0.0
 10
10.3771724254373
 20
-55.20788490979826
 30
0.0
 10
10.38472341666441
 20
-55.5134642793999
 30
0.0
 10
10.38862548065434
 20
-55.671376031424
 30
0.0
  0
CIRCLE
  5
127
330
1F
100
AcDbEntity
  8
0
  6
Continuous
 62
     7
370
    25
100
AcDbCircle
 10
-45.0
 20
98.0
 30
0.0
 40
2.0
  0
CIRCLE
  5
128
330
1F
100
AcDbEntity
  8
0
  6
Continuous
 62
     7
370
    25
100
AcDbCircle
 10
45.0
 20
98.0
 30
0.0
 40
2.0
  0
CIRCLE
  5
129
330
1F
100
AcDbEntity
  8
0
  6
Continuous
 62
     7
370
    25
100
AcDbCircle
 10
-20.0
 20
-67.0
 30
0.0
 40
1.999999999999986
  0
CIRCLE
  5
12A
330
1F
100
AcDbEntity
  8
0
  6
Continuous
 62
     7
370
    25
100
AcDbCircle
 10
20.0
 20
-67.0
 30
0.0
 40
1.999999999999989
  0
SPLINE
  5
133
330
1F
100
AcDbEntity
  8
0
  6
Continuous
 62
     7
370
    25
100
AcDbSpline
210
0.0
220
0.0
230
1.0
 70
     8
 71
     3
 72
    15
 73
    11
 74
     0
 42
0.00000001
 43
0.00000001
 40
0.0
 40
0.0
 40
0.0
 40
0.0
 40
0.1396498086716312
 40
0.2733879610929984
 40
0.4008971658175602
 40
0.5240268282512832
 40
0.644426172342822
 40
0.7628054419375713
 40
0.8805685880960049
 40
1.0
 40
1.0
 40
1.0
 40
1.0
 10
13.50935197638084
 20
-57.97799996304792
 30
0.0
 10
13.51246940853733
 20
-58.12302660056851
 30
0.0
 10
13.5185723057
 20
-58.40694060741941
 30
0.0
 10
13.57027909728503
 20
-58.82064382517638
 30
0.0
 10
13.65416643247427
 20
-59.21141378661915
 30
0.0
 10
13.77446071104588
 20
-59.57791583945779
 30
0.0
 10
13.92303334556554
 20
-59.92395635253392
 30
0.0
 10
14.11275144622284
 20
-60.24258354069753
 30
0.0
 10
14.33029271452566
 20
-60.54218187660146
 30
0.0
 10
14.50341299748643
 20
-60.71775457228909
 30
0.0
 10
14.59058194432956
 20
-60.80615834980005
 30
0.0
  0
SPLINE
  5
134
330
1F
100
AcDbEntity
  8
0
  6
Continuous
 62
     7
370
    25
100
AcDbSpline
210
0.0
220
0.0
230
1.0
 70
     8
 71
     3
 72
    23
 73
    19
 74
     0
 42
0.00000001
 43
0.00000001
 40
0.0
 40
0.0
 40
0.0
 40
0.0
 40
0.0717957721302133
 40
0.1411988461650593
 40
0.2085569709540892
 40
0.2743949292668113
 40
0.3392255421064974
 40
0.40340746092713
 40
0.4678458582845883
 40
0.5326676974427116
 40
0.596609901124271
 40
0.657379200197491
 40
0.715831322378309
 40
0.7725321414912871
 40
0.8286930159232551
 40
0.8850661649646381
 40
0.9418614831220338
 40
1.0
 40
1.0
 40
1.0
 40
1.0
 10
19.47943744646631
 20
-57.96315955172312
 30
0.0
 10
19.47748830728212
 20
-57.83723013045392
 30
0.0
 10
19.47365498680019
 20
-57.58956806827575
 30
0.0
 10
19.42872847647435
 20
-57.22614707883341
 30
0.0
 10
19.3622369080364
 20
-56.87699295126041
 30
0.0
 10
19.26664411749661
 20
-56.54267337060006
 30
0.0
 10
19.14270771863633
 20
-56.2239803295379
 30
0.0
 10
18.99479824483567
 20
-55.91821749440809
 30
0.0
 10
18.81494115209736
 20
-55.63010579392768
 30
0.0
 10
18.61318180876669
 20
-55.35761602605259
 30
0.0
 10
18.39103457156309
 20
-55.10976995718003
 30
0.0
 10
18.15429257409683
 20
-54.89226346556214
 30
0.0
 10
17.90841197580034
 20
-54.70495304913865
 30
0.0
 10
17.64674008148476
 20
-54.5559279790053
 30
0.0
 10
17.37369551305429
 20
-54.43845760160185
 30
0.0
 10
17.08878415683816
 20
-54.35268243045869
 30
0.0
 10
16.79149639663403
 20
-54.3035043124588
 30
0.0
 10
16.58997353557202
 20
-54.29675296250194
 30
0.0
 10
16.48803453514152
 20
-54.29333783697954
 30
0.0
  0
SPLINE
  5
135
330
1F
100
AcDbEntity
  8
0
  6
Continuous
 62
     7
370
    25
100
AcDbSpline
210
0.0
220
0.0
230
1.0
 70
     8
 71
     3
 72
    15
 73
    11
 74
     0
 42
0.00000001
 43
0.00000001
 40
0.0
 40
0.0
 40
0.0
 40
0.0
 40
0.1334744182915433
 40
0.2625288549608468
 40
0.3874085651428325
 40
0.5100861933866835
 40
0.6318078774919499
 40
0.7528920924901137
 40
0.8755419445170989
 40
1.0
 40
1.0
 40
1.0
 40
1.0
 10
14.59058194432956
 20
-60.80615834980005
 30
0.0
 10
14.66077903221819
 20
-60.87115440857443
 30
0.0
 10
14.79884864391513
 20
-60.99899419319691
 30
0.0
 10
15.02277418013867
 20
-61.16376523402292
 30
0.0
 10
15.25267156232649
 20
-61.30549728307966
 30
0.0
 10
15.49136789638396
 20
-61.42058849690291
 30
0.0
 10
15.73794512598236
 20
-61.50985874033718
 30
0.0
 10
15.99216116805425
 20
-61.57374836273088
 30
0.0
 10
16.25359787195479
 20
-61.61305032665231
 30
0.0
 10
16.43065769200943
 20
-61.61784568818916
 30
0.0
 10
16.51983541655178
 20
-61.62026091390263
 30
0.0
  0
SPLINE
  5
136
330
1F
100
AcDbEntity
  8
0
  6
Continuous
 62
     7
370
    25
100
AcDbSpline
210
0.0
220
0.0
230
1.0
 70
     8
 71
     3
 72
    23
 73
    19
 74
     0
 42
0.00000001
 43
0.00000001
 40
0.0
 40
0.0
 40
0.0
 40
0.0
 40
0.0586877236345435
 40
0.1156325815965322
 40
0.1715367612636137
 40
0.2269270848907327
 40
0.2835328683469914
 40
0.3410169262287617
 40
0.40068466104878
 40
0.4629175093344347
 40
0.5265746229103645
 40
0.5899718095303217
 40
0.654235926665161
 40
0.7190168714960307
 40
0.7856198790168244
 40
0.8546564482318437
 40
0.9257077636804139
 40
1.0
 40
1.0
 40
1.0
 40
1.0
 10
16.48803453514152
 20
-54.29333783697954
 30
0.0
 10
16.38465031217379
 20
-54.29661477896719
 30
0.0
 10
16.18095209629898
 20
-54.30307134668374
 30
0.0
 10
15.88236724395951
 20
-54.3537086571842
 30
0.0
 10
15.59620788867212
 20
-54.43290329170833
 30
0.0
 10
15.32423365064056
 20
-54.55066330741745
 30
0.0
 10
15.06306256771145
 20
-54.69609828216586
 30
0.0
 10
14.81496894012591
 20
-54.8764133680813
 30
0.0
 10
14.58161846146322
 20
-55.09008504154986
 30
0.0
 10
14.36251679848739
 20
-55.33303072023737
 30
0.0
 10
14.16225210822943
 20
-55.60006044061715
 30
0.0
 10
13.9873905778057
 20
-55.88859361828644
 30
0.0
 10
13.83926758941301
 20
-56.19383345983736
 30
0.0
 10
13.71714007010527
 20
-56.51648787149249
 30
0.0
 10
13.62466466647012
 20
-56.8575317309937
 30
0.0
 10
13.55715354201063
 20
-57.21542738935606
 30
0.0
 10
13.51575010122988
 20
-57.59117420396876
 30
0.0
 10
13.51151615466629
 20
-57.84715539095783
 30
0.0
 10
13.50935197638084
 20
-57.97799996304792
 30
0.0
  0
SPLINE
  5
137
330
1F
100
AcDbEntity
  8
0
  6
Continuous
 62
     7
370
    25
100
AcDbSpline
210
0.0
220
0.0
230
1.0
 70
     8
 71
     3
 72
    23
 73
    19
 74
     0
 42
0.00000001
 43
0.00000001
 40
0.0
 40
0.0
 40
0.0
 40
0.0
 40
0.0576811670332017
 40
0.1140207615785453
 40
0.1698426945571376
 40
0.2254387613563696
 40
0.2821319597210855
 40
0.3403707609897295
 40
0.4009354839564354
 40
0.4643914036820511
 40
0.5292813700148339
 40
0.5938982746525757
 40
0.6581053306321077
 40
0.723183862925856
 40
0.7894210132150477
 40
0.8575856469508172
 40
0.9273635788141823
 40
1.0
 40
1.0
 40
1.0
 40
1.0
 10
16.51983541655177
 20
-61.62026091390263
 30
0.0
 10
16.62037594209577
 20
-61.61689420261401
 30
0.0
 10
16.8191185799733
 20
-61.61023908440322
 30
0.0
 10
17.11182450670408
 20
-61.5603949628191
 30
0.0
 10
17.39272788609778
 20
-61.47735047927821
 30
0.0
 10
17.66264315164084
 20
-61.3617808717043
 30
0.0
 10
17.92048873738467
 20
-61.21257406970063
 30
0.0
 10
18.16502730359974
 20
-61.02791277618086
 30
0.0
 10
18.39890811040028
 20
-60.81241449950267
 30
0.0
 10
18.6199220456571
 20
-60.56788206698985
 30
0.0
 10
18.82236126732387
 20
-60.2987509247554
 30
0.0
 10
18.99777296434188
 20
-60.00982902837706
 30
0.0
 10
19.1482280224387
 20
-59.70673707109015
 30
0.0
 10
19.26803260178345
 20
-59.38730732151048
 30
0.0
 10
19.36471048215432
 20
-59.05299329977813
 30
0.0
 10
19.43125202287881
 20
-58.70308622549261
 30
0.0
 10
19.47305773031633
 20
-58.33801865923949
 30
0.0
 10
19.47728260768015
 20
-58.08977348332026
 30
0.0
 10
19.47943744646631
 20
-57.96315955172312
 30
0.0
  0
SPLINE
  5
138
330
1F
100
AcDbEntity
  8
0
  6
Continuous
 62
     7
370
    25
100
AcDbSpline
210
0.0
220
0.0
230
1.0
 70
     8
 71
     3
 72
    15
 73
    11
 74
     0
 42
0.00000001
 43
0.00000001
 40
0.0
 40
0.0
 40
0.0
 40
0.0
 40
0.0852884685357286
 40
0.1799075290007623
 40
0.2851500235341338
 40
0.4019565773833582
 40
0.5310152140678572
 40
0.6747816221420238
 40
0.8296366424913225
 40
1.0
 40
1.0
 40
1.0
 40
1.0
 10
8.236765838560325
 20
-54.77459117565475
 30
0.0
 10
8.211030287103332
 20
-54.75760464781723
 30
0.0
 10
8.156743704760022
 20
-54.72177325933036
 30
0.0
 10
8.061987017071848
 20
-54.68048418415164
 30
0.0
 10
7.953390640207716
 20
-54.64457232052087
 30
0.0
 10
7.829898785045865
 20
-54.61534070082796
 30
0.0
 10
7.69107791689479
 20
-54.59235293086778
 30
0.0
 10
7.53752916106893
 20
-54.57528514313678
 30
0.0
 10
7.368312653891236
 20
-54.56807470182785
 30
0.0
 10
7.250941082230725
 20
-54.56586361868443
 30
0.0
 10
7.189456810782549
 20
-54.56470535834706
 30
0.0
  0
SPLINE
  5
13C
330
1F
100
AcDbEntity
  8
0
  6
Continuous
 62
     7
370
    25
100
AcDbSpline
210
0.0
220
0.0
230
1.0
 70
     8
 71
     3
 72
    15
 73
    11
 74
     0
 42
0.00000001
 43
0.00000001
 40
0.0
 40
0.0
 40
0.0
 40
0.0
 40
0.1463772111706812
 40
0.2831989091043952
 40
0.4124078814206598
 40
0.5366397680703328
 40
0.6534287743988475
 40
0.768788885252569
 40
0.8841679122515026
 40
1.0
 40
1.0
 40
1.0
 40
1.0
 10
8.62473659176545
 20
-55.66925597266331
 30
0.0
 10
8.623323672115161
 20
-55.61976127854668
 30
0.0
 10
8.620590068295183
 20
-55.52400290695198
 30
0.0
 10
8.605045539103612
 20
-55.38499086448516
 30
0.0
 10
8.571797407861265
 20
-55.25689985500134
 30
0.0
 10
8.530373560896855
 20
-55.13863375404897
 30
0.0
 10
8.477548824566924
 20
-55.02960578967917
 30
0.0
 10
8.407554332692365
 20
-54.93481826119681
 30
0.0
 10
8.330616259646769
 20
-54.84565308861048
 30
0.0
 10
8.268090152456505
 20
-54.79830940346577
 30
0.0
 10
8.236765838560325
 20
-54.77459117565475
 30
0.0
  0
SPLINE
  5
13D
330
1F
100
AcDbEntity
  8
0
  6
Continuous
 62
     7
370
    25
100
AcDbSpline
210
0.0
220
0.0
230
1.0
 70
     8
 71
     3
 72
    19
 73
    15
 74
     0
 42
0.00000001
 43
0.00000001
 40
0.0
 40
0.0
 40
0.0
 40
0.0
 40
0.1404764077487769
 40
0.2593710221254323
 40
0.3551762035973494
 40
0.4300819656194167
 40
0.4948251364232193
 40
0.5589888620871717
 40
0.6235706524831822
 40
0.6915902352205027
 40
0.7628897307931958
 40
0.8374795418492058
 40
0.9160497565638471
 40
0.9999999999999999
 40
0.9999999999999999
 40
0.9999999999999999
 40
0.9999999999999999
 10
7.248818456081692
 20
-56.73564552928725
 30
0.0
 10
7.343559343483581
 20
-56.7348463422633
 30
0.0
 10
7.51848580406367
 20
-56.73337074960974
 30
0.0
 10
7.757396501114434
 20
-56.71285144303087
 30
0.0
 10
7.950200663283983
 20
-56.68102101035853
 30
0.0
 10
8.103292058433244
 20
-56.63517282024069
 30
0.0
 10
8.223344243787317
 20
-56.56671665802946
 30
0.0
 10
8.326841868607548
 20
-56.4862496030509
 30
0.0
 10
8.414063198075686
 20
-56.3855608508992
 30
0.0
 10
8.491945053028319
 20
-56.27159911367855
 30
0.0
 10
8.54943369415817
 20
-56.13864841743289
 30
0.0
 10
8.595232248403898
 20
-55.99408727909108
 30
0.0
 10
8.620084628688758
 20
-55.83546606496306
 30
0.0
 10
8.623152089306416
 20
-55.72586869628631
 30
0.0
 10
8.62473659176545
 20
-55.66925597266331
 30
0.0
  0
SPLINE
  5
13E
330
1F
100
AcDbEntity
  8
0
  6
Continuous
 62
     7
370
    25
100
AcDbSpline
210
0.0
220
0.0
230
1.0
 70
     8
 71
     3
 72
    23
 73
    19
 74
     0
 42
0.00000001
 43
0.00000001
 40
0.0
 40
0.0
 40
0.0
 40
0.0
 40
0.0586877236345442
 40
0.1156325815965328
 40
0.1715367612636144
 40
0.2269270848907327
 40
0.2835328683469915
 40
0.3410169262287622
 40
0.40068466104878
 40
0.4629175093344347
 40
0.5265746229103648
 40
0.5899718095303214
 40
0.6542359266651608
 40
0.7190168714960307
 40
0.7856198790168244
 40
0.8546564482318437
 40
0.9257077636804139
 40
1.0
 40
1.0
 40
1.0
 40
1.0
 10
-13.09102529391831
 20
-54.29333783697954
 30
0.0
 10
-13.19440951688605
 20
-54.2966147789672
 30
0.0
 10
-13.39810773276086
 20
-54.30307134668372
 30
0.0
 10
-13.69669258510032
 20
-54.35370865718422
 30
0.0
 10
-13.98285194038771
 20
-54.43290329170833
 30
0.0
 10
-14.25482617841927
 20
-54.55066330741745
 30
0.0
 10
-14.51599726134837
 20
-54.69609828216584
 30
0.0
 10
-14.76409088893393
 20
-54.8764133680813
 30
0.0
 10
-14.9974413675966
 20
-55.09008504154988
 30
0.0
 10
-15.21654303057245
 20
-55.33303072023736
 30
0.0
 10
-15.41680772083041
 20
-55.60006044061719
 30
0.0
 10
-15.59166925125412
 20
-55.88859361828642
 30
0.0
 10
-15.73979223964683
 20
-56.19383345983736
 30
0.0
 10
-15.86191975895455
 20
-56.51648787149248
 30
0.0
 10
-15.95439516258972
 20
-56.8575317309937
 30
0.0
 10
-16.02190628704919
 20
-57.21542738935606
 30
0.0
 10
-16.06330972782996
 20
-57.59117420396876
 30
0.0
 10
-16.06754367439354
 20
-57.84715539095783
 30
0.0
 10
-16.06970785267899
 20
-57.97799996304792
 30
0.0
  0
SPLINE
  5
13F
330
1F
100
AcDbEntity
  8
0
  6
Continuous
 62
     7
370
    25
100
AcDbSpline
210
0.0
220
0.0
230
1.0
 70
     8
 71
     3
 72
    23
 73
    19
 74
     0
 42
0.00000001
 43
0.00000001
 40
0.0
 40
0.0
 40
0.0
 40
0.0
 40
0.0717957721302133
 40
0.1411988461650593
 40
0.2085569709540891
 40
0.2743949292668114
 40
0.3392255421064972
 40
0.4034074609271295
 40
0.4678458582845885
 40
0.5326676974427114
 40
0.5966099011242707
 40
0.6573792001974902
 40
0.7158313223783088
 40
0.7725321414912877
 40
0.8286930159232544
 40
0.8850661649646374
 40
0.9418614831220338
 40
1.0
 40
1.0
 40
1.0
 40
1.0
 10
-10.09962238259352
 20
-57.96315955172312
 30
0.0
 10
-10.10157152177771
 20
-57.83723013045392
 30
0.0
 10
-10.10540484225964
 20
-57.58956806827575
 30
0.0
 10
-10.15033135258548
 20
-57.22614707883341
 30
0.0
 10
-10.21682292102343
 20
-56.87699295126039
 30
0.0
 10
-10.31241571156322
 20
-56.54267337060006
 30
0.0
 10
-10.4363521104235
 20
-56.2239803295379
 30
0.0
 10
-10.58426158422415
 20
-55.91821749440809
 30
0.0
 10
-10.76411867696248
 20
-55.63010579392768
 30
0.0
 10
-10.96587802029313
 20
-55.35761602605258
 30
0.0
 10
-11.18802525749674
 20
-55.10976995718002
 30
0.0
 10
-11.42476725496301
 20
-54.89226346556214
 30
0.0
 10
-11.6706478532595
 20
-54.70495304913867
 30
0.0
 10
-11.93231974757507
 20
-54.55592797900527
 30
0.0
 10
-12.20536431600554
 20
-54.43845760160185
 30
0.0
 10
-12.49027567222167
 20
-54.35268243045871
 30
0.0
 10
-12.7875634324258
 20
-54.30350431245881
 30
0.0
 10
-12.9890862934878
 20
-54.29675296250194
 30
0.0
 10
-13.09102529391831
 20
-54.29333783697954
 30
0.0
  0
SPLINE
  5
140
330
1F
100
AcDbEntity
  8
0
  6
Continuous
 62
     7
370
    25
100
AcDbSpline
210
0.0
220
0.0
230
1.0
 70
     8
 71
     3
 72
    23
 73
    19
 74
     0
 42
0.00000001
 43
0.00000001
 40
0.0
 40
0.0
 40
0.0
 40
0.0
 40
0.057681167033201
 40
0.1140207615785453
 40
0.169842694557137
 40
0.2254387613563696
 40
0.282131959721085
 40
0.3403707609897301
 40
0.4009354839564355
 40
0.4643914036820508
 40
0.5292813700148341
 40
0.5938982746525759
 40
0.6581053306321083
 40
0.7231838629258566
 40
0.7894210132150477
 40
0.8575856469508174
 40
0.9273635788141824
 40
1.0
 40
1.0
 40
1.0
 40
1.0
 10
-13.05922441250805
 20
-61.62026091390263
 30
0.0
 10
-12.95868388696407
 20
-61.61689420261401
 30
0.0
 10
-12.75994124908653
 20
-61.61023908440322
 30
0.0
 10
-12.46723532235575
 20
-61.5603949628191
 30
0.0
 10
-12.18633194296206
 20
-61.47735047927821
 30
0.0
 10
-11.91641667741899
 20
-61.36178087170427
 30
0.0
 10
-11.65857109167516
 20
-61.21257406970065
 30
0.0
 10
-11.41403252546008
 20
-61.02791277618088
 30
0.0
 10
-11.18015171865956
 20
-60.81241449950269
 30
0.0
 10
-10.95913778340274
 20
-60.56788206698983
 30
0.0
 10
-10.75669856173596
 20
-60.2987509247554
 30
0.0
 10
-10.58128686471795
 20
-60.00982902837706
 30
0.0
 10
-10.43083180662113
 20
-59.70673707109017
 30
0.0
 10
-10.31102722727637
 20
-59.38730732151048
 30
0.0
 10
-10.21434934690551
 20
-59.05299329977814
 30
0.0
 10
-10.14780780618102
 20
-58.70308622549261
 30
0.0
 10
-10.1060020987435
 20
-58.33801865923947
 30
0.0
 10
-10.10177722137968
 20
-58.08977348332023
 30
0.0
 10
-10.09962238259352
 20
-57.96315955172312
 30
0.0
  0
SPLINE
  5
141
330
1F
100
AcDbEntity
  8
0
  6
Continuous
 62
     7
370
    25
100
AcDbSpline
210
0.0
220
0.0
230
1.0
 70
     8
 71
     3
 72
    15
 73
    11
 74
     0
 42
0.00000001
 43
0.00000001
 40
0.0
 40
0.0
 40
0.0
 40
0.0
 40
0.1334744182915443
 40
0.2625288549608477
 40
0.3874085651428331
 40
0.5100861933866839
 40
0.6318078774919488
 40
0.7528920924901124
 40
0.8755419445170974
 40
1.0
 40
1.0
 40
1.0
 40
1.0
 10
-14.98847788473027
 20
-60.80615834980005
 30
0.0
 10
-14.91828079684164
 20
-60.87115440857443
 30
0.0
 10
-14.7802111851447
 20
-60.99899419319693
 30
0.0
 10
-14.55628564892115
 20
-61.16376523402292
 30
0.0
 10
-14.32638826673334
 20
-61.30549728307967
 30
0.0
 10
-14.08769193267587
 20
-61.42058849690291
 30
0.0
 10
-13.84111470307747
 20
-61.50985874033721
 30
0.0
 10
-13.58689866100558
 20
-61.57374836273087
 30
0.0
 10
-13.32546195710505
 20
-61.61305032665229
 30
0.0
 10
-13.1484021370504
 20
-61.61784568818916
 30
0.0
 10
-13.05922441250805
 20
-61.62026091390263
 30
0.0
  0
SPLINE
  5
142
330
1F
100
AcDbEntity
  8
0
  6
Continuous
 62
     7
370
    25
100
AcDbSpline
210
0.0
220
0.0
230
1.0
 70
     8
 71
     3
 72
    15
 73
    11
 74
     0
 42
0.00000001
 43
0.00000001
 40
0.0
 40
0.0
 40
0.0
 40
0.0
 40
0.1396498086716314
 40
0.2733879610929987
 40
0.4008971658175601
 40
0.5240268282512835
 40
0.6444261723428223
 40
0.7628054419375717
 40
0.8805685880960055
 40
0.9999999999999999
 40
0.9999999999999999
 40
0.9999999999999999
 40
0.9999999999999999
 10
-16.06970785267899
 20
-57.97799996304792
 30
0.0
 10
-16.0665904205225
 20
-58.12302660056849
 30
0.0
 10
-16.06048752335983
 20
-58.40694060741941
 30
0.0
 10
-16.0087807317748
 20
-58.8206438251764
 30
0.0
 10
-15.92489339658556
 20
-59.21141378661915
 30
0.0
 10
-15.80459911801395
 20
-59.5779158394578
 30
0.0
 10
-15.65602648349428
 20
-59.92395635253392
 30
0.0
 10
-15.46630838283699
 20
-60.24258354069756
 30
0.0
 10
-15.24876711453416
 20
-60.54218187660143
 30
0.0
 10
-15.0756468315734
 20
-60.71775457228909
 30
0.0
 10
-14.98847788473027
 20
-60.80615834980005
 30
0.0
  0
SPLINE
  5
146
330
1F
100
AcDbEntity
  8
0
  6
Continuous
 62
     7
370
    25
100
AcDbSpline
210
0.0
220
0.0
230
1.0
 70
     8
 71
     3
 72
    23
 73
    19
 74
     0
 42
0.00000001
 43
0.00000001
 40
0.0
 40
0.0
 40
0.0
 40
0.0
 40
0.0659391240576586
 40
0.1297911093795344
 40
0.1921752363053287
 40
0.2536170442157569
 40
0.3147191079962384
 40
0.3762822754113773
 40
0.4389729923739138
 40
0.5031747018386418
 40
0.5673294646239474
 40
0.6296509938060326
 40
0.6906498673030982
 40
0.7512376127977863
 40
0.8117541138236054
 40
0.8727877774488538
 40
0.935539632668229
 40
1.0
 40
1.0
 40
1.0
 40
1.0
 10
6.512249479455799
 20
113.2889933592741
 30
0.0
 10
6.509738414677352
 20
113.3834500943643
 30
0.0
 10
6.504795766621644
 20
113.5693737718612
 30
0.0
 10
6.467720682213139
 20
113.8426977151409
 30
0.0
 10
6.4054837031011
 20
114.104589173336
 30
0.0
 10
6.319300173813323
 20
114.355475842851
 30
0.0
 10
6.2092483706752
 20
114.5956036857431
 30
0.0
 10
6.073158151624177
 20
114.8241282705793
 30
0.0
 10
5.911507040392287
 20
115.0408286699611
 30
0.0
 10
5.728015427266594
 20
115.2442281535359
 30
0.0
 10
5.528296084008857
 20
115.4311392500887
 30
0.0
 10
5.31387741327486
 20
115.5933441048876
 30
0.0
 10
5.090759090141046
 20
115.7342949664679
 30
0.0
 10
4.853821691671444
 20
115.8447101799291
 30
0.0
 10
4.607912758700747
 20
115.9326777462707
 30
0.0
 10
4.351531741856993
 20
115.997458324393
 30
0.0
 10
4.083707582337463
 20
116.0336859753936
 30
0.0
 10
3.901501268907434
 20
116.0387789550865
 30
0.0
 10
3.809174559584003
 20
116.0413596453318
 30
0.0
  0
SPLINE
  5
147
330
1F
100
AcDbEntity
  8
0
  6
Continuous
 62
     7
370
    25
100
AcDbSpline
210
0.0
220
0.0
230
1.0
 70
     8
 71
     3
 72
    15
 73
    11
 74
     0
 42
0.00000001
 43
0.00000001
 40
0.0
 40
0.0
 40
0.0
 40
0.0
 40
0.1348068327792168
 40
0.2641990558543182
 40
0.3884618167279416
 40
0.5099420983643695
 40
0.6304096106127718
 40
0.7506710345119791
 40
0.8734547255294222
 40
1.0
 40
1.0
 40
1.0
 40
1.0
 10
1.118819992276313
 20
113.2778630507805
 30
0.0
 10
1.122044266735692
 20
113.1690644949032
 30
0.0
 10
1.128363310440088
 20
112.9558373524172
 30
0.0
 10
1.172824870511412
 20
112.6447873418847
 30
0.0
 10
1.248894173976488
 20
112.3510314786186
 30
0.0
 10
1.358736769185585
 20
112.0760064786503
 30
0.0
 10
1.494970404786344
 20
111.8166583953131
 30
0.0
 10
1.664150958569853
 20
111.5761659080277
 30
0.0
 10
1.863538506428075
 20
111.3530890601393
 30
0.0
 10
2.017145057934389
 20
111.2228475045476
 30
0.0
 10
2.095107051571184
 20
111.1567442607164
 30
0.0
  0
SPLINE
  5
148
330
1F
100
AcDbEntity
  8
0
  6
Continuous
 62
     7
370
    25
100
AcDbSpline
210
0.0
220
0.0
230
1.0
 70
     8
 71
     3
 72
    15
 73
    11
 74
     0
 42
0.00000001
 43
0.00000001
 40
0.0
 40
0.0
 40
0.0
 40
0.0
 40
0.1279910255623706
 40
0.2530983915017067
 40
0.3761840584327901
 40
0.4989363124701251
 40
0.6215258806257283
 40
0.7457068938016901
 40
0.871575350296869
 40
1.0
 40
1.0
 40
1.0
 40
1.0
 10
2.095107051571184
 20
111.1567442607164
 30
0.0
 10
2.15897280823869
 20
111.1079097230299
 30
0.0
 10
2.285265415189544
 20
111.0113408981153
 30
0.0
 10
2.486855911979017
 20
110.887568138359
 30
0.0
 10
2.694454428657771
 20
110.7814825361844
 30
0.0
 10
2.909627556300412
 20
110.6957666246076
 30
0.0
 10
3.131920860334212
 20
110.6283439293427
 30
0.0
 10
3.36130385753236
 20
110.5811289245027
 30
0.0
 10
3.597451531594612
 20
110.5514974257509
 30
0.0
 10
3.757145655844146
 20
110.5479559003284
 30
0.0
 10
3.837795352853238
 20
110.5461673376395
 30
0.0
  0
SPLINE
  5
149
330
1F
100
AcDbEntity
  8
0
  6
Continuous
 62
     7
370
    25
100
AcDbSpline
210
0.0
220
0.0
230
1.0
 70
     8
 71
     3
 72
    23
 73
    19
 74
     0
 42
0.00000001
 43
0.00000001
 40
0.0
 40
0.0
 40
0.0
 40
0.0
 40
0.0646087354707741
 40
0.1275117897236746
 40
0.1885213083986469
 40
0.24870817908937
 40
0.3085982651789115
 40
0.3688122491095524
 40
0.4298875018150754
 40
0.492802447924245
 40
0.5557433321027925
 40
0.6174852948395637
 40
0.678968963438036
 40
0.7401976913545534
 40
0.8023601016976071
 40
0.8662447764427329
 40
0.9317068283956892
 40
1.0
 40
1.0
 40
1.0
 40
1.0
 10
3.809174559584003
 20
116.0413596453318
 30
0.0
 10
3.716298447516756
 20
116.0388675707131
 30
0.0
 10
3.532998167980586
 20
116.0339492126546
 30
0.0
 10
3.264130039838351
 20
115.996477976503
 30
0.0
 10
3.006007141640354
 20
115.9366321531569
 30
0.0
 10
2.760060350800096
 20
115.8499462093471
 30
0.0
 10
2.52522371248381
 20
115.7396170038589
 30
0.0
 10
2.301080934087943
 20
115.6060300403031
 30
0.0
 10
2.090735929728517
 20
115.4445934162817
 30
0.0
 10
1.891383952083066
 20
115.2639739442688
 30
0.0
 10
1.711302244127366
 20
115.0627223435446
 30
0.0
 10
1.552194374119039
 20
114.8470470269396
 30
0.0
 10
1.419046714076891
 20
114.6173081686547
 30
0.0
 10
1.307534714687165
 20
114.3756399883911
 30
0.0
 10
1.223590893663748
 20
114.1193249913865
 30
0.0
 10
1.163800226808334
 20
113.8503709208281
 30
0.0
 10
1.126014757193138
 20
113.5683143554272
 30
0.0
 10
1.121251851805435
 20
113.3760367619603
 30
0.0
 10
1.118819992276313
 20
113.2778630507805
 30
0.0
  0
SPLINE
  5
14A
330
1F
100
AcDbEntity
  8
0
  6
Continuous
 62
     7
370
    25
100
AcDbSpline
210
0.0
220
0.0
230
1.0
 70
     8
 71
     3
 72
    23
 73
    19
 74
     0
 42
0.00000001
 43
0.00000001
 40
0.0
 40
0.0
 40
0.0
 40
0.0
 40
0.0641474448766719
 40
0.1262121152536833
 40
0.1868412890216909
 40
0.2469358694509774
 40
0.3072563614860029
 40
0.3681505022006765
 40
0.4300707669516569
 40
0.4938754417369528
 40
0.5579806818508446
 40
0.6208695259285345
 40
0.6825247313751587
 40
0.7440356981057703
 40
0.805888682578188
 40
0.8689681377436684
 40
0.9332474288479412
 40
1.0
 40
1.0
 40
1.0
 40
1.0
 10
3.837795352853238
 20
110.5461673376395
 30
0.0
 10
3.929074457897271
 20
110.5486805422876
 30
0.0
 10
4.108668967830123
 20
110.553625351474
 30
0.0
 10
4.372531970592324
 20
110.5906352961599
 30
0.0
 10
4.625320741404741
 20
110.65326948507
 30
0.0
 10
4.86860461435729
 20
110.7391949890752
 30
0.0
 10
5.101682067519434
 20
110.8509094731777
 30
0.0
 10
5.323413987695674
 20
110.9886398852671
 30
0.0
 10
5.534189131478548
 20
111.1506950732209
 30
0.0
 10
5.733287137325418
 20
111.333686474445
 30
0.0
 10
5.915272126263397
 20
111.5357308674097
 30
0.0
 10
6.074047971041922
 20
111.7525565738733
 30
0.0
 10
6.211429061324319
 20
111.9793862746264
 30
0.0
 10
6.320622167017136
 20
112.2194304001207
 30
0.0
 10
6.407882418729553
 20
112.4704230461593
 30
0.0
 10
6.466953473752562
 20
112.7334758051607
 30
0.0
 10
6.505058144907379
 20
113.0075042737489
 30
0.0
 10
6.509822392233365
 20
113.193990330541
 30
0.0
 10
6.512249479455799
 20
113.2889933592741
 30
0.0
  0
SPLINE
  5
14E
330
1F
100
AcDbEntity
  8
0
  6
Continuous
 62
     7
370
    25
100
AcDbSpline
210
0.0
220
0.0
230
1.0
 70
     8
 71
     3
 72
    23
 73
    19
 74
     0
 42
0.00000001
 43
0.00000001
 40
0.0
 40
0.0
 40
0.0
 40
0.0
 40
0.1095674252695409
 40
0.2106570473717294
 40
0.3020024587326173
 40
0.3851432164195911
 40
0.4590126129308739
 40
0.52471920904605
 40
0.5832266479388947
 40
0.6342083193258281
 40
0.6811857277932596
 40
0.7262751343643198
 40
0.7701133344783248
 40
0.8140800070141055
 40
0.8579941680783146
 40
0.9033387195085186
 40
0.9505447828389836
 40
1.0
 40
1.0
 40
1.0
 40
1.0
 10
-4.47495504778779
 20
110.7496929786651
 30
0.0
 10
-4.39385178357704
 20
110.7501563185978
 30
0.0
 10
-4.237920637720361
 20
110.7510471474358
 30
0.0
 10
-4.014549547572781
 20
110.7618104782903
 30
0.0
 10
-3.811449383826456
 20
110.7812094856747
 30
0.0
 10
-3.629158285291791
 20
110.8054275837238
 30
0.0
 10
-3.46739703864226
 20
110.8382393185727
 30
0.0
 10
-3.326712435610676
 20
110.8799552343861
 30
0.0
 10
-3.20517516923633
 20
110.9258500076872
 30
0.0
 10
-3.103513982983861
 20
110.9825355019134
 30
0.0
 10
-3.020462617690463
 20
111.0485033601813
 30
0.0
 10
-2.945517468104382
 20
111.1159240959704
 30
0.0
 10
-2.88441186310709
 20
111.1937002843891
 30
0.0
 10
-2.836063968115813
 20
111.2784932092259
 30
0.0
 10
-2.794218950382537
 20
111.3681965530232
 30
0.0
 10
-2.768980990637359
 20
111.4663131990729
 30
0.0
 10
-2.749765693851366
 20
111.5699352052842
 30
0.0
 10
-2.748708224631756
 20
111.6416083060768
 30
0.0
 10
-2.748167187210868
 20
111.6782787158446
 30
0.0
  0
SPLINE
  5
14F
330
1F
100
AcDbEntity
  8
0
  6
Continuous
 62
     7
370
    25
100
AcDbSpline
210
0.0
220
0.0
230
1.0
 70
     8
 71
     3
 72
    23
 73
    19
 74
     0
 42
0.00000001
 43
0.00000001
 40
0.0
 40
0.0
 40
0.0
 40
0.0
 40
0.0528263492812301
 40
0.1028915173965596
 40
0.1516981461048807
 40
0.1995775881235319
 40
0.2472235843729642
 40
0.2957231203836683
 40
0.3462538147999426
 40
0.3985071702228987
 40
0.4542901722394644
 40
0.5140415865121296
 40
0.5790927186074086
 40
0.6500371484472969
 40
0.727451000764525
 40
0.811452006589293
 40
0.9024758798237973
 40
1.0
 40
1.0
 40
1.0
 40
1.0
 10
-2.748167187210868
 20
111.6782787158446
 30
0.0
 10
-2.749360329995857
 20
111.7202119061881
 30
0.0
 10
-2.751684251169451
 20
111.801886480381
 30
0.0
 10
-2.770663743596869
 20
111.9212625870645
 30
0.0
 10
-2.80515568113355
 20
112.0327081032718
 30
0.0
 10
-2.848599959361355
 20
112.1390728411929
 30
0.0
 10
-2.909054980748766
 20
112.2365485727148
 30
0.0
 10
-2.980903707648908
 20
112.3285085632654
 30
0.0
 10
-3.067715311678096
 20
112.4118387637318
 30
0.0
 10
-3.165340024846898
 20
112.4915792960884
 30
0.0
 10
-3.279209587337066
 20
112.5613964523162
 30
0.0
 10
-3.409377423461722
 20
112.6219752020126
 30
0.0
 10
-3.556550675753225
 20
112.6725683428684
 30
0.0
 10
-3.721185228940479
 20
112.7128506348053
 30
0.0
 10
-3.902559337916687
 20
112.7470376591819
 30
0.0
 10
-4.101996834423146
 20
112.7674510866875
 30
0.0
 10
-4.317836733726081
 20
112.7826334498579
 30
0.0
 10
-4.467503632538681
 20
112.7841598679971
 30
0.0
 10
-4.544916986890354
 20
112.7849493889215
 30
0.0
  0
SPLINE
  5
153
330
1F
100
AcDbEntity
  8
0
  6
Continuous
 62
     7
370
    25
100
AcDbSpline
210
0.0
220
0.0
230
1.0
 70
     8
 71
     3
 72
    19
 73
    15
 74
     0
 42
0.00000001
 43
0.00000001
 40
0.0
 40
0.0
 40
0.0
 40
0.0
 40
0.1123318680474739
 40
0.2171891524479086
 40
0.3207763822148971
 40
0.4294461252394092
 40
0.486889524848175
 40
0.547348160965309
 40
0.6105516098532322
 40
0.6785404198027601
 40
0.7510057638701909
 40
0.8285633445446968
 40
0.9114938035709801
 40
1.0
 40
1.0
 40
1.0
 40
1.0
 10
-3.25698128977497
 20
115.0014708232164
 30
0.0
 10
-3.259694870406465
 20
115.0629453153411
 30
0.0
 10
-3.264941469503386
 20
115.1818037753117
 30
0.0
 10
-3.32431233463621
 20
115.3486916386824
 30
0.0
 10
-3.416527025634707
 20
115.4965884411782
 30
0.0
 10
-3.525399429503707
 20
115.5978117076128
 30
0.0
 10
-3.627923953440522
 20
115.6669442143034
 30
0.0
 10
-3.715711742323641
 20
115.7124650259988
 30
0.0
 10
-3.812065432626506
 20
115.7532147913795
 30
0.0
 10
-3.918850328577907
 20
115.7843730551405
 30
0.0
 10
-4.035456629857744
 20
115.8077531191814
 30
0.0
 10
-4.16131791458626
 20
115.824922976249
 30
0.0
 10
-4.296651336909145
 20
115.8366095114269
 30
0.0
 10
-4.390126419644586
 20
115.8374170849467
 30
0.0
 10
-4.438384034165996
 20
115.8378340043062
 30
0.0
  0
SPLINE
  5
154
330
1F
100
AcDbEntity
  8
0
  6
Continuous
 62
     7
370
    25
100
AcDbSpline
210
0.0
220
0.0
230
1.0
 70
     8
 71
     3
 72
    19
 73
    15
 74
     0
 42
0.00000001
 43
0.00000001
 40
0.0
 40
0.0
 40
0.0
 40
0.0
 40
0.0887762289654559
 40
0.1713771372145559
 40
0.2481138113668479
 40
0.3211611878976206
 40
0.3880331325497767
 40
0.4520913744364409
 40
0.5122677074822286
 40
0.5688662368266996
 40
0.6769360002929868
 40
0.7810117272007138
 40
0.8869176462132677
 40
1.0
 40
1.0
 40
1.0
 40
1.0
 10
-4.506755929198047
 20
114.1078660555882
 30
0.0
 10
-4.455323825735821
 20
114.1083145629922
 30
0.0
 10
-4.356037262711063
 20
114.1091803793915
 30
0.0
 10
-4.212628353818226
 20
114.120331793968
 30
0.0
 10
-4.079281228260574
 20
114.1393567999182
 30
0.0
 10
-3.956501642909492
 20
114.165901469013
 30
0.0
 10
-3.843145861334504
 20
114.1996093285043
 30
0.0
 10
-3.739938032923258
 20
114.2401671428501
 30
0.0
 10
-3.647331943834621
 20
114.2896520847416
 30
0.0
 10
-3.53974508691505
 20
114.3633620894084
 30
0.0
 10
-3.426018020693411
 20
114.4718296613364
 30
0.0
 10
-3.325905363344296
 20
114.6285335425265
 30
0.0
 10
-3.266939676672234
 20
114.8087424096726
 30
0.0
 10
-3.260372489538223
 20
114.93583965653
 30
0.0
 10
-3.256981289774971
 20
115.0014708232164
 30
0.0
  0
SPLINE
  5
155
330
1F
100
AcDbEntity
  8
0
  6
Continuous
 62
     7
370
    25
100
AcDbSpline
210
0.0
220
0.0
230
1.0
 70
     8
 71
     3
 72
    23
 73
    19
 74
     0
 42
0.00000001
 43
0.00000001
 40
0.0
 40
0.0
 40
0.0
 40
0.0
 40
0.0659391240576586
 40
0.1297911093795343
 40
0.1921752363053287
 40
0.253617044215757
 40
0.3147191079962384
 40
0.3762822754113769
 40
0.438972992373914
 40
0.5031747018386419
 40
0.567329464623947
 40
0.6296509938060328
 40
0.6906498673030976
 40
0.7512376127977867
 40
0.8117541138236056
 40
0.8727877774488534
 40
0.9355396326682295
 40
1.0
 40
1.0
 40
1.0
 40
1.0
 10
-9.15922487951856
 20
113.2889933592741
 30
0.0
 10
-9.161735944297007
 20
113.3834500943643
 30
0.0
 10
-9.166678592352715
 20
113.5693737718612
 30
0.0
 10
-9.203753676761215
 20
113.8426977151409
 30
0.0
 10
-9.265990655873262
 20
114.104589173336
 30
0.0
 10
-9.352174185161035
 20
114.355475842851
 30
0.0
 10
-9.462225988299162
 20
114.5956036857431
 30
0.0
 10
-9.598316207350177
 20
114.8241282705793
 30
0.0
 10
-9.759967318582072
 20
115.0408286699611
 30
0.0
 10
-9.943458931707763
 20
115.2442281535359
 30
0.0
 10
-10.1431782749655
 20
115.4311392500888
 30
0.0
 10
-10.3575969456995
 20
115.5933441048876
 30
0.0
 10
-10.58071526883331
 20
115.7342949664679
 30
0.0
 10
-10.81765266730291
 20
115.8447101799291
 30
0.0
 10
-11.06356160027361
 20
115.9326777462707
 30
0.0
 10
-11.31994261711736
 20
115.997458324393
 30
0.0
 10
-11.58776677663689
 20
116.0336859753937
 30
0.0
 10
-11.76997309006692
 20
116.0387789550865
 30
0.0
 10
-11.86229979939035
 20
116.0413596453318
 30
0.0
  0
SPLINE
  5
156
330
1F
100
AcDbEntity
  8
0
  6
Continuous
 62
     7
370
    25
100
AcDbSpline
210
0.0
220
0.0
230
1.0
 70
     8
 71
     3
 72
    23
 73
    19
 74
     0
 42
0.00000001
 43
0.00000001
 40
0.0
 40
0.0
 40
0.0
 40
0.0
 40
0.0641474448766718
 40
0.1262121152536832
 40
0.1868412890216907
 40
0.2469358694509787
 40
0.3072563614860042
 40
0.368150502200677
 40
0.4300707669516574
 40
0.4938754417369538
 40
0.557980681850845
 40
0.6208695259285348
 40
0.6825247313751589
 40
0.7440356981057705
 40
0.8058886825781881
 40
0.8689681377436687
 40
0.9332474288479412
 40
1.0
 40
1.0
 40
1.0
 40
1.0
 10
-11.83367900612112
 20
110.5461673376395
 30
0.0
 10
-11.74239990107709
 20
110.5486805422876
 30
0.0
 10
-11.56280539114424
 20
110.5536253514739
 30
0.0
 10
-11.29894238838204
 20
110.5906352961599
 30
0.0
 10
-11.04615361756962
 20
110.6532694850701
 30
0.0
 10
-10.80286974461707
 20
110.7391949890752
 30
0.0
 10
-10.56979229145492
 20
110.8509094731777
 30
0.0
 10
-10.34806037127869
 20
110.9886398852671
 30
0.0
 10
-10.13728522749581
 20
111.1506950732209
 30
0.0
 10
-9.938187221648938
 20
111.3336864744451
 30
0.0
 10
-9.756202232710963
 20
111.5357308674097
 30
0.0
 10
-9.597426387932437
 20
111.7525565738733
 30
0.0
 10
-9.460045297650039
 20
111.9793862746263
 30
0.0
 10
-9.350852191957227
 20
112.2194304001207
 30
0.0
 10
-9.263591940244805
 20
112.4704230461592
 30
0.0
 10
-9.204520885221793
 20
112.7334758051607
 30
0.0
 10
-9.166416214066977
 20
113.0075042737489
 30
0.0
 10
-9.161651966740994
 20
113.1939903305411
 30
0.0
 10
-9.15922487951856
 20
113.2889933592741
 30
0.0
  0
SPLINE
  5
157
330
1F
100
AcDbEntity
  8
0
  6
Continuous
 62
     7
370
    25
100
AcDbSpline
210
0.0
220
0.0
230
1.0
 70
     8
 71
     3
 72
    15
 73
    11
 74
     0
 42
0.00000001
 43
0.00000001
 40
0.0
 40
0.0
 40
0.0
 40
0.0
 40
0.1279910255623716
 40
0.2530983915017072
 40
0.3761840584327908
 40
0.498936312470126
 40
0.6215258806257304
 40
0.7457068938016924
 40
0.8715753502968715
 40
1.0
 40
1.0
 40
1.0
 40
1.0
 10
-13.57636730740317
 20
111.1567442607164
 30
0.0
 10
-13.51250155073567
 20
111.1079097230299
 30
0.0
 10
-13.38620894378481
 20
111.0113408981153
 30
0.0
 10
-13.18461844699535
 20
110.887568138359
 30
0.0
 10
-12.97701993031659
 20
110.7814825361845
 30
0.0
 10
-12.76184680267395
 20
110.6957666246076
 30
0.0
 10
-12.53955349864015
 20
110.6283439293427
 30
0.0
 10
-12.310170501442
 20
110.5811289245027
 30
0.0
 10
-12.07402282737974
 20
110.5514974257509
 30
0.0
 10
-11.91432870313021
 20
110.5479559003284
 30
0.0
 10
-11.83367900612112
 20
110.5461673376395
 30
0.0
  0
SPLINE
  5
158
330
1F
100
AcDbEntity
  8
0
  6
Continuous
 62
     7
370
    25
100
AcDbSpline
210
0.0
220
0.0
230
1.0
 70
     8
 71
     3
 72
    15
 73
    11
 74
     0
 42
0.00000001
 43
0.00000001
 40
0.0
 40
0.0
 40
0.0
 40
0.0
 40
0.1348068327792167
 40
0.2641990558543181
 40
0.3884618167279414
 40
0.5099420983643697
 40
0.6304096106127718
 40
0.7506710345119795
 40
0.8734547255294222
 40
1.0
 40
1.0
 40
1.0
 40
1.0
 10
-14.55265436669805
 20
113.2778630507805
 30
0.0
 10
-14.54943009223867
 20
113.1690644949032
 30
0.0
 10
-14.54311104853427
 20
112.9558373524172
 30
0.0
 10
-14.49864948846295
 20
112.6447873418847
 30
0.0
 10
-14.42258018499788
 20
112.3510314786186
 30
0.0
 10
-14.31273758978877
 20
112.0760064786503
 30
0.0
 10
-14.17650395418802
 20
111.8166583953131
 30
0.0
 10
-14.0073234004045
 20
111.5761659080277
 30
0.0
 10
-13.80793585254629
 20
111.3530890601394
 30
0.0
 10
-13.65432930103997
 20
111.2228475045476
 30
0.0
 10
-13.57636730740317
 20
111.1567442607164
 30
0.0
  0
SPLINE
  5
159
330
1F
100
AcDbEntity
  8
0
  6
Continuous
 62
     7
370
    25
100
AcDbSpline
210
0.0
220
0.0
230
1.0
 70
     8
 71
     3
 72
    23
 73
    19
 74
     0
 42
0.00000001
 43
0.00000001
 40
0.0
 40
0.0
 40
0.0
 40
0.0
 40
0.0646087354707741
 40
0.1275117897236745
 40
0.1885213083986467
 40
0.2487081790893702
 40
0.3085982651789118
 40
0.3688122491095529
 40
0.4298875018150755
 40
0.4928024479242454
 40
0.5557433321027926
 40
0.617485294839564
 40
0.6789689634380363
 40
0.7401976913545535
 40
0.8023601016976071
 40
0.866244776442733
 40
0.9317068283956893
 40
1.0
 40
1.0
 40
1.0
 40
1.0
 10
-11.86229979939035
 20
116.0413596453318
 30
0.0
 10
-11.9551759114576
 20
116.0388675707131
 30
0.0
 10
-12.13847619099377
 20
116.0339492126545
 30
0.0
 10
-12.40734431913601
 20
115.996477976503
 30
0.0
 10
-12.665467217334
 20
115.9366321531569
 30
0.0
 10
-12.91141400817426
 20
115.8499462093471
 30
0.0
 10
-13.14625064649055
 20
115.7396170038589
 30
0.0
 10
-13.37039342488641
 20
115.6060300403031
 30
0.0
 10
-13.58073842924584
 20
115.4445934162817
 30
0.0
 10
-13.7800904068913
 20
115.2639739442687
 30
0.0
 10
-13.96017211484699
 20
115.0627223435445
 30
0.0
 10
-14.11927998485532
 20
114.8470470269397
 30
0.0
 10
-14.25242764489747
 20
114.6173081686547
 30
0.0
 10
-14.3639396442872
 20
114.3756399883911
 30
0.0
 10
-14.44788346531061
 20
114.1193249913865
 30
0.0
 10
-14.50767413216603
 20
113.8503709208281
 30
0.0
 10
-14.54545960178121
 20
113.5683143554272
 30
0.0
 10
-14.55022250716893
 20
113.3760367619603
 30
0.0
 10
-14.55265436669805
 20
113.2778630507805
 30
0.0
  0
SPLINE
  5
15D
330
1F
100
AcDbEntity
  8
0
  6
Continuous
 62
     7
370
    25
100
AcDbSpline
210
0.0
220
0.0
230
1.0
 70
     8
 71
     3
 72
    23
 73
    19
 74
     0
 42
0.00000001
 43
0.00000001
 40
0.0
 40
0.0
 40
0.0
 40
0.0
 40
0.0637689599577413
 40
0.1252623047603791
 40
0.1854135826663944
 40
0.246806762496089
 40
0.3094223888496963
 40
0.37253268221701
 40
0.4377332507368596
 40
0.5057495167426356
 40
0.5440132631112728
 40
0.5883695992066308
 40
0.6403890193945116
 40
0.6978974005877093
 40
0.7632716192950982
 40
0.8349786038393124
 40
0.9138736558434376
 40
1.0
 40
1.0
 40
1.0
 40
1.0
 10
-18.52140436669805
 20
115.0269115283446
 30
0.0
 10
-18.5230203327957
 20
115.0689782625287
 30
0.0
 10
-18.52619459873857
 20
115.1516105664135
 30
0.0
 10
-18.55769317831866
 20
115.2705721095574
 30
0.0
 10
-18.60783211311881
 20
115.3806791569086
 30
0.0
 10
-18.67655885998193
 20
115.4814342175508
 30
0.0
 10
-18.76311126260303
 20
115.5697630590218
 30
0.0
 10
-18.86243697337764
 20
115.6476256362193
 30
0.0
 10
-18.97667968087983
 20
115.7091935362558
 30
0.0
 10
-19.0824598311352
 20
115.7498030675805
 30
0.0
 10
-19.17869504264437
 20
115.774100169102
 30
0.0
 10
-19.26554428486004
 20
115.7922061542776
 30
0.0
 10
-19.36611623024419
 20
115.8050383856632
 30
0.0
 10
-19.48048680511773
 20
115.818649251214
 30
0.0
 10
-19.60836447499314
 20
115.8274752085606
 30
0.0
 10
-19.75044624965591
 20
115.8339163981972
 30
0.0
 10
-19.9063240713073
 20
115.8365518053123
 30
0.0
 10
-20.01498571764217
 20
115.8373942985311
 30
0.0
 10
-20.07169733544805
 20
115.8378340043062
 30
0.0
  0
SPLINE
  5
15E
330
1F
100
AcDbEntity
  8
0
  6
Continuous
 62
     7
370
    25
100
AcDbSpline
210
0.0
220
0.0
230
1.0
 70
     8
 71
     3
 72
    23
 73
    19
 74
     0
 42
0.00000001
 43
0.00000001
 40
0.0
 40
0.0
 40
0.0
 40
0.0
 40
0.1055399964402578
 40
0.2020864154635881
 40
0.2906848989424226
 40
0.3705526096211916
 40
0.4426702615663772
 40
0.5076749275738746
 40
0.5655732034810493
 40
0.6164546657486226
 40
0.6633313570051066
 40
0.7088620244966158
 40
0.7534118003496303
 40
0.7985150107871105
 40
0.845064321440119
 40
0.8938731190084035
 40
0.9447078060036562
 40
1.0
 40
1.0
 40
1.0
 40
1.0
 10
-20.00173539634549
 20
114.209628876101
 30
0.0
 10
-19.9338911557438
 20
114.210392983537
 30
0.0
 10
-19.80398401290242
 20
114.2118560850908
 30
0.0
 10
-19.61716047933625
 20
114.2186425565645
 30
0.0
 10
-19.44748015581765
 20
114.2349945993753
 30
0.0
 10
-19.2942143777752
 20
114.2556547943326
 30
0.0
 10
-19.15659192573984
 20
114.2795099730252
 30
0.0
 10
-19.03584034343205
 20
114.3136958924411
 30
0.0
 10
-18.93009903327087
 20
114.3503269704888
 30
0.0
 10
-18.84062103374089
 20
114.3958498983306
 30
0.0
 10
-18.76417308692272
 20
114.4476193407998
 30
0.0
 10
-18.69816517786777
 20
114.5064307143619
 30
0.0
 10
-18.64356717269807
 20
114.5744973906638
 30
0.0
 10
-18.59863022956276
 20
114.6499696110644
 30
0.0
 10
-18.5636741734046
 20
114.7335149087711
 30
0.0
 10
-18.53815893036474
 20
114.8242161457172
 30
0.0
 10
-18.52389968267551
 20
114.9231065256619
 30
0.0
 10
-18.52225910765799
 20
114.9913543530445
 30
0.0
 10
-18.52140436669805
 20
115.0269115283446
 30
0.0
  0
LINE
  5
165
330
1F
100
AcDbEntity
  8
0
  6
Continuous
 62
     7
370
    25
100
AcDbLine
 10
-36.0152206732
 20
-58.571616416
 30
0.0
 11
-36.0152206732
 21
-63.2484660421
 31
0.0
  0
LINE
  5
166
330
1F
100
AcDbEntity
  8
0
  6
Continuous
 62
     7
370
    25
100
AcDbLine
 10
-33.199782639
 20
-63.2484660421
 30
0.0
 11
-36.0152206732
 21
-58.571616416
 31
0.0
  0
LINE
  5
167
330
1F
100
AcDbEntity
  8
0
  6
Continuous
 62
     7
370
    25
100
AcDbLine
 10
-31.0627634082
 20
-63.2484660421
 30
0.0
 11
-33.199782639
 21
-63.2484660421
 31
0.0
  0
LINE
  5
168
330
1F
100
AcDbEntity
  8
0
  6
Continuous
 62
     7
370
    25
100
AcDbLine
 10
-34.6159818911
 20
-57.3462224524
 30
0.0
 11
-31.0627634082
 21
-63.2484660421
 31
0.0
  0
LINE
  5
169
330
1F
100
AcDbEntity
  8
0
  6
Continuous
 62
     7
370
    25
100
AcDbLine
 10
-31.3786521636
 20
-52.6651327088
 30
0.0
 11
-34.6159818911
 21
-57.3462224524
 31
0.0
  0
LINE
  5
16A
330
1F
100
AcDbEntity
  8
0
  6
Continuous
 62
     7
370
    25
100
AcDbLine
 10
-33.6216743324
 20
-52.6651327088
 30
0.0
 11
-31.3786521636
 21
-52.6651327088
 31
0.0
  0
LINE
  5
16B
330
1F
100
AcDbEntity
  8
0
  6
Continuous
 62
     7
370
    25
100
AcDbLine
 10
-36.0152206732
 20
-56.1229485474
 30
0.0
 11
-33.6216743324
 21
-52.6651327088
 31
0.0
  0
LINE
  5
16C
330
1F
100
AcDbEntity
  8
0
  6
Continuous
 62
     7
370
    25
100
AcDbLine
 10
-36.0152206732
 20
-52.6651327088
 30
0.0
 11
-36.0152206732
 21
-56.1229485474
 31
0.0
  0
LINE
  5
16D
330
1F
100
AcDbEntity
  8
0
  6
Continuous
 62
     7
370
    25
100
AcDbLine
 10
-37.7791095621
 20
-52.6651327088
 30
0.0
 11
-36.0152206732
 21
-52.6651327088
 31
0.0
  0
LINE
  5
16E
330
1F
100
AcDbEntity
  8
0
  6
Continuous
 62
     7
370
    25
100
AcDbLine
 10
-37.7791095621
 20
-63.2484660421
 30
0.0
 11
-37.7791095621
 21
-52.6651327088
 31
0.0
  0
LINE
  5
16F
330
1F
100
AcDbEntity
  8
0
  6
Continuous
 62
     7
370
    25
100
AcDbLine
 10
-36.0152206732
 20
-63.2484660421
 30
0.0
 11
-37.7791095621
 21
-63.2484660421
 31
0.0
  0
LINE
  5
170
330
1F
100
AcDbEntity
  8
0
  6
Continuous
 62
     7
370
    25
100
AcDbLine
 10
-24.8891522971
 20
-61.3488933925
 30
0.0
 11
-24.8891522971
 21
-63.2484660421
 31
0.0
  0
LINE
  5
171
330
1F
100
AcDbEntity
  8
0
  6
Continuous
 62
     7
370
    25
100
AcDbLine
 10
-28.0098787928
 20
-61.3488933925
 30
0.0
 11
-24.8891522971
 21
-61.3488933925
 31
0.0
  0
LINE
  5
172
330
1F
100
AcDbEntity
  8
0
  6
Continuous
 62
     7
370
    25
100
AcDbLine
 10
-28.0098787928
 20
-58.4995344182
 30
0.0
 11
-28.0098787928
 21
-61.3488933925
 31
0.0
  0
LINE
  5
173
330
1F
100
AcDbEntity
  8
0
  6
Continuous
 62
     7
370
    25
100
AcDbLine
 10
-24.8891522971
 20
-58.4995344182
 30
0.0
 11
-28.0098787928
 21
-58.4995344182
 31
0.0
  0
LINE
  5
174
330
1F
100
AcDbEntity
  8
0
  6
Continuous
 62
     7
370
    25
100
AcDbLine
 10
-24.8891522971
 20
-56.5999617686
 30
0.0
 11
-24.8891522971
 21
-58.4995344182
 31
0.0
  0
LINE
  5
175
330
1F
100
AcDbEntity
  8
0
  6
Continuous
 62
     7
370
    25
100
AcDbLine
 10
-28.0098787928
 20
-56.5999617686
 30
0.0
 11
-24.8891522971
 21
-56.5999617686
 31
0.0
  0
LINE
  5
176
330
1F
100
AcDbEntity
  8
0
  6
Continuous
 62
     7
370
    25
100
AcDbLine
 10
-28.0098787928
 20
-54.5647053583
 30
0.0
 11
-28.0098787928
 21
-56.5999617686
 31
0.0
  0
LINE
  5
177
330
1F
100
AcDbEntity
  8
0
  6
Continuous
 62
     7
370
    25
100
AcDbLine
 10
-24.8891522971
 20
-54.5647053583
 30
0.0
 11
-28.0098787928
 21
-54.5647053583
 31
0.0
  0
LINE
  5
178
330
1F
100
AcDbEntity
  8
0
  6
Continuous
 62
     7
370
    25
100
AcDbLine
 10
-24.8891522971
 20
-52.6651327088
 30
0.0
 11
-24.8891522971
 21
-54.5647053583
 31
0.0
  0
LINE
  5
179
330
1F
100
AcDbEntity
  8
0
  6
Continuous
 62
     7
370
    25
100
AcDbLine
 10
-29.7737676817
 20
-52.6651327088
 30
0.0
 11
-24.8891522971
 21
-52.6651327088
 31
0.0
  0
LINE
  5
17A
330
1F
100
AcDbEntity
  8
0
  6
Continuous
 62
     7
370
    25
100
AcDbLine
 10
-29.7737676817
 20
-63.2484660421
 30
0.0
 11
-29.7737676817
 21
-52.6651327088
 31
0.0
  0
LINE
  5
17B
330
1F
100
AcDbEntity
  8
0
  6
Continuous
 62
     7
370
    25
100
AcDbLine
 10
-24.8891522971
 20
-63.2484660421
 30
0.0
 11
-29.7737676817
 21
-63.2484660421
 31
0.0
  0
LINE
  5
17C
330
1F
100
AcDbEntity
  8
0
  6
Continuous
 62
     7
370
    25
100
AcDbLine
 10
-18.7833830664
 20
-61.3488933925
 30
0.0
 11
-18.7833830664
 21
-63.2484660421
 31
0.0
  0
LINE
  5
17D
330
1F
100
AcDbEntity
  8
0
  6
Continuous
 62
     7
370
    25
100
AcDbLine
 10
-21.3613745193
 20
-61.3488933925
 30
0.0
 11
-18.7833830664
 21
-61.3488933925
 31
0.0
  0
LINE
  5
17E
330
1F
100
AcDbEntity
  8
0
  6
Continuous
 62
     7
370
    25
100
AcDbLine
 10
-21.3613745193
 20
-52.6651327088
 30
0.0
 11
-21.3613745193
 21
-61.3488933925
 31
0.0
  0
LINE
  5
17F
330
1F
100
AcDbEntity
  8
0
  6
Continuous
 62
     7
370
    25
100
AcDbLine
 10
-23.1252634082
 20
-52.6651327088
 30
0.0
 11
-21.3613745193
 21
-52.6651327088
 31
0.0
  0
LINE
  5
180
330
1F
100
AcDbEntity
  8
0
  6
Continuous
 62
     7
370
    25
100
AcDbLine
 10
-23.1252634082
 20
-63.2484660421
 30
0.0
 11
-23.1252634082
 21
-52.6651327088
 31
0.0
  0
LINE
  5
181
330
1F
100
AcDbEntity
  8
0
  6
Continuous
 62
     7
370
    25
100
AcDbLine
 10
-18.7833830664
 20
-63.2484660421
 30
0.0
 11
-23.1252634082
 21
-63.2484660421
 31
0.0
  0
LINE
  5
182
330
1F
100
AcDbEntity
  8
0
  6
Continuous
 62
     7
370
    25
100
AcDbLine
 10
62.0
 20
92.0
 30
0.0
 11
72.9651116566
 21
92.0
 31
0.0
  0
LINE
  5
183
330
1F
100
AcDbEntity
  8
0
  6
Continuous
 62
     7
370
    25
100
AcDbLine
 10
57.0
 20
67.0
 30
0.0
 11
57.0
 21
87.0
 31
0.0
  0
LINE
  5
184
330
1F
100
AcDbEntity
  8
0
  6
Continuous
 62
     7
370
    25
100
AcDbLine
 10
56.99
 20
67.0
 30
0.0
 11
57.0
 21
67.0
 31
0.0
  0
LINE
  5
185
330
1F
100
AcDbEntity
  8
0
  6
Continuous
 62
     7
370
    25
100
AcDbLine
 10
56.99
 20
54.0
 30
0.0
 11
56.99
 21
67.0
 31
0.0
  0
LINE
  5
186
330
1F
100
AcDbEntity
  8
0
  6
Continuous
 62
     7
370
    25
100
AcDbLine
 10
56.97
 20
54.0
 30
0.0
 11
56.99
 21
54.0
 31
0.0
  0
LINE
  5
187
330
1F
100
AcDbEntity
  8
0
  6
Continuous
 62
     7
370
    25
100
AcDbLine
 10
56.97
 20
37.0
 30
0.0
 11
56.97
 21
54.0
 31
0.0
  0
LINE
  5
188
330
1F
100
AcDbEntity
  8
0
  6
Continuous
 62
     7
370
    25
100
AcDbLine
 10
56.98
 20
37.0
 30
0.0
 11
56.97
 21
37.0
 31
0.0
  0
LINE
  5
189
330
1F
100
AcDbEntity
  8
0
  6
Continuous
 62
     7
370
    25
100
AcDbLine
 10
56.98
 20
-18.0
 30
0.0
 11
56.98
 21
37.0
 31
0.0
  0
LINE
  5
18A
330
1F
100
AcDbEntity
  8
0
  6
Continuous
 62
     7
370
    25
100
AcDbLine
 10
56.96
 20
-18.0
 30
0.0
 11
56.98
 21
-18.0
 31
0.0
  0
LINE
  5
18B
330
1F
100
AcDbEntity
  8
0
  6
Continuous
 62
     7
370
    25
100
AcDbLine
 10
56.96
 20
-31.0
 30
0.0
 11
56.96
 21
-18.0
 31
0.0
  0
LINE
  5
18C
330
1F
100
AcDbEntity
  8
0
  6
Continuous
 62
     7
370
    25
100
AcDbLine
 10
54.0
 20
-31.0
 30
0.0
 11
56.96
 21
-31.0
 31
0.0
  0
LINE
  5
18D
330
1F
100
AcDbEntity
  8
0
  6
Continuous
 62
     7
370
    25
100
AcDbLine
 10
54.0
 20
-43.0
 30
0.0
 11
54.0
 21
-31.0
 31
0.0
  0
LINE
  5
18E
330
1F
100
AcDbEntity
  8
0
  6
Continuous
 62
     7
370
    25
100
AcDbLine
 10
56.95
 20
-43.0
 30
0.0
 11
54.0
 21
-43.0
 31
0.0
  0
LINE
  5
18F
330
1F
100
AcDbEntity
  8
0
  6
Continuous
 62
     7
370
    25
100
AcDbLine
 10
56.95
 20
-62.0
 30
0.0
 11
56.95
 21
-43.0
 31
0.0
  0
LINE
  5
190
330
1F
100
AcDbEntity
  8
0
  6
Continuous
 62
     7
370
    25
100
AcDbLine
 10
46.95
 20
-72.0
 30
0.0
 11
-46.95
 21
-72.0
 31
0.0
  0
LINE
  5
191
330
1F
100
AcDbEntity
  8
0
  6
Continuous
 62
     7
370
    25
100
AcDbLine
 10
-56.95
 20
-43.0
 30
0.0
 11
-56.95
 21
-62.0
 31
0.0
  0
LINE
  5
192
330
1F
100
AcDbEntity
  8
0
  6
Continuous
 62
     7
370
    25
100
AcDbLine
 10
-54.0
 20
-43.0
 30
0.0
 11
-56.95
 21
-43.0
 31
0.0
  0
LINE
  5
193
330
1F
100
AcDbEntity
  8
0
  6
Continuous
 62
     7
370
    25
100
AcDbLine
 10
-54.0
 20
-31.0
 30
0.0
 11
-54.0
 21
-43.0
 31
0.0
  0
LINE
  5
194
330
1F
100
AcDbEntity
  8
0
  6
Continuous
 62
     7
370
    25
100
AcDbLine
 10
-56.96
 20
-31.0
 30
0.0
 11
-54.0
 21
-31.0
 31
0.0
  0
LINE
  5
195
330
1F
100
AcDbEntity
  8
0
  6
Continuous
 62
     7
370
    25
100
AcDbLine
 10
-56.96
 20
-18.0
 30
0.0
 11
-56.96
 21
-31.0
 31
0.0
  0
LINE
  5
196
330
1F
100
AcDbEntity
  8
0
  6
Continuous
 62
     7
370
    25
100
AcDbLine
 10
-56.97
 20
-18.0
 30
0.0
 11
-56.96
 21
-18.0
 31
0.0
  0
LINE
  5
197
330
1F
100
AcDbEntity
  8
0
  6
Continuous
 62
     7
370
    25
100
AcDbLine
 10
-56.97
 20
18.0
 30
0.0
 11
-56.97
 21
-18.0
 31
0.0
  0
LINE
  5
198
330
1F
100
AcDbEntity
  8
0
  6
Continuous
 62
     7
370
    25
100
AcDbLine
 10
-56.98
 20
18.0
 30
0.0
 11
-56.97
 21
18.0
 31
0.0
  0
LINE
  5
199
330
1F
100
AcDbEntity
  8
0
  6
Continuous
 62
     7
370
    25
100
AcDbLine
 10
-56.98
 20
35.0
 30
0.0
 11
-56.98
 21
18.0
 31
0.0
  0
LINE
  5
19A
330
1F
100
AcDbEntity
  8
0
  6
Continuous
 62
     7
370
    25
100
AcDbLine
 10
-56.99
 20
35.0
 30
0.0
 11
-56.98
 21
35.0
 31
0.0
  0
LINE
  5
19B
330
1F
100
AcDbEntity
  8
0
  6
Continuous
 62
     7
370
    25
100
AcDbLine
 10
-56.99
 20
43.8392746663
 30
0.0
 11
-56.99
 21
35.0
 31
0.0
  0
LINE
  5
19C
330
1F
100
AcDbEntity
  8
0
  6
Continuous
 62
     7
370
    25
100
AcDbLine
 10
-57.0
 20
43.8388501434
 30
0.0
 11
-56.99
 21
43.8392746663
 31
0.0
  0
LINE
  5
19D
330
1F
100
AcDbEntity
  8
0
  6
Continuous
 62
     7
370
    25
100
AcDbLine
 10
-57.0
 20
88.0
 30
0.0
 11
-57.0
 21
43.8388501434
 31
0.0
  0
LINE
  5
19E
330
1F
100
AcDbEntity
  8
0
  6
Continuous
 62
     7
370
    25
100
AcDbLine
 10
-72.8603906208
 20
93.0
 30
0.0
 11
-62.0
 21
93.0
 31
0.0
  0
LINE
  5
19F
330
1F
100
AcDbEntity
  8
0
  6
Continuous
 62
     7
370
    25
100
AcDbLine
 10
24.6260315307
 20
114.5324078224
 30
0.0
 11
24.6260315307
 21
109.3250134915
 31
0.0
  0
LINE
  5
1A0
330
1F
100
AcDbEntity
  8
0
  6
Continuous
 62
     7
370
    25
100
AcDbLine
 10
28.217941086
 20
109.3250134915
 30
0.0
 11
24.6260315307
 21
114.5324078224
 31
0.0
  0
LINE
  5
1A1
330
1F
100
AcDbEntity
  8
0
  6
Continuous
 62
     7
370
    25
100
AcDbLine
 10
29.5106469154
 20
109.3250134915
 30
0.0
 11
28.217941086
 21
109.3250134915
 31
0.0
  0
LINE
  5
1A2
330
1F
100
AcDbEntity
  8
0
  6
Continuous
 62
     7
370
    25
100
AcDbLine
 10
29.5106469154
 20
117.2625134915
 30
0.0
 11
29.5106469154
 21
109.3250134915
 31
0.0
  0
LINE
  5
1A3
330
1F
100
AcDbEntity
  8
0
  6
Continuous
 62
     7
370
    25
100
AcDbLine
 10
28.0859674282
 20
117.2625134915
 30
0.0
 11
29.5106469154
 21
117.2625134915
 31
0.0
  0
LINE
  5
1A4
330
1F
100
AcDbEntity
  8
0
  6
Continuous
 62
     7
370
    25
100
AcDbLine
 10
28.0859674282
 20
112.0392187199
 30
0.0
 11
28.0859674282
 21
117.2625134915
 31
0.0
  0
LINE
  5
1A5
330
1F
100
AcDbEntity
  8
0
  6
Continuous
 62
     7
370
    25
100
AcDbLine
 10
24.4845176085
 20
117.2625134915
 30
0.0
 11
28.0859674282
 21
112.0392187199
 31
0.0
  0
LINE
  5
1A6
330
1F
100
AcDbEntity
  8
0
  6
Continuous
 62
     7
370
    25
100
AcDbLine
 10
23.2013520436
 20
117.2625134915
 30
0.0
 11
24.4845176085
 21
117.2625134915
 31
0.0
  0
LINE
  5
1A7
330
1F
100
AcDbEntity
  8
0
  6
Continuous
 62
     7
370
    25
100
AcDbLine
 10
23.2013520436
 20
109.3250134915
 30
0.0
 11
23.2013520436
 21
117.2625134915
 31
0.0
  0
LINE
  5
1A8
330
1F
100
AcDbEntity
  8
0
  6
Continuous
 62
     7
370
    25
100
AcDbLine
 10
24.6260315307
 20
109.3250134915
 30
0.0
 11
23.2013520436
 21
109.3250134915
 31
0.0
  0
LINE
  5
1A9
330
1F
100
AcDbEntity
  8
0
  6
Continuous
 62
     7
370
    25
100
AcDbLine
 10
36.9571602
 20
-43.9474498439
 30
0.0
 11
32.95
 21
-43.9474498439
 31
0.0
  0
LINE
  5
1AA
330
1F
100
AcDbEntity
  8
0
  6
Continuous
 62
     7
370
    25
100
AcDbLine
 10
36.9571602
 20
-31.0
 30
0.0
 11
36.9571602
 21
-43.9474498439
 31
0.0
  0
LINE
  5
1AB
330
1F
100
AcDbEntity
  8
0
  6
Continuous
 62
     7
370
    25
100
AcDbLine
 10
32.95
 20
-31.0
 30
0.0
 11
36.9571602
 21
-31.0
 31
0.0
  0
LINE
  5
1AC
330
1F
100
AcDbEntity
  8
0
  6
Continuous
 62
     7
370
    25
100
AcDbLine
 10
32.95
 20
-43.9474498439
 30
0.0
 11
32.95
 21
-31.0
 31
0.0
  0
LINE
  5
1AD
330
1F
100
AcDbEntity
  8
0
  6
Continuous
 62
     7
370
    25
100
AcDbLine
 10
-32.95
 20
-43.9474498439
 30
0.0
 11
-36.9571602
 21
-43.9474498439
 31
0.0
  0
LINE
  5
1AE
330
1F
100
AcDbEntity
  8
0
  6
Continuous
 62
     7
370
    25
100
AcDbLine
 10
-32.95
 20
-31.0
 30
0.0
 11
-32.95
 21
-43.9474498439
 31
0.0
  0
LINE
  5
1AF
330
1F
100
AcDbEntity
  8
0
  6
Continuous
 62
     7
370
    25
100
AcDbLine
 10
-36.9571602
 20
-31.0
 30
0.0
 11
-32.95
 21
-31.0
 31
0.0
  0
LINE
  5
1B0
330
1F
100
AcDbEntity
  8
0
  6
Continuous
 62
     7
370
    25
100
AcDbLine
 10
-36.9571602
 20
-43.9474498439
 30
0.0
 11
-36.9571602
 21
-31.0
 31
0.0
  0
LINE
  5
1B1
330
1F
100
AcDbEntity
  8
0
  6
Continuous
 62
     7
370
    25
100
AcDbLine
 10
63.9227049501
 20
100.7744338745
 30
0.0
 11
38.9226869404
 21
113.7744338745
 31
0.0
  0
LINE
  5
1B2
330
1F
100
AcDbEntity
  8
0
  6
Continuous
 62
     7
370
    25
100
AcDbLine
 10
62.0772950499
 20
97.2255661255
 30
0.0
 11
37.0772770403
 21
110.2255661255
 31
0.0
  0
LINE
  5
1B3
330
1F
100
AcDbEntity
  8
0
  6
Continuous
 62
     7
370
    25
100
AcDbLine
 10
-36.930603123
 20
113.8920715551
 30
0.0
 11
-63.9159190555
 21
100.9028342009
 31
0.0
  0
LINE
  5
1B4
330
1F
100
AcDbEntity
  8
0
  6
Continuous
 62
     7
370
    25
100
AcDbLine
 10
-35.195741025
 20
110.2878721293
 30
0.0
 11
-62.1810569575
 21
97.2986347751
 31
0.0
  0
LINE
  5
1B5
330
1F
100
AcDbEntity
  8
0
  6
Continuous
 62
     7
370
    25
100
AcDbLine
 10
16.4341244795
 20
110.9532186197
 30
0.0
 11
15.8171873801
 21
109.3250134915
 31
0.0
  0
LINE
  5
1B6
330
1F
100
AcDbEntity
  8
0
  6
Continuous
 62
     7
370
    25
100
AcDbLine
 10
19.8924703328
 20
110.9532186197
 30
0.0
 11
16.4341244795
 21
110.9532186197
 31
0.0
  0
LINE
  5
1B7
330
1F
100
AcDbEntity
  8
0
  6
Continuous
 62
     7
370
    25
100
AcDbLine
 10
20.5094074322
 20
109.3250134915
 30
0.0
 11
19.8924703328
 21
110.9532186197
 31
0.0
  0
LINE
  5
1B8
330
1F
100
AcDbEntity
  8
0
  6
Continuous
 62
     7
370
    25
100
AcDbLine
 10
22.0310796077
 20
109.3250134915
 30
0.0
 11
20.5094074322
 21
109.3250134915
 31
0.0
  0
LINE
  5
1B9
330
1F
100
AcDbEntity
  8
0
  6
Continuous
 62
     7
370
    25
100
AcDbLine
 10
18.8255507615
 20
117.2625134915
 30
0.0
 11
22.0310796077
 21
109.3250134915
 31
0.0
  0
LINE
  5
1BA
330
1F
100
AcDbEntity
  8
0
  6
Continuous
 62
     7
370
    25
100
AcDbLine
 10
17.5042241389
 20
117.2625134915
 30
0.0
 11
18.8255507615
 21
117.2625134915
 31
0.0
  0
LINE
  5
1BB
330
1F
100
AcDbEntity
  8
0
  6
Continuous
 62
     7
370
    25
100
AcDbLine
 10
14.2971052487
 20
109.3250134915
 30
0.0
 11
17.5042241389
 21
117.2625134915
 31
0.0
  0
LINE
  5
1BC
330
1F
100
AcDbEntity
  8
0
  6
Continuous
 62
     7
370
    25
100
AcDbLine
 10
15.8171873801
 20
109.3250134915
 30
0.0
 11
14.2971052487
 21
109.3250134915
 31
0.0
  0
LINE
  5
1BD
330
1F
100
AcDbEntity
  8
0
  6
Continuous
 62
     7
370
    25
100
AcDbLine
 10
8.7510315307
 20
110.8117046974
 30
0.0
 11
10.0039862583
 21
111.5637955428
 31
0.0
  0
LINE
  5
1BE
330
1F
100
AcDbEntity
  8
0
  6
Continuous
 62
     7
370
    25
100
AcDbLine
 10
13.4321212743
 20
116.2019540965
 30
0.0
 11
12.3667917471
 21
115.2272570812
 31
0.0
  0
LINE
  5
1BF
330
1F
100
AcDbEntity
  8
0
  6
Continuous
 62
     7
370
    25
100
AcDbLine
 10
-6.3098659052
 20
117.2625134915
 30
0.0
 11
-5.0378306487
 21
117.2625134915
 31
0.0
  0
LINE
  5
1C0
330
1F
100
AcDbEntity
  8
0
  6
Continuous
 62
     7
370
    25
100
AcDbLine
 10
-6.3098659052
 20
109.3250134915
 30
0.0
 11
-6.3098659052
 21
117.2625134915
 31
0.0
  0
LINE
  5
1C1
330
1F
100
AcDbEntity
  8
0
  6
Continuous
 62
     7
370
    25
100
AcDbLine
 10
-4.0774440302
 20
109.3250134915
 30
0.0
 11
-6.3098659052
 21
109.3250134915
 31
0.0
  0
LINE
  5
1C2
330
1F
100
AcDbEntity
  8
0
  6
Continuous
 62
     7
370
    25
100
AcDbLine
 10
-20.556660777
 20
112.7849493889
 30
0.0
 11
-20.556660777
 21
109.3250134915
 31
0.0
  0
LINE
  5
1C3
330
1F
100
AcDbEntity
  8
0
  6
Continuous
 62
     7
370
    25
100
AcDbLine
 10
-20.0732873795
 20
112.7849493889
 30
0.0
 11
-20.556660777
 21
112.7849493889
 31
0.0
  0
LINE
  5
1C4
330
1F
100
AcDbEntity
  8
0
  6
Continuous
 62
     7
370
    25
100
AcDbLine
 10
-18.324238902
 20
109.3250134915
 30
0.0
 11
-20.0732873795
 21
112.7849493889
 31
0.0
  0
LINE
  5
1C5
330
1F
100
AcDbEntity
  8
0
  6
Continuous
 62
     7
370
    25
100
AcDbLine
 10
-16.7405550077
 20
109.3250134915
 30
0.0
 11
-18.324238902
 21
109.3250134915
 31
0.0
  0
LINE
  5
1C6
330
1F
100
AcDbEntity
  8
0
  6
Continuous
 62
     7
370
    25
100
AcDbLine
 10
-18.572285777
 20
112.9471338841
 30
0.0
 11
-16.7405550077
 21
109.3250134915
 31
0.0
  0
LINE
  5
1C7
330
1F
100
AcDbEntity
  8
0
  6
Continuous
 62
     7
370
    25
100
AcDbLine
 10
-21.9813402641
 20
117.2625134915
 30
0.0
 11
-20.3213342545
 21
117.2625134915
 31
0.0
  0
LINE
  5
1C8
330
1F
100
AcDbEntity
  8
0
  6
Continuous
 62
     7
370
    25
100
AcDbLine
 10
-21.9813402641
 20
109.3250134915
 30
0.0
 11
-21.9813402641
 21
117.2625134915
 31
0.0
  0
LINE
  5
1C9
330
1F
100
AcDbEntity
  8
0
  6
Continuous
 62
     7
370
    25
100
AcDbLine
 10
-20.556660777
 20
109.3250134915
 30
0.0
 11
-21.9813402641
 21
109.3250134915
 31
0.0
  0
LINE
  5
1CA
330
1F
100
AcDbEntity
  8
0
  6
Continuous
 62
     7
370
    25
100
AcDbLine
 10
-25.9500902641
 20
109.3250134915
 30
0.0
 11
-25.9500902641
 21
115.8378340043
 31
0.0
  0
LINE
  5
1CB
330
1F
100
AcDbEntity
  8
0
  6
Continuous
 62
     7
370
    25
100
AcDbLine
 10
-24.525410777
 20
109.3250134915
 30
0.0
 11
-25.9500902641
 21
109.3250134915
 31
0.0
  0
LINE
  5
1CC
330
1F
100
AcDbEntity
  8
0
  6
Continuous
 62
     7
370
    25
100
AcDbLine
 10
-24.525410777
 20
115.8378340043
 30
0.0
 11
-24.525410777
 21
109.3250134915
 31
0.0
  0
LINE
  5
1CD
330
1F
100
AcDbEntity
  8
0
  6
Continuous
 62
     7
370
    25
100
AcDbLine
 10
-23.1007312898
 20
115.8378340043
 30
0.0
 11
-24.525410777
 21
115.8378340043
 31
0.0
  0
LINE
  5
1CE
330
1F
100
AcDbEntity
  8
0
  6
Continuous
 62
     7
370
    25
100
AcDbLine
 10
-23.1007312898
 20
117.2625134915
 30
0.0
 11
-23.1007312898
 21
115.8378340043
 31
0.0
  0
LINE
  5
1CF
330
1F
100
AcDbEntity
  8
0
  6
Continuous
 62
     7
370
    25
100
AcDbLine
 10
-27.3747697513
 20
117.2625134915
 30
0.0
 11
-23.1007312898
 21
117.2625134915
 31
0.0
  0
LINE
  5
1D0
330
1F
100
AcDbEntity
  8
0
  6
Continuous
 62
     7
370
    25
100
AcDbLine
 10
-27.3747697513
 20
115.8378340043
 30
0.0
 11
-27.3747697513
 21
117.2625134915
 31
0.0
  0
LINE
  5
1D1
330
1F
100
AcDbEntity
  8
0
  6
Continuous
 62
     7
370
    25
100
AcDbLine
 10
-25.9500902641
 20
115.8378340043
 30
0.0
 11
-27.3747697513
 21
115.8378340043
 31
0.0
  0
LINE
  5
1D2
330
1F
100
AcDbEntity
  8
0
  6
Continuous
 62
     7
370
    25
100
AcDbLine
 10
36.5755912926
 20
-63.2484660421
 30
0.0
 11
36.5755912926
 21
-54.4290215977
 31
0.0
  0
LINE
  5
1D3
330
1F
100
AcDbEntity
  8
0
  6
Continuous
 62
     7
370
    25
100
AcDbLine
 10
38.3394801815
 20
-63.2484660421
 30
0.0
 11
36.5755912926
 21
-63.2484660421
 31
0.0
  0
LINE
  5
1D4
330
1F
100
AcDbEntity
  8
0
  6
Continuous
 62
     7
370
    25
100
AcDbLine
 10
38.3394801815
 20
-52.6651327088
 30
0.0
 11
38.3394801815
 21
-63.2484660421
 31
0.0
  0
LINE
  5
1D5
330
1F
100
AcDbEntity
  8
0
  6
Continuous
 62
     7
370
    25
100
AcDbLine
 10
35.6978869657
 20
-52.6651327088
 30
0.0
 11
38.3394801815
 21
-52.6651327088
 31
0.0
  0
LINE
  5
1D6
330
1F
100
AcDbEntity
  8
0
  6
Continuous
 62
     7
370
    25
100
AcDbLine
 10
34.676018643
 20
-54.4290215977
 30
0.0
 11
35.6978869657
 21
-52.6651327088
 31
0.0
  0
LINE
  5
1D7
330
1F
100
AcDbEntity
  8
0
  6
Continuous
 62
     7
370
    25
100
AcDbLine
 10
36.5755912926
 20
-54.4290215977
 30
0.0
 11
34.676018643
 21
-54.4290215977
 31
0.0
  0
LINE
  5
1D8
330
1F
100
AcDbEntity
  8
0
  6
Continuous
 62
     7
370
    25
100
AcDbLine
 10
24.7711041131
 20
-58.571616416
 30
0.0
 11
24.7711041131
 21
-63.2484660421
 31
0.0
  0
LINE
  5
1D9
330
1F
100
AcDbEntity
  8
0
  6
Continuous
 62
     7
370
    25
100
AcDbLine
 10
27.5865421473
 20
-63.2484660421
 30
0.0
 11
24.7711041131
 21
-58.571616416
 31
0.0
  0
LINE
  5
1DA
330
1F
100
AcDbEntity
  8
0
  6
Continuous
 62
     7
370
    25
100
AcDbLine
 10
29.7235613781
 20
-63.2484660421
 30
0.0
 11
27.5865421473
 21
-63.2484660421
 31
0.0
  0
LINE
  5
1DB
330
1F
100
AcDbEntity
  8
0
  6
Continuous
 62
     7
370
    25
100
AcDbLine
 10
26.1703428952
 20
-57.3462224524
 30
0.0
 11
29.7235613781
 21
-63.2484660421
 31
0.0
  0
LINE
  5
1DC
330
1F
100
AcDbEntity
  8
0
  6
Continuous
 62
     7
370
    25
100
AcDbLine
 10
29.4076726227
 20
-52.6651327088
 30
0.0
 11
26.1703428952
 21
-57.3462224524
 31
0.0
  0
LINE
  5
1DD
330
1F
100
AcDbEntity
  8
0
  6
Continuous
 62
     7
370
    25
100
AcDbLine
 10
27.1646504539
 20
-52.6651327088
 30
0.0
 11
29.4076726227
 21
-52.6651327088
 31
0.0
  0
LINE
  5
1DE
330
1F
100
AcDbEntity
  8
0
  6
Continuous
 62
     7
370
    25
100
AcDbLine
 10
24.7711041131
 20
-56.1229485474
 30
0.0
 11
27.1646504539
 21
-52.6651327088
 31
0.0
  0
LINE
  5
1DF
330
1F
100
AcDbEntity
  8
0
  6
Continuous
 62
     7
370
    25
100
AcDbLine
 10
24.7711041131
 20
-52.6651327088
 30
0.0
 11
24.7711041131
 21
-56.1229485474
 31
0.0
  0
LINE
  5
1E0
330
1F
100
AcDbEntity
  8
0
  6
Continuous
 62
     7
370
    25
100
AcDbLine
 10
23.0072152242
 20
-52.6651327088
 30
0.0
 11
24.7711041131
 21
-52.6651327088
 31
0.0
  0
LINE
  5
1E1
330
1F
100
AcDbEntity
  8
0
  6
Continuous
 62
     7
370
    25
100
AcDbLine
 10
23.0072152242
 20
-63.2484660421
 30
0.0
 11
23.0072152242
 21
-52.6651327088
 31
0.0
  0
LINE
  5
1E2
330
1F
100
AcDbEntity
  8
0
  6
Continuous
 62
     7
370
    25
100
AcDbLine
 10
24.7711041131
 20
-63.2484660421
 30
0.0
 11
23.0072152242
 21
-63.2484660421
 31
0.0
  0
LINE
  5
1E3
330
1F
100
AcDbEntity
  8
0
  6
Continuous
 62
     7
370
    25
100
AcDbLine
 10
6.7251639422
 20
-58.6352181789
 30
0.0
 11
6.7251639422
 21
-63.2484660421
 31
0.0
  0
LINE
  5
1E4
330
1F
100
AcDbEntity
  8
0
  6
Continuous
 62
     7
370
    25
100
AcDbLine
 10
4.9612750533
 20
-52.6651327088
 30
0.0
 11
6.8057261751
 21
-52.6651327088
 31
0.0
  0
LINE
  5
1E5
330
1F
100
AcDbEntity
  8
0
  6
Continuous
 62
     7
370
    25
100
AcDbLine
 10
4.9612750533
 20
-63.2484660421
 30
0.0
 11
4.9612750533
 21
-52.6651327088
 31
0.0
  0
LINE
  5
1E6
330
1F
100
AcDbEntity
  8
0
  6
Continuous
 62
     7
370
    25
100
AcDbLine
 10
6.7251639422
 20
-63.2484660421
 30
0.0
 11
4.9612750533
 21
-63.2484660421
 31
0.0
  0
LINE
  5
1E7
330
1F
100
AcDbEntity
  8
0
  6
Continuous
 62
     7
370
    25
100
AcDbLine
 10
-4.7401138356
 20
-56.5639207697
 30
0.0
 11
-5.5966175749
 21
-63.2484660421
 31
0.0
  0
LINE
  5
1E8
330
1F
100
AcDbEntity
  8
0
  6
Continuous
 62
     7
370
    25
100
AcDbLine
 10
-2.9592644766
 20
-63.2484660421
 30
0.0
 11
-4.7401138356
 21
-56.5639207697
 31
0.0
  0
LINE
  5
1E9
330
1F
100
AcDbEntity
  8
0
  6
Continuous
 62
     7
370
    25
100
AcDbLine
 10
-1.1020930023
 20
-63.2484660421
 30
0.0
 11
-2.9592644766
 21
-63.2484660421
 31
0.0
  0
LINE
  5
1EA
330
1F
100
AcDbEntity
  8
0
  6
Continuous
 62
     7
370
    25
100
AcDbLine
 10
0.6872365918
 20
-56.5639207697
 30
0.0
 11
-1.1020930023
 21
-63.2484660421
 31
0.0
  0
LINE
  5
1EB
330
1F
100
AcDbEntity
  8
0
  6
Continuous
 62
     7
370
    25
100
AcDbLine
 10
1.5437403311
 20
-63.2484660421
 30
0.0
 11
0.6872365918
 21
-56.5639207697
 31
0.0
  0
LINE
  5
1EC
330
1F
100
AcDbEntity
  8
0
  6
Continuous
 62
     7
370
    25
100
AcDbLine
 10
3.3330699251
 20
-63.2484660421
 30
0.0
 11
1.5437403311
 21
-63.2484660421
 31
0.0
  0
LINE
  5
1ED
330
1F
100
AcDbEntity
  8
0
  6
Continuous
 62
     7
370
    25
100
AcDbLine
 10
1.978352377
 20
-52.6651327088
 30
0.0
 11
3.3330699251
 21
-63.2484660421
 31
0.0
  0
LINE
  5
1EE
330
1F
100
AcDbEntity
  8
0
  6
Continuous
 62
     7
370
    25
100
AcDbLine
 10
-0.050543857
 20
-52.6651327088
 30
0.0
 11
1.978352377
 21
-52.6651327088
 31
0.0
  0
LINE
  5
1EF
330
1F
100
AcDbEntity
  8
0
  6
Continuous
 62
     7
370
    25
100
AcDbLine
 10
-2.0264386219
 20
-60.0471773135
 30
0.0
 11
-0.050543857
 21
-52.6651327088
 31
0.0
  0
LINE
  5
1F0
330
1F
100
AcDbEntity
  8
0
  6
Continuous
 62
     7
370
    25
100
AcDbLine
 10
-3.9917330931
 20
-52.6651327088
 30
0.0
 11
-2.0264386219
 21
-60.0471773135
 31
0.0
  0
LINE
  5
1F1
330
1F
100
AcDbEntity
  8
0
  6
Continuous
 62
     7
370
    25
100
AcDbLine
 10
-6.0312296208
 20
-52.6651327088
 30
0.0
 11
-3.9917330931
 21
-52.6651327088
 31
0.0
  0
LINE
  5
1F2
330
1F
100
AcDbEntity
  8
0
  6
Continuous
 62
     7
370
    25
100
AcDbLine
 10
-7.3859471689
 20
-63.2484660421
 30
0.0
 11
-6.0312296208
 21
-52.6651327088
 31
0.0
  0
LINE
  5
1F3
330
1F
100
AcDbEntity
  8
0
  6
Continuous
 62
     7
370
    25
100
AcDbLine
 10
-5.5966175749
 20
-63.2484660421
 30
0.0
 11
-7.3859471689
 21
-63.2484660421
 31
0.0
  0
LINE
  5
1F4
330
1F
100
AcDbEntity
  8
0
  6
Continuous
 62
     7
370
    25
100
AcDbLine
 10
-7.61
 20
69.61556039
 30
0.0
 11
7.61
 21
69.61556039
 31
0.0
  0
LINE
  5
1F5
330
1F
100
AcDbEntity
  8
0
  6
Continuous
 62
     7
370
    25
100
AcDbLine
 10
8.65
 20
70.65556039
 30
0.0
 11
8.65
 21
79.60703586
 31
0.0
  0
LINE
  5
1F6
330
1F
100
AcDbEntity
  8
0
  6
Continuous
 62
     7
370
    25
100
AcDbLine
 10
7.61
 20
80.64703586
 30
0.0
 11
-7.61
 21
80.64703586
 31
0.0
  0
LINE
  5
1F7
330
1F
100
AcDbEntity
  8
0
  6
Continuous
 62
     7
370
    25
100
AcDbLine
 10
-8.65
 20
79.60703586
 30
0.0
 11
-8.65
 21
70.65556039
 31
0.0
  0
LINE
  5
1F8
330
1F
100
AcDbEntity
  8
0
  6
Continuous
 62
     7
370
    25
100
AcDbLine
 10
6.7251639422
 20
-56.7356455293
 30
0.0
 11
7.2488184561
 21
-56.7356455293
 31
0.0
  0
LINE
  5
1F9
330
1F
100
AcDbEntity
  8
0
  6
Continuous
 62
     7
370
    25
100
AcDbLine
 10
6.7251639422
 20
-54.5647053583
 30
0.0
 11
6.7251639422
 21
-56.7356455293
 31
0.0
  0
LINE
  5
1FA
330
1F
100
AcDbEntity
  8
0
  6
Continuous
 62
     7
370
    25
100
AcDbLine
 10
7.1894568108
 20
-54.5647053583
 30
0.0
 11
6.7251639422
 21
-54.5647053583
 31
0.0
  0
LINE
  5
1FB
330
1F
100
AcDbEntity
  8
0
  6
Continuous
 62
     7
370
    25
100
AcDbLine
 10
19.3534453929
 20
112.3778981069
 30
0.0
 11
18.1640924282
 21
115.1334444811
 31
0.0
  0
LINE
  5
1FC
330
1F
100
AcDbEntity
  8
0
  6
Continuous
 62
     7
370
    25
100
AcDbLine
 10
16.9747394634
 20
112.3778981069
 30
0.0
 11
19.3534453929
 21
112.3778981069
 31
0.0
  0
LINE
  5
1FD
330
1F
100
AcDbEntity
  8
0
  6
Continuous
 62
     7
370
    25
100
AcDbLine
 10
18.1640924282
 20
115.1334444811
 30
0.0
 11
16.9747394634
 21
112.3778981069
 31
0.0
  0
LINE
  5
1FE
330
1F
100
AcDbEntity
  8
0
  6
Continuous
 62
     7
370
    25
100
AcDbLine
 10
-4.885186418
 20
110.7496929787
 30
0.0
 11
-4.4749550478
 21
110.7496929787
 31
0.0
  0
LINE
  5
1FF
330
1F
100
AcDbEntity
  8
0
  6
Continuous
 62
     7
370
    25
100
AcDbLine
 10
-4.885186418
 20
112.7849493889
 30
0.0
 11
-4.885186418
 21
110.7496929787
 31
0.0
  0
LINE
  5
200
330
1F
100
AcDbEntity
  8
0
  6
Continuous
 62
     7
370
    25
100
AcDbLine
 10
-4.5449169869
 20
112.7849493889
 30
0.0
 11
-4.885186418
 21
112.7849493889
 31
0.0
  0
LINE
  5
201
330
1F
100
AcDbEntity
  8
0
  6
Continuous
 62
     7
370
    25
100
AcDbLine
 10
-4.4383840342
 20
115.8378340043
 30
0.0
 11
-4.885186418
 21
115.8378340043
 31
0.0
  0
LINE
  5
202
330
1F
100
AcDbEntity
  8
0
  6
Continuous
 62
     7
370
    25
100
AcDbLine
 10
-4.885186418
 20
114.1078660556
 30
0.0
 11
-4.5067559292
 21
114.1078660556
 31
0.0
  0
LINE
  5
203
330
1F
100
AcDbEntity
  8
0
  6
Continuous
 62
     7
370
    25
100
AcDbLine
 10
-4.885186418
 20
115.8378340043
 30
0.0
 11
-4.885186418
 21
114.1078660556
 31
0.0
  0
LINE
  5
204
330
1F
100
AcDbEntity
  8
0
  6
Continuous
 62
     7
370
    25
100
AcDbLine
 10
-20.556660777
 20
115.8378340043
 30
0.0
 11
-20.556660777
 21
114.2096288761
 31
0.0
  0
LINE
  5
205
330
1F
100
AcDbEntity
  8
0
  6
Continuous
 62
     7
370
    25
100
AcDbLine
 10
-20.556660777
 20
114.2096288761
 30
0.0
 11
-20.0017353963
 21
114.2096288761
 31
0.0
  0
LINE
  5
206
330
1F
100
AcDbEntity
  8
0
  6
Continuous
 62
     7
370
    25
100
AcDbLine
 10
-20.0716973354
 20
115.8378340043
 30
0.0
 11
-20.556660777
 21
115.8378340043
 31
0.0
  0
LINE
  5
207
330
1F
100
AcDbEntity
  8
0
  6
Continuous
 62
     7
370
    25
100
AcDbLine
 10
80.0409996442
 20
-100.5104772309
 30
0.0
 11
80.0409996442
 21
-93.0
 31
0.0
  0
LINE
  5
208
330
1F
100
AcDbEntity
  8
0
  6
Continuous
 62
     7
370
    25
100
AcDbLine
 10
81.95
 20
-93.0
 30
0.0
 11
80.0409996442
 21
-93.0
 31
0.0
  0
LINE
  5
209
330
1F
100
AcDbEntity
  8
0
  6
Continuous
 62
     7
370
    25
100
AcDbLine
 10
-80.0130926224
 20
-93.0
 30
0.0
 11
-81.95
 21
-93.0
 31
0.0
  0
LINE
  5
20A
330
1F
100
AcDbEntity
  8
0
  6
Continuous
 62
     7
370
    25
100
AcDbLine
 10
-80.0130926224
 20
-93.0
 30
0.0
 11
-80.0130926224
 21
-100.564522928
 31
0.0
  0
ARC
  5
20B
330
1F
100
AcDbEntity
  8
0
  6
Continuous
 62
     7
370
    25
100
AcDbCircle
 10
72.9651116566
 20
94.0
 30
0.0
 40
2.000000000000028
100
AcDbArc
 50
269.9999999999
 51
3.9919686468
  0
ARC
  5
20C
330
1F
100
AcDbEntity
  8
0
  6
Continuous
 62
     7
370
    25
100
AcDbCircle
 10
62.0
 20
87.0
 30
0.0
 40
5.000000000000007
100
AcDbArc
 50
90.0
 51
180.0
  0
ARC
  5
20D
330
1F
100
AcDbEntity
  8
0
  6
Continuous
 62
     7
370
    25
100
AcDbCircle
 10
46.95
 20
-62.0
 30
0.0
 40
10.00000000000003
100
AcDbArc
 50
270.0
 51
0.0
  0
ARC
  5
20E
330
1F
100
AcDbEntity
  8
0
  6
Continuous
 62
     7
370
    25
100
AcDbCircle
 10
-46.95
 20
-62.0
 30
0.0
 40
10.00000000000003
100
AcDbArc
 50
180.0
 51
270.0
  0
ARC
  5
20F
330
1F
100
AcDbEntity
  8
0
  6
Continuous
 62
     7
370
    25
100
AcDbCircle
 10
-62.0
 20
88.0
 30
0.0
 40
5.000000000000014
100
AcDbArc
 50
0.0
 51
90.0
  0
ARC
  5
210
330
1F
100
AcDbEntity
  8
0
  6
Continuous
 62
     7
370
    25
100
AcDbCircle
 10
-72.8603906208
 20
95.0
 30
0.0
 40
1.999999999999979
100
AcDbArc
 50
172.048114985
 51
270.0
  0
ARC
  5
211
330
1F
100
AcDbEntity
  8
0
  6
Continuous
 62
     7
370
    25
100
AcDbCircle
 10
37.9999819903
 20
112.0
 30
0.0
 40
2.000000000000076
100
AcDbArc
 50
62.5255852684
 51
242.5255852684
  0
ARC
  5
212
330
1F
100
AcDbEntity
  8
0
  6
Continuous
 62
     7
370
    25
100
AcDbCircle
 10
63.0
 20
99.0
 30
0.0
 40
2.000000000000016
100
AcDbArc
 50
242.5255852684
 51
62.5255852684
  0
ARC
  5
213
330
1F
100
AcDbEntity
  8
0
  6
Continuous
 62
     7
370
    25
100
AcDbCircle
 10
-63.0484880065
 20
99.100734488
 30
0.0
 40
2.00000000000001
100
AcDbArc
 50
115.7035888357
 51
295.7035888357
  0
ARC
  5
214
330
1F
100
AcDbEntity
  8
0
  6
Continuous
 62
     7
370
    25
100
AcDbCircle
 10
-36.063172074
 20
112.0899718422
 30
0.0
 40
2.000000000000015
100
AcDbArc
 50
295.7035888357
 51
115.7035888357
  0
ARC
  5
215
330
1F
100
AcDbEntity
  8
0
  6
Continuous
 62
     7
370
    25
100
AcDbCircle
 10
-7.61
 20
70.65556039
 30
0.0
 40
1.039999999999996
100
AcDbArc
 50
180.0
 51
270.0
  0
ARC
  5
216
330
1F
100
AcDbEntity
  8
0
  6
Continuous
 62
     7
370
    25
100
AcDbCircle
 10
7.61
 20
70.65556039
 30
0.0
 40
1.040000000000007
100
AcDbArc
 50
270.0
 51
0.0
  0
ARC
  5
217
330
1F
100
AcDbEntity
  8
0
  6
Continuous
 62
     7
370
    25
100
AcDbCircle
 10
7.61
 20
79.60703586
 30
0.0
 40
1.039999999999997
100
AcDbArc
 50
0.0
 51
90.0
  0
ARC
  5
218
330
1F
100
AcDbEntity
  8
0
  6
Continuous
 62
     7
370
    25
100
AcDbCircle
 10
-7.61
 20
79.60703586
 30
0.0
 40
1.040000000000008
100
AcDbArc
 50
90.0
 51
180.0
  0
ARC
  5
219
330
1F
100
AcDbEntity
  8
0
  6
Continuous
 62
     7
370
    25
100
AcDbCircle
 10
65.6084689481
 20
-92.8441892228
 30
0.0
 40
16.34227383566273
100
AcDbArc
 50
332.0236029909
 51
359.4537213559
  0
ARC
  5
21A
330
1F
100
AcDbEntity
  8
0
  6
Continuous
 62
     7
370
    25
100
AcDbCircle
 10
-65.588170965
 20
-92.8407647486
 30
0.0
 40
16.36260386475226
100
AcDbArc
 50
180.5575916855
 51
208.1666189066
  0
ENDSEC
  0
SECTION
  2
OBJECTS
  0
DICTIONARY
  5
C
330
0
100
AcDbDictionary
281
     1
  3
ACAD_GROUP
350
D
  3
ACAD_LAYOUT
350
1A
  3
ACAD_MLINESTYLE
350
17
  3
ACAD_PLOTSETTINGS
350
19
  3
ACAD_PLOTSTYLENAME
350
E
  3
ACAD_SCALELIST
350
47
  3
DWGPROPS
350
21B
  0
DICTIONARY
  5
D
102
{ACAD_REACTORS
330
C
102
}
330
C
100
AcDbDictionary
281
     1
  0
DICTIONARY
  5
1A
102
{ACAD_REACTORS
330
C
102
}
330
C
100
AcDbDictionary
281
     1
  3
Layout1
350
1E
  3
Layout2
350
26
  3
Model
350
22
  0
DICTIONARY
  5
17
102
{ACAD_REACTORS
330
C
102
}
330
C
100
AcDbDictionary
281
     1
  3
Standard
350
18
  0
DICTIONARY
  5
19
102
{ACAD_REACTORS
330
C
102
}
330
C
100
AcDbDictionary
281
     1
  0
ACDBDICTIONARYWDFLT
  5
E
102
{ACAD_REACTORS
330
C
102
}
330
C
100
AcDbDictionary
281
     1
  3
Normal
350
F
100
AcDbDictionaryWithDefault
340
F
  0
DICTIONARY
  5
47
102
{ACAD_REACTORS
330
C
102
}
330
C
100
AcDbDictionary
281
     1
  3
A0
350
48
  3
A1
350
49
  3
A2
350
4A
  3
A3
350
4B
  3
A4
350
4C
  3
A5
350
4D
  3
A6
350
4E
  3
A7
350
4F
  3
A8
350
50
  3
A9
350
51
  3
B0
350
52
  3
B1
350
53
  3
B2
350
54
  3
B3
350
55
  3
B4
350
56
  3
B5
350
57
  3
B6
350
58
  0
XRECORD
  5
21B
102
{ACAD_REACTORS
330
C
102
}
330
C
100
AcDbXrecord
280
     1
  1
DWGPROPS COOKIE
  2

  3

  4

  6

  7

  8
Rizki Triamadewa
  9

300
=
301
=
302
=
303
=
304
=
305
=
306
=
307
=
308
=
309
=
 40
0.0
 41
2460461.048803808
 42
2460461.048913843
  1

 90
        0
  0
LAYOUT
  5
1E
102
{ACAD_REACTORS
330
1A
102
}
330
1A
100
AcDbPlotSettings
  1

  2
none_device
  4

  6

 40
0.0
 41
0.0
 42
0.0
 43
0.0
 44
0.0
 45
0.0
 46
0.0
 47
0.0
 48
0.0
 49
0.0
140
0.0
141
0.0
142
1.0
143
1.0
 70
   688
 72
     1
 73
     0
 74
     5
  7

 75
    16
147
1.0
148
0.0
149
0.0
100
AcDbLayout
  1
Layout1
 70
     1
 71
     1
 10
0.0
 20
0.0
 11
420.0
 21
297.0
 12
0.0
 22
0.0
 32
0.0
 14
1.0000000000E+20
 24
1.0000000000E+20
 34
1.0000000000E+20
 15
-1.0000000000E+20
 25
-1.0000000000E+20
 35
-1.0000000000E+20
146
0.0
 13
0.0
 23
0.0
 33
0.0
 16
1.0
 26
0.0
 36
0.0
 17
0.0
 27
1.0
 37
0.0
 76
     0
330
1B
  0
LAYOUT
  5
26
102
{ACAD_REACTORS
330
1A
102
}
330
1A
100
AcDbPlotSettings
  1

  2
none_device
  4

  6

 40
0.0
 41
0.0
 42
0.0
 43
0.0
 44
0.0
 45
0.0
 46
0.0
 47
0.0
 48
0.0
 49
0.0
140
0.0
141
0.0
142
1.0
143
1.0
 70
   688
 72
     1
 73
     0
 74
     5
  7

 75
    16
147
1.0
148
0.0
149
0.0
100
AcDbLayout
  1
Layout2
 70
     1
 71
     2
 10
0.0
 20
0.0
 11
0.0
 21
0.0
 12
0.0
 22
0.0
 32
0.0
 14
0.0
 24
0.0
 34
0.0
 15
0.0
 25
0.0
 35
0.0
146
0.0
 13
0.0
 23
0.0
 33
0.0
 16
1.0
 26
0.0
 36
0.0
 17
0.0
 27
1.0
 37
0.0
 76
     0
330
23
  0
LAYOUT
  5
22
102
{ACAD_REACTORS
330
1A
102
}
330
1A
100
AcDbPlotSettings
  1

  2
none_device
  4
ANSI_A_(11.00_x_8.50_Inches)
  6

 40
6.35
 41
19.05
 42
6.35000508
 43
19.05000254
 44
279.4
 45
215.9
 46
133.34999746
 47
76.0738282495
 48
0.0
 49
0.0
140
0.0
141
0.0
142
0.0368174834
143
1.0
 70
  1696
 72
     0
 73
     0
 74
     0
  7

 75
     0
147
0.0179189148
148
-1300.4909072572
149
0.0
100
AcDbLayout
  1
Model
 70
     1
 71
     0
 10
0.0
 20
0.0
 11
420.0
 21
297.0
 12
0.0
 22
0.0
 32
0.0
 14
-81.95
 24
-100.564522928
 34
0.0
 15
81.95
 25
127.9953679764
 35
0.0
146
0.0
 13
0.0
 23
0.0
 33
0.0
 16
1.0
 26
0.0
 36
0.0
 17
0.0
 27
1.0
 37
0.0
 76
     0
330
1F
331
29
  0
MLINESTYLE
  5
18
102
{ACAD_REACTORS
330
17
102
}
330
17
100
AcDbMlineStyle
  2
Standard
 70
     0
  3

 62
   256
 51
90.0
 52
90.0
 71
     2
 49
0.5
 62
   256
  6
BYLAYER
 49
-0.5
 62
   256
  6
BYLAYER
  0
ACDBPLACEHOLDER
  5
F
102
{ACAD_REACTORS
330
E
102
}
330
E
  0
SCALE
  5
48
102
{ACAD_REACTORS
330
47
102
}
330
47
100
AcDbScale
 70
     0
300
1:1
140
1.0
141
1.0
290
     1
  0
SCALE
  5
49
102
{ACAD_REACTORS
330
47
102
}
330
47
100
AcDbScale
 70
     0
300
1:2
140
1.0
141
2.0
290
     0
  0
SCALE
  5
4A
102
{ACAD_REACTORS
330
47
102
}
330
47
100
AcDbScale
 70
     0
300
1:4
140
1.0
141
4.0
290
     0
  0
SCALE
  5
4B
102
{ACAD_REACTORS
330
47
102
}
330
47
100
AcDbScale
 70
     0
300
1:5
140
1.0
141
5.0
290
     0
  0
SCALE
  5
4C
102
{ACAD_REACTORS
330
47
102
}
330
47
100
AcDbScale
 70
     0
300
1:8
140
1.0
141
8.0
290
     0
  0
SCALE
  5
4D
102
{ACAD_REACTORS
330
47
102
}
330
47
100
AcDbScale
 70
     0
300
1:10
140
1.0
141
10.0
290
     0
  0
SCALE
  5
4E
102
{ACAD_REACTORS
330
47
102
}
330
47
100
AcDbScale
 70
     0
300
1:16
140
1.0
141
16.0
290
     0
  0
SCALE
  5
4F
102
{ACAD_REACTORS
330
47
102
}
330
47
100
AcDbScale
 70
     0
300
1:20
140
1.0
141
20.0
290
     0
  0
SCALE
  5
50
102
{ACAD_REACTORS
330
47
102
}
330
47
100
AcDbScale
 70
     0
300
1:30
140
1.0
141
30.0
290
     0
  0
SCALE
  5
51
102
{ACAD_REACTORS
330
47
102
}
330
47
100
AcDbScale
 70
     0
300
1:40
140
1.0
141
40.0
290
     0
  0
SCALE
  5
52
102
{ACAD_REACTORS
330
47
102
}
330
47
100
AcDbScale
 70
     0
300
1:50
140
1.0
141
50.0
290
     0
  0
SCALE
  5
53
102
{ACAD_REACTORS
330
47
102
}
330
47
100
AcDbScale
 70
     0
300
1:100
140
1.0
141
100.0
290
     0
  0
SCALE
  5
54
102
{ACAD_REACTORS
330
47
102
}
330
47
100
AcDbScale
 70
     0
300
2:1
140
2.0
141
1.0
290
     0
  0
SCALE
  5
55
102
{ACAD_REACTORS
330
47
102
}
330
47
100
AcDbScale
 70
     0
300
4:1
140
4.0
141
1.0
290
     0
  0
SCALE
  5
56
102
{ACAD_REACTORS
330
47
102
}
330
47
100
AcDbScale
 70
     0
300
8:1
140
8.0
141
1.0
290
     0
  0
SCALE
  5
57
102
{ACAD_REACTORS
330
47
102
}
330
47
100
AcDbScale
 70
     0
300
10:1
140
10.0
141
1.0
290
     0
  0
SCALE
  5
58
102
{ACAD_REACTORS
330
47
102
}
330
47
100
AcDbScale
 70
     0
300
100:1
140
100.0
141
1.0
290
     0
  0
ENDSEC
  0
EOF
